<svg xmlns="http://www.w3.org/2000/svg" viewBox="0 0 649.46 814.51"><defs><style>.cls-1{fill:#ff4344;opacity:0.4;}.cls-2{fill:#ffd1d1;}.cls-3,.cls-7,.cls-9{opacity:0.8;}.cls-10,.cls-4,.cls-7{fill:#00008c;}.cls-5,.cls-8{fill:#fff;}.cls-10,.cls-5{opacity:0.2;}.cls-6{fill:#1b1b1b;}.cls-9{fill:#9797ea;}.cls-11{fill:none;}</style></defs><title>Asset 192</title><g id="Layer_2" data-name="Layer 2"><g id="Layer_1-2" data-name="Layer 1"><path class="cls-1" d="M320.62,209.45c44.63-4.71,93.76-2.2,128.37,24.9,32.32,25.32,44.91,66.37,53.92,105.19a1248.77,1248.77,0,0,1,29.26,193.93c3.21,45.25,3.6,92.42-15.95,133.82-17.21,36.44-48.47,65.23-81.59,89.91-37.76,28.14-80.94,52.87-128.8,56.77-58.12,4.73-114.41-22.08-160-56.57-72-54.51-126.61-132-141.76-218.2C-7.51,473.28,5.64,402.72,43.14,345.85c34.94-53,90.59-83.06,150.85-106A504.67,504.67,0,0,1,320.62,209.45Z"/><path class="cls-2" d="M98.05,345.31c-6.82,28.12-11.73,57.4-10.38,86.74S97.13,491,113.48,512.1c22.39,28.93,56.2,38,88,43.92,60.24,11.2,121.69,16.14,182,5.89s119.77-36.33,168.16-82.56,85-113.67,95.07-188.75-8.51-157.06-53.06-209C566.56,50,531.45,30.55,495.4,19.32c-34-10.58-76.88-22.07-112-18.73-30.89,2.93-65.69,27.72-92.13,46.49-58.58,41.58-109,101-145.78,171.6A561.72,561.72,0,0,0,98.05,345.31Z"/><g class="cls-3"><path class="cls-4" d="M317.8,135.19v0S317.77,135.19,317.8,135.19Z"/><path class="cls-4" d="M414.87,662.14c.1-.37.18-.75.29-1.11a39.65,39.65,0,0,0,1.4-4.37c3.53,1,5.39,6.76,5.85,10.13.64,4.73,1,9.69,1.76,14.41,1.25,8.17.77,16.6.77,24.93v6.79a25,25,0,0,0,0,3c.27,2,.89,1.83,2.75,2.71,2.54,1.21,3,1.48,5.82.88a8.38,8.38,0,0,1,4.25.21c3.2.78,6.11.82,6.8-3a22.15,22.15,0,0,0-.23-7,39.36,39.36,0,0,1-.67-7.46c0-3,.87-5.7.85-8.73,0-2.62,0-5.23,0-7.85,0-3,.36-6.17-.17-9.11-.68-3.7-2.68-7.23-3.28-10.87-.15-.91-.16-1.74-.38-2.55a3,3,0,0,1,0-2.52c.76-2.73.21-5.87.6-8.8,1-7.49,2.5-15.46,5.78-22.33.5-1,1.07-2.06,1.65-3.06C434.07,634.2,418.42,645.58,414.87,662.14Z"/><path class="cls-4" d="M336.9,664.85c-11.93,2.55-16.19,17.89-19.6,29-3.76,13.54-12.16,25.08-17.59,38.14l.24,0c1.87.33,2.92.93,5,.91,1.88,0,3.77,0,5.65,0a88.13,88.13,0,0,1,17.26,1.63c.32-1,0-1.92.19-2.9s1.07-1.93,1.45-3a58.34,58.34,0,0,1,2.74-6.38c2.13-4.23,3-8.86,4.91-13.2.63-1.41,1.28-2.78,1.89-4.18.45-1,.7-2.19,1.06-3.26a13.35,13.35,0,0,0,.59-2.74c.41-2.52,1.8-5.08,2.39-7.61a33,33,0,0,0,1.09-5.64,19.69,19.69,0,0,1,0-3.26c.19-.79.69-1.21.8-2.18a13.59,13.59,0,0,0,0-3,13.77,13.77,0,0,0-1.92-5.34,29.51,29.51,0,0,1-3-4.44,8.22,8.22,0,0,1-.85-2.86A11.62,11.62,0,0,0,336.9,664.85Z"/><path class="cls-4" d="M487.2,415.42c-.46-5.23.1-10.46-.38-15.69-.44-4.82-.69-9.45-.66-14.3a181.57,181.57,0,0,0-1.67-22.68c-1.93-16.05-6.5-31.91-12.34-47-2.57-6.64-4-13.65-6.83-20.18-2-4.65-3.12-9.67-5.31-14.17-1.08-2.23-1.47-4.7-2.41-7a19.58,19.58,0,0,0-3.75-5.37c-1.57-1.81-2.42-4-3.83-5.9a49.51,49.51,0,0,1-4.42-7.26c-3.74-7.32-9.84-13.5-15.66-19.26-3.23-3.19-5.15-6.58-7.57-10.33a46.35,46.35,0,0,1-4-8.68c-1.87-4.84-.3-8.64-.21-13.58a39.47,39.47,0,0,1,1.25-8.57c.32-1.24.7-2.72,1.07-4.08.26-1,1.15-2.26,1.19-3.24a12.89,12.89,0,0,0,2.52-2.35c.61-1.14,1.31-3.09,2.62-3.76,1.95-1,3.06-.1,4.51-2.27a37.87,37.87,0,0,0,3.8-6.4c.5-1.19,1.5-2.16,1.79-3.4.18-.77-.21-1.71-.11-2.51a56.67,56.67,0,0,0,.89-7c0-2,.46-4.68.07-6.61-.36-1.75-2.33-4.37-3.25-6-1.55-2.71-2.89-6.93-5.68-8.84-2.24-1.53-5.72.77-7.54-1.26-1.28-1.42-2.61-5.43-3.08-7.27-1.08-4.24-2.42-10.13-6-13.23a28.91,28.91,0,0,0-3.79-2.94,24.3,24.3,0,0,0-6.22-2.31,7.5,7.5,0,0,0-2.31-.67c-1.14-.06-2.3.09-3.44,0-3.36-.16-6.51-.89-9.93-.88-3.59,0-5.08-.28-8.12-1.94a15.15,15.15,0,0,0-1.89-1c-.81-.29-2.27-.26-2.79-1.12a12.52,12.52,0,0,1-3.6.67c-1.68.18-2.89.93-4.67.88s-2.65.62-4.25.9a29.9,29.9,0,0,1-4.73,0c-2.08,0-5.12.62-7-.17-1.38-.58-1.77-1.47-3.55-1.55a17.85,17.85,0,0,0-4.68.08,9.1,9.1,0,0,0-1.93,1c-.71.34-1.19.29-1.91.59a43.19,43.19,0,0,0-15.12,11.12,9.65,9.65,0,0,0-2.71,6.76c.05,2.64-1.83,5.6-.72,8.19-.15,0-.88.34-1,.35-.05.21-.1.43-.14.65-3.23.55-5.8,2.4-8.09,4.59-3.12,3-6.27,5.36-6.22,10,.07,5.51-1.33,13.47,3.36,17.19A18.37,18.37,0,0,1,310,170.2c.83,1.07,1.22,2.74,2.1,3.9,1.76,2.3,4,3.73,4.07,7,.13,4.5,3.67,6.06,6,9.54,1.24,1.88,1.48,3.82,1.84,5.91.55,3.1,1.56,6.14,2.18,9.25.67,3.35,1.91,6.17,1.89,9.5,0,4.53-.12,9.09,0,13.62a32.5,32.5,0,0,0,.87,4.86c.43,2.64.57,5.14.78,7.81-.1.34-.19.68-.27,1-.34,1.42-.86,2.82-1.11,4.25a30.09,30.09,0,0,0,0,4.84c0,3.67-.18,7.38,0,11a15.27,15.27,0,0,0,2.21,6.75c0,.57.08,1.11.08,1.56,0,2.08.57,3.34.89,5.29.09.53-.21,1.21-.09,1.74.24,1,.78,1.31.92,2.49.39,3.18,1.52,6.32,1.72,9.71.19,3.14-.46,6.38.15,9.49a40.59,40.59,0,0,1,.66,8.26v21c0,2.81.1,5.64.27,8.47-1,.89-2.08,1.78-3,2.75a32.17,32.17,0,0,1-3.2,3.4,42.36,42.36,0,0,0-5.9,6.07c-3,3.51-6.26,6.81-9.26,10.34a105,105,0,0,0-6.82,9.68c-1.12,1.65-2,3.36-3.11,5.08-1.48,2.23-4.21,5.25-4.43,8.07-.08,1.06.55,2.44.73,3.52a17.46,17.46,0,0,0,1.17,3.74,24.21,24.21,0,0,1,2.16,6.37,25.3,25.3,0,0,0,1.5,4.89c1,3,1.82,6,2.7,9,.67,2.3,1,5.21,2,7.39s1.39,4.48,2.28,6.76a51.44,51.44,0,0,0,2.3,5.6,20.73,20.73,0,0,1,1.53,3.45,39.69,39.69,0,0,1,1.15,4.41c.28,1.7-.08,3.42.25,5.1.54,2.78.32,5.67,1,8.41.39,1.58.78,3.4,1.28,5,.38,1.18,1.14,2.27,1.44,3.48.42,1.68.34,3.39.82,5.12a18.48,18.48,0,0,0,1.72,4.31c1.22,1.93,3.76,2.7,5,4.57-.07-.83.46-1.54.58-2.35a24.79,24.79,0,0,1-.05-2.58c.31-1.27,1.32-2.89,1.16-4.33-.17,1.29,1.28,3.15,2.14,4,1.45-1.19,1.33-3.69,1.81-5.34.22-.74.39-1.53.65-2.27a70.75,70.75,0,0,1-1.52,8.68,20.7,20.7,0,0,0-.83,5.53,36.34,36.34,0,0,1-.64,6.54c-.64,3.58-.13,7.2-.81,10.84-.84,4.46-1.43,9.13-2.79,13.46-4,12.85-6.66,26.7-14.4,38-1.36,2-2.85,3.88-4.09,5.93-1,1.7-1.3,3.41-2.52,5a29.82,29.82,0,0,0-2.38,3.2c-3.15,5.45-6.12,11-9.17,16.56-4.33,7.85-3.49,16.61-1.69,25.21,1.18,5.64,4,10.89,5.32,16.42a84.05,84.05,0,0,0,3.64,12.09c1.6,3.88,3.21,8,5.1,11.71a36.39,36.39,0,0,1,2.57,6.19,38.61,38.61,0,0,1,1.49,5.69c.55,4.17,0,8.78,0,13,0,1.51.07,3,0,4.55s-.72,2.79-.91,4.4c-.11.92.2,1.89.07,2.8a18.06,18.06,0,0,1-.9,2.66,54.91,54.91,0,0,0-1.68,13.46,17,17,0,0,1-.66,5.1c-.27.94-.08,1.74-.33,2.7-.44,1.67-1.62,2.9-1.64,4.71a4.78,4.78,0,0,1,.93-1.46c.19,1.26-1.38,5.18-1.69,6.34a34.78,34.78,0,0,1-1.9,5.8c-.84,1.77-2.19,3.19-3.07,4.92-.71,1.41-.21,2-2.26,1.59-2.61-.55-4.42-3.56-6.91-1.68-.85.64-3.77,4.52-3.61,5.67.27,1.93,4.41,3.06,5.88,3.72a25.94,25.94,0,0,0,6.52,1.61c5.43-13.06,13.83-24.6,17.59-38.14,3.41-11.08,7.67-26.42,19.6-29a11.62,11.62,0,0,1,2.37-.28c-.13-1.08-.11-2.16-.29-3.48-1-7.32,0-15,1.1-22.21.85-5.65,2.11-11.33,2.43-17,.14-2.64-.09-4.85.78-7.15,1-2.75,2.24-5.79,3.45-8.59.84-1.94.69-2.07,2.46-2.45,1.35-.3,2.93.1,4.32,0,6.69-.35,13.1-3.61,19.87-3.47,2.26,0,8.19,2.31,8.1,5-1.6.66-.7,5.9-.95,7.43a56.12,56.12,0,0,0-.64,10.12,117.86,117.86,0,0,1-1.09,14.28c-.72,6.42-1.22,12.89-3.17,19.07-2,6.35-4.1,12.64-5.78,19.09-1,3.75-.76,7.61-1.25,11.41a77.86,77.86,0,0,0-.64,10.56c0,1.69.07,3.4,0,5.09-.06,2.1-.84,3.85-.89,6-.07,3.26,0,6.53,0,9.79,0,1.27,0,2.54,0,3.82a10.88,10.88,0,0,0,.66,3.59c.58,2.07.52,4,1.64,5.95a12,12,0,0,0,5.34,4.5c2.94,1.09,6.95,1.28,10.21,1.26,4.39,0,8.79,0,13.19,0,4,0,7.76.74,11.34-1.23,4.49-2.48,7.52-3.89,12.64-3.87,2.82,0,5.62-.24,8.37.43,2.4.57,4.77.26,7.2.81,4.67,1,7.89,3.64,10.62,7.45a11.59,11.59,0,0,1,2.32,5.1,10.06,10.06,0,0,1,0,5.78c-.68,3-2.27,6.41-5,8.28-1.92,1.3-3.72,3-5.8,4.1a22.21,22.21,0,0,1-8.43,2.27,56.78,56.78,0,0,1-9.4.67c-2.85-.11-5.61-.73-8.49-.85-3.22-.15-6.31-.78-9.57-.85a56.09,56.09,0,0,1-5.75-.71c-2.36-.28-1.1.17-2.94.5-3.11.55-5.43.23-7.89,2.52-2.05,1.92-2.34,3.44-2.34,6.16s.3,4.08,2.89,5.47c2.1,1.12,5.57.49,8,.49A30.08,30.08,0,0,0,403,779c5.78-1.36,11.87-.56,17.65-1.88,5.38-1.24,10.63-1.89,15.88-3.41,4.1-1.19,8-1.39,11.75-3.43,1.54-.84,3.72-1.5,5.1-2.58.95-.73,1.41-1.86,2.25-2.71,1.21-1.23,2.77-2,4-3.23,3-2.94,4.47-6.81,6.11-10.54,1.84-4.18.85-9.5.06-13.69a8.71,8.71,0,0,0-4.52-6.38c-3.49-2.1-7.51-2.95-11.27-4.33-4.6-1.69-8.68-3.49-13.63-4.07-2.22-.26-4.37-.85-6.51-1-3.61-.25-7.23,1-10.85.93-1.45,0-4.21.49-5.53-.08a14.69,14.69,0,0,1-2.58-2.12c-2.62-2.17-5.71-6.27-6.34-9.68A24.83,24.83,0,0,1,405.89,698a18.52,18.52,0,0,0,2-8c.15-6.33,3.63-13.18,5.05-19.33.65-2.81,1.17-5.71,1.9-8.49,3.55-16.56,19.2-27.94,33.83-35.67.55-1,1.12-1.91,1.64-2.9.72-1.36,1.14-2.8,1.91-4.14,1.31-2.25,3.34-3.95,4.86-6.06,2.81-3.91,3.39-9.28,5.47-13.6a73.44,73.44,0,0,0,4-11.67c1-3.43,2.22-6.78,3.42-10.14,1.29-3.59,1.78-7.36,2.93-11a165.87,165.87,0,0,0,6.24-26.27c1.27-9,.86-18.09,2.29-27.09,1.19-7.41,2.36-14.81,3.4-22.24a95.66,95.66,0,0,0,1.3-12.74c0-4.11.73-8.09.88-12.17C487.65,449.49,488.7,432.42,487.2,415.42ZM421.5,188.34a14.43,14.43,0,0,1-1.66,2.08C419.84,189.85,420.61,189.1,421.5,188.34Zm-77.34,235c0,2.84-.79,4.79-1.69,7.5-1.22,3.7-1.69,7.58-2.91,11.31-1,3-2.05,5.89-2.93,8.85,0-4.21.16-8.44.16-12.62,0-1.58.17-3.25,0-4.82-.08-.89-.49-1.69-.61-2.58s.15-1.69.05-2.51c-.67-5.27-2.8-9.87-4.84-14.75-.86-2-1.64-4-2.69-6a9.4,9.4,0,0,1-1-1.66c-.22-.8-.06-1.75-.26-2.58-.36-1.49-.25-2.42-1.42-3.56-.94-.92-1.94-2.07-1.6-3.53.75-3.19,4.07-5.62,6.52-7.34s4.77-3.18,7.22-4.58c.89-.51,1.79-.94,2.7-1.38.3,2.49.91,5.08,1.39,7.51,1.22,6.12.91,12,1,18.22,0,2.49.88,4.77.89,7.27S344.11,421,344.16,423.38Z"/></g><path class="cls-5" d="M368.13,156.51c-.66,0-1.27.77-1.78,1.13a24,24,0,0,1-2.35,1.5,40.8,40.8,0,0,0-6.65,4.17,18.77,18.77,0,0,0-3.61,3.4,14.53,14.53,0,0,0-2.51,4.59c-.5,1.74-.91,4.11.42,5.63.64.73,1.34,1.31,2,2.06a13.29,13.29,0,0,0,2.51,2.08,15.82,15.82,0,0,0,4.09,2c1.55.57,3.42.28,5.09.28H376c2.14,0,4.27,0,6.41,0a12.23,12.23,0,0,0,4.56-.74,16.16,16.16,0,0,1,2.54-1,6.72,6.72,0,0,0,2.38-1.25,20.46,20.46,0,0,0,3.44-3c1.16-1.36.79-3.42.79-5.08a34.21,34.21,0,0,0-.38-5.55c-.72-4.39-6.29-5.48-9.78-6.77-1.86-.69-3.79-1.12-5.65-1.81a30.92,30.92,0,0,0-2.93-1C375,156.45,372.48,156.51,368.13,156.51Z"/><path class="cls-5" d="M342.93,288.26c.46,1.23,1.82,3.24,2.44,5.05a18.44,18.44,0,0,0,.41,4.85,15.63,15.63,0,0,1,.75,2.78c.08,1-.18,2-.06,3a31.73,31.73,0,0,1,.59,3.51c0,1.85,0,3.7,0,5.54a34.56,34.56,0,0,0,0,3.67c.07.7.68,1.49.65,2.16a7.91,7.91,0,0,1-.64,1.69,33.84,33.84,0,0,1-3.33,7.76c-.64,1.09-1.75,2-2.49,3a15,15,0,0,1-1.83,2.28c-.9.86-1.78,1.77-2.73,2.59-1.52,1.33-3.13,2.62-4.54,4.06a32.17,32.17,0,0,1-3.2,3.4,42.36,42.36,0,0,0-5.9,6.07c-3,3.51-6.26,6.81-9.26,10.34a105,105,0,0,0-6.82,9.68c-1.12,1.65-2,3.36-3.11,5.08-1.48,2.23-4.21,5.25-4.43,8.07-.08,1.06.55,2.44.73,3.52a17.46,17.46,0,0,0,1.17,3.74,24.21,24.21,0,0,1,2.16,6.37,25.3,25.3,0,0,0,1.5,4.89c1,3,1.82,6,2.7,9,.67,2.3,1,5.21,2,7.39s1.39,4.48,2.28,6.76a51.44,51.44,0,0,0,2.3,5.6,20.73,20.73,0,0,1,1.53,3.45A39.69,39.69,0,0,1,316.9,438c.28,1.7-.08,3.42.25,5.1.54,2.78.32,5.67,1,8.41.39,1.58.78,3.4,1.28,5,.38,1.18,1.14,2.27,1.44,3.48.42,1.68.34,3.39.82,5.12a18.48,18.48,0,0,0,1.72,4.31c1.22,1.93,3.76,2.7,5,4.57-.07-.83.46-1.54.58-2.35a24.79,24.79,0,0,1-.05-2.58c.31-1.27,1.32-2.89,1.16-4.33-.17,1.29,1.28,3.15,2.14,4,1.45-1.19,1.33-3.69,1.81-5.34s.71-3.21,1.87-4.37c.55.58.33,1.4,1,1.9-.43-7.43,0-15,0-22.47,0-1.58.17-3.25,0-4.82-.08-.89-.49-1.69-.61-2.58s.15-1.69.05-2.51c-.67-5.27-2.8-9.87-4.84-14.75-.86-2-1.64-4-2.69-6a9.4,9.4,0,0,1-1-1.66c-.22-.8-.06-1.75-.26-2.58-.36-1.49-.25-2.42-1.42-3.56-.94-.92-1.94-2.07-1.6-3.53.75-3.19,4.07-5.62,6.52-7.34s4.77-3.18,7.22-4.58c2.14-1.22,4.4-2,6.46-3.4,6.14-4.07,11-11.06,18.34-13,4.89-1.33,8.88-4,13.12-6.65a59.1,59.1,0,0,0,6.64-4.45c1.19-1,2.9-1.36,4.22-2.23,1.66-1.09,3.37-2.19,5-3.34,1.82-1.3,3.27-3,5-4.44s2.77-3.29,4.54-4.66a43.61,43.61,0,0,0,4.81-4c1.07-1.09,2.87-2.34,3.59-3.71a6,6,0,0,1,.78-1.51,27.72,27.72,0,0,1,2.26-1.93,22.53,22.53,0,0,0,5.12-9.12c1.06-3.45-.78-6.28-.72-9.77,0-2.53-.43-5.4.16-7.88.84-3.53,2.93-6.62,4-10.07,2.25-7,.56-14.17,1.9-21.23.74-3.93,1.63-8.18,1.31-12.19-.92-11.56-11.42-17.88-17.88-26.28a52.89,52.89,0,0,0-8.8-9.44c-1.29-1-2.76-1.12-4.3-1.63-3.25-1.07-6.59-1.35-9.95-1.94-.85.18-.79-1.3-1.57-1.49-1.22-.31-2.7-.44-4-.71-3.11-.66-6.39-.4-9.55-.85a15.65,15.65,0,0,0-2.46-.12,23.79,23.79,0,0,0-4.91.43,30.15,30.15,0,0,1-3.92.1,42.29,42.29,0,0,0-6,1.18c-1.55.35-3.17.28-4.69.64a9.92,9.92,0,0,0-2.2,1.06,9.64,9.64,0,0,1-2.75.68,9.14,9.14,0,0,0-3.95,2.25c-2,1.81-3.25,4.58-4.42,7a56.34,56.34,0,0,0-4,10.74c-.34,1.42-.86,2.82-1.11,4.25a30.09,30.09,0,0,0,0,4.84c0,3.67-.18,7.38,0,11,.22,5.17,4.23,9.55,6.57,13.91a39.94,39.94,0,0,0,3.06,4.78C339.12,283,342.24,286.41,342.93,288.26Z"/><path class="cls-6" d="M315,139.41c-.73,0-1.31,1.13-1.68,1.6a30.14,30.14,0,0,0-2.5,3.91,9.52,9.52,0,0,0-1.17,2.18c-.06.26,0,.5-.06.76-.24.69-.84,1.26-1.07,2a20.34,20.34,0,0,0-.48,2.19,20.87,20.87,0,0,0-.14,4.54c0,.77.2,1.49.27,2.25.05.58,0,1.16,0,1.73a15.19,15.19,0,0,0,.56,2c.18.7.24,1.43.44,2.13s.83,2.67,1.51,3a8.08,8.08,0,0,0,2.83-2.12c1.25-1.33,1.44-3.32,2-5a44.33,44.33,0,0,0,2.52-10.76c.16-2-.3-4-.27-6,0-1-.25-1.91-.28-2.9,0-.47.2-1.31-.05-1.7-.47-.75-2-.32-2.75-.36C315.07,138.89,315.34,139,315,139.41Z"/><path class="cls-6" d="M427,144.79c-.34,0-.91.45-1.2.63a4,4,0,0,0-1.51,1.56c-1.11,1.94-.8,4.54-.5,6.65.42,2.89,1.48,5.74,1.52,8.68a17,17,0,0,0,.51,3.26,16.24,16.24,0,0,1,.05,2.79,29,29,0,0,1-.92,7.13,10.9,10.9,0,0,0-.51,2.45c0,.92,0,1.85,0,2.77s-.58,4,1.09,2.89a24.29,24.29,0,0,0,3.14-2c.87-.81.75-1.62,1.14-2.65.7-1.82,1.8-3.42,2.57-5.2.92-2.13,1.45-4.49,2.77-6.42.92-1.36,1-3.09,1.48-4.61a9.07,9.07,0,0,0-.15-5.31c-.52-2-.63-3.94-1.39-5.87a22.82,22.82,0,0,0-1.59-2.64,15.59,15.59,0,0,0-1.2-1.9,4.22,4.22,0,0,0-4.57-2.83C426.94,144,426,143.61,427,144.79Z"/><path class="cls-6" d="M377.11,159.81a12.18,12.18,0,0,1-2.26-.06,5.49,5.49,0,0,0-2.48-.16c-.28.07-.69.33-1,.42a8.09,8.09,0,0,0-2.27,1,12.31,12.31,0,0,0-2.6,2c-1.18,1.31-.67,2.53.63,3.58a7.9,7.9,0,0,0,3.34,1.37,2,2,0,0,0,2.21-1.09,2.34,2.34,0,0,1,1.07,2.53,2,2,0,0,1-2,1.4,3.53,3.53,0,0,1-1.34,0c-.05,0-.31-.38-.4-.45-.37-.28-1.05-.57-1.46-.86-.61-.43-1-.89-1.62-.36a3.62,3.62,0,0,0-1,1.57,10.73,10.73,0,0,0-.41,3.35,11.63,11.63,0,0,0,.5,4.19c.52,1.46,1.54,1.93,3.08,2.19a10,10,0,0,0,2.95.07c.63-.13,1.12-.64,1.74-.81a8.34,8.34,0,0,1,4.48.3,8.71,8.71,0,0,0,4.1.53,3.83,3.83,0,0,0,1.58-.59,9.46,9.46,0,0,1,.89-.77,3.41,3.41,0,0,0,1.05-.8c.29-.39.34-.81.59-1.21.14-.23.39-.41.53-.65a5.73,5.73,0,0,0,.63-1.91,1.75,1.75,0,0,0-.28-1.41c-.17-.18-.52-.3-.73-.48a6.31,6.31,0,0,0-.71-.66,3.64,3.64,0,0,0-1.35-.41c-.05,0-.21-.2-.32-.23a2.88,2.88,0,0,0-1.51.23c-1.25.27-1.88-.32-1.92-1.52,0-.66-.2-1.08.41-1.26s1.31.22,1.93.31c.39.06.8,0,1.2.06a1.67,1.67,0,0,0,1.3-.13,5,5,0,0,0,1.36-1.87,6.09,6.09,0,0,0-1-5,9.26,9.26,0,0,0-4.35-2.91A6.51,6.51,0,0,0,377.11,159.81Z"/><path class="cls-7" d="M352.73,116.45c1.94-.06,3.85.79,5.72,1.2,2.48.55,5.11.58,7.54,1.35.8.25,1.56.61,2.39.79,1.36.29,2.72.63,4.09.85a9.18,9.18,0,0,0,2.11.3c.7-.09,1.48-.58,2.19-.74,1.16-.25,2.34-.32,3.49-.63a38.44,38.44,0,0,1,6.13-.92,16.75,16.75,0,0,1,4-.16,6.92,6.92,0,0,0,2,.17c.39-.06,1-.13,1.34-.22s.69,0,.67-.56c0-1-2.1-1.72-2.76-2-3.35-1.36-7.44-.86-11-.86h-6.25a7.93,7.93,0,0,1-2.92-.28,22.83,22.83,0,0,0-4.17-1.36,14.37,14.37,0,0,0-2.54,0c-1,0-1.82-.26-2.78-.31a54.91,54.91,0,0,0-7.25.44c-.92.09-1.85.17-2.76.35-.75.15-2.08.07-2.65.63.15.65,1.05.87,1.56,1.15A4,4,0,0,0,352.73,116.45Z"/><path class="cls-7" d="M402.33,135.72a11.42,11.42,0,0,1-2.3-.3c-1.51-.06-3,0-4.56,0a6,6,0,0,0-2.21.16,23.72,23.72,0,0,0-2.72,1,8.93,8.93,0,0,0-1.72,1.19c-.57.52-1.52,1-1.9,1.66a4.4,4.4,0,0,0-.32,1c-.09.34-.29.77-.36,1a7.6,7.6,0,0,0-.3,3.11c.39,2.09,2.28,4,3.73,5.43,1.25,1.24,2.6,2.36,3.87,3.58a20.77,20.77,0,0,1,3.35,3.41c.64,1,1.06,2.21,1.62,3.26a11.2,11.2,0,0,0,3.12,4,9.57,9.57,0,0,0,2.84,1.74c1,.26,3-.2,3.47-1.29.34-.82.29-1.77.62-2.6a21,21,0,0,1,.87-1.93c.46-.86,1.17-1.53,1.67-2.37a9.65,9.65,0,0,0,.43-.92,11.11,11.11,0,0,1,1.45-2.15,14.82,14.82,0,0,0,1.11-1.93c.4-.74.92-1.46,1.27-2.22a6.89,6.89,0,0,0,.25-3.82c-.48-1.87-2.07-3.34-3.51-4.49-1.18-.94-2.3-1.88-3.54-2.77-1-.7-1.78-1.49-2.71-2.26A8.67,8.67,0,0,0,402.33,135.72Z"/><path class="cls-7" d="M355.85,133.45a75.09,75.09,0,0,0-12-1.42H340a14.15,14.15,0,0,0-2.52,0,4.76,4.76,0,0,0-2,.93c-.59.43-1.67.82-2.21,1.29-.37.34-.34.82-.47,1.27a7.39,7.39,0,0,1-1,1.79,5.89,5.89,0,0,1-2.35,2.11c-.4.22-.71.56-1.12.79a5,5,0,0,0-1.09.63,3.05,3.05,0,0,0-.33,1.62,2.79,2.79,0,0,0,.61,2.36c1,1.06,2.34,1.18,3.61,1.7,1.84.76,2.93,2.27,4.16,3.81a33.47,33.47,0,0,1,2.62,4.13,20.89,20.89,0,0,1,1.88,4,10.6,10.6,0,0,1,.44,3.4,5.32,5.32,0,0,0,0,1.13c.06.33.3.52.24.88a6.14,6.14,0,0,1,2.24-.6,8.72,8.72,0,0,0,2.74-1,9.39,9.39,0,0,0,2.13-2c.51-.59.54-1.28.91-1.93a5.8,5.8,0,0,1,1.36-1.48c.58-.53.9-1.2,1.79-1.16s1.46.63,2.32.62c1.08,0,1.43-.83,2-1.59a64.76,64.76,0,0,0,4.41-5.61,8.84,8.84,0,0,0,1.62-3.65c.14-1.32-.31-2.7-.29-4.05a6.17,6.17,0,0,0-1.61-4.39,8.32,8.32,0,0,0-2.34-1.92C356.88,134.68,355.59,134.4,355.85,133.45Z"/><path class="cls-8" d="M370.87,159.53a2,2,0,0,0-1.41.55,18.76,18.76,0,0,1-1.63,1.28c-.62.41-1.28.76-1.22,1.58,0,.35.11.81.56.87s.78-.43,1.07-.67.88-.49,1.28-.83a19.73,19.73,0,0,1,1.62-1.43,7.57,7.57,0,0,1,2.44-1,7.32,7.32,0,0,1,3.8-.07c.5.11,1.47.33,1.17-.58-.13-.38-.65-.56-1-.7a8.8,8.8,0,0,0-3.24-.7,11.78,11.78,0,0,0-2.44.28c-.76.15-1.27.69-2,.87l.2,0"/><path class="cls-9" d="M422.46,145.92a6.1,6.1,0,0,1,4-1.15c1.83.19,3.3,1.46,5,2,1.05-1,1.58-2,.8-3.36a5.6,5.6,0,0,0-2.58-2.05c-.84-.44-1.58-1-2.39-1.47a7.15,7.15,0,0,0-2.59-.75c-.62,0-1.38.62-1.94.91-1.65.84-1.72,2.57-1.72,4.21"/><path class="cls-9" d="M320.71,136.29a7,7,0,0,0-4.12-2,3.49,3.49,0,0,0-1.7.1c-.72.28-.7.6-.7,1.29,0,1.74,1.2,1.71,2.64,1.7a3.07,3.07,0,0,1,1.77.29c.53.32,1.46,1.79,2,1.69a3.9,3.9,0,0,0,.34-2.26"/><path class="cls-7" d="M354.72,186.17c.42-.67,1.3-.63,2-.84a19.27,19.27,0,0,1,2.38-.73c.76-.14,1.52-.2,2.28-.33a8.08,8.08,0,0,1,2.79-.32c1.28.23,2.51.82,3.8,1a25,25,0,0,0,5,.08c.93-.05,1.84-.25,2.78-.3a12.69,12.69,0,0,0,2.6-.34c1.68-.42,3.2-1.34,5-1.37s3.51.81,5.27,1.21c.52.12,2.74.7,2.72,1.53s-2.82.32-3.21.38a5.57,5.57,0,0,0-1.09.36c-1.09.36-2.3.53-3.42.85-.66.19-1.23.53-1.88.73a18.47,18.47,0,0,1-3,.57c-2.17.25-4.34,0-6.51.27a14.17,14.17,0,0,1-5.31-.29,10.93,10.93,0,0,1-3-1.05,9.67,9.67,0,0,0-3.14-1.66,9.82,9.82,0,0,0-2.1-.05,6.16,6.16,0,0,1-2.1,0C356.43,185.46,356.49,185,354.72,186.17Z"/><path class="cls-6" d="M397,138a7,7,0,0,0-4,.84,8.26,8.26,0,0,0-2.62,2.95c-1.26,2.32-1,5.75.08,8.06.82,1.78,2.64,2.67,4.23,3.67a8.42,8.42,0,0,0,7,1.17,7,7,0,0,0,2.39-1.23,42.55,42.55,0,0,0,3-3.42,5.48,5.48,0,0,0,1.86-3.84,5,5,0,0,0-.86-2.6,9.77,9.77,0,0,0-1.7-2.27,4.14,4.14,0,0,0-1.37-.7c-.59-.28-1.05-.68-1.67-.94-1.3-.55-2.72-.93-4-1.41-.72-.25-1.46-.36-2.19-.56S395.43,137,397,138Z"/><path class="cls-6" d="M346.5,137.7c-1,0-2-.08-2.92,0-1.24.08-2.9,1.26-3.83,2-1.33,1.06-3,2.84-3.19,4.6a9.58,9.58,0,0,0,2,6.15c2.28,2.93,5.94,3.42,9.46,3.41,2.48,0,4.66,0,6.12-2.33a10.9,10.9,0,0,0,1.63-3.25c.11-.55,0-1.1.12-1.65a4.39,4.39,0,0,0,.17-1.9,10.56,10.56,0,0,0-2.21-4.84,4.46,4.46,0,0,0-2.75-1.54c-.78-.15-1.51-.42-2.29-.58-.47-.1-1.8-.55-2.3-.31Z"/><path class="cls-4" d="M414.87,662.14c.1-.37.18-.75.29-1.11a39.65,39.65,0,0,0,1.4-4.37c3.53,1,5.39,6.76,5.85,10.13.64,4.73,1,9.69,1.76,14.41,1.25,8.17.77,16.6.77,24.93v6.79a25,25,0,0,0,0,3c.27,2,.89,1.83,2.75,2.71,2.54,1.21,3,1.48,5.82.88a8.38,8.38,0,0,1,4.25.21c3.2.78,6.11.82,6.8-3a22.15,22.15,0,0,0-.23-7,39.36,39.36,0,0,1-.67-7.46c0-3,.87-5.7.85-8.73,0-2.62,0-5.23,0-7.85,0-3,.36-6.17-.17-9.11-.68-3.7-2.68-7.23-3.28-10.87-.15-.91-.16-1.74-.38-2.55a3,3,0,0,1,0-2.52c.76-2.73.21-5.87.6-8.8,1-7.49,2.5-15.46,5.78-22.33.5-1,1.07-2.06,1.65-3.06C434.07,634.2,418.42,645.58,414.87,662.14Z"/><path class="cls-4" d="M336.9,664.85c-11.93,2.55-16.19,17.89-19.6,29-3.76,13.54-12.16,25.08-17.59,38.14l.24,0c1.87.33,2.92.93,5,.91,1.88,0,3.77,0,5.65,0a88.13,88.13,0,0,1,17.26,1.63c.32-1,0-1.92.19-2.9s1.07-1.93,1.45-3a58.34,58.34,0,0,1,2.74-6.38c2.13-4.23,3-8.86,4.91-13.2.63-1.41,1.28-2.78,1.89-4.18.45-1,.7-2.19,1.06-3.26a13.35,13.35,0,0,0,.59-2.74c.41-2.52,1.8-5.08,2.39-7.61a33,33,0,0,0,1.09-5.64,19.69,19.69,0,0,1,0-3.26c.19-.79.69-1.21.8-2.18a13.59,13.59,0,0,0,0-3,13.77,13.77,0,0,0-1.92-5.34,29.51,29.51,0,0,1-3-4.44,8.22,8.22,0,0,1-.85-2.86A11.62,11.62,0,0,0,336.9,664.85Z"/><path class="cls-4" d="M325.24,396.47c-.67-.93-3.55-.78-4.56-.54-1.24.3-1.68,2.43-2,3.64-1,3.86,1.39,6.53,1.47,10.18a30.84,30.84,0,0,0,1.24,8.16,6,6,0,0,1,.44,1.23,17.14,17.14,0,0,1,0,2V429c0,3.49.52,6.81.57,10.3,0,1.89-.6,2.42-1.37,4.18a10.27,10.27,0,0,0-.9,4.61,5.41,5.41,0,0,0,.41,3c.31.53,1.36,1.42,1.35,2.11,0,.45-.54.67-.65,1.1a3.89,3.89,0,0,0,.15,1.73,37.34,37.34,0,0,0,.85,3.85,36.74,36.74,0,0,0,1.42,3.65,7.52,7.52,0,0,1,1,2.43,11,11,0,0,0,.06,1.81,14.37,14.37,0,0,0,3-3c.71-.92,1.43-1.6,2.19-2.46,1.62.31.43,3.5,2.58,3.25,0-1.43,1.85-3.43,2.52-4.63.8-1.42,2.15-3.28,2.14-4.95,0-1.37-.6-2.52-.59-4s0-3,0-4.53c0-1.95-.54-3.66-.58-5.57,0-1.54,0-3.1,0-4.64,0-3.46-1.08-6.77-1.13-10.2,0-.76,0-1.52,0-2.27a6.22,6.22,0,0,0-.44-1.83,35.52,35.52,0,0,0-.56-3.84c-.9-2.81-.86-5.76-1.82-8.53a13.58,13.58,0,0,0-1.86-3.22c-.47-.63-1.17-1.22-1.59-1.86s-.34-1-.66-1.57a32.53,32.53,0,0,1-1.7-4.11C325.74,398.59,324.57,397.85,325.24,396.47Z"/><path class="cls-8" d="M342.79,143.47c-.66-.09-.78-.39-1.26.18-.28.33-.89.74-1,1.19-.12.61.47,1.13.91,1.43a5.28,5.28,0,0,0,2.37,1c.41,0,.6-.32.79-.68a2.22,2.22,0,0,0-.1-1.85c-.13-.37-.45-1.25-.93-1.32"/><path class="cls-8" d="M404.17,145.52a1.28,1.28,0,0,0-1.1.48,1.08,1.08,0,0,0,.39,1.51,1.9,1.9,0,0,0,1.11.28c.39,0,.37,0,.58-.28.39-.5.41-1.64-.26-1.94l0,.12"/><path class="cls-5" d="M406.58,149.61c-.94.87-2.32,1-3.4,1.62a1.63,1.63,0,0,0-.8,1.79c.26.83,1.19.83,1.92.85,1.41,0,2.72-1.06,3.57-2.16.26-.34.72-1.3.37-1.76a2.5,2.5,0,0,0-1.66-.62"/><path class="cls-5" d="M344,149.89c-.7,0-1-1-1.48-1.43a5.73,5.73,0,0,0-1.81-1.13c-1.07-.35-2.8-.46-2.7,1.19.07,1.13,1,1.72,2,2.09a9.76,9.76,0,0,0,4.22,1c.62,0,.77-.16.67-.85A2.22,2.22,0,0,0,343.1,149"/><path class="cls-9" d="M336,126.08c2.56-3.13,8.12-3.38,11.75-4.12,3.47-.71,8.33-1,11.46,1.06a13.29,13.29,0,0,1,4.14,5.19c.12.31.29,1,.41,1.29s.62.7.64,1.09-.47,1-.58,1.45c-.14.65,0,1.27-.13,1.92-1.25.07-2.32-1.57-3.29-2.21a23.76,23.76,0,0,0-6-2.27,47.41,47.41,0,0,0-10.12-1.65c-1.54-.11-3.08,0-4.63,0-.76,0-2.82.57-3.22,0C336.49,127.38,336.71,127.18,336,126.08Z"/><path class="cls-9" d="M409.13,130.62a5.91,5.91,0,0,0-2.47-5.44c-.51-.43-.66-1-1.34-1.28s-1,0-1.58-.14a13.21,13.21,0,0,0-3.8-.51c-2.48,0-6.29-.77-8.5.51-2,1.15-3.86,3.81-3.22,6.21,1.89.6,3.76-.22,5.58-.51a40.33,40.33,0,0,1,5.71,0,21.16,21.16,0,0,1,5.42.7,16.72,16.72,0,0,0,4.2.43"/><path class="cls-9" d="M393.26,147.34c0,1.74,1.86,3,3.34,3.41a18.47,18.47,0,0,0,2.76.55c1.27.2,1,.87-.15.86a6,6,0,0,1-4.11-1.3,7.58,7.58,0,0,0-1-1,2.65,2.65,0,0,1-.79-.62,8.25,8.25,0,0,1-.31-1,2.66,2.66,0,0,1-.31-1.25"/><path class="cls-9" d="M353.58,146.77l-.23.06c-.05.65-.76,1.16-1.12,1.65a7.34,7.34,0,0,1-1.34,1.7,3.18,3.18,0,0,1-1.55.85,12.91,12.91,0,0,0-2,0c-.12.8,1.76.52,2.25.52a3.18,3.18,0,0,0,2.26-.63,4.88,4.88,0,0,0,1.17-2.06c.14-.38.39-.63.54-1a3,3,0,0,0,.28-1.15"/><path class="cls-10" d="M404.61,187c-1,0-2.15,1.27-3.05,1.71a21.47,21.47,0,0,1-3,1.43c-3.31,1-7,1.37-10.43,2-6.46,1.13-12.78,1.13-19.35,1.13-1.54,0-3.11.09-4.65,0-1.13-.06-1.16-.35-2.1-.61a12.39,12.39,0,0,0-2.35.06,13.79,13.79,0,0,1-2.45-.47c-1.41-.29-2.86.15-4.24-.1s-3.17-1.41-4.53-2-2.36-1.3-3.6-2c-1.5-.83-3-1.87-4.42-2.69-1-.56-1.84-1-2.78-.19a3.67,3.67,0,0,0-.58,4.33c1,2.08,2.23,2.91,1.63,5.36-.53,2.13-1.43,3.23-.6,5.54s2.7,2.66,4.93,3.53c2.71,1.05,4.42,2.71,6.59,4.53,2.73,2.29,6.16,4,9.19,5.82a27,27,0,0,0,7.77,2.83c2.05.51,4.38,1.43,6.54.94a11,11,0,0,1,5.38-.39,22.75,22.75,0,0,0,5.8.44c1.78,0,4.11-.32,5.55.89,1.2-1,1.37-3,2-4.32,1-2.2,2.09-4.22,3.14-6.38,1.61-3.31,5.09-5.77,8.48-7.2,2-.83,3.52-2.26,5.35-3.34,1.33-.78,2.34-2,3.59-2.91a11.77,11.77,0,0,0,3-2.72c1.5-2.1,5.87-5.48,5-8.55-1.69-.18-4.46,1.29-5.91,1.9-1.8.76-3.5,1.83-5.33,2.5-3.23,1.18-6.47.75-9.76,1.31C399.47,189.55,399.49,189.71,404.61,187Z"/><path class="cls-7" d="M395,135a8.07,8.07,0,0,0,2.42-.48c1.41-.26,2.83-.55,4.26-.67a8.24,8.24,0,0,0,2.87-1c.51-.22.34-.39.95,0a2.17,2.17,0,0,1,.57.64,13.26,13.26,0,0,0,.54,1.26c.18.24.48.43.67.65.75.85,1.85,3.83-.26,2.76a13.32,13.32,0,0,0-3-1.33,25.27,25.27,0,0,0-6-.67"/><path class="cls-7" d="M351.88,134.59a8.07,8.07,0,0,0-2.25-2.56c-.86-.73-1.4-1.79-2.27-2.59-2.08-1.92-4.95,2.21-7.16,2.58,0,1.49,3,1,3.86,1.14a9.13,9.13,0,0,0,2.15.29,8.36,8.36,0,0,1,2.6.07l.05.31"/><path class="cls-5" d="M364.92,148.19c0-1,.82-.94,1.43-1.46a7.08,7.08,0,0,0,1.4-1.95,8.05,8.05,0,0,1,1.72-1.81c.56-.54.73-1.15,1.38-1.61,2.48-1.72,6.35,0,8.52,1.38a30.17,30.17,0,0,1,6.38,5.61c1.69,1.91,3.31,3.85,5,5.79.95,1.11,3,6.28.27,6.58-1.6.17-4-1.87-5.22-2.77a11.15,11.15,0,0,0-6.39-1.82c-2.35,0-5.52-.54-7.66.41a23.15,23.15,0,0,1-2.26,1.18,11.06,11.06,0,0,1-2,.09c-.76.08-1.54.76-2.29.63-1.05-.18-.48-.39-.93-1.17-.58-1-1-1.12-1-2.28,0-.75,0-1.51,0-2.26a21.83,21.83,0,0,1,.66-4.44A5.72,5.72,0,0,1,364.92,148.19Z"/><path class="cls-7" d="M353,165.2c-.66.24-2.21.4-2.52,1.12-.18.43.18,1.06-.06,1.44-.35.54-1.56.48-1.92,1.11a4.22,4.22,0,0,0-.06,1.7,5,5,0,0,0,.58,1.57,7.74,7.74,0,0,1,.78,1.58c0,.52-1.31,1.31-1.63,1.74-1.45,1.9,1.05,2.46,2.4,3.17a8.29,8.29,0,0,0,1.27.75,5,5,0,0,0,1.85,0c1.3-.62-.59-3.11-.68-4a5.07,5.07,0,0,1,.48-2c.3-1.06.52-2.13.78-3.18a4,4,0,0,0-.06-2.36,3.8,3.8,0,0,0-.7-1.51c-.36-.41-.86-.66-1-1.22C352.6,165,352.67,165,353,165.2Z"/><path class="cls-7" d="M395.81,169.73c.48.77,1,1.48,1.43,2.28a2.9,2.9,0,0,1,.6,1.34c0,.88-1.06,1-1.16,1.76-.16,1.25,2.48,2.36,1.45,3.65a2.31,2.31,0,0,1-1.47.54,32.87,32.87,0,0,1-4,.33c1.24-1.23,2.73-2.93,3.06-4.69.36-1.91.18-3.77.37-5.69a.35.35,0,0,1-.31.2"/><g class="cls-3"><path class="cls-4" d="M387,166.45A21.73,21.73,0,0,1,389.6,165l2.77-1.12h0q7.64-2.3,15.42-4c5.21-1.06,10.36-2.31,15.57-3.39s10.42-2.07,15.66-2.95l15.66-2.9q15.69-2.81,31.44-5.14l15.8-2.11c2.63-.33,5.25-.74,7.89-1a50.39,50.39,0,0,1,8-.13h0a4.53,4.53,0,0,1-1.16.59,4.53,4.53,0,0,0,1.16-.59h0a50.24,50.24,0,0,0-7.95.15c-2.64.28-5.27.7-7.9,1l-15.79,2.14q-15.75,2.36-31.43,5.2l-15.66,2.93q-7.85,1.32-15.65,3c-5.19,1.1-10.35,2.35-15.55,3.42s-10.32,2.51-15.4,4.05h0l-2.76,1.13a19.84,19.84,0,0,0-2.6,1.42Z"/></g><g class="cls-3"><path class="cls-4" d="M474.45,159.1l-42.06,2.55c-7,.44-14,.92-21,1.64l-10.47,1.2a43,43,0,0,0-5.17.89,23.48,23.48,0,0,0-2.5.8,9,9,0,0,0-2.29,1.24l0-.11c1.83.13,2.28,2.41,4,2.6l4.83.45,9.67.91,9.67.91c3.22.33,6.43.75,9.63,1.24s6.41.94,9.6,1.46,6.39,1.06,9.57,1.67,6.36,1.22,9.51,2l9.38,2.51h0a58.92,58.92,0,0,1,7.71,3.32,58.42,58.42,0,0,0-7.72-3.31h0l-9.38-2.5c-3.15-.76-6.33-1.36-9.51-2s-6.37-1.15-9.57-1.65-6.41-.89-9.6-1.45-6.41-.9-9.63-1.22l-9.67-.9-9.67-.9-4.84-.44c-1.77-.24-2.24-2.52-3.94-2.59h-.17l.13-.11a9,9,0,0,1,2.32-1.26,24.46,24.46,0,0,1,2.51-.81,41.56,41.56,0,0,1,5.2-.9l10.46-1.21c7-.74,14-1.23,21-1.68l42.06-2.61Z"/></g><g class="cls-3"><path class="cls-4" d="M266.88,156.72a29.6,29.6,0,0,1,9.59-1.26h0a109.06,109.06,0,0,1,21.89.91l10.88,1.28,5.45.64,5.41.88L330.9,161c3.6.65,7.24,1,10.8,1.89,1.78.41,3.55.91,5.29,1.48.86.29,1.73.58,2.58.91s1.7.66,2.57.95c1.73.61,3.4,1.36,5.06,2.12s3.32,1.53,4.92,2.43l.35.19-.4-.07a73.85,73.85,0,0,0-11.52-.91c-3.85-.08-7.71,0-11.57-.17q-11.57-.61-23.14-.95c-7.72-.23-15.43-.31-23.15-.47s-15.44-.17-23.15.27h0a89.34,89.34,0,0,0-21.62,2.17,89.3,89.3,0,0,1,21.62-2.19h0q11.56-.68,23.15-.3c7.72.15,15.44.21,23.15.44s15.43.53,23.14.92c3.86.13,7.72.08,11.58.16a74.39,74.39,0,0,1,11.54.9l-.05.12c-1.59-.89-3.24-1.67-4.91-2.41s-3.33-1.5-5.05-2.11c-.86-.29-1.72-.62-2.57-1s-1.72-.62-2.58-.9q-2.61-.85-5.27-1.47c-3.55-.86-7.2-1.23-10.79-1.88l-10.82-1.78-5.41-.87-5.44-.64-10.89-1.26a108.65,108.65,0,0,0-21.85-.88h0A29.16,29.16,0,0,0,267,157Z"/></g><g class="cls-3"><path class="cls-4" d="M358.43,172.06c-13.55,0-27.09-.51-40.63,0a171.31,171.31,0,0,0-20.22,1.75l-20.12,2.74h0l-23.21,6.23q-11.38,3.83-22.36,8.77h0a34.19,34.19,0,0,0-7.53,3.76,34.23,34.23,0,0,1,7.53-3.77h0a240.06,240.06,0,0,1,22.35-8.82l23.2-6.27h0l20.13-2.78a171.15,171.15,0,0,1,20.23-1.78c13.54-.51,27.09,0,40.63-.05Z"/></g><path class="cls-11" d="M353,135.34c-2.35-4.93-4.41-10-6.87-14.89a177.53,177.53,0,0,0-9.37-16.71,34.93,34.93,0,0,0-4.25-6,18.64,18.64,0,0,0-5.21-5.11"/><g class="cls-3"><path class="cls-4" d="M340.83,126.36c-4.22-4.54-8.24-9.27-12.28-14s-8.12-9.37-12.34-13.9a106.19,106.19,0,0,0-13.94-12.27,118.24,118.24,0,0,0-15.76-9.83,118.33,118.33,0,0,1,15.8,9.78,105.59,105.59,0,0,1,14,12.23c4.24,4.52,8.35,9.16,12.4,13.86s8.08,9.41,12.31,13.93Z"/></g><g class="cls-3"><path class="cls-4" d="M349.87,130.08c-1.07-4.84-2.22-9.67-3.16-14.55q-.36-1.83-.66-3.66c-.23-1.22-.48-2.44-.62-3.67a33.65,33.65,0,0,1-.06-7.44h0a100.42,100.42,0,0,1,5.38-18.31,99.78,99.78,0,0,0-5.28,18.33h0a34,34,0,0,0,.09,7.41c.15,1.23.4,2.44.64,3.66s.44,2.44.68,3.66c1,4.86,2.14,9.68,3.23,14.52Z"/></g><g class="cls-3"><path class="cls-4" d="M395.81,72.52a14.52,14.52,0,0,1,2.78,3.73A13.62,13.62,0,0,1,400,80.69v0a31.81,31.81,0,0,1,1.18,14.88h0a123.32,123.32,0,0,1-3.24,20.21q-1.17,5-2.81,9.85c-1.06,3.24-2.18,6.47-3.07,9.76l-.12,0c.08-.28.31-.39.5-.53s.41-.22.61-.32c.43-.19.85-.36,1.28-.53l1.29-.5a4.88,4.88,0,0,0,1.21-.6v0a78.11,78.11,0,0,0,4.53-9.4h0a203.08,203.08,0,0,1,15.46-24.18c1.41-1.94,2.92-3.8,4.35-5.72s2.8-3.88,4.11-5.88a124.74,124.74,0,0,0,7.17-12.43,126.77,126.77,0,0,1-7.14,12.45q-2,3-4.11,5.89c-1.42,1.92-2.93,3.78-4.34,5.72a202.94,202.94,0,0,0-15.41,24.2h0a79,79,0,0,1-4.51,9.42h0a5.43,5.43,0,0,1-1.25.63l-1.29.5c-.43.17-.85.33-1.27.53s-.88.4-1,.75l-.13,0c.88-3.31,2-6.54,3.05-9.78s2-6.52,2.78-9.84a120.91,120.91,0,0,0,3.2-20.19h0a31.47,31.47,0,0,0-1.19-14.77h0v0a13.4,13.4,0,0,0-1.35-4.36,14.2,14.2,0,0,0-2.74-3.66Z"/></g><path class="cls-11" d="M402.14,132.32c3.26-4.27,6.65-8.43,10-12.61q4.72-5.91,9.62-11.68A146,146,0,0,1,438,92.64"/></g></g></svg>