<svg xmlns="http://www.w3.org/2000/svg" viewBox="0 0 651.69 831.17"><defs><style>.cls-1,.cls-11{fill:#ff4344;}.cls-1{opacity:0.4;}.cls-2{fill:#ffd1d1;}.cls-3{fill:#1919a4;}.cls-3,.cls-4,.cls-6{opacity:0.8;}.cls-5,.cls-6,.cls-8{fill:#00008c;}.cls-7{fill:#1b1b1b;}.cls-8{opacity:0.9;}.cls-10,.cls-9{fill:#fff;}.cls-10{opacity:0.2;}.cls-11{opacity:0.5;}.cls-12{fill:#ff6262;}</style></defs><title>Asset 191</title><g id="Layer_2" data-name="Layer 2"><g id="Layer_1-2" data-name="Layer 1"><path class="cls-1" d="M86.9,327.41C61.27,370.17,47.2,419,39.2,468.21c-8.45,52.07-10.32,105.77.89,157.32s36.2,101,75.51,136.14,90.63,54.43,142.61,63,105,7,157.66,5c57.74-2.24,119.22-6.34,165.71-40.67,35.38-26.12,57.67-67.55,65.95-110.75s3.45-88.09-7.82-130.6C613.37,448.29,551,359,466.85,300.14c-67.1-46.95-149.73-76.08-231.83-78.81C170.5,219.19,118.14,275.3,86.9,327.41Z"/><path class="cls-2" d="M12.39,194.27c-15.88,57.88-13,119-10.09,179,2,41.1,5.69,86.13,34.44,115.56C65.73,518.47,111.47,523,153,522a687.37,687.37,0,0,0,309.73-82.6c49.68-26.95,96.8-60.88,130-106.59S644,228.31,632.17,173C616.28,98.89,549.63,44,477.56,20.43S327.88-1,252.08,1.41c-60,1.9-106.94,11.71-147.37,58.1C66.4,103.48,28.59,135.22,12.39,194.27Z"/><path class="cls-3" d="M409.9,501.22V479.17c0-4.86.14-9.75,0-14.61-.08-3-.88-5.71-.88-8.79,0-4.77,0-9.54,0-14.31,0-4.24-.86-8.29-.86-12.56,0-5.85.29-11.76.05-17.6-.14-3.47-1-6.78-.92-10.29,0-3,.32-6.18-.17-9.16-1-6-.05-11.86-.74-17.81a55.89,55.89,0,0,1-.78-7.76,37.25,37.25,0,0,0-.67-6.93c-.51-3.06-.25-6-.86-9.06-.34-1.73.14-3.45-.14-5.16-.19-1.12-.77-2-.93-3.13a33.52,33.52,0,0,1,0-4.7c0-2.46-.2-4.85-.42-7.25,2-4.22,3.4-8.59,1.46-13.17a17.36,17.36,0,0,1-1.49-4,24.43,24.43,0,0,1-.06-3.73c0-3.28.6-6.31.12-9.59-1-6.78-4.81-12.57-6.45-19.19-.9-3.67-1.57-7.22-3.2-10.66s-4.95-6.14-7.83-8.53a20.63,20.63,0,0,0-2.24-1.61c-.69-3.16-1.25-6.42-2.59-9.23a25.52,25.52,0,0,0-2.57-3.82c-1.35-1.94-2.74-3.93-3-6.36-.26-2.18-.23-4.16-.62-6.33a19.5,19.5,0,0,1-.19-3.58c.06-4.27-1.83-8.4-.66-12.84a30.18,30.18,0,0,1,2.28-6.45c.77-1.56,1.83-3.26,2.45-4.87.81-2.15,1.53-4.12,3.6-5.4s4.56-1.17,6.5-2.54c3.42-2.42,2.1-9.4,2.1-13.27,0-1.14,0-2.28,0-3.42a7.28,7.28,0,0,0-.66-2.77c-.31-1.1,0-2.12-.15-3.23-.21-1.29-1.13-2.23-1.56-3.42-1.59-4.39-3.63-7.81-8.76-7.71a9.83,9.83,0,0,1-6.87-2.14c-1.49-1.17-1.89-2.81-3-4.28s-1.69-3.1-3.21-4.5c-1.35-1.24-3-1.87-4.4-2.87-.72-.52-1.53-1.1-2.23-1.62-.53-.38-1.32-1.21-1.89-1.54-1.87-1.09-4.61-.63-6.67-1-1.45-.25-2.33-.84-3.86-.9a15.19,15.19,0,0,1-3.42-.79c-2-.45-4.5-.07-6.57-.07-2.93,0-5.91-.13-8.85,0a14.5,14.5,0,0,0-5.23,1.62c-7.74,3.39-13.42,9.36-19.37,15.3-2.34,2.34-4.66,5.32-7.47,7.08-1.79,1.12-4.53.44-6,2.09s-.83,4-.83,6c0,4.57,0,9.14,0,13.7a9.84,9.84,0,0,0,1.48,5.76c1.2,2.23,2.4,4.58,5.22,4.83.1-1.26,1-2,1.19-3.22,1.71.06,1.66,4.48,2.57,5.71,1.2,1.61,2.91,2.48,4.45,3.62,1.89,1.4,2.32,3,2.88,5.13.33,1.33,0,2.52.16,3.85a20.8,20.8,0,0,0,1.09,3.86,15.05,15.05,0,0,1,.68,6.42c-.3,2.44-2,5.32-2.79,7.7-1.63,5-4.33,8.47-7.49,12.39-2.57,3.19-5.62,6-8.06,9.09-.91,1.15-1.29,2.6-2.22,3.78a14.51,14.51,0,0,0-2.16,3,48.16,48.16,0,0,0-3.63,9c-.93,3.62-2.07,7.16-3,10.76-.52,2-1,4.19-1.52,6.33-.86,3.5-1.64,7.13-2.35,10.72s.21,7.23-.63,10.79c-.89,3.78.28,6.66.48,10.38.12,2.29-.16,4.6-.07,6.89.07,1.83.58,3.46.81,5.26.25,2-.12,3.89.26,5.85a20.53,20.53,0,0,1,.67,4.43c0,1-.09,2.06,0,3.06.08,1.31.67,2.16.87,3.42,3.49,4.48,3.25,4.23,2.72,4.39,3.74,12.77,3.27,26.71,3.27,40.15,0,10.59.93,21.5-1.21,31.89-.87,4.21-.48,8.56-.5,12.83,0,3.82.72,7.36.9,11.12.35,7.37-.91,14.68-.9,22.07,0,3.87.13,7.78,0,11.65-.1,4.14-.84,8.18-.92,12.32-.16,9,.95,18.26-.74,27.12-1.83,9.55-6.22,18.45-8,28,0-2.56,0-5.11,0-7.67,0-4.19.15-8.41,0-12.6-.08-3-.83-5.95-.92-9-.17-5.84,0-11.73,0-17.58,0-4.36.3-8.82,0-13.17-.18-3-.75-6-1-9.05-.42-5.41-.76-10.52-.77-16,0-7.4-.22-14.87,1-22.2.75-4.35,1.51-8.66,2.16-13,1.17-7.91,1.76-15.83,2.77-23.75.24-1.86.45-3.74.87-5.57,0-.48.07-1,.1-1.45l.13-.27a25.11,25.11,0,0,0,1.61-5.68c.25-1.21.32-2.46.58-3.67a19.83,19.83,0,0,0,.76-3.66,24.33,24.33,0,0,0-.34-5.4c-.37-1.9.15-3.38.59-5.19,0-.07.05-.14.07-.2A201.6,201.6,0,0,0,278.67,355c-1.25-8.64-3.38-19.28-9.08-26.36a12.11,12.11,0,0,0-1.77-.79c-.1-.22-.21-.43-.3-.65-1.18-2.65-2.2-5.56-3.45-8.33-1.06-2.33-2.23-4.32-3.41-6.6a54.18,54.18,0,0,1-4.09-11.77c-.79-3.23-2-6-3-9.21-1.88-6.38-.09-14.13,2.8-19.69,1.36-2.61.76-5.52,3.41-7.75,1.8-1.51,4.7-1.75,5.91-3.87a10,10,0,0,0,1-4.22c.09-1.46.8-2.44.94-3.81s-.85-3-1-4.34a19,19,0,0,0-.64-3.41c-.58-2.34-1.09-5.64-2.93-7.53-1.21-1.24-5.85-1.9-6.91-.32-1.45-.14-2.11-3-2.74-4.12a31.09,31.09,0,0,0-3.44-5.11c-1.41-1.66-2.61-3.84-4.35-5.17s-4.37-2.14-6.37-3c-1.7-.73-3.32-1.46-5.12-2.14-2.17-.82-3.84-.43-6-.81-1.26-.23-2.09-.85-3.42-.92-.85,0-1.72,0-2.57,0a28.41,28.41,0,0,0-6.87.66,26.13,26.13,0,0,1-3.42.18,9.31,9.31,0,0,0-2.2.79,14.27,14.27,0,0,0-5.09,2.12c-3.29,2.38-7.21,4.69-10.07,7.4-2.66,2.52-4.54,6-8.11,7-.52.15-.67.59-1.37.61-.46,0-.41-.57-.73-.62-1.15-.21-1.76-.39-2.74.3-1.42,1-2.15,3.91-2.23,5.47-.24,4.88-1.68,9.27-1.68,14.15,0,2.13-.53,4.69.79,6.44a14,14,0,0,0,5.2,3.41c0-.17,2.54,3.93,2.52,3.76.45.4.66,1,1.07,1.38s1.53.77,1.93,1.35c.89,1.31.37,3,.44,4.61.17,3.86,2,7.44,2.64,11.16a20.53,20.53,0,0,1-.87,8.6c-.23.73-.76.88-.93,1.63-.13.55.18,1.19.09,1.75-.23,1.5-1.29,2.8-2,4.09-1.37,2.51-1.68,5.32-3.19,7.94-1.77,3.06-2.79,6.32-4.49,9.4a70,70,0,0,0-4.71,9.41c-.89,2.38-1.95,3.9-1.93,6.52,0,3.31-.21,6.67.07,10,.2,2.26.77,4.35.78,6.61s.82,3.87.84,6.17c0,2.51.85,4.8.9,7.32a57.45,57.45,0,0,0-.07,6c.62,4.74,1.53,9.52,1.81,14.36.24,4.27.8,8.27.81,12.58a60.61,60.61,0,0,0,.43,10.53c.66,3.81.18,7.61.82,11.44.54,3.22,1.3,6.12,1.35,9.42.08,5,.85,9.84.82,14.86,0,3.7,1,6.86,1.93,10.43a151.76,151.76,0,0,1,3.89,16.95c.53,3.43.28,6.83.84,10.29.39,2.37.39,4.63.86,7,.55,2.76.2,5.58.81,8.37a43.49,43.49,0,0,1,1.1,9.85c-.05,5.63.22,11.3,0,16.92-.09,2.48-.88,4.75-.91,7.24s0,4.87,0,7.3c0,6,.68,12.32.05,18.23-.73,6.77-1.78,13.44-1.76,20.3,0,5.87,0,11.73,0,17.6,0,2.47.86,4.39.86,6.81,0,3.05,1.11,6.09,1.79,9a50.44,50.44,0,0,0,2.7,8.17c1.07,2.43,2.28,4.34,3.21,6.81a64.55,64.55,0,0,1,3,12.43,69,69,0,0,1,1.3,8.77,4.05,4.05,0,0,1,.9,2.12c1.92,13.21-2.65,26.39-7.27,38.63a69.35,69.35,0,0,0-3.23,9.14,26.75,26.75,0,0,1-.39,2.75,6.44,6.44,0,0,0,.64,3.43c1.89,3.43,8.57,3.11,11.24,1.21a4.43,4.43,0,0,1,4.65,0,7.7,7.7,0,0,0,1.1.69,3.93,3.93,0,0,1,.54-.42c2.67-1.79,3-.49,3.32,1.14,2.51-.3,4.94-1.92,7.12-3.83a31.19,31.19,0,0,0,3.62-5.82c2-4.22,2.41-11.5,1.76-16.27-.24-1.75-.86-3.16-.92-5-.06-1.5,0-3,0-4.52,0-3.54-.88-6.87-.86-10.43s.16-6.89-.67-10.26c-1-4,0-8.49-.61-12.58-.79-5.24-1.3-10.51-2.36-15.71a66.61,66.61,0,0,1-1.5-13.7,53.21,53.21,0,0,1,.84-12,57.32,57.32,0,0,1,4.28-13.15c1-2,2.19-4.14,3.41-6.14a8.52,8.52,0,0,1,2,3.33,30.33,30.33,0,0,1,1.29,5c.18,1.23,0,2.45.18,3.68a19.56,19.56,0,0,1,.35,2c0,.83,0,1.55.08,2.4a12.9,12.9,0,0,1,.12,1.63c0,1.74-.29,3.42-.27,5.23,0,0,0,.08,0,.12s0,.36,0,.55a30.18,30.18,0,0,0,.38,3,21.43,21.43,0,0,1,.12,2.4l0,2.25c0,1.15-.05,2.34-.05,3.52a22.27,22.27,0,0,0,.15,3.38,62.86,62.86,0,0,1,.47,8.49c0,3-.14,6-.14,8.88a2.26,2.26,0,0,0,0,.26c0,.14,0,.28,0,.41,0,5.19.32,10.3.41,15.48a57.06,57.06,0,0,0,2,13.44,16.27,16.27,0,0,0,13,12,37.69,37.69,0,0,0,4.75.37c-.18,2.1-.86,4-.9,6.18,0,1.18,0,2.36,0,3.54a27.76,27.76,0,0,0,.66,5.89c.29,1.49,0,3,.36,4.43.54,2,2.65,7.55,4.3,8.46,1.06.59,2.2-.58,3.23-.81a15.12,15.12,0,0,1,3.62,0c1.93.26,2.78,1.56,4.7,1.64,1.38.05,3.08-1.73,3.69.68a10.45,10.45,0,0,0,2.44-2.75c.73-1.41.69-3.1,2.71-2.57,1.12.3.69,1.81,2.34,1.2,1-.37,1.78-2.38,1.95-3.27.62-3.3-1.51-5.9-2.85-8.58a31.83,31.83,0,0,1-1.66-4.24,34,34,0,0,1-1.36-3.21c-.2-.85.05-1.88-.14-2.68a16.45,16.45,0,0,1-.84-3.28c1.67-.12,3.34-.12,5-.34,2.24-.29,4.48-.56,6.72-.86s4.79-.47,7.17-.74c1-.12,2-.18,3-.21s1.07-.27,1.81-.83c1.89-1.44,3.72-3,3.76-5.56v-1.11a11.83,11.83,0,0,0-1.25-6.31c-2.14-3.75-6.39-5.91-10.06-7.8a11.81,11.81,0,0,0-4.36-1.29c-1,0-3.63.53-4.31,1.3a1.62,1.62,0,0,0-.45,1.5c-.35,1.5,1.8,2.85,2.92,3.46a15.64,15.64,0,0,0,4,1.4c1.15.28,2.89.18,3.75,1.14a2,2,0,0,1,.49,1,4.46,4.46,0,0,1-1.37,2.49,7.43,7.43,0,0,1-2.2,1.14c-2.95,1.31-5.89,2.43-9.17,2.39-2.09,0-4.21,0-6.33.08,0-2.05,0-4.09,0-6.13,0-4.18,1-8,1.54-12a43.72,43.72,0,0,1,1-6.36,12.29,12.29,0,0,0,.87-4.28c0-1.31,0-2.62,0-3.92,0-2.37.81-4.41.9-6.74a37.92,37.92,0,0,1,1.67-10,9.37,9.37,0,0,0,.74-2.4,68.09,68.09,0,0,0,6.79,8.19c6.2,6.31,11.89,12.47,15.63,20.49,2.47,5.3,3.65,10.3,2.05,16-1.33,4.69-1.79,9.57-3.6,14.15s-4.59,8.6-6.72,13c-1.14,2.34-2.41,4.64-4.83,5.9a9.34,9.34,0,0,1-2.94,1c-7.33,1.67-6,10.31-5.11,16,1.95.36,3.94-.08,5.83.3,1.23.25,3.34,1.13,4.91,1.35,3.38.46,8.2-.81,11.58-1.54,2.77-.6,3.93-2.85,5.7-5.14a14.76,14.76,0,0,1,6.15-5.14c1.13-.49,2.23-.33,2.69-1.65-.06-.63-.1-1.26-.13-1.89a8.78,8.78,0,0,1,.85-3.37,67.41,67.41,0,0,0,3.51-22.68c0-4.16-.7-9.3.17-13.38,1.19-5.54.67-11.34.67-17,0-7.64-.39-15-3.36-22.22-2.23-5.41-6.88-9.76-8-15.6a52,52,0,0,1-1.46-10.25c0-2.64-.42-5.29.79-7.69,1.12-2.21,2.29-4.45,3.46-6.63a67.79,67.79,0,0,0,3.57-8.71c2.79-7.28,6.6-14.21,9.34-21.51,2.16-5.76,2.11-12.52,1.61-18.56,1.46,6.32,5.81,11.82,9.42,17.06a43.62,43.62,0,0,0,9.2,9.35c1.36,1.08,3.32,2.09,4.39,3.43a7.51,7.51,0,0,0,1.14,2.55,41.8,41.8,0,0,1,2.71,3.67c2.12,3.57,3.39,8.17,4.71,12,1.72,5.06,3,10.43,4.26,15.61s2.82,10.57,3.48,15.76c1.37,10.72,1,21.65,1,32.47v13.9c0,1.74.42,4.24,0,6-.32,1.48-.88,2.31-.92,3.91-.05,2,0,4,0,6,.08,3.81.81,7.49.86,11.37,0,2.77-1.15,5.15-1.73,7.85a19.83,19.83,0,0,1-2.33,6,12.31,12.31,0,0,0-1.92,6c0,2.22-.34,4.69.19,6.84.77,3.17,1.72,3.55,4.75,2.57,1.37-.44,1.89-.84,3-.25.66.36,1,1.44,1.65,1.8,1.48.79,4.74-.14,5.84-1.18,1.05,1.48,3.27,2.85,5.16,2.24,1.62-.52,2.24-3.11,4-1.6,1.39,1.18,1.69,4.22,4.06,4.2,2.6,0,1.82-4.58,4.71-4,1.95.4,4.08,4.47,4.3.32a11.4,11.4,0,0,0-.14-4.08c-.48-1.25-1.77-2-2.37-3.12-1.52-2.72-2.07-6-3.29-8.91-1-2.37-1.68-4.6-2.52-7-1.29-3.67-2.7-6.73-2.87-10.75-.2-4.61,0-9.29,0-13.91,0-3.94-1.35-7.76-.89-11.69.15-1.25.71-2.09.92-3.26a19.07,19.07,0,0,0,0-3c0-1.68-.5-2.08-.9-3.51-.5-1.76,0-4.43,0-6.31a28.11,28.11,0,0,1,.8-5.6,32.58,32.58,0,0,0,.07-5.59,37.2,37.2,0,0,1,1.05-9c.55-2.17,1.45-4.59,1.54-6.85.11-2.55,1.13-4.39,1.72-6.83s1.11-5.15,1.9-7.71c1.09-3.59,1.32-7.7,1.93-11.51.3-1.91.91-3.77,1.21-5.66a31.82,31.82,0,0,1,.26-3.39,47.72,47.72,0,0,0,1.5-10c.21-5.33,2.11-10.89,3.44-16,.68-2.62,1.73-5.2,2.38-7.53.78-2.78-.05-6.07.15-9,.16-2.34.94-4.33.9-6.71a39.73,39.73,0,0,1,.67-7.46C410.49,511.23,409.9,506,409.9,501.22ZM262.62,630c-1.05,5.48-2.89,10.42-3.21,16a46.62,46.62,0,0,1-1.76,9.07c-.13.46-.27.93-.41,1.4-.14-.25-.27-.51-.42-.75a34.39,34.39,0,0,1-2.09-3.15c-1.71-3.52-2-7.38-2-11.26,0-.41,0-.83,0-1.25v-.67c0-2.76-.39-5.57-.45-8.34,0-.75,0-1.49.11-2.24.35-3.34,0-6.7.43-10,.29-2.38.1-4.8.43-7.16a44.27,44.27,0,0,0,.33-6.41c0-2.61.87-5,.85-7.64,0-1.32.43-2.53.44-3.85,0-.16,0-.33,0-.49s0-.12,0-.19c0-.74-.07-1.56-.09-2.36a7,7,0,0,1,.07-.8c.23-1.55.88-2.85.86-4.47,0-.48.11-1.15.08-1.72a57.71,57.71,0,0,1,4.22,10.2,16,16,0,0,1,1.05,4.21,24.2,24.2,0,0,0-.07,2.55c.55,3.2,1.44,6.41,1.8,9.67.16,1.46-.13,2.78.15,4.24a21.46,21.46,0,0,1,.66,4.07A53.63,53.63,0,0,1,262.62,630Z"/><g class="cls-4"><path class="cls-5" d="M246.05,277.13l3.36,4c1.14,1.32,2.38,2.54,3.64,3.75a89.33,89.33,0,0,1,7.39,7.43c4.51,5.38,7.48,11.83,10,18.32-2.53-6.48-5.55-12.9-10.07-18.24a87.59,87.59,0,0,0-7.43-7.37c-1.27-1.2-2.52-2.43-3.67-3.75l-3.39-4Z"/></g><g class="cls-4"><path class="cls-5" d="M242.75,270.58A161,161,0,0,1,270,289.22a120.46,120.46,0,0,1,11.74,11.63c1.84,2.06,3.6,4.18,5.23,6.4a35.72,35.72,0,0,1,4.24,7.07,35.24,35.24,0,0,0-4.27-7.05c-1.63-2.22-3.4-4.33-5.24-6.38a122.64,122.64,0,0,0-11.78-11.58,161,161,0,0,0-27.3-18.51Z"/></g><g class="cls-4"><path class="cls-5" d="M243.67,230.47c.2-.65.75-.93,1.2-1.26s1-.55,1.42-.87a23.3,23.3,0,0,1,2.88-1.72c2-1,4.08-1.84,6.1-2.79l12.17-5.58-12.12,5.69c-2,1-4.08,1.83-6.06,2.85a20.5,20.5,0,0,0-2.84,1.73c-.47.34-1,.58-1.43.89s-1,.64-1.07,1.1Z"/></g><g class="cls-4"><path class="cls-5" d="M242.48,224.69c7.16-6.87,14.72-13.29,22.11-19.89-7.34,6.66-14.84,13.15-21.93,20.07Z"/></g><g class="cls-4"><path class="cls-5" d="M201.09,204.75c1.66,3.81,3.54,7.57,4.53,11.64a25,25,0,0,1,.55,3.09,27.21,27.21,0,0,1,.12,3.13l.05,6.25-.12,0a4,4,0,0,0,.23-1.36,4.17,4.17,0,0,0-.32-1.34,23.51,23.51,0,0,0-1.35-2.46,16.41,16.41,0,0,1-1.13-2.58c-.34-.87-.73-1.72-1.15-2.56a25.11,25.11,0,0,0-3.06-4.7,19.78,19.78,0,0,0-4.17-3.74,19.28,19.28,0,0,1,4.19,3.72,25.18,25.18,0,0,1,3.09,4.69c.43.84.82,1.69,1.17,2.56a16.83,16.83,0,0,0,1.13,2.57,21.79,21.79,0,0,1,1.37,2.46,4.31,4.31,0,0,1,.34,1.37,4.21,4.21,0,0,1-.23,1.41l-.11.33v-.35l-.08-6.25a29.3,29.3,0,0,0-.13-3.11,24.59,24.59,0,0,0-.57-3.06c-1-4-2.9-7.78-4.58-11.59Z"/></g><g class="cls-4"><path class="cls-5" d="M319.46,131.57c1.57,2.36,1.92,5.2,2.5,7.86l1.6,8.1,1.6,8.1a36.67,36.67,0,0,1,.8,8.22h-.15a4.46,4.46,0,0,1,.63-1.42l.76-1.33a7.18,7.18,0,0,0,.34-.68,1.69,1.69,0,0,0,.1-.35.25.25,0,0,0,0-.13l-.13-.15-1-1.19c-1.28-1.59-2.48-3.25-3.74-4.85-2.58-3.17-5.32-6.2-8.12-9.18s-5.69-5.87-8.63-8.7c-1.49-1.41-2.83-3-4.34-4.34a12.27,12.27,0,0,0-5.17-3.16,12.27,12.27,0,0,1,5.19,3.15c1.5,1.38,2.86,2.92,4.34,4.32q4.44,4.23,8.67,8.68c2.8,3,5.55,6,8.14,9.16,1.28,1.6,2.48,3.25,3.76,4.84l1,1.18.12.15a.33.33,0,0,1,0,.23,1.25,1.25,0,0,1-.11.39,5.47,5.47,0,0,1-.33.69l-.76,1.34a4.63,4.63,0,0,0-.61,1.35h-.15a36.28,36.28,0,0,0-.82-8.18l-1.63-8.1-1.62-8.1c-.59-2.67-.95-5.48-2.49-7.76Z"/></g><g class="cls-4"><path class="cls-5" d="M351.46,166.24c.82-1.67,1.91-3.18,2.85-4.76.23-.4.46-.8.66-1.21a5.05,5.05,0,0,0,.51-1.26c.16-.87.06-1.82.14-2.74a14.5,14.5,0,0,1,1.54-5.32,54.54,54.54,0,0,1,2.7-4.85c1.89-3.18,4-6.23,6.13-9.24l3.22-4.51c.53-.76,1.08-1.5,1.56-2.29a15.47,15.47,0,0,0,1.19-2.5,15.42,15.42,0,0,1-1.18,2.5c-.47.8-1,1.55-1.55,2.3L366,136.89c-2.13,3-4.2,6.08-6.07,9.27a54.42,54.42,0,0,0-2.66,4.85,14.24,14.24,0,0,0-1.51,5.27,26.19,26.19,0,0,1-.12,2.78,6,6,0,0,1-.52,1.31c-.21.41-.43.82-.67,1.22-.93,1.6-2,3.11-2.81,4.76Z"/></g><g class="cls-4"><path class="cls-5" d="M332.66,187.39a41,41,0,0,0-6.74-.7c-2.26-.08-4.53-.24-6.79-.39q-6.79-.44-13.59-.71c-9.06-.36-18.13-.53-27.2-.62l-13.61-.06c-4.54-.08-9.07-.08-13.61.05s-9.07.41-13.59.61a40.93,40.93,0,0,0-6.68,1.15,20.91,20.91,0,0,0-3.24,1,2.48,2.48,0,0,0-1.21,1.07,2.8,2.8,0,0,0-.24,1.62l0-.07c2.19.9,4.63.63,7,.68s4.72-.12,7.07-.27c4.71-.3,9.41-.81,14.1-1.31l14.1-1.43c4.7-.45,9.4-.86,14.12-1.12V187h0s0,0,0,0,0-.09,0-.1h.17l.21,0,.41-.05.82-.07c.54-.05,1.09-.08,1.64-.1a15.15,15.15,0,0,1,1.65,0,2.23,2.23,0,0,1,1.55.56l0,0,0,0a4.67,4.67,0,0,1-2.1,2,14.3,14.3,0,0,1-2.75,1.05c-1.9.5-3.76,1.08-5.64,1.63s-3.74,1.15-5.58,1.82c-.91.36-1.86.64-2.77,1a4.76,4.76,0,0,0-2.38,1.57l0-.06a5.1,5.1,0,0,0,3.6.41h0a112.29,112.29,0,0,0,16.39-.91l16.31-2h0a4.86,4.86,0,0,1,1.71-.79,1.55,1.55,0,0,1,.95.08,1.58,1.58,0,0,1,.69.64l0,0h0c-4.16,1.76-8.55,2.84-12.76,4.44-1,.4-2.09.84-3.11,1.31s-2.07.89-3.07,1.39a18,18,0,0,0-2.89,1.74,4.66,4.66,0,0,0-1.92,2.67v0a3.08,3.08,0,0,0,2.78-.29h0q3.21-.9,6.33-2.06c2.09-.75,4.11-1.67,6.15-2.53l12.27-5.16h0a4,4,0,0,0,1.65-.53,3.09,3.09,0,0,0,1.16-1.27,3.18,3.18,0,0,1-1.16,1.28,4,4,0,0,1-1.65.52h0l-12.26,5.17c-2.05.86-4.07,1.78-6.16,2.54s-4.19,1.46-6.32,2.06h0a3.15,3.15,0,0,1-2.8.3h0a4.6,4.6,0,0,1,1.94-2.68,17.29,17.29,0,0,1,2.88-1.75c1-.5,2.05-.93,3.08-1.4s2.06-.91,3.11-1.31c4.21-1.6,8.6-2.69,12.75-4.44v0a1.44,1.44,0,0,0-1.59-.69,4.75,4.75,0,0,0-1.69.79h0l-16.31,2.06a114,114,0,0,1-16.41.93h0a5.24,5.24,0,0,1-3.65-.41l0,0,0,0a4.91,4.91,0,0,1,2.43-1.61c.92-.36,1.86-.63,2.77-1,1.84-.68,3.71-1.26,5.58-1.83s3.75-1.14,5.64-1.64a13.85,13.85,0,0,0,2.73-1,4.54,4.54,0,0,0,2.06-2v0a2.15,2.15,0,0,0-1.47-.5,12.68,12.68,0,0,0-1.63,0c-.55,0-1.1.05-1.64.09l-.82.08-.41,0-.2,0h-.16s.06,0,0-.09,0,0,0,0h0V187c-4.72.26-9.42.68-14.12,1.13l-14.09,1.44c-4.7.5-9.39,1-14.11,1.33-2.35.15-4.72.25-7.08.27-1.18,0-2.36,0-3.54,0a10.19,10.19,0,0,1-3.49-.66l0,0v0a2.93,2.93,0,0,1,.26-1.7,2.7,2.7,0,0,1,1.28-1.15,21.2,21.2,0,0,1,3.27-1,42.42,42.42,0,0,1,6.71-1.16c4.54-.2,9.06-.51,13.6-.62s9.07-.14,13.61-.06l13.61.05c9.07.07,18.14.24,27.21.6,4.53.18,9.07.4,13.59.69,2.27.15,4.53.31,6.79.38a41.92,41.92,0,0,1,6.79.7Z"/></g><g class="cls-4"><path class="cls-5" d="M356.84,187a285.23,285.23,0,0,1,57.64-9q14.59-.85,29.2-1.08c4.87-.07,9.74,0,14.61.07a110.87,110.87,0,0,1,14.56,1.14l.23,0-.19.13a4.81,4.81,0,0,1-1.74.6c-.59.14-1.19.24-1.79.33-1.21.17-2.42.27-3.62.36l-7.25.57c-4.83.36-9.67.65-14.5,1-9.68.57-19.31,1.6-29,2.48l-14.47,1.36c-4.83.46-9.63,1.1-14.42,1.84s-9.55,1.63-14.28,2.65c-2.37.52-4.73,1.07-7.12,1.45a26.39,26.39,0,0,1-7.26.31l-.11,0,.08-.08a2.06,2.06,0,0,1,1.25-.5,10.15,10.15,0,0,1,1.35,0,26.57,26.57,0,0,1,2.67.29,30.65,30.65,0,0,0,5.33.32v.11c-.55,0-1.09-.11-1.64-.11a3.55,3.55,0,0,0-.8,0,.91.91,0,0,0-.65.38v-.06c1.13,1.11,2.81,1.26,4.28,1.73s3,.88,4.51,1.3c3,.84,6.05,1.61,9.09,2.35,6.09,1.47,12.22,2.75,18.32,4.13l18.34,4.06c3.05.71,6.13,1.28,9.14,2.15a34.2,34.2,0,0,1,4.43,1.56,14.67,14.67,0,0,1,4,2.46l0,0h0a1.19,1.19,0,0,1-.81.43,4.65,4.65,0,0,1-.91.07c-.61,0-1.22-.08-1.83-.1a29.71,29.71,0,0,1-3.64-.36c-2.41-.39-4.76-1-7.13-1.59l-14.27-3.2c-4.76-1-9.53-2-14.34-2.86s-9.6-1.84-14.49-1.64h0a9.49,9.49,0,0,0,3.1,3.44h0c1.31,1.26,2.65,2.49,4,3.67s2.82,2.29,4.26,3.4c2.89,2.21,6,4.16,8.89,6.33h0c-3.3-2.68-6.94-4.88-10.43-7.3,3.49,2.41,7.13,4.62,10.44,7.29h0c-2.92-2.17-6-4.12-8.89-6.33-1.44-1.11-2.88-2.22-4.26-3.4s-2.74-2.4-4-3.67h0a9.38,9.38,0,0,1-3.11-3.45v0h0c4.89-.2,9.7.85,14.5,1.63s9.58,1.81,14.34,2.85l14.27,3.19c2.37.57,4.73,1.2,7.13,1.58a26.1,26.1,0,0,0,3.63.36c.62,0,1.22.11,1.83.11a6.82,6.82,0,0,0,.9-.07,1.21,1.21,0,0,0,.77-.4v0a15,15,0,0,0-4-2.45,36.16,36.16,0,0,0-4.42-1.55c-3-.86-6.09-1.43-9.14-2.14l-18.34-4c-6.11-1.37-12.24-2.66-18.33-4.12-3-.73-6.08-1.51-9.1-2.34-1.51-.42-3-.85-4.51-1.3s-3.15-.61-4.32-1.76l0,0,0,0a1,1,0,0,1,.72-.43,4.53,4.53,0,0,1,.82-.06c.56,0,1.1.09,1.64.11v.11a32,32,0,0,1-5.35-.32,26.37,26.37,0,0,0-2.66-.29,9.66,9.66,0,0,0-1.32,0,2,2,0,0,0-1.19.47l0-.09a26.12,26.12,0,0,0,7.22-.31c2.39-.38,4.75-.94,7.11-1.45q7.11-1.54,14.29-2.67c4.79-.74,9.6-1.38,14.42-1.85L415,183.39c9.65-.88,19.29-1.92,29-2.49,4.83-.32,9.67-.62,14.5-1l7.24-.58c1.21-.09,2.42-.19,3.61-.36.6-.08,1.19-.19,1.78-.32a4.72,4.72,0,0,0,1.68-.58l0,.17a108.61,108.61,0,0,0-14.54-1.13c-4.86-.1-9.73-.13-14.6-.06q-14.6.21-29.18,1.1c-19.42,1.21-38.81,3.91-57.59,9.06Z"/></g><path class="cls-6" d="M236,219.55c-2.3-.37-4.52-1.3-6.89-1.54a39.25,39.25,0,0,0-6.77,0c-3,.23-5.81.49-8.8.46a28.2,28.2,0,0,0-8.43.91c-1.57.53-3.26,2.2-4.48,3.35-.92.86-1.69,2.13.1,2.12a20.43,20.43,0,0,0,3.7-.69c2.2-.42,4.41-.78,6.61-1.2,3.08-.57,6-1.43,9.15-1.79a30,30,0,0,1,7.63,0c2.53.42,5,1.21,7.56,1.54a15.11,15.11,0,0,1,5.23,2,49.79,49.79,0,0,1,4.87,2.19c.8.51,2.58,2.61,3.2,1.12a4,4,0,0,0-.52-3.08,16.53,16.53,0,0,0-4.62-2.73C241.1,221.09,238.79,218.8,236,219.55Z"/><path class="cls-7" d="M377.67,169.15c-.13,1.07-.47.88,0,2.1a24.4,24.4,0,0,1,.81,3.48c.53,2.44,1.69,4.74,1.66,7.26a25.2,25.2,0,0,1-.51,4.82,18.68,18.68,0,0,0-.31,4c0,1.9-.1,3.81,0,5.7.06,1.21.51,1.19,1.59,1.23,2.18.07,4.21.36,5.46-1.62a35.89,35.89,0,0,1,2.92-3.89c1-1.28,2.63-2.83,3-4.47a16.3,16.3,0,0,0,0-5.53,10.25,10.25,0,0,0-2-3.82c-1.35-1.92-2.3-4.13-4-5.78a11.62,11.62,0,0,1-1.5-1.9c-1.3-1.91-3.2-1.54-5.27-1.54Z"/><path class="cls-7" d="M294.07,170.38c-.83,0-1.62.9-2.44,1.13a10.49,10.49,0,0,0-2.17.92,3.84,3.84,0,0,0-1.91,2,8.06,8.06,0,0,0-.4,3.69c0,2-.43,3.91-.42,5.91s-.41,3.55-.4,5.42-.09,4,0,5.92a6.29,6.29,0,0,0,1.53,4c.34.43.75,1.3,1.35,1.46s.37.07.9-.14a6.29,6.29,0,0,0,2.26-2.16c.2-.25.36-.53.56-.77.67-.8,1.57-1.22,2.3-1.95,2.56-2.58,4.64-6.46,4.18-10.2-.08-.61-.36-1.13-.45-1.73a20,20,0,0,1,0-2.79c0-.56,0-1.12,0-1.68a11.08,11.08,0,0,0-.75-3,6.5,6.5,0,0,0-1.49-3.35c-.47-.48-2.53-1.21-2.64-1.73C294.35,171.15,294.61,171.12,294.07,170.38Z"/><path class="cls-6" d="M316.5,165.48a8,8,0,0,0-2.42.19,15.19,15.19,0,0,0-4,2.17,14.65,14.65,0,0,0-2.13,1.82,3.06,3.06,0,0,0-.4,2.35c.46,2.82,3.72,4.49,5.71,6.1a10.44,10.44,0,0,1,2.36,2.33c.5.76,1.51,3.37,2.51,3.55.63.12,2.47-1,2.93-1.47a10,10,0,0,0,.81-1.19,34.24,34.24,0,0,1,2.78-2.74l2.51-2.5a3.56,3.56,0,0,0,1.21-2.66,4.88,4.88,0,0,0-.35-2.71,10.42,10.42,0,0,0-4.89-3.94c-1.25-.58-2.55-.95-3.75-1.61a3.34,3.34,0,0,0-2.73-.42C317,165.2,318,165.34,316.5,165.48Z"/><path class="cls-6" d="M349.12,165.48c-.59.44-.77,1.09-1.31,1.54a14.82,14.82,0,0,1-1.29.9c-1.46,1-2.57,1.06-3.2,2.77a1.84,1.84,0,0,0,.18,2c.41.7.86,1.44,1.31,2.11a22.51,22.51,0,0,0,2.39,2.29c1.34,1.47,3.39,2.33,4.55,3.87.66.87,1.18,2.05,1.77,3s.82,2.13,2.13,1.14a7.36,7.36,0,0,0,1.83-2.51,9.55,9.55,0,0,1,2.76-3.25c1.46-1.09,2.9-1.3,4.2-2.74.79-.88,2.08-1.67,2.26-2.85a2.81,2.81,0,0,0-1.34-2.56,13,13,0,0,0-1.87-.79,20.38,20.38,0,0,0-2.52-1.13,38.8,38.8,0,0,1-4.09-1.43C354.83,166.92,352.57,166.71,349.12,165.48Z"/><path class="cls-7" d="M334,185.87a3.53,3.53,0,0,0-2,.6c-.52.28-2.36,1.27-2.51,1.84-.22.86.75,1.19,1.29,1.54.88.57,1,.57,1.94.14.09.32.3,1.26,0,1.53s-1.17-.07-1.59,0c-1.41.39-.35,1.61.33,2.17a10.56,10.56,0,0,0,5.19,2.34c2,.11,4.61.24,6.34-.81.68-.41,1.57-1.52,1.13-2.38s-1.9-.56-2.22-1.39c.87-1.45,3.39-1.05,3.55-3a3.26,3.26,0,0,0-.5-1.74,5.26,5.26,0,0,0-2-.9,5,5,0,0,0-1.83-.4,16.12,16.12,0,0,0-2.24-.42c-1.63,0-3.76-.09-5.16.83l.27,0"/><path class="cls-8" d="M337.3,200.55c-.85-.12-1.53.35-2.35.43-.6.06-1.22-.09-1.82,0-.87.06-1.63.41-2.51.44s-2,0-3,0c-2.47,0-6.63-.73-8.31,1.63-.88,1.24.17,1.57,1.39,1.65a29.61,29.61,0,0,0,6.42-.74,13.6,13.6,0,0,1,4.72.22,30.16,30.16,0,0,0,5.12.09h11.11a17.58,17.58,0,0,0,4.18-.31c.82-.18,2.37-.16,2.89-1,1-1.57-2.38-1.76-3.12-1.87a34,34,0,0,0-5.28-.5c-2.25,0-4.28-.63-6.49-.83C338.24,199.53,336.09,199.74,337.3,200.55Z"/><path class="cls-6" d="M324.25,215.23a74.75,74.75,0,0,0,9.55,2.46c2.59.47,6.15,1.56,8.73.46,1.51-.65,2.29-1.69,4-2.12a36.57,36.57,0,0,1,9.22-.81c2.48,0,7.42-.25,5.7,3.6-1,2.34-3.15,4.54-4.65,6.59a85.86,85.86,0,0,0-5.41,7.36c-.83,1.43-1.54,2.9-2.26,4.38s-1.1,2.76-1.63,4.18a19.58,19.58,0,0,1-1.21,2.87c-.64,1.15-.75,1.06-1.94,1.3a5.26,5.26,0,0,1-2.84,0,11,11,0,0,1-3.38-1.12,14.67,14.67,0,0,0-5.17-1.75c-1-.17-2.58.29-3.45-.16s-1.12-1.82-1.5-2.54a33.2,33.2,0,0,1-2.24-4.26c-.6-1.76-1.22-3.52-1.83-5.28-.77-1.81-1.73-3.49-2.44-5.33-1.5-3.87-5.14-6.15-5-10.69.06-1.52.41-2.76,2.11-2.83,3.4-.16,6.35,1.61,9.66,1.9C328.29,213.37,328.31,213.28,324.25,215.23Z"/><path class="cls-7" d="M354.62,169.22c-1.52,0-3.3-.47-4.37.79a6,6,0,0,0-.82,4.36c.6,3,4.85,6.59,7.77,5.49,1.46-.55,1.6-1.25,2.4-2.44,1-1.54,1.83-2.28,1.32-4.34s-1.09-2.62-3.08-2.58a6.48,6.48,0,0,1-2.08-.5,17.19,17.19,0,0,1-2.38-.29c-.1-.39.1-.56.59-.49"/><path class="cls-7" d="M322,170.35c-.81-1.06-6.4-1.12-7.66-.68a6.08,6.08,0,0,0-2.57,3.24c-.1,1.11,1.22,2.84,2,3.5s4.34,2.28,5.43,2.18,1.37-.89,2.15-1.64c.47-.44,1.17-.77,1.56-1.23a7.9,7.9,0,0,0,1-2.46c.84-2.21.37-2.15-.64-4.18"/><path class="cls-6" d="M322.21,156.51a34.33,34.33,0,0,1,6.83,1.22c.68.18,1.23.64,1.91.8s.87,0,1.35.51c.8.91.76,1.89,1,2.94.1.53.61.53.36,1.27s-1.21.52-1.57,1.09c-.66,1.06,1.48,1.92,2.19,2,1.27.11,2.07-.78,3.16-1.16.85-.31,2,.13,2.78-.48s.16-2.38,0-3.45c-.26-1.75,2.78-3.23,4.22-3.46,1.64-.27,3.48.35,5.08,0,1.32-.3,3-.37,4.14-1.24.72-.56,2.67-1.45,1.54-2.36a11,11,0,0,0-2.89-.8c-2.07-.48-4.27-.65-6.28-1.33-1.71-.58-3.37-1.5-5.12-2s-3.63-.08-5.26-.09a25.16,25.16,0,0,0-7.15,1.11c-2,.61-3.9,1.57-5.95,2.07-.83.2-3.71.53-3.56,1.51C319.19,156.24,323.71,156.13,322.21,156.51Z"/><path class="cls-9" d="M221.72,251.58c-1.14-.2-2.37-.5-3.34.22-.51.39-.6.72-.11,1.21a1.59,1.59,0,0,0,1.23.4,22.57,22.57,0,0,0,3.24-.81c.26,0,.32.07.42-.19a.54.54,0,0,0-.21-.58c-.4-.38-1.14-.24-1.63-.25"/><path class="cls-10" d="M288.36,273.55c-.72.89-.88,2.46-1.29,3.49-.75,1.88-1.35,3.75-2,5.68-1.45,4.6-3.3,9.1-4.42,13.81-.35,1.45-.66,2.83-.89,4.39a21.83,21.83,0,0,0-.43,4.49c.15,2.07.44,4,.43,6.12,0,2.51.08,5,0,7.54-.06,2.93-.75,5.85-1.07,8.76-.2,1.85-.58,4.37-.12,6.26a14.76,14.76,0,0,0,1.65,3.33,28,28,0,0,1,2.56,5.67c.85,2.9,1.53,5.79,2.2,8.74.42,1.83.67,3.68,1.13,5.49.66,2.54,1.61,5,2.4,7.49s2,5.08,2.57,7.67a10.37,10.37,0,0,0,.67,2.41,11.4,11.4,0,0,1,.94,2.11c.35,1.4,1,2.75,1.25,4.15a2.9,2.9,0,0,1-.39,2.26c-1.09,2.52-.14,6-.19,8.63-.09,4-.27,8.07-.19,12.1s2.58,8.31,4.94,11.56c1.38,1.9,3.87,5.2,4.07,7.67a63.46,63.46,0,0,0,1.09,9.82c.53,2.21,1.92,4,3,5.92.69,1.28.77,2.36,2,3.36a5,5,0,0,0,2.36,1.14c.26.05.62.24.89.17.44-.11,1.75-1.91,2-2.21,1.87-2.51,2.32-5.62,3.23-8.48.35-1.11.48-2.15.73-3.29.3-1.42.05-2.82.29-4.25a51.56,51.56,0,0,0,.74-10.31c-.11-2.82-.87-5.53-.83-8.33a34.62,34.62,0,0,0-.3-4.89c-.29-2.15-.24-4.7-.91-6.77a29,29,0,0,1-1.16-3.67,20.19,20.19,0,0,1-.08-3.48v-7.43a9.55,9.55,0,0,0-.61-4.19,32.32,32.32,0,0,1-1-3.59c-.69-2.25-1.91-4.31-2.66-6.54s-1.69-4.3-2.61-6.5a29.85,29.85,0,0,1-2-5.76c-.46-2.36-1.22-4.6-1.75-6.95a44.16,44.16,0,0,0-1.3-6,41.07,41.07,0,0,1-1.88-5.68,24.46,24.46,0,0,1-.08-5.41,27,27,0,0,1,1.25-6.18c.61-2.11.82-4.26,1.22-6.41.64-3.45,1-7,1.64-10.43.58-3.24.68-6.52,1.64-9.67.4-1.29.31-2,1.18-2.94a9,9,0,0,0,2.12-3.49c1.1-3.57.52-6.91.32-10.56a29,29,0,0,1,1.51-9.81c.41-1.38.77-2.76,1.17-4.14a31,31,0,0,0,1.38-4.18,12.52,12.52,0,0,0,0-4.23c-.41-1.67-2.08-2.79-3.13-4a7.72,7.72,0,0,0-2.71-2.23c-1.32-.52-3.53-.25-4.92-.2a7.53,7.53,0,0,0-4.95,1.79c-.83.67-1.63,1.37-2.4,2.11a18.14,18.14,0,0,0-3,2.89c-.41.64-.49,1.27-1,1.9a13.81,13.81,0,0,0-1.35,2.14c-.61,1.25-.9,2.49-1.4,3.77-.58,1.47-1.15,2.95-1.86,4.37-.48,1-1.54,3.54-1.34,4.68C287.07,275.22,287.18,275.08,288.36,273.55Z"/><path class="cls-6" d="M465.43,682c-3.76-1-7.92,0-11.77-.28-2.11-.13-4.38-.43-6.48-.72a27.59,27.59,0,0,1-5.85-1.84c-2.86-1.05-5.38-2.8-8.09-4.16-4.07-2-8.26-3.73-12.3-5.83a52.44,52.44,0,0,0-5.32-2.75c-2.34-.91-4.57-2.48-7.05-3-5.82-1.22-11.76-.69-17.67-.76,0,4.57-.23,9.21,0,13.77,0,.43.06.86.11,1.27a27.27,27.27,0,0,1,3.94,0c2.56.24,5.13.35,7.69.61a70.72,70.72,0,0,1,8.42,1.51c2.37.53,4.4,1.82,6.65,2.71,1.83.72,3.68,1.43,5.5,2.2,1.65.71,3.28,1.35,5,2a41.07,41.07,0,0,0,5.32,2c2.32.52,4.59,1.3,6.93,1.7,1.95.34,3.91.54,5.87.75a79.49,79.49,0,0,0,8.31.3,39.26,39.26,0,0,0,6-.08c3.19-.49,7.11-1.26,9.89-3,.93-.57,3.81-2.59,3.66-3.8C471.19,684.08,468.39,682.79,465.43,682Z"/><path class="cls-6" d="M369.49,662.24c0-1.6.59-2.43.92-3.91,0-.17,0-.34.08-.52l0,0c-1.62-1.59-2.34-3.49-3.4-5.45-1.58-2.92-3.54-5.49-4.51-8.71a16.27,16.27,0,0,1-.54-5c0-1-.06-2.08,0-3.1,0-1.65.6-3.25.76-4.89.29-3.06,1.15-6,1.55-9,.46-3.45.16-7,.16-10.49s0-7.23,0-10.84c0-5.67-.42-11.31-.41-17v-.44c-.73-2.79-1.51-5.57-2.43-8.26-1.32-3.88-2.59-8.48-4.7-12a43.93,43.93,0,0,0-2.71-3.67,7.73,7.73,0,0,1-1.15-2.55c-1.07-1.34-3-2.35-4.39-3.43a43.62,43.62,0,0,1-9.2-9.35c-3.61-5.24-8-10.74-9.42-17.06.5,6,.56,12.8-1.61,18.56s-5,11.32-7.46,17a29.64,29.64,0,0,1,1.73,2.93,27,27,0,0,0,1,2.58A9.86,9.86,0,0,1,324.9,570a17,17,0,0,1,1.66,4.69c1.14,5.27.57,10.54.81,15.88.15,3.26.88,6.5,1.23,9.75.25,2.36.32,4.73.59,7.08s.22,5,.59,7.44c.55,3.68.89,7.3,1.15,11,.3,4.34.74,8.63.89,13a30.19,30.19,0,0,0,2.36,10.93c2.74,6.19,5.26,12.19,10.49,16.76s11.46,8.48,18.1,10.24a52.31,52.31,0,0,0,7.55,1.6c-.16-3.43-.76-6.74-.82-10.14C369.46,666.21,369.43,664.21,369.49,662.24Z"/><path class="cls-6" d="M465.43,682c-3.76-1-7.92,0-11.77-.28-2.11-.13-4.38-.43-6.48-.72a27.59,27.59,0,0,1-5.85-1.84c-2.86-1.05-5.38-2.8-8.09-4.16-4.07-2-8.26-3.73-12.3-5.83a52.44,52.44,0,0,0-5.32-2.75c-2.34-.91-4.57-2.48-7.05-3-5.82-1.22-11.76-.69-17.67-.76,0,4.57-.23,9.21,0,13.77,0,.43.06.86.11,1.27a27.27,27.27,0,0,1,3.94,0c2.56.24,5.13.35,7.69.61a70.72,70.72,0,0,1,8.42,1.51c2.37.53,4.4,1.82,6.65,2.71,1.83.72,3.68,1.43,5.5,2.2,1.65.71,3.28,1.35,5,2a41.07,41.07,0,0,0,5.32,2c2.32.52,4.59,1.3,6.93,1.7,1.95.34,3.91.54,5.87.75a79.49,79.49,0,0,0,8.31.3,39.26,39.26,0,0,0,6-.08c3.19-.49,7.11-1.26,9.89-3,.93-.57,3.81-2.59,3.66-3.8C471.19,684.08,468.39,682.79,465.43,682Z"/><path class="cls-6" d="M369.49,662.24c0-1.6.59-2.43.92-3.91,0-.17,0-.34.08-.52l0,0c-1.62-1.59-2.34-3.49-3.4-5.45-1.58-2.92-3.54-5.49-4.51-8.71a16.27,16.27,0,0,1-.54-5c0-1-.06-2.08,0-3.1,0-1.65.6-3.25.76-4.89.29-3.06,1.15-6,1.55-9,.46-3.45.16-7,.16-10.49s0-7.23,0-10.84c0-5.67-.42-11.31-.41-17v-.44c-.73-2.79-1.51-5.57-2.43-8.26-1.32-3.88-2.59-8.48-4.7-12a43.93,43.93,0,0,0-2.71-3.67,7.73,7.73,0,0,1-1.15-2.55c-1.07-1.34-3-2.35-4.39-3.43a43.62,43.62,0,0,1-9.2-9.35c-3.61-5.24-8-10.74-9.42-17.06.5,6,.56,12.8-1.61,18.56s-5,11.32-7.46,17a29.64,29.64,0,0,1,1.73,2.93,27,27,0,0,0,1,2.58A9.86,9.86,0,0,1,324.9,570a17,17,0,0,1,1.66,4.69c1.14,5.27.57,10.54.81,15.88.15,3.26.88,6.5,1.23,9.75.25,2.36.32,4.73.59,7.08s.22,5,.59,7.44c.55,3.68.89,7.3,1.15,11,.3,4.34.74,8.63.89,13a30.19,30.19,0,0,0,2.36,10.93c2.74,6.19,5.26,12.19,10.49,16.76s11.46,8.48,18.1,10.24a52.31,52.31,0,0,0,7.55,1.6c-.16-3.43-.76-6.74-.82-10.14C369.46,666.21,369.43,664.21,369.49,662.24Z"/><path class="cls-7" d="M184.49,236.3c-1.24-.18-2.65,1.28-3.23,2.21-1.59,2.58-1.29,5.53-1.26,8.43,0,2.7-.95,5.37-1.64,8-.25.92-.81,2.23,0,3,.64.64,1.49.36,2.23,0a8.74,8.74,0,0,0,3-3.47,42.16,42.16,0,0,0,2.95-7.34c.26-.82.36-1.65.59-2.47s.79-1.68,1-2.54a5.65,5.65,0,0,0-1.82-4.62C186.36,237.5,186.44,237.51,184.49,236.3Z"/><path class="cls-7" d="M255.13,242.39c-.2-.91-1.32-.77-2-.8-.91,0-2-.75-2.89-.44-1.38.46-.88,3.56-.7,4.66a19.22,19.22,0,0,0,1.56,4.85,21.12,21.12,0,0,1,1,3.92c.47,2-.36,4.45.39,6.37.81,2.12,2.36.27,2.76-1s1.19-2.11,1.55-3.28a15.92,15.92,0,0,0,.37-3.57,29.85,29.85,0,0,0,.42-3c0-1.41.43-2.69.42-4.11s-.4-3.47-2.38-3.64C255.59,242.2,255.57,242.09,255.13,242.39Z"/><path class="cls-6" d="M241.75,237.83a9.69,9.69,0,0,0-4.57.7c-1.18.58-3.4,1.66-3.15,3.17.33,2,4,3.15,3.56,5.1-.19.87-.67,1.77-.09,2.62s1.35.54,2.22.32a10.1,10.1,0,0,0,2.44-.8,6.77,6.77,0,0,1,2.65-.92c1.76-.14,3.49-.42,3.47-2.45,0-1.1.16-1.78-.61-2.64a21,21,0,0,1-1.33-2.26c-1.08-1.54-2.25-1.62-4-1.62h.27"/><path class="cls-6" d="M216.06,242.31c.05-.75-.74-1-1.21-1.46-.67-.6-1.28-1.28-1.94-1.9a10.6,10.6,0,0,0-3-2c-1.13-.51-1.33,0-2,.94a4.85,4.85,0,0,1-2.2,1.67c-1.65.73-3.5,1.48-5.15,2.31-.64.32-.63,0-.82.68a2,2,0,0,0,.21,1.25c.6,1.4,1.47,1.92,2.58,2.94a18.18,18.18,0,0,1,2.86,3c.6.91.31,1.73.67,2.66.74,1.89,3.38,1.32,4.63.1.95-.92,1-2.09,1.54-3.13a14.76,14.76,0,0,1,2.3-2.8c.6-.61,1.86-1,2.3-1.7C217.38,243.86,216.42,243,216.06,242.31Z"/><path class="cls-7" d="M224.22,252.51a11.72,11.72,0,0,0-2.86.32c-.91.21-2-.18-2.86.06a1.59,1.59,0,0,0-.83,2.08c.28.81,1.28.78,2,.86.07.29.28,1.29,0,1.52-.54.44-1.06-.47-1.59-.41-.92.12-.78,1.53-.31,2,1.37,1.41,4.47.91,6.24.91a16.54,16.54,0,0,1,3.38.09c.67.14,1.71.8,2.35-.07a2.77,2.77,0,0,0-.1-2.58c-.76-1-1.94-.48-2.94-.77,0-.71.64-.77,1.2-.86a.8.8,0,0,1,.71-.23.63.63,0,0,0,.49.37c1.41.08.89-1.34.23-1.91-1.58-1.4-3.73-1.38-5.79-1.38h.27"/><path class="cls-11" d="M211.58,268c.89,0,1.62-.46,2.44-.32.46.08,1,.31,1.5.42.76.16,1.86.82,2.6.76,1-.08,2.08-.77,3.14-.88a16.17,16.17,0,0,0,1.84-.07,9.25,9.25,0,0,1,2.17-.32,24.26,24.26,0,0,1,4.43,0A13,13,0,0,0,231,268a14.78,14.78,0,0,1,1.63,0c1.74.38,4.63.55,5.95,2a10.65,10.65,0,0,1,2,5.62c0,.84-.11,1.73,0,2.56s.55,1.31.43,2.23c-.24,1.87-1.07,3.66-1.24,5.54-.18,2.07-1.39,4-2.44,5.68-.49.77-.26,1.36-.44,2.24-.24,1.1-.83,2.25-1.17,3.32-.53,1.66-1.29,3.16-2,4.74-.41,1-.44,1.89-.89,2.78-1.66,3.28-5.74,3.71-9,2.91s-5.23-2.85-7.23-5.48a19.35,19.35,0,0,1-2.56-5.41,38.6,38.6,0,0,0-2.85-5.72,13.9,13.9,0,0,1-1.63-3.3,26,26,0,0,0-1.63-4.44c-1.1-2.52-2.51-4.71-2.45-7.55,0-2,1.26-3.63,2.14-5.31C208.75,268.25,211.13,266.76,211.58,268Z"/><path class="cls-12" d="M231.56,273v4.49a44.51,44.51,0,0,0,.84,6c.1.87-.09,1.74.07,2.61a17.73,17.73,0,0,1,.31,3.5,21.81,21.81,0,0,0,.43,3,23.12,23.12,0,0,1,0,2.76v4.58c0,1.36.27,3.14-.2,4.37s-1.31,1.67-2.56,2.13a30.94,30.94,0,0,1-3.15,1.16,15.59,15.59,0,0,1-3.88.37,3,3,0,0,1-2.85-1.46,19.35,19.35,0,0,1-2.15-3.43,19,19,0,0,1-1.13-5.49c-.16-1.62,0-3.35,0-5a31,31,0,0,1,0-5.19,11.1,11.1,0,0,0,.37-2.34c0-1.2,0-2.4,0-3.6v-4.73c0-1.71-.44-3.32.92-4.49a5.16,5.16,0,0,1,3.57-.92c1.5,0,3,0,4.49,0a6.43,6.43,0,0,1,2.36.08C229.69,271.76,229.82,272.47,231.56,273Z"/><path class="cls-6" d="M241,289.62a6.56,6.56,0,0,0-1.21,2.59q-.75,2.46-1.34,5c-.45,1.91-1,3.71-1.42,5.64a10.14,10.14,0,0,1-1.32,3,8.76,8.76,0,0,1-2.44,3c-1.26.78-2.76,1.17-4.1,1.84-.59.3-2.9.89-2.89,1.73s2.67,2.44,3.32,2.67a11.08,11.08,0,0,0,6.07-.21c1.85-.68,2.88-2.18,4.13-3.61,1-1.16,2.33-2.1,3.34-3.3,1.46-1.72,2.82-3.63,4.19-5.42a39.31,39.31,0,0,0,2.64-4c.74-1.26.43-2.79.09-4.16A13.86,13.86,0,0,1,250,290a38.35,38.35,0,0,1,1.14-3.67,17.6,17.6,0,0,0,.09-4c0-1.44.39-3.46,0-4.81s-1.75-1.95-2.77-2.61c-.65-.42-1.17-1.24-2.06-.74-.65.36-1.18,1.57-1.51,2.14a10.82,10.82,0,0,0-1.33,3.77c-.22,1.3.1,2.62-.07,3.92a8.42,8.42,0,0,1-.81,2.5C241.93,288,240.72,288.74,241,289.62Z"/><path class="cls-6" d="M238.9,249.65a18.78,18.78,0,0,1-1.22,7.94c-.62,1.44-1.18,2.87-1.75,4.32-.39,1-.53,1.57.3,2.27a30.37,30.37,0,0,0,2.68,1.78,21.56,21.56,0,0,0,2.88,2,9.66,9.66,0,0,0,2.6.9c1.08.15,3.1,0,3.86.63a7.59,7.59,0,0,1,.86,1.79c.34,1,.2,1.2,1.41,1.24a3.4,3.4,0,0,0,2.28-.5c1.4-.77,2.86-.75,4-2a2.47,2.47,0,0,0,.9-1.82,7.35,7.35,0,0,0-.19-3.08,13.41,13.41,0,0,0-1.68-2.17,17.52,17.52,0,0,0-2.79-2.72c-1.74-1.31-3.87-1.73-5.7-2.84a27.69,27.69,0,0,1-3.08-2.23,15.4,15.4,0,0,1-2.06-1.72c-.51-.59-1-1.64-1.62-2C240.4,251.51,240.26,251.6,238.9,249.65Z"/><path class="cls-10" d="M225.35,473.93c-.87-4.21,0-8.6-.82-12.87-.77-4.09-1.41-8.22-2-12.34-.5-3.61-1.52-7.07-2.32-10.6-.47-2.06-1.27-4.06-1.32-6.19a21.54,21.54,0,0,0-.38-4.41,13.8,13.8,0,0,0-1-2.29,17,17,0,0,0-1.4-3,16.57,16.57,0,0,1-1.58-2,12.91,12.91,0,0,0-1.2-1.93,22.78,22.78,0,0,1-3.06-6,58.1,58.1,0,0,1-3.41-13.18c-.67-5.39-1.7-10.7-1.8-16.16,0-2.69-.27-5.32-.36-8l-.06.15c0-.25,0-.5,0-.75s0-.5,0-.76l.06.11c.12-2.88-.08-5.83-.05-8.69a36.76,36.76,0,0,0-1.64-9.79,44.46,44.46,0,0,1-1.66-10.31c-.54-1.88-1.11-3.75-1.8-5.6-1.31-3.49-3-6.71-6.21-8.77-2-1.28-4.11-2.31-6.18-3.45h-2.6a30.23,30.23,0,0,0-3.42.34c-1,.16-2.17,0-2.93.89a7.55,7.55,0,0,0-.77,1.82,24,24,0,0,0-1.77,9c-.14,5.12,1.21,10,1.94,15,.55,3.79,1.93,7.41,2.47,11.2a97.77,97.77,0,0,1,.48,10.55c.1,3.31,1.55,6.39,2.36,9.54,1,3.74,0,7.53.57,11.31.34,2.41,1.53,4.81,2.19,7.17.79,2.81,2.21,5.27,3.24,8a38.88,38.88,0,0,0,2.16,5.21c.74,1.37,1.6,2.65,2.33,4a33.78,33.78,0,0,0,3.07,5c.72.9,1.82,1.19,2.59,2,1.4,1.51,1.1,3.91,1.09,5.81a82.16,82.16,0,0,0,.31,10.29c.39,3.39-.14,6.84.4,10.18.18,1.07,0,2.1.09,3.17a32.76,32.76,0,0,0,.71,3.32A94.49,94.49,0,0,0,205,472.74a9.34,9.34,0,0,0,1,2.43c.5.73,1.39,1.06,2,1.68a42,42,0,0,1,6.15,8.06c.57-.24.92-.91,1.41-1.17.63.86.54,1.94,1.35,2.69-.29-1.62,1.6-3.46,2.51-4.66a5.18,5.18,0,0,1,1.24,2.86,12.21,12.21,0,0,0,.81,2.75c.52.64.59.47,1.11,0a8,8,0,0,0,2-3,15.82,15.82,0,0,0,.89-4.58C225.43,477.94,225.73,475.74,225.35,473.93Z"/><path class="cls-7" d="M208.39,240.24a3.52,3.52,0,0,0-1.26.15c-.76.27-2.17.15-2.79.69a3.26,3.26,0,0,0-.67,1.67,5.82,5.82,0,0,0,.27,2,4.88,4.88,0,0,0,2.41,3.27,3.71,3.71,0,0,0,3.52.59,8.7,8.7,0,0,0,2.8-2.89c.17-.24.31-.54.48-.77s.31-.21.44-.4c.35-.53.11-1.34,0-1.9a2.77,2.77,0,0,0-1.67-1.94,5.22,5.22,0,0,0-1.29-.34c-.26-.06-.57-.06-.82-.13s-.28-.22-.51-.24C209.27,239.93,209.26,239.87,208.39,240.24Z"/><path class="cls-7" d="M240.7,240.45a3.54,3.54,0,0,0-2.9,1.09c-.79.83,0,2.15.34,3a3.34,3.34,0,0,0,3.71,2.73,3,3,0,0,0,1.48-.38,5.93,5.93,0,0,0,2.25-1.43c.6-.75.15-2-.06-2.79-.55-2.1-2.78-2.13-4.6-2.46"/><path class="cls-9" d="M243.27,243c-.39.31-.88.93-.6,1.46a1,1,0,0,0,1.25.42c.42-.14.91-.59.81-1a1.54,1.54,0,0,0-1.46-.86"/><path class="cls-9" d="M205,242.16c-.09.28-.34.45-.41.75a3,3,0,0,0,0,1.07c.18.88.74,1.18,1.32,1.79.94-.17.12-1.92,0-2.37s.06-1,0-1.45-.8-.52-1.26-.39l0,.18"/><path class="cls-9" d="M334.55,183.8c-.15,0-.31.09-.45.14-.55.18-1.14.23-1.7.38a5.05,5.05,0,0,0-.95.32c-.26.12-.49.3-.74.43a5.77,5.77,0,0,0-1.15.94,1.27,1.27,0,0,0-.41.78c0,.2,0,.42.19.51a2.25,2.25,0,0,0,1.31,0c.59-.15,1.08-.5,1.67-.66.37-.1.75-.13,1.13-.21a10.16,10.16,0,0,1,1.07-.22l1-.12a9.56,9.56,0,0,1,1-.17h1.16c.42,0,.83-.06,1.24-.07a3,3,0,0,0,1.75-.29A.54.54,0,0,0,341,185c0-.11-.2-.16-.31-.2-.27-.11-.58-.19-.85-.28a13,13,0,0,0-2.7-.45c-.58,0-1.16-.13-1.73-.14S334.53,183.94,334.55,183.8Z"/><path class="cls-9" d="M360.27,176.25c-.33.33-.67.65-1,1s-.47.72-.79,1a2.86,2.86,0,0,1-.42.36,4.14,4.14,0,0,0-.72.38c-.19.17-.23.33,0,.44s.73-.16,1-.39a7.15,7.15,0,0,1,1.43-.86,1.8,1.8,0,0,0,.84-.88C360.66,177.16,360.91,176.42,360.27,176.25Z"/><path class="cls-9" d="M313.86,176.69a3.3,3.3,0,0,0,1.23.89c.49.27,1.06.37,1.56.63a2.93,2.93,0,0,0,1.15.49c.22,0,.19-.18.15-.36a.89.89,0,0,0-.51-.53,2.08,2.08,0,0,0-.59-.21,3.16,3.16,0,0,1-.54-.2,9.08,9.08,0,0,1-1.15-.5c-.27-.13-.68-.4-1-.27C314.16,176.65,314.16,176.67,313.86,176.69Z"/><path class="cls-9" d="M314.51,173.45a9.82,9.82,0,0,1-.71-.86c-.05-.05-.41-.45-.52-.43a.36.36,0,0,0-.17.13,1.18,1.18,0,0,0-.48,1.27c.22.56.78.8,1.15,1.22s.77,1.22,1.26.58a2.09,2.09,0,0,0,.33-1c0-.27-.24-.75-.57-.75"/><path class="cls-9" d="M357.11,174.17c-.12,0-.17.26-.21.37a1.66,1.66,0,0,0-.15.61,1.23,1.23,0,0,0,.22,1,1.08,1.08,0,0,0,.62.31,1.28,1.28,0,0,0,1.32-1.14c0-.3,0-.59,0-.89a2.43,2.43,0,0,1,0-.27,2.65,2.65,0,0,1,.13-.54c.06-.35,0-.78-.44-.83a1.29,1.29,0,0,0-1.17.41,1.4,1.4,0,0,0-.38.64c0,.2,0,.39-.06.59.07,0,.11,0,.19,0"/><path class="cls-6" d="M330.88,144.48a6.91,6.91,0,0,0-1,.1c-.89.11-1.79.11-2.68.25a15.11,15.11,0,0,0-2.55.72,18.82,18.82,0,0,0-2.44.92,37.48,37.48,0,0,0-4.7,2.55,12,12,0,0,0-1.76,1.42,5.15,5.15,0,0,0-1.28,1.76,1.59,1.59,0,0,0,.05,1.3c.08.11.05.1.17.15a3,3,0,0,0,.7-.08l1.61-.09c.47,0,1,0,1.42,0a9.93,9.93,0,0,0,2.66-.95,9.89,9.89,0,0,1,2.13-1,14.53,14.53,0,0,0,1.61-.39c.74-.2,1.44-.43,2.19-.59s1.79-.39,2.67-.64a12.26,12.26,0,0,1,2.57-.28,33.86,33.86,0,0,1,3.49,0c1.29,0,2.57.19,3.86.2s2.38.05,3.56.12a18.93,18.93,0,0,1,4.74.7c.93.3,1.84.64,2.77.92a12.79,12.79,0,0,1,2.29,1c1.73.91,3.85,2,5.87,1.58a1.83,1.83,0,0,0,1.27-.63,2,2,0,0,0,.27-.93,3,3,0,0,0-1.18-2.05,17.57,17.57,0,0,0-1.54-1.32,9.18,9.18,0,0,0-2.37-1.07,14.68,14.68,0,0,0-1.67-.53c-.68-.17-1.36-.24-2-.36-1-.18-1.9-.63-2.91-.78-2.26-.33-4.51-.71-6.78-1-.53-.07-1.06-.12-1.58-.22-.91-.17-1.76-.45-2.68-.55-1.52-.18-3-.35-4.57-.48a30.67,30.67,0,0,0-4.49.13"/><path class="cls-10" d="M365.84,316c.15.9-.35,1.71-.42,2.6a37.66,37.66,0,0,1-.47,5c-.34,1.64-.92,3.19-1.23,4.85-.18,1-.51,1.85-.75,2.79a25.88,25.88,0,0,0-.45,3.81c-.25,2.14-1.2,4.17-1.74,6.25a29.68,29.68,0,0,1-1.68,5.48c-1.88,3.91-4.16,7.63-6,11.59-.69,1.5-.79,2.7-1.93,3.73-.94.86-2,1.6-2.91,2.48a30.8,30.8,0,0,1-3.74,3c-1.63,1.12-1.54,3.06-1.53,4.83s0,3.74,0,5.61a85.81,85.81,0,0,1-1.14,13.39c-.21,1.32.05,2.64-.18,3.94a10.84,10.84,0,0,0-.37,1.69c0,1.11.42,2.2.48,3.3.18,3.9,0,7.86,0,11.77v5.39a27.15,27.15,0,0,1-.42,4.16,12.46,12.46,0,0,0,.11,3.76,22.07,22.07,0,0,1,.31,4.61,11,11,0,0,1,0,1.81c-.12.74-.67,1.31-.84,2a4.64,4.64,0,0,0-.21,1.83c.13.81.6,1.14.95,1.82.47.93.9,2.08,1.33,3.05s.9,1.91,1.3,2.88c.87,2.11,1.8,4.12,2.76,6.19,1.06-2.32,1.11-4.75,2-7.09a22.25,22.25,0,0,1,1.75-4.21c1.29-2,3-3.65,4.44-5.47s3.72-2.72,4.75-4.94c.41-.88.64-1.84,1-2.75,1.2-3.27,2.27-6.57,3.22-9.93.68-2.39,1.37-4.72,2.11-7.08.23-.72.39-1.42.61-2.17.75-2.7,1.11-6.45.11-9.1-1.28-3.35-1.2-7.18-2.65-10.59-.17-.39-.95-1.31-.9-1.8s1.11-1.2,1.43-1.53c.89-.9,1.66-1.95,2.52-2.91.55-.63.92-1.39,1.52-2s1.48-1.19,2.16-2,1.37-1.94,2.21-2.79,2-1.63,3-2.53a47.35,47.35,0,0,0,5.22-5.92c2.07-2.74,3.55-5.94,5.6-8.72,2.76-3.74,6.39-7,8.08-11.4a46.24,46.24,0,0,1,2.48-6c1.38-2.5,3-4.87,4.3-7.42,2.3-4.6,4.19-9.38,2.06-14.41a17.36,17.36,0,0,1-1.49-4,24.43,24.43,0,0,1-.06-3.73c0-3.28.6-6.31.12-9.59-1-6.78-4.81-12.57-6.45-19.19-.9-3.67-1.57-7.22-3.2-10.66s-4.95-6.14-7.83-8.53a17.05,17.05,0,0,0-7.88-3.88c-1.34-.27-.86,1.28-.86,2.25a69.66,69.66,0,0,1-.92,11.17c-.77,5-.11,10.12-.24,15.14-.11,4.37-2,8.34-4.33,11.95-1.7,2.6-3.64,4.79-4.9,7.65-.76,1.75-1.93,3.39-1.88,5.4C364.35,310.68,364.5,310.47,365.84,316Z"/><path class="cls-10" d="M269.59,328.63c-5.95-3.3-14-1.26-16.43,6.06-1.54,4.56.18,9.17,1.36,13.6a35.61,35.61,0,0,1,1.32,8.75,16.06,16.06,0,0,1,.91,1.69,13,13,0,0,1,.9,5.91,49.5,49.5,0,0,1-1.09,9.23c-1,5.64-1.88,11.74-4.37,17-1.42,3-2.36,6.14-3.54,9.24-1.25,3.28-2.83,6.38-3.69,9.8-1,3.8-2.24,7.57-2.9,11.42a23.2,23.2,0,0,0,0,8.35,29.23,29.23,0,0,1,.51,6c0,3.47-.86,6.5-1.54,9.9-.79,4-1.67,8-2.75,11.94-.5,1.85-.87,3.74-1.4,5.58a23.85,23.85,0,0,0-1.27,4.49,29.3,29.3,0,0,0,.53,6.93c.2,1.27.73,2.41,1,3.64s.49,2.68.8,4a27.49,27.49,0,0,0,1.72,5.09c.69,1.47,1.81,2.76,2.59,4.19.34.61.88,1.83,1.85,1.66,0-.61.45-.95.49-1.57a12.32,12.32,0,0,0-.42-2c-.24-2.28-1.58-4.36-1.14-6.72.68-3.71,2.77-6.9,4.41-10.22a46.09,46.09,0,0,1,6.95-10.42c1.3-1.46,2.92-2.76,3.66-4.65.53-1.37.24-2.64.42-4.05s.23-2.7.47-4c.34-1.9.24-3.82.63-5.71a19.58,19.58,0,0,0-.74-9.13c-.42-1.38-.74-2.77-1.22-4.14a3.1,3.1,0,0,1,.09-3c2.65-5.17,6.57-9.49,10-14.13,1.73-2.31,3.17-4.81,4.86-7.14a45.42,45.42,0,0,0,3.23-4.07c.47-.82.9-1.71,1.31-2.57a25.11,25.11,0,0,0,1.61-5.68c.25-1.21.32-2.46.58-3.67a19.83,19.83,0,0,0,.76-3.66,24.33,24.33,0,0,0-.34-5.4c-.37-1.9.15-3.38.59-5.19,0-.07.05-.14.07-.2A201.6,201.6,0,0,0,278.67,355C277.42,346.35,275.29,335.71,269.59,328.63Z"/></g></g></svg>