<svg xmlns="http://www.w3.org/2000/svg" viewBox="0 0 774.42 575.66"><defs><style>.cls-1{fill:#ff4c4f;opacity:0.5;}.cls-2{fill:#001e82;opacity:0.8;}</style></defs><title>Asset 1</title><g id="Layer_2" data-name="Layer 2"><g id="Layer_1-2" data-name="Layer 1"><path class="cls-1" d="M536,130.68c31.76,31.71,60.74,71.45,61.47,115.41.69,41-23.29,76.68-47.77,108.12A1247.62,1247.62,0,0,1,417.44,499c-33.14,31-69.54,61-114,71.86-39.15,9.57-81.2,3.41-121.22-6.78-45.64-11.62-92-29.6-125.2-64.33C16.74,457.6,2.13,397,.23,339.86c-3-90.27,22.88-181.49,80.28-247.51C124.43,41.84,187.53,7.64,255.33,1c63.15-6.2,121.55,18.09,177.36,50.43A504.89,504.89,0,0,1,536,130.68Z"/><path class="cls-2" d="M254.44,95c-26.14,12.41-52,27-73.92,46.55S140.68,186,134.57,212c-8.38,35.61,5.86,67.58,21.31,96,29.22,53.86,64.07,104.71,110,145.14s103.63,70.19,170,78.67,141.82-5.52,206.5-45S759.09,381.42,771.37,314.13c7.49-41.05.48-80.56-13.49-115.62-13.18-33.07-31.25-73.63-56-98.85C680.17,77.51,639,66.07,607.77,57.35,538.58,38,460.63,36.23,382.66,52.13A562.22,562.22,0,0,0,254.44,95Z"/></g></g></svg>