<svg xmlns="http://www.w3.org/2000/svg" viewBox="0 0 377.53 303.22"><defs><style>.cls-1,.cls-5{font-size:14px;font-family:Raleway;}.cls-1{letter-spacing:0.2em;}.cls-2{letter-spacing:0.2em;}.cls-3{letter-spacing:0.2em;}.cls-4{letter-spacing:0.17em;}.cls-5{letter-spacing:0.15em;}.cls-6{letter-spacing:0.14em;}.cls-7{letter-spacing:0.15em;}.cls-8{letter-spacing:0.14em;}.cls-9{fill:#2a2d7d;}.cls-10{fill:#580000;}.cls-11{fill:#ff3351;}.cls-12{fill:#ff6262;}.cls-13{fill:#ff4344;opacity:0.5;}.cls-14{fill:#ffd1d1;}.cls-15{fill:#bf7fb9;}.cls-16{fill:#010101;}.cls-17{fill:#c1c1c1;}.cls-18{fill:#737373;}.cls-19{fill:#00aa64;}.cls-20{fill:#ff3756;}.cls-21{fill:#ffeb00;}</style></defs><title>Asset 194</title><g id="Layer_2" data-name="Layer 2"><g id="Layer_1-2" data-name="Layer 1"><text class="cls-1" transform="translate(53.43 20.91)">#580000</text><text class="cls-1" transform="translate(53.43 64.36)">#2a2d7d</text><text class="cls-1" transform="translate(53.43 108.33)">#<tspan class="cls-2" x="12.38" y="0">b</tspan><tspan class="cls-3" x="23.76" y="0">f7fb9</tspan><tspan class="cls-4" x="71.99" y="0">v</tspan></text><text class="cls-5" transform="translate(257.94 20.91)">#010101</text><text class="cls-5" transform="translate(257.94 64.36)">#7<tspan class="cls-6" x="21.48" y="0">3</tspan><tspan class="cls-7" x="30.95" y="0">7</tspan><tspan class="cls-6" x="40.75" y="0">3</tspan><tspan x="50.23" y="0">73</tspan></text><text class="cls-5" transform="translate(257.94 108.33)">#c1c1c1</text><text class="cls-5" transform="translate(257.94 189.03)">#ffeb00</text><text class="cls-5" transform="translate(257.94 232.48)">#00aa64</text><text class="cls-5" transform="translate(257.94 276.45)">#ff<tspan class="cls-6" x="22.16" y="0">3</tspan><tspan class="cls-8" x="31.64" y="0">7</tspan><tspan x="41.23" y="0">56</tspan></text><text class="cls-1" transform="translate(53.43 188.29)">#ff3351</text><text class="cls-1" transform="translate(65.4 207.7)">#ff6262</text><text class="cls-1" transform="translate(53.43 267.2)">#ff4344</text><text class="cls-1" transform="translate(65.4 286.61)">#ffd1d1</text><path class="cls-9" d="M1.65,56.26c-2,4.3-2.33,9.49-.22,13.72s7,7.18,11.62,6.37A11.92,11.92,0,0,0,17,74.85a16.15,16.15,0,0,0,7.66-16c-.83-5.42-5.19-11.12-10.63-12.6S3.59,52,1.65,56.26Z"/><path class="cls-10" d="M1.65,13c-2,4.3-2.33,9.49-.22,13.72s7,7.18,11.62,6.37A11.92,11.92,0,0,0,17,31.58a16.15,16.15,0,0,0,7.66-16C23.83,10.14,19.47,4.44,14,3S3.59,8.77,1.65,13Z"/><path class="cls-11" d="M1.65,183.05c-2,4.3-2.33,9.5-.22,13.73s7,7.17,11.62,6.37A11.94,11.94,0,0,0,17,201.64a16.14,16.14,0,0,0,7.66-16C23.83,180.21,19.47,174.51,14,173S3.59,178.83,1.65,183.05Z"/><path class="cls-12" d="M13.82,198.28c-2,4.3-2.33,9.49-.22,13.73s7,7.17,11.62,6.36a12.05,12.05,0,0,0,4-1.5,16.15,16.15,0,0,0,7.65-16c-.83-5.41-5.19-11.12-10.63-12.6S15.76,194.06,13.82,198.28Z"/><path class="cls-13" d="M1.65,253.18c-2,4.3-2.33,9.49-.22,13.73s7,7.17,11.62,6.36a11.92,11.92,0,0,0,3.95-1.5,16.15,16.15,0,0,0,7.66-16c-.83-5.41-5.19-11.12-10.63-12.6S3.59,249,1.65,253.18Z"/><path class="cls-14" d="M13.82,268.41c-2,4.3-2.33,9.49-.22,13.72s7,7.17,11.62,6.37a12.05,12.05,0,0,0,4-1.5,16.15,16.15,0,0,0,7.65-16c-.83-5.41-5.19-11.11-10.63-12.59S15.76,264.19,13.82,268.41Z"/><path class="cls-15" d="M1.65,99.53c-2,4.3-2.33,9.49-.22,13.72s7,7.18,11.62,6.37a11.92,11.92,0,0,0,3.95-1.5,16.15,16.15,0,0,0,7.66-16C23.83,96.68,19.47,91,14,89.5S3.59,95.31,1.65,99.53Z"/><path class="cls-16" d="M206.12,10.23c-2,4.3-2.33,9.49-.22,13.72s7,7.17,11.62,6.37a12.05,12.05,0,0,0,4-1.5,16.15,16.15,0,0,0,7.65-16C228.3,7.38,223.94,1.68,218.5.2S208.06,6,206.12,10.23Z"/><path class="cls-17" d="M206.12,93c-2,4.3-2.33,9.49-.22,13.73s7,7.17,11.62,6.36a12.05,12.05,0,0,0,4-1.5,16.15,16.15,0,0,0,7.65-16c-.83-5.41-5.19-11.11-10.63-12.6S208.06,88.8,206.12,93Z"/><path class="cls-18" d="M206.12,54.38c-2,4.3-2.33,9.5-.22,13.73s7,7.17,11.62,6.36a11.84,11.84,0,0,0,4-1.5,16.14,16.14,0,0,0,7.65-16c-.83-5.41-5.19-11.11-10.63-12.6S208.06,50.16,206.12,54.38Z"/><path class="cls-19" d="M206.12,226.32c-2,4.3-2.33,9.5-.22,13.73s7,7.17,11.62,6.37a12.07,12.07,0,0,0,4-1.51,16.13,16.13,0,0,0,7.65-16c-.83-5.41-5.19-11.11-10.63-12.59S208.06,222.1,206.12,226.32Z"/><path class="cls-20" d="M206.12,268.09c-2,4.3-2.33,9.49-.22,13.72s7,7.17,11.62,6.37a12.05,12.05,0,0,0,4-1.5,16.15,16.15,0,0,0,7.65-16c-.83-5.41-5.19-11.11-10.63-12.59S208.06,263.87,206.12,268.09Z"/><path class="cls-21" d="M206.12,183.05c-2,4.3-2.33,9.5-.22,13.73s7,7.17,11.62,6.37a12.07,12.07,0,0,0,4-1.51,16.13,16.13,0,0,0,7.65-16c-.83-5.41-5.19-11.11-10.63-12.59S208.06,178.83,206.12,183.05Z"/></g></g></svg>