<svg xmlns="http://www.w3.org/2000/svg" viewBox="0 0 514.33 325.16"><defs><style>.cls-1{fill:none;stroke:#3b3c3b;stroke-width:0.25px;}.cls-2{fill:#001181;}.cls-3{fill:#fff;}.cls-4{fill:#bf7fb9;}.cls-5{fill:#ff4a4a;}.cls-6{fill:#580000;}.cls-7{fill:#231f20;}.cls-8{fill:#3b3c3b;}</style></defs><title>Asset 187</title><g id="Layer_2" data-name="Layer 2"><g id="Layer_1-2" data-name="Layer 1"><line class="cls-1" y1="325.04" x2="514.33" y2="325.04"/><line class="cls-1" y1="270.04" x2="514.33" y2="270.04"/><line class="cls-1" y1="215.16" x2="514.33" y2="215.16"/><line class="cls-1" y1="160.16" x2="514.33" y2="160.16"/><line class="cls-1" y1="105.16" x2="514.33" y2="105.16"/><line class="cls-1" y1="50.16" x2="514.33" y2="50.16"/><rect class="cls-2" x="74.33" y="79.3" width="30" height="245.22"/><path class="cls-3" d="M87.59,138.9a1.16,1.16,0,0,0,.15.62,1.18,1.18,0,0,0,.39.41,1.81,1.81,0,0,0,.55.22,3.39,3.39,0,0,0,.64.06H92v1H89.32a4.27,4.27,0,0,1-1-.13,2.37,2.37,0,0,1-.84-.42,2,2,0,0,1-.57-.72,2.47,2.47,0,0,1-.21-1.06,2.36,2.36,0,0,1,.23-1.08,2,2,0,0,1,.58-.73,2.51,2.51,0,0,1,.84-.4,4.15,4.15,0,0,1,1-.12H92v1H89.32a2.81,2.81,0,0,0-.65.07,1.48,1.48,0,0,0-.55.22,1,1,0,0,0-.38.4A1.11,1.11,0,0,0,87.59,138.9Z"/><path class="cls-3" d="M90.64,146.67a1.07,1.07,0,0,0,.14-.2,2.45,2.45,0,0,0,.18-.33,3.12,3.12,0,0,0,.15-.43,2,2,0,0,0,.06-.48,1.08,1.08,0,0,0-.16-.63.52.52,0,0,0-.44-.21.51.51,0,0,0-.28.07.9.9,0,0,0-.19.23,3,3,0,0,0-.15.38c0,.15-.09.33-.14.53a7.44,7.44,0,0,1-.23.71,2,2,0,0,1-.3.54,1.18,1.18,0,0,1-.43.34,1.4,1.4,0,0,1-.62.12,1.54,1.54,0,0,1-.73-.16,1.38,1.38,0,0,1-.49-.44,2,2,0,0,1-.27-.63,2.94,2.94,0,0,1-.09-.74,4,4,0,0,1,.18-1.19,3.66,3.66,0,0,1,.51-1.05l.89.46a2.75,2.75,0,0,0-.17.24,4,4,0,0,0-.22.42,3.66,3.66,0,0,0-.18.53,2.47,2.47,0,0,0-.08.6c0,.57.18.86.55.86a.43.43,0,0,0,.29-.1.79.79,0,0,0,.21-.28,2.57,2.57,0,0,0,.17-.43l.16-.57a4.53,4.53,0,0,1,.23-.66,1.64,1.64,0,0,1,.29-.47,1.13,1.13,0,0,1,.39-.28,1.25,1.25,0,0,1,.53-.1,1.66,1.66,0,0,1,.72.15,1.46,1.46,0,0,1,.53.42,1.91,1.91,0,0,1,.32.62,2.57,2.57,0,0,1,.1.75,2.91,2.91,0,0,1-.17,1,3.93,3.93,0,0,1-.42.82Z"/><path class="cls-3" d="M87.62,153.07h-.91v-3.7H92V153h-.91v-2.59H89.85v2.24H89v-2.24H87.62Z"/><path class="cls-3" d="M90.64,158.34a1.07,1.07,0,0,0,.14-.2,2.45,2.45,0,0,0,.18-.33,3.12,3.12,0,0,0,.15-.43,2,2,0,0,0,.06-.48,1.08,1.08,0,0,0-.16-.63.52.52,0,0,0-.44-.21.51.51,0,0,0-.28.07.9.9,0,0,0-.19.23,3,3,0,0,0-.15.38c0,.15-.09.33-.14.53a7.44,7.44,0,0,1-.23.71,2,2,0,0,1-.3.54,1.18,1.18,0,0,1-.43.34,1.4,1.4,0,0,1-.62.12,1.54,1.54,0,0,1-.73-.16,1.38,1.38,0,0,1-.49-.44,2,2,0,0,1-.27-.63,2.94,2.94,0,0,1-.09-.74,4,4,0,0,1,.18-1.19,3.66,3.66,0,0,1,.51-1l.89.46a2.75,2.75,0,0,0-.17.24,4,4,0,0,0-.22.42,3.66,3.66,0,0,0-.18.53,2.47,2.47,0,0,0-.08.6c0,.57.18.86.55.86a.43.43,0,0,0,.29-.1.79.79,0,0,0,.21-.28,2.57,2.57,0,0,0,.17-.43l.16-.57a5.18,5.18,0,0,1,.23-.67,1.72,1.72,0,0,1,.29-.46,1.32,1.32,0,0,1,.39-.29,1.44,1.44,0,0,1,.53-.09,1.66,1.66,0,0,1,.72.15,1.46,1.46,0,0,1,.53.42,1.91,1.91,0,0,1,.32.62,2.57,2.57,0,0,1,.1.75,2.91,2.91,0,0,1-.17,1,3.93,3.93,0,0,1-.42.82Z"/><path class="cls-3" d="M89.41,163.49a2.73,2.73,0,0,1,1,.18A2.53,2.53,0,0,1,91.83,165a2.51,2.51,0,0,1,.24,1.11,2.35,2.35,0,0,1-.33,1.27,2,2,0,0,1-.84.8l-.54-.79a1.5,1.5,0,0,0,.38-.26,1.22,1.22,0,0,0,.24-.32,1.4,1.4,0,0,0,.13-.36,1.55,1.55,0,0,0,0-.37,1.3,1.3,0,0,0-.16-.67,1.49,1.49,0,0,0-.4-.49,1.89,1.89,0,0,0-.57-.28,2.08,2.08,0,0,0-.64-.1,2.25,2.25,0,0,0-.68.11,1.87,1.87,0,0,0-.57.32,1.57,1.57,0,0,0-.4.49,1.4,1.4,0,0,0-.15.64,1.64,1.64,0,0,0,0,.37,1.18,1.18,0,0,0,.14.37,1.31,1.31,0,0,0,.25.33,1.18,1.18,0,0,0,.37.24l-.49.85a1.59,1.59,0,0,1-.52-.37,1.87,1.87,0,0,1-.39-.53,2.28,2.28,0,0,1-.24-.63,2.59,2.59,0,0,1-.08-.66,2.24,2.24,0,0,1,.24-1,2.82,2.82,0,0,1,.62-.82,2.91,2.91,0,0,1,.88-.53A2.69,2.69,0,0,1,89.41,163.49Z"/><path class="cls-3" d="M86.71,170.19H92v1H87.62v2.72h-.91Z"/><path class="cls-3" d="M86.67,177.93a2.46,2.46,0,0,1,.23-1.06,2.79,2.79,0,0,1,.61-.82,2.72,2.72,0,0,1,.87-.52,2.6,2.6,0,0,1,1-.19,2.69,2.69,0,0,1,1,.2,2.77,2.77,0,0,1,.87.54,2.57,2.57,0,0,1,.59.83,2.44,2.44,0,0,1,.22,1.05,2.31,2.31,0,0,1-.23,1,2.65,2.65,0,0,1-.62.81,3,3,0,0,1-.87.53,2.9,2.9,0,0,1-1,.19,2.73,2.73,0,0,1-1-.2,2.79,2.79,0,0,1-.85-.54,2.57,2.57,0,0,1-.82-1.87Zm2.7-1.54a2.07,2.07,0,0,0-.66.1,1.74,1.74,0,0,0-.57.31,1.43,1.43,0,0,0-.55,1.14,1.4,1.4,0,0,0,.15.66,1.51,1.51,0,0,0,.41.49,1.68,1.68,0,0,0,.58.3,2,2,0,0,0,.64.1,1.89,1.89,0,0,0,.67-.11,1.72,1.72,0,0,0,.57-.3,1.46,1.46,0,0,0,.4-.49,1.51,1.51,0,0,0,.14-.65,1.37,1.37,0,0,0-.56-1.15,1.72,1.72,0,0,0-.57-.3A2.05,2.05,0,0,0,89.37,176.39Z"/><path class="cls-3" d="M87.59,184.82a1.21,1.21,0,0,0,.15.62,1.24,1.24,0,0,0,.39.4,1.59,1.59,0,0,0,.55.22,3.39,3.39,0,0,0,.64.06H92v1H89.32a3.83,3.83,0,0,1-1-.13,2.53,2.53,0,0,1-.84-.41,2,2,0,0,1-.57-.73,2.71,2.71,0,0,1,0-2.14,1.89,1.89,0,0,1,.58-.72,2.18,2.18,0,0,1,.84-.4,4.15,4.15,0,0,1,1-.13H92v1H89.32a3.49,3.49,0,0,0-.65.06,1.67,1.67,0,0,0-.55.22,1.12,1.12,0,0,0-.38.4A1.17,1.17,0,0,0,87.59,184.82Z"/><path class="cls-3" d="M86.71,189.47H92v1.93a2.91,2.91,0,0,1-.21,1.15,2.41,2.41,0,0,1-.57.82,2.31,2.31,0,0,1-.85.49,3.13,3.13,0,0,1-1,.17,3,3,0,0,1-1.1-.19,2.42,2.42,0,0,1-.84-.52,2.48,2.48,0,0,1-.54-.83,3.11,3.11,0,0,1-.19-1.09ZM89.38,193a2.3,2.3,0,0,0,.71-.11,1.49,1.49,0,0,0,.55-.31,1.22,1.22,0,0,0,.36-.5,1.57,1.57,0,0,0,.13-.67v-.9H87.62v.9a1.62,1.62,0,0,0,.13.68,1.45,1.45,0,0,0,.38.5,1.62,1.62,0,0,0,.55.3A2.28,2.28,0,0,0,89.38,193Z"/><path class="cls-3" d="M92,200.4v.92l-5.33,2v-1.06l1.33-.5v-1.86l-1.33-.48v-1.07Zm-3.27,1.2,2.09-.74-2.09-.76Z"/><path class="cls-3" d="M86.71,205.14H92v2.25a1.42,1.42,0,0,1-.16.68,1.65,1.65,0,0,1-.4.54,1.87,1.87,0,0,1-.57.35,1.63,1.63,0,0,1-.64.13,1.87,1.87,0,0,1-1.23-.46,1.69,1.69,0,0,1-.39-.52,1.54,1.54,0,0,1-.15-.68v-1.26H86.71Zm2.69,1v1.2a.6.6,0,0,0,.24.48,1,1,0,0,0,.63.19,1,1,0,0,0,.36-.06.72.72,0,0,0,.27-.16.48.48,0,0,0,.17-.23.62.62,0,0,0,.06-.26v-1.16Z"/><path class="cls-3" d="M86.71,211H92v2.26a1.38,1.38,0,0,1-.16.67,1.65,1.65,0,0,1-.4.54,1.87,1.87,0,0,1-.57.35,1.63,1.63,0,0,1-.64.13A1.87,1.87,0,0,1,89,214.5a1.69,1.69,0,0,1-.39-.52,1.54,1.54,0,0,1-.15-.68V212H86.71Zm2.69,1v1.2a.6.6,0,0,0,.24.48.93.93,0,0,0,.63.19,1,1,0,0,0,.36-.06.72.72,0,0,0,.27-.16.48.48,0,0,0,.17-.23.58.58,0,0,0,.06-.26V212Z"/><path class="cls-3" d="M86.71,219.73H92v3.58h-.91v-2.54H89.76v2.11h-.84v-2.11H86.71Z"/><path class="cls-3" d="M86.67,227.4a2.46,2.46,0,0,1,.23-1.06,2.79,2.79,0,0,1,.61-.82,2.72,2.72,0,0,1,.87-.52,2.6,2.6,0,0,1,1-.19,2.51,2.51,0,0,1,1,.2,2.77,2.77,0,0,1,.87.54,2.57,2.57,0,0,1,.59.83,2.44,2.44,0,0,1,.22,1.05,2.31,2.31,0,0,1-.23,1,2.65,2.65,0,0,1-.62.81,3,3,0,0,1-.87.53,2.9,2.9,0,0,1-1,.19,2.73,2.73,0,0,1-1-.2,2.79,2.79,0,0,1-.85-.54,2.42,2.42,0,0,1-.59-.82A2.48,2.48,0,0,1,86.67,227.4Zm2.7-1.54a2.07,2.07,0,0,0-.66.1,1.57,1.57,0,0,0-.57.31,1.43,1.43,0,0,0-.4.48,1.45,1.45,0,0,0-.15.66,1.4,1.4,0,0,0,.15.66,1.51,1.51,0,0,0,.41.49,1.88,1.88,0,0,0,.58.3,2,2,0,0,0,.64.1,1.89,1.89,0,0,0,.67-.11,1.72,1.72,0,0,0,.57-.3,1.57,1.57,0,0,0,.4-.49,1.51,1.51,0,0,0,.14-.65,1.37,1.37,0,0,0-.56-1.15A1.55,1.55,0,0,0,90,226,2.05,2.05,0,0,0,89.37,225.86Z"/><path class="cls-3" d="M86.71,232.07H92v2.35a1.42,1.42,0,0,1-.16.68,1.65,1.65,0,0,1-.4.54,1.87,1.87,0,0,1-.57.35,1.63,1.63,0,0,1-.64.13,1.77,1.77,0,0,1-.94-.26,1.5,1.5,0,0,1-.62-.7l-2,1.21v-1.16l1.79-1.09v-1H86.71Zm2.69,1v1.3a.64.64,0,0,0,.07.27.76.76,0,0,0,.19.21.69.69,0,0,0,.27.14,1,1,0,0,0,.68,0,.88.88,0,0,0,.28-.17.84.84,0,0,0,.18-.23.62.62,0,0,0,.06-.26V233.1Z"/><path class="cls-3" d="M92,242.94v.95l-1.76.6,1.76.6v1l-2.42-.91-1.7.68,4.14,1.5v1.13l-5.33-2.17v-.87l2.24-.92-2.24-.92v-.87L92,240.54v1.11l-4.14,1.52,1.7.66Z"/><path class="cls-3" d="M86.67,252.28a2.46,2.46,0,0,1,.23-1.06,2.79,2.79,0,0,1,.61-.82,2.75,2.75,0,0,1,.87-.53,2.8,2.8,0,0,1,1-.18,2.68,2.68,0,0,1,1,.19,3,3,0,0,1,.87.55,2.46,2.46,0,0,1,.59.83,2.43,2.43,0,0,1,.22,1,2.32,2.32,0,0,1-.23,1.06,2.77,2.77,0,0,1-.62.81,3,3,0,0,1-.87.53,2.88,2.88,0,0,1-1,.18,2.72,2.72,0,0,1-1-.19,2.79,2.79,0,0,1-.85-.54,2.46,2.46,0,0,1-.59-.83A2.4,2.4,0,0,1,86.67,252.28Zm2.7-1.54a2.07,2.07,0,0,0-.66.1,1.72,1.72,0,0,0-.57.3,1.57,1.57,0,0,0-.4.49,1.53,1.53,0,0,0,0,1.32,1.63,1.63,0,0,0,.41.49,1.88,1.88,0,0,0,.58.3,2,2,0,0,0,.64.1,2.14,2.14,0,0,0,.67-.11,1.57,1.57,0,0,0,.57-.31,1.43,1.43,0,0,0,.4-.48,1.55,1.55,0,0,0,.14-.65,1.47,1.47,0,0,0-.15-.67,1.49,1.49,0,0,0-.41-.49,1.54,1.54,0,0,0-.57-.29A2.05,2.05,0,0,0,89.37,250.74Z"/><path class="cls-3" d="M86.71,257H92v2.35a1.45,1.45,0,0,1-.16.68,1.65,1.65,0,0,1-.4.54,2.08,2.08,0,0,1-.57.35,1.83,1.83,0,0,1-.64.13,1.77,1.77,0,0,1-.94-.26,1.55,1.55,0,0,1-.62-.7l-2,1.21v-1.16L88.5,259v-1H86.71Zm2.69,1v1.3a.59.59,0,0,0,.07.26.67.67,0,0,0,.19.22.69.69,0,0,0,.27.14,1.08,1.08,0,0,0,.68,0,.85.85,0,0,0,.28-.16,1,1,0,0,0,.18-.23.66.66,0,0,0,.06-.27V258Z"/><path class="cls-3" d="M86.71,263.19H92v1H89.5L92,266.46v1.13l-2.37-2-3,2.17v-1.16L89,264.9l-.71-.68H86.71Z"/><rect class="cls-4" x="254.33" y="70.16" width="30" height="254.59"/><path class="cls-3" d="M267.59,95.76a1.15,1.15,0,0,0,.15.61,1.18,1.18,0,0,0,.39.41,1.81,1.81,0,0,0,.55.22,3.39,3.39,0,0,0,.64.06H272v1h-2.72a4.27,4.27,0,0,1-1-.13,2.37,2.37,0,0,1-.84-.42,1.87,1.87,0,0,1-.57-.72,2.44,2.44,0,0,1-.21-1.06,2.39,2.39,0,0,1,.23-1.08,1.89,1.89,0,0,1,.58-.72,2.35,2.35,0,0,1,.84-.41,4.15,4.15,0,0,1,1-.12H272v1h-2.72a3.49,3.49,0,0,0-.65.06,1.48,1.48,0,0,0-.55.22,1,1,0,0,0-.38.4A1.15,1.15,0,0,0,267.59,95.76Z"/><path class="cls-3" d="M270.64,103.52a1.33,1.33,0,0,0,.14-.19A3.51,3.51,0,0,0,271,103a2.72,2.72,0,0,0,.15-.43,1.91,1.91,0,0,0,.06-.48,1.08,1.08,0,0,0-.16-.63.52.52,0,0,0-.44-.21.44.44,0,0,0-.28.08.84.84,0,0,0-.19.22,3.77,3.77,0,0,0-.15.38c0,.16-.09.33-.14.53a7.44,7.44,0,0,1-.23.71,2,2,0,0,1-.3.54,1.18,1.18,0,0,1-.43.34,1.4,1.4,0,0,1-.62.12,1.54,1.54,0,0,1-.73-.16,1.45,1.45,0,0,1-.49-.43,2.22,2.22,0,0,1-.27-.63,3.08,3.08,0,0,1-.09-.75,4.09,4.09,0,0,1,.18-1.19,3.73,3.73,0,0,1,.51-1l.89.45a2,2,0,0,0-.17.25,3,3,0,0,0-.22.41,3.42,3.42,0,0,0-.18.54,2.35,2.35,0,0,0-.08.6c0,.57.18.85.55.85a.43.43,0,0,0,.29-.1.75.75,0,0,0,.21-.27,2.7,2.7,0,0,0,.17-.44l.16-.57a4.53,4.53,0,0,1,.23-.66,1.64,1.64,0,0,1,.29-.47,1.13,1.13,0,0,1,.39-.28,1.25,1.25,0,0,1,.53-.1,1.66,1.66,0,0,1,.72.15,1.46,1.46,0,0,1,.53.42,2,2,0,0,1,.32.62,2.64,2.64,0,0,1,.1.76,2.89,2.89,0,0,1-.17,1,4.29,4.29,0,0,1-.42.83Z"/><path class="cls-3" d="M267.62,109.92h-.91v-3.69H272v3.63h-.91v-2.6h-1.28v2.24H269v-2.24h-1.39Z"/><path class="cls-3" d="M266.71,112.05H272v2.35a1.42,1.42,0,0,1-.16.68,1.65,1.65,0,0,1-.4.54,2.08,2.08,0,0,1-.57.35,1.83,1.83,0,0,1-.64.13,1.77,1.77,0,0,1-.94-.26,1.55,1.55,0,0,1-.62-.7l-2,1.21v-1.16l1.79-1.09v-1h-1.79Zm2.69,1v1.3a.59.59,0,0,0,.07.26.67.67,0,0,0,.19.22.69.69,0,0,0,.27.14,1.08,1.08,0,0,0,.68,0,.85.85,0,0,0,.28-.16,1,1,0,0,0,.18-.23.66.66,0,0,0,.06-.27v-1.25Z"/><path class="cls-3" d="M270.64,121.43a1.33,1.33,0,0,0,.14-.19,3.51,3.51,0,0,0,.18-.34,2.72,2.72,0,0,0,.15-.43,1.89,1.89,0,0,0,.06-.47,1.09,1.09,0,0,0-.16-.64.52.52,0,0,0-.44-.21.44.44,0,0,0-.28.08.75.75,0,0,0-.19.23,2.81,2.81,0,0,0-.15.37c0,.16-.09.33-.14.53a7.44,7.44,0,0,1-.23.71,2,2,0,0,1-.3.54,1.18,1.18,0,0,1-.43.34,1.4,1.4,0,0,1-.62.12,1.54,1.54,0,0,1-.73-.16,1.45,1.45,0,0,1-.49-.43,2.22,2.22,0,0,1-.27-.63,3.08,3.08,0,0,1-.09-.75,4,4,0,0,1,.18-1.18,3.66,3.66,0,0,1,.51-1l.89.45a2,2,0,0,0-.17.25,3,3,0,0,0-.22.41,3.42,3.42,0,0,0-.18.54,2.35,2.35,0,0,0-.08.6c0,.57.18.85.55.85a.43.43,0,0,0,.29-.1.75.75,0,0,0,.21-.27,2.7,2.7,0,0,0,.17-.44l.16-.57a4.53,4.53,0,0,1,.23-.66,1.64,1.64,0,0,1,.29-.47,1.13,1.13,0,0,1,.39-.28,1.25,1.25,0,0,1,.53-.1,1.66,1.66,0,0,1,.72.15,1.46,1.46,0,0,1,.53.42,2,2,0,0,1,.32.62,2.64,2.64,0,0,1,.1.76,2.86,2.86,0,0,1-.17,1,4,4,0,0,1-.42.83Z"/><path class="cls-3" d="M266.71,126.9H272v1.94a2.9,2.9,0,0,1-.21,1.14,2.32,2.32,0,0,1-1.42,1.32,3.13,3.13,0,0,1-1,.16,3.21,3.21,0,0,1-1.1-.18,2.45,2.45,0,0,1-.84-.53,2.48,2.48,0,0,1-.54-.83,3.06,3.06,0,0,1-.19-1.08Zm2.67,3.52a2.3,2.3,0,0,0,.71-.11,1.47,1.47,0,0,0,.55-.3,1.28,1.28,0,0,0,.36-.5,1.6,1.6,0,0,0,.13-.67v-.9h-3.51v.9a1.65,1.65,0,0,0,.13.68,1.41,1.41,0,0,0,.38.49,1.47,1.47,0,0,0,.55.3A2.28,2.28,0,0,0,269.38,130.42Z"/><path class="cls-3" d="M266.67,135.82a2.46,2.46,0,0,1,.23-1.06,2.79,2.79,0,0,1,.61-.82,2.75,2.75,0,0,1,.87-.53,2.81,2.81,0,0,1,1-.19,2.69,2.69,0,0,1,1,.2,3,3,0,0,1,.87.55,2.46,2.46,0,0,1,.59.83,2.43,2.43,0,0,1,.22,1,2.32,2.32,0,0,1-.23,1.06,2.77,2.77,0,0,1-.62.81,3.22,3.22,0,0,1-.87.53,2.88,2.88,0,0,1-1,.18,2.72,2.72,0,0,1-1-.19,2.79,2.79,0,0,1-.85-.54,2.46,2.46,0,0,1-.59-.83A2.4,2.4,0,0,1,266.67,135.82Zm2.7-1.54a2.07,2.07,0,0,0-.66.1,1.72,1.72,0,0,0-.57.3,1.57,1.57,0,0,0-.4.49,1.53,1.53,0,0,0,0,1.32,1.63,1.63,0,0,0,.41.49,1.88,1.88,0,0,0,.58.3,2,2,0,0,0,.64.1,2.14,2.14,0,0,0,.67-.11,1.57,1.57,0,0,0,.57-.31,1.43,1.43,0,0,0,.4-.48,1.55,1.55,0,0,0,.14-.65,1.44,1.44,0,0,0-.15-.67,1.4,1.4,0,0,0-.41-.49,1.54,1.54,0,0,0-.57-.29A2.05,2.05,0,0,0,269.37,134.28Z"/><path class="cls-3" d="M270.12,141.52h-3.41v-1H272v.8l-3.5,2.77H272v1h-5.32v-.84Z"/><path class="cls-3" d="M270.3,147.5l.92.16v-.3h1v1h-1l-.9-.28Z"/><path class="cls-3" d="M271.13,154.65V153h-4.42v-1h4.42v-1.7H272v4.43Z"/><path class="cls-3" d="M266.71,159.36H272v2.26a1.42,1.42,0,0,1-.16.68,1.61,1.61,0,0,1-.4.53,1.9,1.9,0,0,1-.57.36,1.81,1.81,0,0,1-.64.12,2.08,2.08,0,0,1-.66-.11,2.05,2.05,0,0,1-.57-.34,1.74,1.74,0,0,1-.39-.53,1.5,1.5,0,0,1-.15-.67V160.4h-1.79Zm2.69,1v1.2a.57.57,0,0,0,.24.47.93.93,0,0,0,.63.19,1,1,0,0,0,.36,0,.88.88,0,0,0,.27-.16.53.53,0,0,0,.17-.23.66.66,0,0,0,.06-.27V160.4Z"/><path class="cls-3" d="M266.71,165.23H272v1h-4.42V169h-.91Z"/><path class="cls-3" d="M272,172.55v.91l-5.33,2v-1.07l1.33-.49v-1.86l-1.33-.49v-1.07Zm-3.27,1.19,2.09-.74-2.09-.76Z"/><path class="cls-3" d="M270.12,178.31h-3.41v-1H272v.8l-3.5,2.78H272v1h-5.32v-.84Z"/><path class="cls-3" d="M272,188.57v.91l-5.33,2v-1.07L268,190v-1.86l-1.33-.49v-1.07Zm-3.27,1.19,2.09-.74-2.09-.76Z"/><path class="cls-3" d="M270.12,194.33h-3.41v-1H272v.8l-3.5,2.78H272v1h-5.32v-.84Z"/><path class="cls-3" d="M272,200.82l-2.57,1.31,2.57,1.34v1.12l-3.47-1.94h-1.86v-1h1.88L272,199.7Z"/><path class="cls-3" d="M266.71,209.22H272v3.58h-.91v-2.54h-1.37v2.11h-.84v-2.11h-2.21Z"/><path class="cls-3" d="M266.71,214.72H272v1h-5.33Z"/><path class="cls-3" d="M266.71,218.14H272v1h-4.42v2.72h-.91Z"/><path class="cls-3" d="M267.62,227.4h-.91v-3.7H272v3.63h-.91v-2.59h-1.28V227H269v-2.24h-1.39Z"/><path class="cls-3" d="M266.67,234.53a2.5,2.5,0,0,1,.23-1.07,2.88,2.88,0,0,1,.61-.81,2.85,2.85,0,0,1,1.86-.72,2.69,2.69,0,0,1,1,.2,2.8,2.8,0,0,1,.87.55,2.46,2.46,0,0,1,.59.83,2.4,2.4,0,0,1,.22,1,2.28,2.28,0,0,1-.23,1,2.82,2.82,0,0,1-.62.82,3,3,0,0,1-.87.52,2.68,2.68,0,0,1-1,.19,2.73,2.73,0,0,1-1-.2,2.79,2.79,0,0,1-.85-.54,2.57,2.57,0,0,1-.82-1.86Zm2.7-1.55a2.08,2.08,0,0,0-.66.11,1.72,1.72,0,0,0-.57.3,1.46,1.46,0,0,0-.4.49,1.38,1.38,0,0,0-.15.65,1.47,1.47,0,0,0,.15.67,1.76,1.76,0,0,0,.41.49,1.88,1.88,0,0,0,.58.3,2.31,2.31,0,0,0,.64.1A2.14,2.14,0,0,0,270,236a1.74,1.74,0,0,0,.57-.31,1.37,1.37,0,0,0,.4-.49,1.51,1.51,0,0,0,.14-.65,1.4,1.4,0,0,0-.56-1.15,1.72,1.72,0,0,0-.57-.3A2.38,2.38,0,0,0,269.37,233Z"/><path class="cls-3" d="M266.71,239.19H272v2.36a1.45,1.45,0,0,1-.16.68,1.73,1.73,0,0,1-.4.53,1.87,1.87,0,0,1-.57.35,1.63,1.63,0,0,1-.64.13,1.69,1.69,0,0,1-.94-.26,1.45,1.45,0,0,1-.62-.7l-2,1.22v-1.17l1.79-1.08v-1h-1.79Zm2.69,1v1.29a.6.6,0,0,0,.07.27.76.76,0,0,0,.19.21.87.87,0,0,0,.27.15,1.21,1.21,0,0,0,.34,0,.93.93,0,0,0,.34-.06,1.08,1.08,0,0,0,.28-.16,1.3,1.3,0,0,0,.18-.23.66.66,0,0,0,.06-.27v-1.25Z"/><path class="cls-3" d="M267.31,249.06a2,2,0,0,1-.64-1.48,2.38,2.38,0,0,1,.21-1,2.46,2.46,0,0,1,.58-.8,2.77,2.77,0,0,1,.87-.54,2.91,2.91,0,0,1,1.07-.2,2.79,2.79,0,0,1,1,.2,2.63,2.63,0,0,1,.84.54,2.54,2.54,0,0,1,.58.83,2.45,2.45,0,0,1,.21,1,2.52,2.52,0,0,1-.31,1.29,2,2,0,0,1-.85.81l-.57-.78a1.38,1.38,0,0,0,.61-.56,1.56,1.56,0,0,0,.21-.79A1.38,1.38,0,0,0,271,247a1.53,1.53,0,0,0-.39-.48,2,2,0,0,0-.57-.31,2.26,2.26,0,0,0-.69-.11,2,2,0,0,0-.7.12,1.84,1.84,0,0,0-.56.33,1.55,1.55,0,0,0-.38.5,1.46,1.46,0,0,0-.14.63,1.79,1.79,0,0,0,.73,1.39h.37V248h.76v1.93h-2.74v-.86Z"/><path class="cls-3" d="M272,253.62v.92l-5.33,2V255.5L268,255v-1.86l-1.33-.49v-1.06Zm-3.27,1.19,2.09-.73-2.09-.77Z"/><path class="cls-3" d="M270.12,259.39h-3.41v-1H272v.81l-3.5,2.77H272v1h-5.32v-.84Z"/><path class="cls-3" d="M266.71,265.35H272v1h-5.33Z"/><path class="cls-3" d="M267.49,268.44l3.64,3v-2.93H272v4.12h-.78l-3.64-2.91v2.93h-.91v-4.22Z"/><path class="cls-3" d="M272,276.33v.92l-5.33,2v-1.06l1.33-.5v-1.86l-1.33-.49V274.3Zm-3.27,1.19,2.09-.73-2.09-.77Z"/><path class="cls-3" d="M271.13,284.5v-1.7h-4.42v-1h4.42v-1.7H272v4.43Z"/><path class="cls-3" d="M266.71,286.33H272v1h-5.33Z"/><path class="cls-3" d="M266.67,292a2.43,2.43,0,0,1,.23-1.06,2.79,2.79,0,0,1,.61-.82,2.75,2.75,0,0,1,.87-.53,2.81,2.81,0,0,1,1-.19,2.69,2.69,0,0,1,1,.2,2.8,2.8,0,0,1,.87.55,2.46,2.46,0,0,1,.59.83,2.43,2.43,0,0,1,.22,1,2.25,2.25,0,0,1-.23,1.05,2.82,2.82,0,0,1-.62.82,3,3,0,0,1-.87.52,2.68,2.68,0,0,1-1,.19,2.72,2.72,0,0,1-1-.19,2.79,2.79,0,0,1-.85-.54,2.46,2.46,0,0,1-.59-.83A2.43,2.43,0,0,1,266.67,292Zm2.7-1.55a2.08,2.08,0,0,0-.66.11,1.72,1.72,0,0,0-.57.3,1.46,1.46,0,0,0-.4.49,1.53,1.53,0,0,0,0,1.32,1.76,1.76,0,0,0,.41.49,1.88,1.88,0,0,0,.58.3,2.31,2.31,0,0,0,.64.1,2.14,2.14,0,0,0,.67-.11,1.74,1.74,0,0,0,.57-.31,1.37,1.37,0,0,0,.4-.49,1.47,1.47,0,0,0,.14-.64,1.44,1.44,0,0,0-.15-.67,1.4,1.4,0,0,0-.41-.49,1.72,1.72,0,0,0-.57-.3A2.38,2.38,0,0,0,269.37,290.48Z"/><path class="cls-3" d="M270.12,297.73h-3.41v-1H272v.81l-3.5,2.77H272v1h-5.32v-.84Z"/><rect class="cls-5" x="134.33" y="95.16" width="30" height="229.36"/><path class="cls-3" d="M146.71,103.6H152v3.58h-.91v-2.55h-1.37v2.12h-.84v-2.12h-2.21Z"/><path class="cls-3" d="M152,110.31v.92l-5.33,2v-1.06l1.33-.5v-1.86l-1.33-.49v-1.06Zm-3.27,1.19,2.09-.73-2.09-.77Z"/><path class="cls-3" d="M146.71,115H152v1h-5.33Z"/><path class="cls-3" d="M146.71,118.46H152v1h-4.42v2.71h-.91Z"/><path class="cls-3" d="M147.59,126.15a1.19,1.19,0,0,0,.15.62,1.15,1.15,0,0,0,.39.4,1.41,1.41,0,0,0,.55.22,3.39,3.39,0,0,0,.64.07H152v1h-2.72a3.88,3.88,0,0,1-1-.13,2.39,2.39,0,0,1-.83-.41,2,2,0,0,1-.57-.72,2.47,2.47,0,0,1-.21-1.06,2.41,2.41,0,0,1,.22-1.09,2.05,2.05,0,0,1,.58-.72,2.31,2.31,0,0,1,.85-.4,4.07,4.07,0,0,1,1-.12H152v1h-2.72a3.49,3.49,0,0,0-.65.06,1.92,1.92,0,0,0-.55.22,1.12,1.12,0,0,0-.38.4A1.17,1.17,0,0,0,147.59,126.15Z"/><path class="cls-3" d="M146.71,130.8H152v2.36a1.38,1.38,0,0,1-.16.67,1.65,1.65,0,0,1-.4.54,1.87,1.87,0,0,1-.57.35,1.63,1.63,0,0,1-.64.13,1.77,1.77,0,0,1-.94-.26,1.39,1.39,0,0,1-.61-.7l-2,1.22v-1.17l1.79-1.08v-1h-1.79Zm2.7,1v1.29a.6.6,0,0,0,.06.27.76.76,0,0,0,.19.21,1,1,0,0,0,.27.15,1.27,1.27,0,0,0,.34.05.93.93,0,0,0,.34-.06.77.77,0,0,0,.46-.4.58.58,0,0,0,.06-.26v-1.25Z"/><path class="cls-3" d="M147.62,140.74h-.91V137H152v3.63h-.91v-2.59h-1.28v2.24H149v-2.24h-1.39Z"/><path class="cls-3" d="M146.71,145.6H152v1h-5.33Z"/><path class="cls-3" d="M150.13,150.05h-3.42v-1H152v.8l-3.5,2.78H152v1h-5.32v-.84Z"/><path class="cls-3" d="M149.41,158.47a3,3,0,0,1,1,.17,2.55,2.55,0,0,1,1.69,2.45,2.44,2.44,0,0,1-.32,1.27,2.08,2.08,0,0,1-.84.8l-.55-.79a1.5,1.5,0,0,0,.38-.26,1.22,1.22,0,0,0,.24-.32,1.4,1.4,0,0,0,.13-.36,1.55,1.55,0,0,0,0-.37,1.48,1.48,0,0,0-.15-.68,1.74,1.74,0,0,0-.41-.48,1.89,1.89,0,0,0-.57-.28,2.08,2.08,0,0,0-.64-.1,2.25,2.25,0,0,0-.68.11,1.87,1.87,0,0,0-.57.32,1.72,1.72,0,0,0-.4.49,1.4,1.4,0,0,0-.15.64,1.64,1.64,0,0,0,0,.37,1.49,1.49,0,0,0,.14.37,1.59,1.59,0,0,0,.25.33,1.18,1.18,0,0,0,.37.24l-.48.85a1.64,1.64,0,0,1-.53-.37,2.08,2.08,0,0,1-.39-.53,3.41,3.41,0,0,1-.24-.63,3.13,3.13,0,0,1-.08-.66,2.24,2.24,0,0,1,.24-1,2.82,2.82,0,0,1,.62-.82,2.91,2.91,0,0,1,.88-.53A2.69,2.69,0,0,1,149.41,158.47Z"/><path class="cls-3" d="M146.68,167.37a2.45,2.45,0,0,1,.22-1.06,2.79,2.79,0,0,1,.61-.82,2.75,2.75,0,0,1,.87-.53,2.85,2.85,0,0,1,1-.18,2.75,2.75,0,0,1,1,.19,3.08,3.08,0,0,1,.86.55,2.46,2.46,0,0,1,.59.83,2.43,2.43,0,0,1,.23,1,2.33,2.33,0,0,1-.24,1.06,2.61,2.61,0,0,1-.62.81,2.75,2.75,0,0,1-.87.53,2.8,2.8,0,0,1-1,.18,2.72,2.72,0,0,1-1-.19,2.79,2.79,0,0,1-.85-.54,2.46,2.46,0,0,1-.59-.83A2.4,2.4,0,0,1,146.68,167.37Zm2.7-1.54a2.13,2.13,0,0,0-.67.1,1.72,1.72,0,0,0-.57.3,1.57,1.57,0,0,0-.4.49,1.53,1.53,0,0,0,0,1.32,1.63,1.63,0,0,0,.41.49,1.88,1.88,0,0,0,.58.3,2.05,2.05,0,0,0,.65.1,2.08,2.08,0,0,0,.66-.11,1.57,1.57,0,0,0,.57-.31,1.43,1.43,0,0,0,.4-.48,1.55,1.55,0,0,0,.14-.65,1.47,1.47,0,0,0-.15-.67,1.49,1.49,0,0,0-.41-.49,1.54,1.54,0,0,0-.57-.29A2,2,0,0,0,149.38,165.83Z"/><path class="cls-3" d="M146.71,176.38h3.53L147.61,175v-.57l2.63-1.37h-3.53v-1H152v1.11l-3,1.57,3,1.59v1.1h-5.33Z"/><path class="cls-3" d="M146.71,184.14h3.53l-2.63-1.37v-.56l2.63-1.38h-3.53v-1H152v1.11l-3,1.57,3,1.59v1.11h-5.33Z"/><path class="cls-3" d="M147.59,189.82a1.21,1.21,0,0,0,.15.62,1.24,1.24,0,0,0,.39.4,1.59,1.59,0,0,0,.55.22,3.39,3.39,0,0,0,.64.06H152v1h-2.72a3.88,3.88,0,0,1-1-.13,2.58,2.58,0,0,1-.83-.41,2,2,0,0,1-.57-.73,2.77,2.77,0,0,1,0-2.14,1.89,1.89,0,0,1,.58-.72,2.16,2.16,0,0,1,.85-.4,3.64,3.64,0,0,1,1-.13H152v1h-2.72a3.49,3.49,0,0,0-.65.06,1.67,1.67,0,0,0-.55.22,1.12,1.12,0,0,0-.38.4A1.17,1.17,0,0,0,147.59,189.82Z"/><path class="cls-3" d="M150.13,195.5h-3.42v-1H152v.8l-3.5,2.77H152v1h-5.32v-.84Z"/><path class="cls-3" d="M146.71,201.47H152v1h-5.33Z"/><path class="cls-3" d="M149.41,204.57a2.73,2.73,0,0,1,1,.18,2.47,2.47,0,0,1,.85.51,2.5,2.5,0,0,1,.84,1.93,2.48,2.48,0,0,1-.32,1.28,2.22,2.22,0,0,1-.84.8l-.55-.8a1.5,1.5,0,0,0,.38-.26,1.22,1.22,0,0,0,.24-.32,1.4,1.4,0,0,0,.13-.36,1.53,1.53,0,0,0,0-.36,1.42,1.42,0,0,0-.15-.68,1.49,1.49,0,0,0-.41-.48,1.71,1.71,0,0,0-.57-.29,2.08,2.08,0,0,0-.64-.1,2.25,2.25,0,0,0-.68.11,1.87,1.87,0,0,0-.57.32,1.64,1.64,0,0,0-.4.5,1.33,1.33,0,0,0-.15.63,1.64,1.64,0,0,0,0,.37,1.57,1.57,0,0,0,.14.38,1.85,1.85,0,0,0,.25.32,1.18,1.18,0,0,0,.37.24l-.48.85a1.77,1.77,0,0,1-.53-.36,2.32,2.32,0,0,1-.39-.54,3.16,3.16,0,0,1-.24-.63,3.13,3.13,0,0,1-.08-.66,2.24,2.24,0,0,1,.24-1,2.82,2.82,0,0,1,.62-.82,3.13,3.13,0,0,1,.88-.53A2.69,2.69,0,0,1,149.41,204.57Z"/><path class="cls-3" d="M152,212.76v.91l-5.33,2v-1.07l1.33-.49v-1.86l-1.33-.49v-1.06ZM148.77,214l2.09-.73-2.09-.77Z"/><path class="cls-3" d="M151.13,220.93v-1.71h-4.42v-1h4.42v-1.71H152v4.44Z"/><path class="cls-3" d="M146.71,222.76H152v1h-5.33Z"/><path class="cls-3" d="M146.68,228.46a2.42,2.42,0,0,1,.22-1.06,2.79,2.79,0,0,1,.61-.82,2.58,2.58,0,0,1,.87-.53,2.65,2.65,0,0,1,1-.19,2.76,2.76,0,0,1,1,.2,2.87,2.87,0,0,1,.86.55,2.46,2.46,0,0,1,.59.83,2.4,2.4,0,0,1,.23,1,2.28,2.28,0,0,1-.24,1.05,2.65,2.65,0,0,1-.62.82,2.72,2.72,0,0,1-.87.52,2.6,2.6,0,0,1-1,.19,2.73,2.73,0,0,1-1-.2,2.79,2.79,0,0,1-.85-.54,2.51,2.51,0,0,1-.81-1.86Zm2.7-1.55a2.14,2.14,0,0,0-.67.11,1.72,1.72,0,0,0-.57.3,1.46,1.46,0,0,0-.4.49,1.38,1.38,0,0,0-.15.65,1.44,1.44,0,0,0,.15.67,1.76,1.76,0,0,0,.41.49,1.88,1.88,0,0,0,.58.3,2.38,2.38,0,0,0,.65.1,2.08,2.08,0,0,0,.66-.11,1.74,1.74,0,0,0,.57-.31,1.37,1.37,0,0,0,.4-.49,1.48,1.48,0,0,0,.14-.65,1.4,1.4,0,0,0-.56-1.15,1.72,1.72,0,0,0-.57-.3A2.31,2.31,0,0,0,149.38,226.91Z"/><path class="cls-3" d="M150.13,234.16h-3.42v-1H152v.8l-3.5,2.78H152v1h-5.32v-.83Z"/><path class="cls-3" d="M149.41,242.57a2.73,2.73,0,0,1,1,.18,2.83,2.83,0,0,1,.85.51,2.71,2.71,0,0,1,.61.83,2.59,2.59,0,0,1,.23,1.11,2.47,2.47,0,0,1-.32,1.27,2.14,2.14,0,0,1-.84.8l-.55-.8a1.47,1.47,0,0,0,.38-.25,1.27,1.27,0,0,0,.24-.33,1.4,1.4,0,0,0,.13-.36,1.47,1.47,0,0,0,0-.36,1.45,1.45,0,0,0-.15-.68,1.74,1.74,0,0,0-.41-.48,1.71,1.71,0,0,0-.57-.29,2.08,2.08,0,0,0-.64-.1,2.25,2.25,0,0,0-.68.11,2.1,2.1,0,0,0-.57.32,1.76,1.76,0,0,0-.4.5,1.33,1.33,0,0,0-.15.63,1.73,1.73,0,0,0,0,.38,1.66,1.66,0,0,0,.14.37,1.54,1.54,0,0,0,.25.32,1.18,1.18,0,0,0,.37.24l-.48.85a1.47,1.47,0,0,1-.53-.36,2.5,2.5,0,0,1-.39-.53,3.25,3.25,0,0,1-.24-.64,3,3,0,0,1-.08-.66,2.24,2.24,0,0,1,.24-1,2.65,2.65,0,0,1,.62-.81,2.94,2.94,0,0,1,.88-.54A2.91,2.91,0,0,1,149.41,242.57Z"/><path class="cls-3" d="M152,250.76v.92l-5.33,2v-1.06l1.33-.5v-1.86l-1.33-.49v-1.06ZM148.77,252l2.09-.73-2.09-.77Z"/><path class="cls-3" d="M147.59,257.59a1.21,1.21,0,0,0,.15.62,1.24,1.24,0,0,0,.39.4,1.59,1.59,0,0,0,.55.22,3.39,3.39,0,0,0,.64.06H152v1h-2.72a3.88,3.88,0,0,1-1-.13,2.58,2.58,0,0,1-.83-.41,2,2,0,0,1-.57-.73,2.44,2.44,0,0,1-.21-1.06,2.39,2.39,0,0,1,.22-1.08,1.89,1.89,0,0,1,.58-.72,2.16,2.16,0,0,1,.85-.4,3.64,3.64,0,0,1,1-.13H152v1h-2.72a3.49,3.49,0,0,0-.65.06,1.67,1.67,0,0,0-.55.22,1,1,0,0,0-.38.4A1.15,1.15,0,0,0,147.59,257.59Z"/><path class="cls-3" d="M150.64,265.35a1.25,1.25,0,0,0,.15-.19,2.68,2.68,0,0,0,.17-.34,2.72,2.72,0,0,0,.15-.43,1.89,1.89,0,0,0,.06-.47,1,1,0,0,0-.16-.64.55.55,0,0,0-.72-.13.75.75,0,0,0-.19.23,2.5,2.5,0,0,0-.15.38c0,.15-.09.32-.14.52s-.14.5-.22.71a2,2,0,0,1-.3.54,1.22,1.22,0,0,1-.44.34,1.38,1.38,0,0,1-.61.12,1.55,1.55,0,0,1-.74-.16,1.35,1.35,0,0,1-.49-.43,2,2,0,0,1-.27-.63,3.08,3.08,0,0,1-.09-.75,4,4,0,0,1,.18-1.18,3.66,3.66,0,0,1,.51-1l.9.45a1.25,1.25,0,0,0-.18.25,3.81,3.81,0,0,0-.22.41,3.42,3.42,0,0,0-.18.54,2.35,2.35,0,0,0-.08.6c0,.57.19.85.55.85a.41.41,0,0,0,.29-.1.75.75,0,0,0,.21-.27,2.7,2.7,0,0,0,.17-.44l.16-.57a5.57,5.57,0,0,1,.23-.66,1.64,1.64,0,0,1,.29-.47,1.13,1.13,0,0,1,.39-.28,1.43,1.43,0,0,1,.53-.1,1.66,1.66,0,0,1,.72.15,1.46,1.46,0,0,1,.53.42,2,2,0,0,1,.32.62,2.63,2.63,0,0,1,.11.76,2.86,2.86,0,0,1-.18,1,4,4,0,0,1-.42.83Z"/><path class="cls-3" d="M147.62,271.75h-.91v-3.69H152v3.63h-.91v-2.6h-1.28v2.24H149v-2.24h-1.39Z"/><path class="cls-3" d="M150.64,277a1.25,1.25,0,0,0,.15-.19,2.68,2.68,0,0,0,.17-.34,2.72,2.72,0,0,0,.15-.43,1.89,1.89,0,0,0,.06-.47A1,1,0,0,0,151,275a.55.55,0,0,0-.72-.13.75.75,0,0,0-.19.23,2.5,2.5,0,0,0-.15.38c0,.15-.09.32-.14.52s-.14.5-.22.71a2,2,0,0,1-.3.54,1.22,1.22,0,0,1-.44.34,1.38,1.38,0,0,1-.61.12,1.55,1.55,0,0,1-.74-.16,1.35,1.35,0,0,1-.49-.43,2,2,0,0,1-.27-.63,3.08,3.08,0,0,1-.09-.75,4,4,0,0,1,.18-1.18,3.66,3.66,0,0,1,.51-1.05l.9.45a1.25,1.25,0,0,0-.18.25,3.81,3.81,0,0,0-.22.41,3.42,3.42,0,0,0-.18.54,2.35,2.35,0,0,0-.08.6c0,.57.19.85.55.85a.41.41,0,0,0,.29-.1.75.75,0,0,0,.21-.27,2.7,2.7,0,0,0,.17-.44l.16-.57a5.57,5.57,0,0,1,.23-.66,1.64,1.64,0,0,1,.29-.47,1.13,1.13,0,0,1,.39-.28,1.43,1.43,0,0,1,.53-.1,1.66,1.66,0,0,1,.72.15,1.46,1.46,0,0,1,.53.42,2,2,0,0,1,.32.62,2.63,2.63,0,0,1,.11.76,2.86,2.86,0,0,1-.18,1,4,4,0,0,1-.42.83Z"/><path class="cls-3" d="M146.71,282.49H152v1.94a2.86,2.86,0,0,1-.21,1.14,2.32,2.32,0,0,1-1.42,1.32,3.13,3.13,0,0,1-1,.16,3.21,3.21,0,0,1-1.1-.18,2.45,2.45,0,0,1-.84-.53,2.39,2.39,0,0,1-.54-.83,3.06,3.06,0,0,1-.19-1.08Zm2.67,3.52a2.3,2.3,0,0,0,.71-.1,1.64,1.64,0,0,0,.55-.31,1.28,1.28,0,0,0,.36-.5,1.6,1.6,0,0,0,.13-.67v-.9h-3.51v.9a1.65,1.65,0,0,0,.14.68,1.3,1.3,0,0,0,.37.49,1.45,1.45,0,0,0,.56.31A2.17,2.17,0,0,0,149.38,286Z"/><path class="cls-3" d="M147.62,292.84h-.91v-3.7H152v3.63h-.91v-2.6h-1.28v2.25H149v-2.25h-1.39Z"/><path class="cls-3" d="M146.71,295H152v1h-4.42v2.72h-.91Z"/><path class="cls-3" d="M152,302.27v.92l-5.33,2v-1.06l1.33-.5v-1.86l-1.33-.49v-1.06Zm-3.27,1.19,2.09-.73-2.09-.77Z"/><path class="cls-3" d="M152,307.11l-2.57,1.31,2.57,1.34v1.11l-3.47-1.93h-1.86v-1h1.88L152,306Z"/><path class="cls-3" d="M150.64,315.65a.88.88,0,0,0,.15-.19,2.68,2.68,0,0,0,.17-.34,2.41,2.41,0,0,0,.15-.43,1.84,1.84,0,0,0,.06-.47,1,1,0,0,0-.16-.64.55.55,0,0,0-.72-.13.75.75,0,0,0-.19.23,2.5,2.5,0,0,0-.15.38c0,.15-.09.33-.14.53a7.31,7.31,0,0,1-.22.7,2,2,0,0,1-.3.54,1.24,1.24,0,0,1-.44.35,1.38,1.38,0,0,1-.61.12,1.68,1.68,0,0,1-.74-.16,1.48,1.48,0,0,1-.49-.44,2,2,0,0,1-.27-.63,3.08,3.08,0,0,1-.09-.75,4,4,0,0,1,.18-1.18,3.66,3.66,0,0,1,.51-1.05l.9.46a.91.91,0,0,0-.18.24,4,4,0,0,0-.22.42,3.28,3.28,0,0,0-.18.53,2.35,2.35,0,0,0-.08.6c0,.57.19.85.55.85a.46.46,0,0,0,.29-.09.89.89,0,0,0,.21-.28,2.7,2.7,0,0,0,.17-.44l.16-.57a5.57,5.57,0,0,1,.23-.66,1.79,1.79,0,0,1,.29-.47,1.28,1.28,0,0,1,.39-.28,1.44,1.44,0,0,1,.53-.09,1.66,1.66,0,0,1,.72.15,1.43,1.43,0,0,1,.53.41,2.14,2.14,0,0,1,.32.62,2.68,2.68,0,0,1,.11.76,2.86,2.86,0,0,1-.18,1,4,4,0,0,1-.42.83Z"/><rect class="cls-5" x="314.33" y="69.93" width="30" height="254.59"/><path class="cls-3" d="M326.71,145.78H332v1h-4.42v2.71h-.91Z"/><path class="cls-3" d="M326.67,153.53a2.43,2.43,0,0,1,.23-1.06,2.79,2.79,0,0,1,.61-.82,2.75,2.75,0,0,1,.87-.53,2.81,2.81,0,0,1,1-.19,2.69,2.69,0,0,1,1,.2,2.8,2.8,0,0,1,.87.55,2.46,2.46,0,0,1,.59.83,2.43,2.43,0,0,1,.22,1,2.25,2.25,0,0,1-.23,1,2.82,2.82,0,0,1-.62.82,3,3,0,0,1-.87.52,2.68,2.68,0,0,1-1,.19,2.72,2.72,0,0,1-1-.19,2.79,2.79,0,0,1-.85-.54,2.46,2.46,0,0,1-.59-.83A2.43,2.43,0,0,1,326.67,153.53Zm2.7-1.55a2.08,2.08,0,0,0-.66.11,1.72,1.72,0,0,0-.57.3,1.46,1.46,0,0,0-.4.49,1.53,1.53,0,0,0,0,1.32,1.76,1.76,0,0,0,.41.49,1.88,1.88,0,0,0,.58.3,2.31,2.31,0,0,0,.64.1A2.14,2.14,0,0,0,330,155a1.74,1.74,0,0,0,.57-.31,1.37,1.37,0,0,0,.4-.49,1.47,1.47,0,0,0,.14-.64,1.44,1.44,0,0,0-.15-.67,1.4,1.4,0,0,0-.41-.49,1.72,1.72,0,0,0-.57-.3A2.38,2.38,0,0,0,329.37,152Z"/><path class="cls-3" d="M329.41,157.86a2.73,2.73,0,0,1,1,.18,2.83,2.83,0,0,1,.85.51,2.53,2.53,0,0,1,.6.83,2.45,2.45,0,0,1,.24,1.11,2.38,2.38,0,0,1-.33,1.27,2,2,0,0,1-.84.8l-.54-.8a1.47,1.47,0,0,0,.38-.25,1.41,1.41,0,0,0,.24-.32,1.74,1.74,0,0,0,.13-.36,1.61,1.61,0,0,0,0-.37,1.34,1.34,0,0,0-.16-.68,1.56,1.56,0,0,0-.4-.48A1.92,1.92,0,0,0,330,159a2.43,2.43,0,0,0-.64-.1,2,2,0,0,0-.68.12,1.85,1.85,0,0,0-.57.31,1.61,1.61,0,0,0-.4.5,1.33,1.33,0,0,0-.15.63,1.73,1.73,0,0,0,.05.38,1.28,1.28,0,0,0,.14.37,1.31,1.31,0,0,0,.25.33,1.18,1.18,0,0,0,.37.24l-.49.84a1.43,1.43,0,0,1-.52-.36,2.2,2.2,0,0,1-.39-.53,2.35,2.35,0,0,1-.24-.64,2.48,2.48,0,0,1-.08-.66,2.27,2.27,0,0,1,.24-1,2.77,2.77,0,0,1,.62-.81,2.94,2.94,0,0,1,.88-.54A2.91,2.91,0,0,1,329.41,157.86Z"/><path class="cls-3" d="M332,166.05V167l-5.33,2v-1.06l1.33-.5v-1.86l-1.33-.48V164Zm-3.27,1.2,2.09-.74-2.09-.76Z"/><path class="cls-3" d="M331.13,174.22v-1.7h-4.42v-1h4.42v-1.7H332v4.43Z"/><path class="cls-3" d="M327.62,179.75h-.91v-3.7H332v3.63h-.91v-2.6h-1.28v2.25H329v-2.25h-1.39Z"/><path class="cls-3" d="M328.08,188.89a1.25,1.25,0,0,1-.59-.13,1.3,1.3,0,0,1-.43-.38,1.81,1.81,0,0,1-.26-.54,2.41,2.41,0,0,1-.09-.67V184.6H332v2.85a1,1,0,0,1-.12.5,1.48,1.48,0,0,1-.31.39,1.7,1.7,0,0,1-.44.24,1.41,1.41,0,0,1-.49.09,1.46,1.46,0,0,1-.73-.2,1.18,1.18,0,0,1-.51-.57,1.32,1.32,0,0,1-.48.72A1.4,1.4,0,0,1,328.08,188.89Zm.2-1a.81.81,0,0,0,.27,0,.73.73,0,0,0,.23-.13.62.62,0,0,0,.16-.2.6.6,0,0,0,.05-.24v-1.59h-1.4v1.53a.76.76,0,0,0,.05.27.8.8,0,0,0,.15.21.71.71,0,0,0,.22.15A.76.76,0,0,0,328.28,187.85Zm2.87-2.21h-1.34V187a.6.6,0,0,0,.18.44.66.66,0,0,0,.49.19.69.69,0,0,0,.49-.17.56.56,0,0,0,.18-.42Z"/><path class="cls-3" d="M332,191.33l-2.57,1.31L332,194v1.11l-3.47-1.93h-1.86v-1h1.88L332,190.2Z"/><path class="cls-3" d="M328.08,204a1.25,1.25,0,0,1-.59-.14,1.27,1.27,0,0,1-.43-.37,1.86,1.86,0,0,1-.26-.55,2.34,2.34,0,0,1-.09-.66v-2.57H332v2.85a1.06,1.06,0,0,1-.12.5,1.29,1.29,0,0,1-.31.38,1.48,1.48,0,0,1-.44.25,1.67,1.67,0,0,1-.49.08,1.45,1.45,0,0,1-.73-.19,1.18,1.18,0,0,1-.51-.57,1.33,1.33,0,0,1-1.36,1Zm.2-1a.81.81,0,0,0,.27,0,.74.74,0,0,0,.23-.14.58.58,0,0,0,.16-.19.7.7,0,0,0,.05-.25v-1.59h-1.4v1.54a.61.61,0,0,0,.2.48.55.55,0,0,0,.22.14A.6.6,0,0,0,328.28,203Zm2.87-2.22h-1.34v1.38a.61.61,0,0,0,.18.45.77.77,0,0,0,1,0,.54.54,0,0,0,.18-.41Z"/><path class="cls-3" d="M326.71,206.12H332v2.36a1.45,1.45,0,0,1-.16.68,1.61,1.61,0,0,1-.4.53,2.12,2.12,0,0,1-.57.36,1.81,1.81,0,0,1-.64.12,1.76,1.76,0,0,1-.94-.25,1.52,1.52,0,0,1-.62-.71l-2,1.22v-1.16l1.79-1.09v-1h-1.79Zm2.69,1v1.3a.59.59,0,0,0,.07.26.67.67,0,0,0,.19.22.86.86,0,0,0,.27.14,1.21,1.21,0,0,0,.34,0,.93.93,0,0,0,.34-.06.85.85,0,0,0,.28-.16,1,1,0,0,0,.18-.23.66.66,0,0,0,.06-.27v-1.25Z"/><path class="cls-3" d="M326.67,214.58a2.43,2.43,0,0,1,.23-1.06,2.79,2.79,0,0,1,.61-.82,2.85,2.85,0,0,1,1.86-.72,2.69,2.69,0,0,1,1,.2,2.8,2.8,0,0,1,.87.55,2.46,2.46,0,0,1,.59.83,2.43,2.43,0,0,1,.22,1,2.28,2.28,0,0,1-.23,1.05,2.82,2.82,0,0,1-.62.82,3,3,0,0,1-.87.52,2.68,2.68,0,0,1-1,.19,2.73,2.73,0,0,1-1-.2,2.79,2.79,0,0,1-.85-.54,2.57,2.57,0,0,1-.82-1.86Zm2.7-1.55a2.08,2.08,0,0,0-.66.11,1.72,1.72,0,0,0-.57.3,1.46,1.46,0,0,0-.4.49,1.38,1.38,0,0,0-.15.65,1.44,1.44,0,0,0,.15.67,1.76,1.76,0,0,0,.41.49,1.88,1.88,0,0,0,.58.3,2.31,2.31,0,0,0,.64.1A2.14,2.14,0,0,0,330,216a1.74,1.74,0,0,0,.57-.31,1.37,1.37,0,0,0,.4-.49,1.48,1.48,0,0,0,.14-.65,1.4,1.4,0,0,0-.56-1.15,1.72,1.72,0,0,0-.57-.3A2.38,2.38,0,0,0,329.37,213Z"/><path class="cls-3" d="M332,220.82v1l-1.76.6,1.76.6v1L329.6,223l-1.7.68,4.14,1.5v1.13l-5.33-2.17v-.87l2.24-.92-2.24-.92v-.87l5.33-2.16v1.11l-4.14,1.52,1.7.66Z"/><path class="cls-3" d="M330.64,231.15a1.07,1.07,0,0,0,.14-.2,2.45,2.45,0,0,0,.18-.33,3.12,3.12,0,0,0,.15-.43,2,2,0,0,0,.06-.48,1.06,1.06,0,0,0-.16-.63.53.53,0,0,0-.44-.22.51.51,0,0,0-.28.08.9.9,0,0,0-.19.23,3,3,0,0,0-.15.38c0,.15-.09.33-.14.53a7.44,7.44,0,0,1-.23.71,2,2,0,0,1-.3.54,1.18,1.18,0,0,1-.43.34,1.4,1.4,0,0,1-.62.12,1.54,1.54,0,0,1-.73-.16,1.38,1.38,0,0,1-.49-.44,2,2,0,0,1-.27-.63,2.94,2.94,0,0,1-.09-.74,4,4,0,0,1,.18-1.19,3.66,3.66,0,0,1,.51-1l.89.46a1.74,1.74,0,0,0-.17.24,4,4,0,0,0-.22.42,3.66,3.66,0,0,0-.18.53,2.47,2.47,0,0,0-.08.6c0,.57.18.86.55.86a.48.48,0,0,0,.29-.1.89.89,0,0,0,.21-.28,2.57,2.57,0,0,0,.17-.43l.16-.57a5.18,5.18,0,0,1,.23-.67,2,2,0,0,1,.29-.47,1.48,1.48,0,0,1,.39-.28,1.44,1.44,0,0,1,.53-.09,1.66,1.66,0,0,1,.72.15,1.46,1.46,0,0,1,.53.42,2,2,0,0,1,.32.61,2.68,2.68,0,0,1,.1.76,2.91,2.91,0,0,1-.17,1,3.93,3.93,0,0,1-.42.82Z"/><path class="cls-3" d="M326.71,233.87H332v1h-5.33Z"/><path class="cls-3" d="M330.12,238.32h-3.41v-1H332v.8l-3.5,2.77H332v1h-5.32v-.84Z"/><path class="cls-3" d="M327.31,248a2.07,2.07,0,0,1-.64-1.49,2.33,2.33,0,0,1,.21-1,2.46,2.46,0,0,1,.58-.8,2.77,2.77,0,0,1,.87-.54,2.72,2.72,0,0,1,1.07-.2,2.6,2.6,0,0,1,1,.2,2.63,2.63,0,0,1,.84.54,2.61,2.61,0,0,1,.58.82,2.74,2.74,0,0,1-.1,2.32,2.07,2.07,0,0,1-.85.81l-.57-.78a1.38,1.38,0,0,0,.61-.56,1.59,1.59,0,0,0,.21-.8,1.37,1.37,0,0,0-.14-.61,1.53,1.53,0,0,0-.39-.48,1.76,1.76,0,0,0-.57-.31,2.26,2.26,0,0,0-.69-.11,2,2,0,0,0-.7.12,1.84,1.84,0,0,0-.56.33,1.55,1.55,0,0,0-.38.5,1.44,1.44,0,0,0-.14.62,1.81,1.81,0,0,0,.73,1.4h.37v-1.07h.76v1.92h-2.74V248Z"/><rect class="cls-6" x="374.33" y="88.16" width="30" height="236.36"/><path class="cls-3" d="M386.71,145.75h3.53l-2.63-1.37v-.56l2.63-1.38h-3.53v-1H392v1.11l-3,1.57,3,1.59v1.11h-5.33Z"/><path class="cls-3" d="M386.67,151.44a2.43,2.43,0,0,1,.23-1.06,2.79,2.79,0,0,1,.61-.82,2.85,2.85,0,0,1,1.86-.72,2.69,2.69,0,0,1,1,.2,2.8,2.8,0,0,1,.87.55,2.46,2.46,0,0,1,.59.83,2.4,2.4,0,0,1,.22,1,2.28,2.28,0,0,1-.23,1,2.82,2.82,0,0,1-.62.82,3,3,0,0,1-.87.52,2.68,2.68,0,0,1-1,.19,2.73,2.73,0,0,1-1-.2,2.79,2.79,0,0,1-.85-.54,2.57,2.57,0,0,1-.82-1.86Zm2.7-1.55a2.08,2.08,0,0,0-.66.11,1.72,1.72,0,0,0-.57.3,1.46,1.46,0,0,0-.4.49,1.38,1.38,0,0,0-.15.65,1.44,1.44,0,0,0,.15.67,1.76,1.76,0,0,0,.41.49,1.88,1.88,0,0,0,.58.3,2.31,2.31,0,0,0,.64.1,2.14,2.14,0,0,0,.67-.11,1.74,1.74,0,0,0,.57-.31,1.37,1.37,0,0,0,.4-.49,1.51,1.51,0,0,0,.14-.65,1.4,1.4,0,0,0-.56-1.15,1.72,1.72,0,0,0-.57-.3A2.38,2.38,0,0,0,389.37,149.89Z"/><path class="cls-3" d="M390.64,159.21a1.33,1.33,0,0,0,.14-.19,3.51,3.51,0,0,0,.18-.34,2.72,2.72,0,0,0,.15-.43,2,2,0,0,0,.06-.48,1.08,1.08,0,0,0-.16-.63.52.52,0,0,0-.44-.21.44.44,0,0,0-.28.08.7.7,0,0,0-.19.22,3,3,0,0,0-.15.38c0,.16-.09.33-.14.53a7.44,7.44,0,0,1-.23.71,2,2,0,0,1-.3.54,1.18,1.18,0,0,1-.43.34,1.4,1.4,0,0,1-.62.12,1.54,1.54,0,0,1-.73-.16,1.45,1.45,0,0,1-.49-.43,2.22,2.22,0,0,1-.27-.63,3.08,3.08,0,0,1-.09-.75,4,4,0,0,1,.18-1.19,3.66,3.66,0,0,1,.51-1.05l.89.46a2,2,0,0,0-.17.25,3,3,0,0,0-.22.41,3.66,3.66,0,0,0-.18.53,2.47,2.47,0,0,0-.08.6c0,.57.18.86.55.86a.43.43,0,0,0,.29-.1.79.79,0,0,0,.21-.28,2.57,2.57,0,0,0,.17-.43l.16-.57a4.53,4.53,0,0,1,.23-.66,1.64,1.64,0,0,1,.29-.47,1.13,1.13,0,0,1,.39-.28,1.25,1.25,0,0,1,.53-.1,1.66,1.66,0,0,1,.72.15,1.46,1.46,0,0,1,.53.42,2,2,0,0,1,.32.62,2.57,2.57,0,0,1,.1.75,2.91,2.91,0,0,1-.17,1,3.93,3.93,0,0,1-.42.82Z"/><path class="cls-3" d="M391.13,165.85v-1.7h-4.42v-1h4.42v-1.7H392v4.43Z"/><path class="cls-3" d="M386.71,167.68H392v1h-4.42v2.71h-.91Z"/><path class="cls-3" d="M392,173.19l-2.57,1.32,2.57,1.33V177L388.57,175h-1.86v-1h1.88l3.45-1.93Z"/><path class="cls-3" d="M386.71,181.59H392v1.94a2.86,2.86,0,0,1-.21,1.14,2.32,2.32,0,0,1-1.42,1.32,3.13,3.13,0,0,1-1,.16,3.21,3.21,0,0,1-1.1-.18,2.45,2.45,0,0,1-.84-.53,2.39,2.39,0,0,1-.54-.83,3.06,3.06,0,0,1-.19-1.08Zm2.67,3.52a2.3,2.3,0,0,0,.71-.1,1.64,1.64,0,0,0,.55-.31,1.28,1.28,0,0,0,.36-.5,1.6,1.6,0,0,0,.13-.67v-.9h-3.51v.9a1.65,1.65,0,0,0,.13.68,1.32,1.32,0,0,0,.38.49,1.49,1.49,0,0,0,.55.31A2.28,2.28,0,0,0,389.38,185.11Z"/><path class="cls-3" d="M387.62,191.94h-.91v-3.7H392v3.63h-.91v-2.6h-1.28v2.25H389v-2.25h-1.39Z"/><path class="cls-3" d="M390.64,197.2a.92.92,0,0,0,.14-.19,2.1,2.1,0,0,0,.18-.34,2.41,2.41,0,0,0,.15-.43,1.84,1.84,0,0,0,.06-.47,1.09,1.09,0,0,0-.16-.64.52.52,0,0,0-.44-.21.51.51,0,0,0-.28.08.75.75,0,0,0-.19.23,3,3,0,0,0-.15.38c0,.15-.09.33-.14.53s-.15.49-.23.71a2,2,0,0,1-.3.54,1.3,1.3,0,0,1-.43.34,1.4,1.4,0,0,1-.62.12,1.67,1.67,0,0,1-.73-.16,1.48,1.48,0,0,1-.49-.44,2,2,0,0,1-.27-.63,3.08,3.08,0,0,1-.09-.75,4,4,0,0,1,.18-1.18,3.66,3.66,0,0,1,.51-1.05l.89.46a1.27,1.27,0,0,0-.17.24,4,4,0,0,0-.22.42,3.28,3.28,0,0,0-.18.53,2.35,2.35,0,0,0-.08.6c0,.57.18.85.55.85a.48.48,0,0,0,.29-.09.89.89,0,0,0,.21-.28,2.7,2.7,0,0,0,.17-.44l.16-.57a5.57,5.57,0,0,1,.23-.66,1.79,1.79,0,0,1,.29-.47,1.28,1.28,0,0,1,.39-.28,1.44,1.44,0,0,1,.53-.09,1.66,1.66,0,0,1,.72.15,1.54,1.54,0,0,1,.53.41,2.14,2.14,0,0,1,.32.62,2.68,2.68,0,0,1,.1.76,2.86,2.86,0,0,1-.17,1,4,4,0,0,1-.42.83Z"/><path class="cls-3" d="M386.71,199.91H392v1H389.5l2.54,2.24v1.14l-2.37-2-3,2.17v-1.17l2.3-1.65-.71-.69h-1.59Z"/><path class="cls-3" d="M391.13,210.31v-1.7h-4.42v-1h4.42v-1.7H392v4.43Z"/><path class="cls-3" d="M386.67,214.32a2.46,2.46,0,0,1,.23-1.06,2.79,2.79,0,0,1,.61-.82,2.72,2.72,0,0,1,.87-.52,2.6,2.6,0,0,1,1-.19,2.51,2.51,0,0,1,1,.2,2.77,2.77,0,0,1,.87.54,2.57,2.57,0,0,1,.59.83,2.44,2.44,0,0,1,.22,1,2.31,2.31,0,0,1-.23,1.05,2.65,2.65,0,0,1-.62.81,3,3,0,0,1-.87.53,2.9,2.9,0,0,1-1,.19,2.73,2.73,0,0,1-1-.2,2.79,2.79,0,0,1-.85-.54,2.57,2.57,0,0,1-.82-1.87Zm2.7-1.54a2.07,2.07,0,0,0-.66.1,1.57,1.57,0,0,0-.57.31,1.43,1.43,0,0,0-.4.48,1.45,1.45,0,0,0-.15.66,1.4,1.4,0,0,0,.15.66,1.51,1.51,0,0,0,.41.49,1.88,1.88,0,0,0,.58.3,2,2,0,0,0,.64.1,1.89,1.89,0,0,0,.67-.11,1.72,1.72,0,0,0,.57-.3,1.57,1.57,0,0,0,.4-.49,1.51,1.51,0,0,0,.14-.65,1.37,1.37,0,0,0-.56-1.15,1.72,1.72,0,0,0-.57-.3A2.05,2.05,0,0,0,389.37,212.78Z"/><path class="cls-3" d="M386.71,219H392v2.26a1.38,1.38,0,0,1-.16.67,1.65,1.65,0,0,1-.4.54,1.87,1.87,0,0,1-.57.35,1.63,1.63,0,0,1-.64.13,1.87,1.87,0,0,1-1.23-.46,1.69,1.69,0,0,1-.39-.52,1.54,1.54,0,0,1-.15-.68V220h-1.79Zm2.69,1v1.2a.6.6,0,0,0,.24.48.93.93,0,0,0,.63.19,1,1,0,0,0,.36-.06.72.72,0,0,0,.27-.16.48.48,0,0,0,.17-.23.58.58,0,0,0,.06-.26V220Z"/><path class="cls-3" d="M392,232.19l-5.33-3.72v-1.11l5.33,3.71Z"/><path class="cls-3" d="M386.71,237H392v1h-4.42v2.72h-.91Z"/><path class="cls-3" d="M392,244.3v.92l-5.33,2v-1.06l1.33-.5v-1.86l-1.33-.49v-1.06Zm-3.27,1.19,2.09-.73-2.09-.77Z"/><path class="cls-3" d="M386.71,249H392v2.26a1.42,1.42,0,0,1-.16.68,1.65,1.65,0,0,1-.4.54,2.08,2.08,0,0,1-.57.35,1.75,1.75,0,0,1-1.3,0,2.05,2.05,0,0,1-.57-.34,1.74,1.74,0,0,1-.39-.53,1.5,1.5,0,0,1-.15-.67v-1.26h-1.79Zm2.69,1v1.2a.57.57,0,0,0,.24.47.93.93,0,0,0,.63.2,1,1,0,0,0,.36-.06.88.88,0,0,0,.27-.16.53.53,0,0,0,.17-.23.66.66,0,0,0,.06-.27v-1.15Z"/><path class="cls-3" d="M391.13,259v-1.7h-4.42v-1h4.42v-1.7H392V259Z"/><path class="cls-3" d="M386.67,263a2.5,2.5,0,0,1,.23-1.07,2.74,2.74,0,0,1,.61-.81,2.85,2.85,0,0,1,1.86-.72,2.69,2.69,0,0,1,1,.2,2.63,2.63,0,0,1,.87.55,2.46,2.46,0,0,1,.59.83,2.36,2.36,0,0,1,.22,1,2.31,2.31,0,0,1-.23,1.05,2.82,2.82,0,0,1-.62.82,3,3,0,0,1-.87.52,2.68,2.68,0,0,1-1,.19,2.73,2.73,0,0,1-1-.2,2.79,2.79,0,0,1-.85-.54,2.57,2.57,0,0,1-.82-1.86Zm2.7-1.55a2.08,2.08,0,0,0-.66.11,1.55,1.55,0,0,0-.57.3,1.43,1.43,0,0,0-.55,1.14,1.47,1.47,0,0,0,.15.67,1.59,1.59,0,0,0,.41.48,1.53,1.53,0,0,0,.58.3,2,2,0,0,0,.64.11,2.14,2.14,0,0,0,.67-.11,1.94,1.94,0,0,0,.57-.31,1.46,1.46,0,0,0,.4-.49,1.51,1.51,0,0,0,.14-.65,1.4,1.4,0,0,0-.56-1.15,1.72,1.72,0,0,0-.57-.3A2.05,2.05,0,0,0,389.37,261.43Z"/><path class="cls-3" d="M386.71,267.64H392v2.26a1.45,1.45,0,0,1-.16.68,1.73,1.73,0,0,1-.4.53,2.12,2.12,0,0,1-.57.36,1.81,1.81,0,0,1-.64.12,1.84,1.84,0,0,1-.66-.12,2,2,0,0,1-.57-.33,1.87,1.87,0,0,1-.39-.53,1.5,1.5,0,0,1-.15-.67v-1.26h-1.79Zm2.69,1v1.2a.59.59,0,0,0,.24.47.93.93,0,0,0,.63.19,1,1,0,0,0,.36-.06.87.87,0,0,0,.27-.15.6.6,0,0,0,.17-.23.66.66,0,0,0,.06-.27v-1.15Z"/><rect class="cls-2" x="194.33" y="134.3" width="30" height="190.87"/><path class="cls-3" d="M207.59,157.41a1.19,1.19,0,0,0,.15.62,1.27,1.27,0,0,0,.39.41,1.58,1.58,0,0,0,.55.21,2.73,2.73,0,0,0,.64.07H212v1h-2.72a3.88,3.88,0,0,1-1-.14,2.23,2.23,0,0,1-.83-.41,2,2,0,0,1-.57-.72,2.47,2.47,0,0,1-.21-1.06,2.36,2.36,0,0,1,.22-1.08,2,2,0,0,1,.58-.73,2.31,2.31,0,0,1,.85-.4,4.07,4.07,0,0,1,1-.12H212v1h-2.72a2.81,2.81,0,0,0-.65.07,1.66,1.66,0,0,0-.55.21,1.15,1.15,0,0,0-.38.41A1.11,1.11,0,0,0,207.59,157.41Z"/><path class="cls-3" d="M210.13,163.1h-3.42v-1H212v.81l-3.5,2.77H212v1h-5.32v-.84Z"/><path class="cls-3" d="M209.41,168.73a2.73,2.73,0,0,1,1,.18,2.47,2.47,0,0,1,.85.51,2.71,2.71,0,0,1,.61.83,2.57,2.57,0,0,1,.23,1.1,2.48,2.48,0,0,1-.32,1.28,2.22,2.22,0,0,1-.84.8l-.55-.8a1.47,1.47,0,0,0,.38-.25,1.46,1.46,0,0,0,.24-.33,1.4,1.4,0,0,0,.13-.36,1.53,1.53,0,0,0,0-.36,1.42,1.42,0,0,0-.15-.68,1.49,1.49,0,0,0-.41-.48,1.71,1.71,0,0,0-.57-.29,2.08,2.08,0,0,0-.64-.1,2.25,2.25,0,0,0-.68.11,1.87,1.87,0,0,0-.57.32,1.64,1.64,0,0,0-.4.5,1.33,1.33,0,0,0-.15.63,1.64,1.64,0,0,0,0,.37,1.57,1.57,0,0,0,.14.38,1.85,1.85,0,0,0,.25.32,1.18,1.18,0,0,0,.37.24l-.48.85a1.61,1.61,0,0,1-.53-.36,2.32,2.32,0,0,1-.39-.54,3.16,3.16,0,0,1-.24-.63,3.05,3.05,0,0,1-.08-.66,2.24,2.24,0,0,1,.24-1,2.82,2.82,0,0,1,.62-.82,3.13,3.13,0,0,1,.88-.53A2.69,2.69,0,0,1,209.41,168.73Z"/><path class="cls-3" d="M206.71,175.43H212v1h-4.42v2.72h-.91Z"/><path class="cls-3" d="M212,182.74v.92l-5.33,2v-1.06l1.33-.5v-1.86l-1.33-.49v-1.06Zm-3.27,1.19,2.09-.73-2.09-.77Z"/><path class="cls-3" d="M206.71,187.47H212v2.36a1.45,1.45,0,0,1-.16.68,1.73,1.73,0,0,1-.4.53,2.12,2.12,0,0,1-.57.36,1.81,1.81,0,0,1-.64.12,1.69,1.69,0,0,1-.94-.26,1.39,1.39,0,0,1-.61-.7l-2,1.22v-1.17l1.79-1.08v-1h-1.79Zm2.7,1v1.3a.58.58,0,0,0,.06.26.79.79,0,0,0,.19.22,1,1,0,0,0,.27.14,1.27,1.27,0,0,0,.34,0,.93.93,0,0,0,.34-.06.85.85,0,0,0,.28-.16,1.3,1.3,0,0,0,.18-.23.66.66,0,0,0,.06-.27v-1.25Z"/><path class="cls-3" d="M206.71,193.71H212v1h-5.33Z"/><path class="cls-3" d="M211.13,201v-1.7h-4.42v-1h4.42v-1.7H212V201Z"/><path class="cls-3" d="M212,203.68,209.47,205l2.57,1.34v1.11l-3.47-1.93h-1.86v-1h1.88l3.45-1.93Z"/><path class="cls-3" d="M206.71,212.07H212v1h-5.33Z"/><path class="cls-3" d="M210.13,216.53h-3.42v-1H212v.8l-3.5,2.78H212v1h-5.32v-.83Z"/><path class="cls-3" d="M209.41,224.94a2.73,2.73,0,0,1,1,.18,2.83,2.83,0,0,1,.85.51,2.71,2.71,0,0,1,.61.83,2.59,2.59,0,0,1,.23,1.11,2.47,2.47,0,0,1-.32,1.27,2.14,2.14,0,0,1-.84.8l-.55-.8a1.47,1.47,0,0,0,.38-.25,1.27,1.27,0,0,0,.24-.33,1.4,1.4,0,0,0,.13-.36,1.47,1.47,0,0,0,0-.36,1.45,1.45,0,0,0-.15-.68,1.74,1.74,0,0,0-.41-.48,1.71,1.71,0,0,0-.57-.29,2.08,2.08,0,0,0-.64-.1,2.25,2.25,0,0,0-.68.11,2.1,2.1,0,0,0-.57.32,1.76,1.76,0,0,0-.4.5,1.33,1.33,0,0,0-.15.63,1.73,1.73,0,0,0,0,.38,1.66,1.66,0,0,0,.14.37,1.54,1.54,0,0,0,.25.32,1.18,1.18,0,0,0,.37.24l-.48.85a1.47,1.47,0,0,1-.53-.36,2.5,2.5,0,0,1-.39-.53,3.25,3.25,0,0,1-.24-.64,3,3,0,0,1-.08-.66,2.24,2.24,0,0,1,.24-1,2.65,2.65,0,0,1,.62-.81,2.94,2.94,0,0,1,.88-.54A2.91,2.91,0,0,1,209.41,224.94Z"/><path class="cls-3" d="M206.68,233.84a2.45,2.45,0,0,1,.22-1.06,2.74,2.74,0,0,1,.61-.81,2.58,2.58,0,0,1,.87-.53,2.65,2.65,0,0,1,1-.19,2.76,2.76,0,0,1,1,.2,2.69,2.69,0,0,1,.86.55,2.57,2.57,0,0,1,.82,1.87,2.31,2.31,0,0,1-.24,1,2.5,2.5,0,0,1-.62.81,2.75,2.75,0,0,1-.87.53,2.81,2.81,0,0,1-1,.19,2.73,2.73,0,0,1-1-.2,2.79,2.79,0,0,1-.85-.54,2.51,2.51,0,0,1-.81-1.87Zm2.7-1.54a2.13,2.13,0,0,0-.67.1,1.74,1.74,0,0,0-.57.31,1.43,1.43,0,0,0-.55,1.14,1.47,1.47,0,0,0,.15.67,1.59,1.59,0,0,0,.41.48,1.53,1.53,0,0,0,.58.3,2.2,2.2,0,0,0,1.31,0,1.94,1.94,0,0,0,.57-.31,1.46,1.46,0,0,0,.4-.49,1.51,1.51,0,0,0,.14-.65,1.37,1.37,0,0,0-.56-1.15,1.72,1.72,0,0,0-.57-.3A2,2,0,0,0,209.38,232.3Z"/><path class="cls-3" d="M206.71,242.85h3.53l-2.63-1.37v-.56l2.63-1.38h-3.53v-1H212v1.11l-3,1.57,3,1.59v1.11h-5.33Z"/><path class="cls-3" d="M206.71,250.61h3.53l-2.63-1.37v-.56l2.63-1.37h-3.53v-1H212v1.11L209,249l3,1.59v1.1h-5.33Z"/><path class="cls-3" d="M207.59,256.29a1.19,1.19,0,0,0,.15.62,1.27,1.27,0,0,0,.39.41,1.58,1.58,0,0,0,.55.21,2.73,2.73,0,0,0,.64.07H212v1h-2.72a3.88,3.88,0,0,1-1-.13,2.23,2.23,0,0,1-.83-.41,2,2,0,0,1-.57-.72,2.47,2.47,0,0,1-.21-1.06,2.34,2.34,0,0,1,.22-1.08,2,2,0,0,1,.58-.73,2.31,2.31,0,0,1,.85-.4,4.07,4.07,0,0,1,1-.12H212v1h-2.72a2.81,2.81,0,0,0-.65.07,1.66,1.66,0,0,0-.55.21,1.21,1.21,0,0,0-.38.4A1.17,1.17,0,0,0,207.59,256.29Z"/><path class="cls-3" d="M210.13,262h-3.42v-1H212v.8l-3.5,2.78H212v1h-5.32v-.84Z"/><path class="cls-3" d="M206.71,267.94H212v1h-5.33Z"/><path class="cls-3" d="M209.41,271a2.73,2.73,0,0,1,1,.18,2.83,2.83,0,0,1,.85.51,2.71,2.71,0,0,1,.61.83,2.59,2.59,0,0,1,.23,1.11,2.47,2.47,0,0,1-.32,1.27,2.14,2.14,0,0,1-.84.8l-.55-.8a1.47,1.47,0,0,0,.38-.25,1.41,1.41,0,0,0,.24-.32,1.74,1.74,0,0,0,.13-.36,1.61,1.61,0,0,0,0-.37A1.45,1.45,0,0,0,211,273a1.74,1.74,0,0,0-.41-.48,1.92,1.92,0,0,0-.57-.29,2.43,2.43,0,0,0-.64-.1,2,2,0,0,0-.68.12,1.68,1.68,0,0,0-.57.32,1.6,1.6,0,0,0-.4.49,1.33,1.33,0,0,0-.15.63,1.73,1.73,0,0,0,0,.38,1.66,1.66,0,0,0,.14.37,1.59,1.59,0,0,0,.25.33,1.18,1.18,0,0,0,.37.24l-.48.84a1.47,1.47,0,0,1-.53-.36,2.27,2.27,0,0,1-.39-.53,3.25,3.25,0,0,1-.24-.64,3,3,0,0,1-.08-.66,2.27,2.27,0,0,1,.24-1,2.91,2.91,0,0,1,.62-.81,3,3,0,0,1,1.88-.73Z"/><path class="cls-3" d="M212,279.23v.92l-5.33,2v-1.06l1.33-.5v-1.86l-1.33-.48V277.2Zm-3.27,1.2,2.09-.74-2.09-.76Z"/><path class="cls-3" d="M211.13,287.4v-1.7h-4.42v-1h4.42V283H212v4.43Z"/><path class="cls-3" d="M206.71,289.23H212v1h-5.33Z"/><path class="cls-3" d="M206.68,294.93a2.45,2.45,0,0,1,.22-1.06,2.79,2.79,0,0,1,.61-.82,2.94,2.94,0,0,1,.87-.53,2.85,2.85,0,0,1,1-.18,2.58,2.58,0,0,1,1,.2,2.84,2.84,0,0,1,.86.54,2.57,2.57,0,0,1,.59.83,2.43,2.43,0,0,1,.23,1,2.33,2.33,0,0,1-.24,1.06,2.5,2.5,0,0,1-.62.81,2.75,2.75,0,0,1-.87.53,2.8,2.8,0,0,1-1,.18,2.72,2.72,0,0,1-1-.19,2.79,2.79,0,0,1-.85-.54,2.46,2.46,0,0,1-.59-.83A2.4,2.4,0,0,1,206.68,294.93Zm2.7-1.54a2.13,2.13,0,0,0-.67.1,1.57,1.57,0,0,0-.57.31,1.39,1.39,0,0,0-.55,1.14,1.4,1.4,0,0,0,.15.66,1.51,1.51,0,0,0,.41.49,1.88,1.88,0,0,0,.58.3,2.05,2.05,0,0,0,.65.1,1.83,1.83,0,0,0,.66-.11,1.72,1.72,0,0,0,.57-.3,1.57,1.57,0,0,0,.4-.49,1.51,1.51,0,0,0,.14-.65,1.47,1.47,0,0,0-.15-.67,1.49,1.49,0,0,0-.41-.49,1.7,1.7,0,0,0-.57-.29A2,2,0,0,0,209.38,293.39Z"/><path class="cls-3" d="M210.13,300.63h-3.42v-1H212v.8l-3.5,2.77H212v1h-5.32v-.84Z"/><path class="cls-7" d="M3.53,4.49V5.4h-3V4.49H1.54V2.22a.65.65,0,0,1-.21.18A1.65,1.65,0,0,1,1,2.58a2.13,2.13,0,0,1-.35.14,1.56,1.56,0,0,1-.33,0V1.83a.82.82,0,0,0,.33-.09A2,2,0,0,0,1,1.54a2.36,2.36,0,0,0,.33-.24.83.83,0,0,0,.17-.18h1V4.49Z"/><path class="cls-7" d="M9.07,3.2a2.63,2.63,0,0,1-.14.91,2.12,2.12,0,0,1-.41.72,1.78,1.78,0,0,1-.61.48,1.81,1.81,0,0,1-.77.17,1.76,1.76,0,0,1-1.38-.65,2.12,2.12,0,0,1-.41-.72,2.63,2.63,0,0,1-.14-.91,2.67,2.67,0,0,1,.14-.91,2.12,2.12,0,0,1,.41-.72,1.76,1.76,0,0,1,.61-.47A1.65,1.65,0,0,1,7.14.92a1.68,1.68,0,0,1,.77.18,1.76,1.76,0,0,1,.61.47,2.12,2.12,0,0,1,.41.72A2.67,2.67,0,0,1,9.07,3.2Zm-1,0A2.38,2.38,0,0,0,8,2.65a1.32,1.32,0,0,0-.2-.43,1,1,0,0,0-.29-.28.75.75,0,0,0-.37-.09.79.79,0,0,0-.38.09,1,1,0,0,0-.29.28,1.3,1.3,0,0,0-.19.43,1.93,1.93,0,0,0-.07.55,1.93,1.93,0,0,0,.07.55,1.3,1.3,0,0,0,.19.43,1,1,0,0,0,.29.28.79.79,0,0,0,.38.09.75.75,0,0,0,.37-.09,1,1,0,0,0,.29-.28A1.32,1.32,0,0,0,8,3.75,2.38,2.38,0,0,0,8.06,3.2Z"/><path class="cls-7" d="M14.91,3.2a2.63,2.63,0,0,1-.15.91,2.1,2.1,0,0,1-.4.72,1.82,1.82,0,0,1-.62.48,1.77,1.77,0,0,1-.77.17,1.84,1.84,0,0,1-.77-.17,1.88,1.88,0,0,1-.61-.48,2.1,2.1,0,0,1-.4-.72A2.63,2.63,0,0,1,11,3.2a2.67,2.67,0,0,1,.15-.91,2.1,2.1,0,0,1,.4-.72,1.85,1.85,0,0,1,.61-.47A1.71,1.71,0,0,1,13,.92a1.65,1.65,0,0,1,.77.18,1.79,1.79,0,0,1,.62.47,2.1,2.1,0,0,1,.4.72A2.67,2.67,0,0,1,14.91,3.2Zm-1,0a1.93,1.93,0,0,0-.07-.55,1.3,1.3,0,0,0-.19-.43,1,1,0,0,0-.29-.28A.82.82,0,0,0,13,1.85a.78.78,0,0,0-.37.09,1,1,0,0,0-.3.28,1.55,1.55,0,0,0-.19.43A2.36,2.36,0,0,0,12,3.2a2.36,2.36,0,0,0,.07.55,1.55,1.55,0,0,0,.19.43,1,1,0,0,0,.3.28.78.78,0,0,0,.37.09.82.82,0,0,0,.38-.09,1,1,0,0,0,.29-.28,1.3,1.3,0,0,0,.19-.43A1.93,1.93,0,0,0,13.9,3.2Z"/><path class="cls-7" d="M17.77,2.27a1.3,1.3,0,0,1-.49-.09,1.28,1.28,0,0,1-.39-.24,1,1,0,0,1-.26-.36,1,1,0,0,1-.1-.45,1,1,0,0,1,.1-.44,1,1,0,0,1,.26-.36,1.28,1.28,0,0,1,.39-.24A1.3,1.3,0,0,1,17.77,0a1.28,1.28,0,0,1,.48.09,1.17,1.17,0,0,1,.39.24,1.22,1.22,0,0,1,.27.36,1.12,1.12,0,0,1,.09.44,1.13,1.13,0,0,1-.09.45,1.22,1.22,0,0,1-.27.36,1.17,1.17,0,0,1-.39.24A1.28,1.28,0,0,1,17.77,2.27ZM17,5.05l2.11-2.47L21,0l.45.4-2,2.42-2,2.61Zm.82-3.28a.46.46,0,0,0,.2-.05.58.58,0,0,0,.17-.14.82.82,0,0,0,.12-.2.69.69,0,0,0,0-.25.63.63,0,0,0-.16-.44A.46.46,0,0,0,17.77.5a.37.37,0,0,0-.21.06.7.7,0,0,0-.17.13.56.56,0,0,0-.11.2.67.67,0,0,0,.11.69A.47.47,0,0,0,17.77,1.77Zm2.89,3.71a1.28,1.28,0,0,1-.48-.09,1.17,1.17,0,0,1-.39-.24,1.07,1.07,0,0,1-.27-.36,1.13,1.13,0,0,1-.09-.45,1,1,0,0,1,.09-.44,1.07,1.07,0,0,1,.27-.36,1,1,0,0,1,.39-.25,1.28,1.28,0,0,1,.48-.09,1.3,1.3,0,0,1,.49.09,1.14,1.14,0,0,1,.39.25,1.07,1.07,0,0,1,.27.36,1,1,0,0,1,.09.44,1.13,1.13,0,0,1-.09.45,1.07,1.07,0,0,1-.27.36,1.28,1.28,0,0,1-.39.24A1.3,1.3,0,0,1,20.66,5.48Zm0-.51a.36.36,0,0,0,.21,0A.55.55,0,0,0,21,4.78a.49.49,0,0,0,.11-.2.6.6,0,0,0,.05-.24.7.7,0,0,0-.05-.25.67.67,0,0,0-.12-.2.54.54,0,0,0-.16-.14.52.52,0,0,0-.21,0,.35.35,0,0,0-.2,0,.46.46,0,0,0-.17.14.56.56,0,0,0-.12.2.67.67,0,0,0,0,.24.64.64,0,0,0,.16.45A.47.47,0,0,0,20.66,5Z"/><path class="cls-7" d="M4.25,113.63a1.72,1.72,0,0,1-.15.72,1.74,1.74,0,0,1-.41.59,1.89,1.89,0,0,1-.62.4,2.15,2.15,0,0,1-.77.14,1.92,1.92,0,0,1-.81-.17,1.7,1.7,0,0,1-.62-.48,2.15,2.15,0,0,1-.39-.77,3.58,3.58,0,0,1-.13-1,5,5,0,0,1,.14-1.28,2.7,2.7,0,0,1,.41-.94,1.85,1.85,0,0,1,.65-.57,1.88,1.88,0,0,1,.86-.2,1.92,1.92,0,0,1,.92.22,1.87,1.87,0,0,1,.72.62l-.58.63a1.21,1.21,0,0,0-.46-.44,1.22,1.22,0,0,0-.62-.16,1,1,0,0,0-.8.4,1.89,1.89,0,0,0-.31,1.12,1.05,1.05,0,0,1,.44-.42,1.33,1.33,0,0,1,.67-.16,1.93,1.93,0,0,1,.73.13,1.86,1.86,0,0,1,.6.38,1.82,1.82,0,0,1,.39.56A1.7,1.7,0,0,1,4.25,113.63Zm-1.94,1a1,1,0,0,0,.38-.08.93.93,0,0,0,.31-.22,1,1,0,0,0,.21-.32.84.84,0,0,0,.08-.38.79.79,0,0,0-.08-.38,1,1,0,0,0-.52-.52.94.94,0,0,0-.76,0,1,1,0,0,0-.32.21,1,1,0,0,0-.21.31.92.92,0,0,0-.07.38.84.84,0,0,0,.08.38,1,1,0,0,0,.21.32,1.16,1.16,0,0,0,.31.22A1,1,0,0,0,2.31,114.63Z"/><path class="cls-7" d="M10,113.21a2.67,2.67,0,0,1-.15.91,2.3,2.3,0,0,1-.4.72,1.79,1.79,0,0,1-.62.47,1.76,1.76,0,0,1-.76.17,1.82,1.82,0,0,1-.78-.17,1.85,1.85,0,0,1-.61-.47,2.3,2.3,0,0,1-.4-.72,2.67,2.67,0,0,1-.15-.91,2.73,2.73,0,0,1,.15-.92,2.3,2.3,0,0,1,.4-.72,1.85,1.85,0,0,1,.61-.47,1.68,1.68,0,0,1,.78-.17,1.63,1.63,0,0,1,.76.17,1.79,1.79,0,0,1,.62.47,2.3,2.3,0,0,1,.4.72A2.73,2.73,0,0,1,10,113.21Zm-1,0a2.45,2.45,0,0,0-.07-.56,1.69,1.69,0,0,0-.19-.43.82.82,0,0,0-.29-.27.71.71,0,0,0-.37-.1.7.7,0,0,0-.38.1.85.85,0,0,0-.3.27,1.69,1.69,0,0,0-.19.43,2.45,2.45,0,0,0-.07.56,2.21,2.21,0,0,0,.07.54,1.55,1.55,0,0,0,.19.43,1,1,0,0,0,.3.28.8.8,0,0,0,.38.1.82.82,0,0,0,.37-.1,1,1,0,0,0,.29-.28,1.55,1.55,0,0,0,.19-.43A2.21,2.21,0,0,0,9,113.21Z"/><path class="cls-7" d="M12.88,112.28a1.28,1.28,0,0,1-.48-.09,1.3,1.3,0,0,1-.39-.25,1.22,1.22,0,0,1-.27-.36,1.08,1.08,0,0,1-.09-.44,1.13,1.13,0,0,1,.09-.45,1.22,1.22,0,0,1,.27-.36,1.3,1.3,0,0,1,.87-.33,1.33,1.33,0,0,1,.49.09,1.28,1.28,0,0,1,.39.24,1.22,1.22,0,0,1,.27.36,1.13,1.13,0,0,1,.09.45,1.08,1.08,0,0,1-.09.44,1.22,1.22,0,0,1-.27.36,1.3,1.3,0,0,1-.39.25A1.33,1.33,0,0,1,12.88,112.28Zm-.81,2.77,2.11-2.47L16.13,110l.46.4-2.05,2.43-2,2.61Zm.81-3.28a.36.36,0,0,0,.21,0,.55.55,0,0,0,.17-.14.67.67,0,0,0,.12-.2,1,1,0,0,0,0-.24.64.64,0,0,0-.16-.45.49.49,0,0,0-.38-.18.35.35,0,0,0-.2,0,.55.55,0,0,0-.17.14.56.56,0,0,0-.12.2.86.86,0,0,0,0,.24.67.67,0,0,0,.16.45A.49.49,0,0,0,12.88,111.77Zm2.9,3.71a1.3,1.3,0,0,1-.49-.09,1.28,1.28,0,0,1-.39-.24,1.19,1.19,0,0,1-.26-.36,1,1,0,0,1-.1-.44,1,1,0,0,1,.1-.45,1.19,1.19,0,0,1,.26-.36,1.28,1.28,0,0,1,.39-.24,1.38,1.38,0,0,1,1,0,1.28,1.28,0,0,1,.39.24,1,1,0,0,1,.26.36,1,1,0,0,1,.1.45,1,1,0,0,1-.1.44,1,1,0,0,1-.26.36,1.28,1.28,0,0,1-.39.24A1.3,1.3,0,0,1,15.78,115.48Zm0-.5a.39.39,0,0,0,.21-.06.52.52,0,0,0,.16-.14.47.47,0,0,0,.12-.19.67.67,0,0,0,0-.24.75.75,0,0,0,0-.26.82.82,0,0,0-.12-.2.43.43,0,0,0-.17-.13.35.35,0,0,0-.2-.05.54.54,0,0,0-.21.05,1,1,0,0,0-.17.14.64.64,0,0,0-.11.2.69.69,0,0,0,0,.25.67.67,0,0,0,.15.44A.47.47,0,0,0,15.78,115Z"/><path class="cls-7" d="M.29,225.28a2.84,2.84,0,0,1,.05-.61,1.48,1.48,0,0,1,.18-.51,1.79,1.79,0,0,1,.36-.43,3.08,3.08,0,0,1,.58-.4L2,223l.39-.23a1,1,0,0,0,.24-.21.39.39,0,0,0,.08-.25.51.51,0,0,0-.18-.39A.73.73,0,0,0,2,221.8a.82.82,0,0,0-.33,0,1,1,0,0,0-.29.13l-.24.18-.2.22-.64-.75a1.91,1.91,0,0,1,.28-.23,2.73,2.73,0,0,1,.42-.23,3.42,3.42,0,0,1,.54-.18,2.62,2.62,0,0,1,.64-.07,2.38,2.38,0,0,1,.68.09,1.58,1.58,0,0,1,.5.27,1,1,0,0,1,.32.4,1.27,1.27,0,0,1,.11.52,1,1,0,0,1-.1.46,1.36,1.36,0,0,1-.25.36,1.58,1.58,0,0,1-.32.27,3.24,3.24,0,0,1-.35.21l-.3.17-.34.22a1.5,1.5,0,0,0-.31.24,1,1,0,0,0-.22.24H3.9v.91Z"/><path class="cls-7" d="M9.7,223.08a2.67,2.67,0,0,1-.15.91,2.28,2.28,0,0,1-.4.72,1.76,1.76,0,0,1-.62.47,1.67,1.67,0,0,1-.77.17,1.79,1.79,0,0,1-1.38-.64A2.3,2.3,0,0,1,6,224a3,3,0,0,1,0-1.82,2.3,2.3,0,0,1,.41-.72A1.91,1.91,0,0,1,7,221a1.77,1.77,0,0,1,.77-.17,1.81,1.81,0,0,1,.77.17,2.07,2.07,0,0,1,.62.48,2.28,2.28,0,0,1,.4.72A2.67,2.67,0,0,1,9.7,223.08Zm-1,0a2.36,2.36,0,0,0-.07-.55,1.55,1.55,0,0,0-.19-.43,1,1,0,0,0-.3-.28.76.76,0,0,0-.37-.1.83.83,0,0,0-.38.1,1,1,0,0,0-.29.28,1.55,1.55,0,0,0-.19.43,2.2,2.2,0,0,0,0,1.1,1.69,1.69,0,0,0,.19.43.82.82,0,0,0,.29.27.72.72,0,0,0,.38.1.66.66,0,0,0,.37-.1.85.85,0,0,0,.3-.27,1.69,1.69,0,0,0,.19-.43A2.36,2.36,0,0,0,8.69,223.08Z"/><path class="cls-7" d="M15.31,225.28l-.42-.44a2.57,2.57,0,0,1-.71.38,2.38,2.38,0,0,1-.79.13,2.19,2.19,0,0,1-.75-.12,1.67,1.67,0,0,1-.56-.35,1.52,1.52,0,0,1-.37-.5,1.62,1.62,0,0,1-.12-.61,1.39,1.39,0,0,1,.07-.46,1.28,1.28,0,0,1,.21-.38,2.35,2.35,0,0,1,.3-.33,3.44,3.44,0,0,1,.36-.28,2.86,2.86,0,0,1-.46-.62,1.13,1.13,0,0,1-.13-.54,1.27,1.27,0,0,1,.11-.52,1.39,1.39,0,0,1,.31-.41,1.36,1.36,0,0,1,.46-.25,1.81,1.81,0,0,1,.58-.09,1.9,1.9,0,0,1,.54.07,1.3,1.3,0,0,1,.44.22,1,1,0,0,1,.32.37,1.07,1.07,0,0,1,.12.51,1.19,1.19,0,0,1-.26.76,3,3,0,0,1-.65.62l1,1.06a2.13,2.13,0,0,0,.18-.52,3,3,0,0,0,.06-.62H16a4.06,4.06,0,0,1-.13,1,3.29,3.29,0,0,1-.33.79l1.1,1.16Zm-1.83-.71a1.45,1.45,0,0,0,.87-.31L13.12,223a1.7,1.7,0,0,0-.41.38.72.72,0,0,0-.16.44.82.82,0,0,0,.07.3.79.79,0,0,0,.19.25,1.1,1.1,0,0,0,.67.24Zm-.62-3.44a.27.27,0,0,0,0,.13.61.61,0,0,0,.07.14,1.77,1.77,0,0,0,.14.17l.22.24a2.57,2.57,0,0,0,.44-.36.55.55,0,0,0,.15-.37.42.42,0,0,0-.14-.33.52.52,0,0,0-.36-.12.56.56,0,0,0-.39.14A.49.49,0,0,0,12.86,221.13Z"/><path class="cls-7" d="M4.2,58.83a1.44,1.44,0,0,1-.15.67,1.66,1.66,0,0,1-.42.52,2,2,0,0,1-.62.34,2.67,2.67,0,0,1-.75.11,2.27,2.27,0,0,1-.75-.12A1.88,1.88,0,0,1,.89,60a1.76,1.76,0,0,1-.41-.53,1.54,1.54,0,0,1-.15-.68,1.3,1.3,0,0,1,.07-.41A1.68,1.68,0,0,1,.6,58a1.44,1.44,0,0,1,.27-.28,1.32,1.32,0,0,1,.29-.19,1.41,1.41,0,0,1-.47-.41,1,1,0,0,1-.19-.59,1.24,1.24,0,0,1,.16-.64,1.41,1.41,0,0,1,.42-.46,1.89,1.89,0,0,1,.57-.28,1.87,1.87,0,0,1,.62-.1,2.25,2.25,0,0,1,.61.09,1.86,1.86,0,0,1,.58.29,1.43,1.43,0,0,1,.42.46,1.18,1.18,0,0,1,.16.63.81.81,0,0,1,0,.31.89.89,0,0,1-.15.29,1.19,1.19,0,0,1-.22.23,1.27,1.27,0,0,1-.27.18,1.55,1.55,0,0,1,.32.2,1.5,1.5,0,0,1,.27.29,1.31,1.31,0,0,1,.19.35A1.21,1.21,0,0,1,4.2,58.83Zm-1-.06a.77.77,0,0,0-.08-.34.72.72,0,0,0-.21-.25A.8.8,0,0,0,2.6,58,1,1,0,0,0,2.26,58a1,1,0,0,0-.35.05,1,1,0,0,0-.29.16,1,1,0,0,0-.2.25.88.88,0,0,0-.07.33.73.73,0,0,0,.08.33,1,1,0,0,0,.2.25,1.08,1.08,0,0,0,.3.16,1,1,0,0,0,.34.06,1,1,0,0,0,.34-.07.9.9,0,0,0,.29-.16.85.85,0,0,0,.21-.25A.83.83,0,0,0,3.18,58.77ZM1.52,56.59a.6.6,0,0,0,.06.27.86.86,0,0,0,.18.2.9.9,0,0,0,.24.12,1.17,1.17,0,0,0,.27,0,1.27,1.27,0,0,0,.26,0,.7.7,0,0,0,.24-.13.7.7,0,0,0,.18-.2A.54.54,0,0,0,3,56.58a.53.53,0,0,0-.23-.44A.84.84,0,0,0,2.26,56a.86.86,0,0,0-.53.17A.54.54,0,0,0,1.52,56.59Z"/><path class="cls-7" d="M10,58.21a2.94,2.94,0,0,1-.14.91,2.3,2.3,0,0,1-.41.72,1.83,1.83,0,0,1-2.16.47,2,2,0,0,1-.61-.47,2.28,2.28,0,0,1-.4-.72,2.67,2.67,0,0,1-.15-.91,2.63,2.63,0,0,1,.15-.91,2.28,2.28,0,0,1,.4-.72,2,2,0,0,1,.61-.48,1.85,1.85,0,0,1,1.55,0,1.88,1.88,0,0,1,.61.48,2.3,2.3,0,0,1,.41.72A2.9,2.9,0,0,1,10,58.21Zm-1,0a1.88,1.88,0,0,0-.07-.55,1.3,1.3,0,0,0-.19-.43A.86.86,0,0,0,8.45,57a.69.69,0,0,0-.37-.1.7.7,0,0,0-.38.1.86.86,0,0,0-.29.28,1.32,1.32,0,0,0-.2.43,2.32,2.32,0,0,0-.06.55,2.23,2.23,0,0,0,.06.54,1.32,1.32,0,0,0,.2.43.86.86,0,0,0,.29.28.7.7,0,0,0,.38.1.69.69,0,0,0,.37-.1.86.86,0,0,0,.29-.28,1.3,1.3,0,0,0,.19-.43A1.81,1.81,0,0,0,9,58.21Z"/><path class="cls-7" d="M12.87,57.28a1.33,1.33,0,0,1-.49-.09,1.14,1.14,0,0,1-.39-.25,1,1,0,0,1-.26-.36,1,1,0,0,1,0-.88,1.18,1.18,0,0,1,.26-.37,1.49,1.49,0,0,1,.39-.23,1.34,1.34,0,0,1,.49-.1,1.29,1.29,0,0,1,.48.1,1.4,1.4,0,0,1,.4.23,1.18,1.18,0,0,1,.26.37,1,1,0,0,1,0,.88,1,1,0,0,1-.26.36,1.09,1.09,0,0,1-.4.25A1.28,1.28,0,0,1,12.87,57.28Zm-.82,2.77,2.12-2.47,2-2.56.46.4-2,2.43-2,2.61Zm.82-3.27a.39.39,0,0,0,.21-.06.55.55,0,0,0,.17-.14.75.75,0,0,0,.11-.2.67.67,0,0,0,0-.24.68.68,0,0,0-.15-.45.49.49,0,0,0-.38-.18.5.5,0,0,0-.21.05.54.54,0,0,0-.16.14.67.67,0,0,0-.12.2.61.61,0,0,0,0,.24.67.67,0,0,0,.16.45A.47.47,0,0,0,12.87,56.78Zm2.9,3.7a1.3,1.3,0,0,1-.49-.09,1.28,1.28,0,0,1-.39-.24,1,1,0,0,1-.26-.36.92.92,0,0,1-.1-.44,1,1,0,0,1,.1-.45,1,1,0,0,1,.26-.36,1.28,1.28,0,0,1,.39-.24,1.3,1.3,0,0,1,.49-.09,1.28,1.28,0,0,1,.48.09,1.47,1.47,0,0,1,.4.24,1,1,0,0,1,.26.36,1.13,1.13,0,0,1,.09.45,1.06,1.06,0,0,1-.35.8,1.47,1.47,0,0,1-.4.24A1.28,1.28,0,0,1,15.77,60.48Zm0-.5a.36.36,0,0,0,.2-.06.7.7,0,0,0,.17-.13.82.82,0,0,0,.12-.2,1,1,0,0,0,0-.24.66.66,0,0,0-.05-.25,1,1,0,0,0-.11-.21.7.7,0,0,0-.17-.13.49.49,0,0,0-.2,0,.46.46,0,0,0-.21,0,.75.75,0,0,0-.17.14.82.82,0,0,0-.12.2,1,1,0,0,0,0,.25.68.68,0,0,0,.16.44A.47.47,0,0,0,15.77,60Z"/><path class="cls-7" d="M2.34,171.36v-1.12H.15v-.89l2.51-3.22h.69v3.21H4v.9H3.35v1.12Zm-1.19-2h1.3v-1.69Z"/><path class="cls-7" d="M9.7,168.21a2.67,2.67,0,0,1-.15.91,2.28,2.28,0,0,1-.4.72,1.89,1.89,0,0,1-.62.47,1.67,1.67,0,0,1-.77.17,1.64,1.64,0,0,1-.77-.17,1.76,1.76,0,0,1-.61-.47,2.3,2.3,0,0,1-.41-.72,3,3,0,0,1,0-1.82,2.3,2.3,0,0,1,.41-.72A1.91,1.91,0,0,1,7,166.1a1.77,1.77,0,0,1,.77-.17,1.81,1.81,0,0,1,.77.17,2.07,2.07,0,0,1,.62.48,2.28,2.28,0,0,1,.4.72A2.67,2.67,0,0,1,9.7,168.21Zm-1,0a2.36,2.36,0,0,0-.07-.55,1.55,1.55,0,0,0-.19-.43,1,1,0,0,0-.3-.28.76.76,0,0,0-.37-.1.83.83,0,0,0-.38.1,1,1,0,0,0-.29.28,1.55,1.55,0,0,0-.19.43,2.2,2.2,0,0,0,0,1.1,1.69,1.69,0,0,0,.19.43.82.82,0,0,0,.29.27.72.72,0,0,0,.38.1.66.66,0,0,0,.37-.1.85.85,0,0,0,.3-.27,1.69,1.69,0,0,0,.19-.43A2.36,2.36,0,0,0,8.69,168.21Z"/><path class="cls-7" d="M12.56,167.28a1.24,1.24,0,0,1-.48-.09,1.08,1.08,0,0,1-.39-.24,1.54,1.54,0,0,1-.27-.36,1.13,1.13,0,0,1-.09-.45,1.12,1.12,0,0,1,.09-.44,1.22,1.22,0,0,1,.27-.36,1.08,1.08,0,0,1,.39-.24,1.24,1.24,0,0,1,.48-.09,1.37,1.37,0,0,1,.49.09,1.28,1.28,0,0,1,.39.24,1,1,0,0,1,.26.36,1,1,0,0,1,.1.44,1,1,0,0,1-.1.45,1.15,1.15,0,0,1-.65.6A1.37,1.37,0,0,1,12.56,167.28Zm-.81,2.78,2.11-2.47,2-2.57.46.41-2,2.42-2,2.61Zm.81-3.28a.46.46,0,0,0,.21-.05l.17-.14a.53.53,0,0,0,.11-.21.6.6,0,0,0,0-.24.73.73,0,0,0-.16-.45.49.49,0,0,0-.38-.18.46.46,0,0,0-.2.05.58.58,0,0,0-.17.14.82.82,0,0,0-.12.2.67.67,0,0,0,0,.24.64.64,0,0,0,.16.45A.46.46,0,0,0,12.56,166.78Zm2.9,3.7a1.3,1.3,0,0,1-.49-.09,1.28,1.28,0,0,1-.39-.24,1.1,1.1,0,0,1-.26-.35,1.06,1.06,0,0,1,0-.9,1.15,1.15,0,0,1,.65-.6,1.3,1.3,0,0,1,.49-.09,1.37,1.37,0,0,1,.49.09,1.15,1.15,0,0,1,.65.6,1.06,1.06,0,0,1,0,.9,1.1,1.1,0,0,1-.26.35,1.28,1.28,0,0,1-.39.24A1.37,1.37,0,0,1,15.46,170.48Zm0-.5a.46.46,0,0,0,.2,0,.58.58,0,0,0,.17-.14.67.67,0,0,0,.12-.2.61.61,0,0,0,0-.24,1,1,0,0,0,0-.25.56.56,0,0,0-.12-.2.55.55,0,0,0-.17-.14.49.49,0,0,0-.2,0,.37.37,0,0,0-.21.06.7.7,0,0,0-.17.13.53.53,0,0,0-.11.21.64.64,0,0,0-.05.24.71.71,0,0,0,.16.45A.49.49,0,0,0,15.46,170Z"/><path class="cls-7" d="M3.53,279.38v.9h-3v-.9H1.54V277.1a.81.81,0,0,1-.21.19,2.4,2.4,0,0,1-.32.17,2.13,2.13,0,0,1-.35.14,1.56,1.56,0,0,1-.33,0v-.94a1,1,0,0,0,.33-.08,2.82,2.82,0,0,0,.38-.21,2.36,2.36,0,0,0,.33-.24.54.54,0,0,0,.17-.18h1v3.38Z"/><path class="cls-7" d="M9.07,278.09a2.67,2.67,0,0,1-.14.91,2.32,2.32,0,0,1-.41.72,1.76,1.76,0,0,1-.61.47,1.81,1.81,0,0,1-.77.17,1.77,1.77,0,0,1-.77-.17,1.76,1.76,0,0,1-.61-.47,2.32,2.32,0,0,1-.41-.72,2.67,2.67,0,0,1-.14-.91,2.73,2.73,0,0,1,.14-.92,2.32,2.32,0,0,1,.41-.72,1.76,1.76,0,0,1,.61-.47,1.64,1.64,0,0,1,.77-.17,1.67,1.67,0,0,1,.77.17,1.76,1.76,0,0,1,.61.47,2.32,2.32,0,0,1,.41.72A2.73,2.73,0,0,1,9.07,278.09Zm-1,0a2.47,2.47,0,0,0-.06-.56,1.42,1.42,0,0,0-.2-.43.82.82,0,0,0-.29-.27.66.66,0,0,0-.37-.1.7.7,0,0,0-.38.1.82.82,0,0,0-.29.27,1.4,1.4,0,0,0-.19.43,2,2,0,0,0-.07.56,1.81,1.81,0,0,0,.07.54,1.3,1.3,0,0,0,.19.43,1,1,0,0,0,.29.28.8.8,0,0,0,.38.1.76.76,0,0,0,.37-.1,1,1,0,0,0,.29-.28,1.32,1.32,0,0,0,.2-.43A2.23,2.23,0,0,0,8.06,278.09Z"/><path class="cls-7" d="M11.93,277.16a1.28,1.28,0,0,1-.48-.09,1.36,1.36,0,0,1-.4-.25,1.38,1.38,0,0,1-.26-.36,1.08,1.08,0,0,1-.09-.44,1.13,1.13,0,0,1,.09-.45,1.38,1.38,0,0,1,.26-.36,1.33,1.33,0,0,1,.4-.24,1.28,1.28,0,0,1,.48-.09,1.37,1.37,0,0,1,.49.09,1.28,1.28,0,0,1,.39.24,1,1,0,0,1,.26.36,1,1,0,0,1,.1.45,1,1,0,0,1-.1.44,1,1,0,0,1-.26.36,1.3,1.3,0,0,1-.39.25A1.37,1.37,0,0,1,11.93,277.16Zm-.81,2.77,2.11-2.47,1.95-2.56.46.4-2.05,2.43-2,2.61Zm.81-3.28a.36.36,0,0,0,.21,0,.55.55,0,0,0,.17-.14.49.49,0,0,0,.11-.2.67.67,0,0,0,0-.24.68.68,0,0,0-.15-.45.49.49,0,0,0-.38-.18.35.35,0,0,0-.2.05.46.46,0,0,0-.17.14.56.56,0,0,0-.12.2.61.61,0,0,0,0,.24.67.67,0,0,0,.16.45A.47.47,0,0,0,11.93,276.65Zm2.9,3.71a1.3,1.3,0,0,1-.49-.09A1.28,1.28,0,0,1,14,280a1,1,0,0,1-.26-.36,1,1,0,0,1-.1-.44,1,1,0,0,1,.1-.45,1,1,0,0,1,.26-.36,1.28,1.28,0,0,1,.39-.24,1.3,1.3,0,0,1,.49-.09,1.24,1.24,0,0,1,.48.09,1.33,1.33,0,0,1,.4.24,1,1,0,0,1,.26.36,1.13,1.13,0,0,1,.09.45,1.08,1.08,0,0,1-.09.44,1,1,0,0,1-.26.36,1.33,1.33,0,0,1-.4.24A1.24,1.24,0,0,1,14.83,280.36Zm0-.5a.36.36,0,0,0,.2-.06.46.46,0,0,0,.17-.14.62.62,0,0,0,.12-.19.67.67,0,0,0,0-.24.58.58,0,0,0,0-.26.56.56,0,0,0-.11-.2.43.43,0,0,0-.17-.13.37.37,0,0,0-.2-.05.46.46,0,0,0-.21.05.75.75,0,0,0-.17.14.49.49,0,0,0-.11.2.7.7,0,0,0-.05.25.68.68,0,0,0,.16.44A.5.5,0,0,0,14.83,279.86Z"/><path class="cls-8" d="M79.19,67.91H76.77V67h4l-2.65,5.32H77Z"/><path class="cls-8" d="M86.18,69.59a1.8,1.8,0,0,1-.15.73,2,2,0,0,1-.41.59,1.72,1.72,0,0,1-.62.39,2,2,0,0,1-.77.15,1.92,1.92,0,0,1-.81-.17,1.7,1.7,0,0,1-.62-.48,2.23,2.23,0,0,1-.39-.77,3.63,3.63,0,0,1-.13-1,5.1,5.1,0,0,1,.14-1.29,2.65,2.65,0,0,1,.41-.93,1.79,1.79,0,0,1,.65-.58,1.87,1.87,0,0,1,.86-.19,1.92,1.92,0,0,1,.92.22,1.87,1.87,0,0,1,.72.62l-.58.63a1.26,1.26,0,0,0-1.08-.6,1,1,0,0,0-.8.4,1.82,1.82,0,0,0-.31,1.12,1.14,1.14,0,0,1,.44-.43,1.44,1.44,0,0,1,.67-.15,1.93,1.93,0,0,1,.73.13,1.86,1.86,0,0,1,.6.38,1.71,1.71,0,0,1,.39.56A1.82,1.82,0,0,1,86.18,69.59Zm-1.94,1a1,1,0,0,0,.38-.08,1,1,0,0,0,.31-.22,1,1,0,0,0,.21-.32.85.85,0,0,0,.08-.39.84.84,0,0,0-.08-.38,1.06,1.06,0,0,0-.21-.31.93.93,0,0,0-.69-.28,1,1,0,0,0-.7.28,1.06,1.06,0,0,0-.21.31,1,1,0,0,0-.07.38.85.85,0,0,0,.08.39,1,1,0,0,0,.21.32,1,1,0,0,0,.31.21A.85.85,0,0,0,84.24,70.6Z"/><path class="cls-8" d="M88.19,71.37V70.29H89v1.08Z"/><path class="cls-8" d="M91.16,71.37a3.76,3.76,0,0,1,0-.61,1.84,1.84,0,0,1,.19-.51,1.79,1.79,0,0,1,.36-.43,3.08,3.08,0,0,1,.58-.4l.54-.29a4.34,4.34,0,0,0,.4-.23,1.29,1.29,0,0,0,.24-.21.44.44,0,0,0,.08-.25.51.51,0,0,0-.18-.39.74.74,0,0,0-.52-.16,1.14,1.14,0,0,0-.33,0,1.43,1.43,0,0,0-.28.13,1.5,1.5,0,0,0-.24.18,2.09,2.09,0,0,0-.2.22l-.64-.74a1.68,1.68,0,0,1,.27-.23,3.46,3.46,0,0,1,.43-.24,3.42,3.42,0,0,1,.54-.18,3.2,3.2,0,0,1,.63-.07,2.13,2.13,0,0,1,.69.1,1.58,1.58,0,0,1,.5.26,1.23,1.23,0,0,1,.32.4,1.27,1.27,0,0,1,.11.52,1.11,1.11,0,0,1-.1.46,1.36,1.36,0,0,1-.25.36,1.75,1.75,0,0,1-.33.28l-.34.2-.3.17L93,70l-.31.24a1.2,1.2,0,0,0-.22.24h2.28v.91Z"/><path class="cls-8" d="M97.7,68.24a1.37,1.37,0,0,1-.49-.09,1.28,1.28,0,0,1-.39-.24,1.19,1.19,0,0,1-.26-.36,1,1,0,0,1,0-.89,1.19,1.19,0,0,1,.26-.36,1.28,1.28,0,0,1,.39-.24,1.38,1.38,0,0,1,1,0,1.28,1.28,0,0,1,.39.24,1,1,0,0,1,.26.36,1,1,0,0,1,.1.44,1,1,0,0,1-.1.45,1,1,0,0,1-.26.36,1.28,1.28,0,0,1-.39.24A1.37,1.37,0,0,1,97.7,68.24ZM96.88,71,99,68.55,101,66l.46.4-2,2.42-2,2.61Zm.82-3.28a.46.46,0,0,0,.21,0,.75.75,0,0,0,.17-.14.56.56,0,0,0,.11-.2.69.69,0,0,0,0-.25.67.67,0,0,0-.15-.44.47.47,0,0,0-.38-.19.36.36,0,0,0-.2.06.55.55,0,0,0-.17.13.82.82,0,0,0-.12.2.67.67,0,0,0,0,.24.64.64,0,0,0,.16.45A.46.46,0,0,0,97.7,67.74Zm2.9,3.71a1.3,1.3,0,0,1-.49-.09,1.84,1.84,0,0,1-.39-.24,1,1,0,0,1-.26-.36,1,1,0,0,1-.1-.45.92.92,0,0,1,.1-.44,1,1,0,0,1,.26-.36,1.14,1.14,0,0,1,.39-.25,1.3,1.3,0,0,1,.49-.09,1.28,1.28,0,0,1,.48.09,1.18,1.18,0,0,1,.4.25,1.06,1.06,0,0,1,.35.8,1.13,1.13,0,0,1-.09.45,1,1,0,0,1-.26.36,1.93,1.93,0,0,1-.4.24A1.28,1.28,0,0,1,100.6,71.45Zm0-.51a.48.48,0,0,0,.37-.19.67.67,0,0,0,.12-.2.61.61,0,0,0,0-.24.53.53,0,0,0,0-.25.64.64,0,0,0-.11-.2.58.58,0,0,0-.17-.14.49.49,0,0,0-.2,0,.37.37,0,0,0-.21.06.55.55,0,0,0-.17.14.43.43,0,0,0-.11.2.67.67,0,0,0,.11.69A.49.49,0,0,0,100.6,70.94Z"/><rect class="cls-1" x="74.46" y="54.29" width="29.75" height="24.75"/><path class="cls-8" d="M145.36,85.92a1.8,1.8,0,0,1-.15.73,1.84,1.84,0,0,1-.41.59,1.87,1.87,0,0,1-.62.39,2.16,2.16,0,0,1-1.58,0,1.7,1.7,0,0,1-.62-.48,2.23,2.23,0,0,1-.39-.77,3.63,3.63,0,0,1-.13-1A5,5,0,0,1,141.6,84a2.79,2.79,0,0,1,.41-.94,1.85,1.85,0,0,1,.65-.57,1.87,1.87,0,0,1,.86-.19,2.11,2.11,0,0,1,.93.21,2,2,0,0,1,.71.63l-.58.63a1.21,1.21,0,0,0-1.08-.6,1,1,0,0,0-.8.39,1.92,1.92,0,0,0-.31,1.13,1.14,1.14,0,0,1,.44-.43,1.47,1.47,0,0,1,.67-.16,2,2,0,0,1,.74.14,1.9,1.9,0,0,1,.59.37,1.61,1.61,0,0,1,.39.57A1.65,1.65,0,0,1,145.36,85.92Zm-1.94,1a1,1,0,0,0,.38-.08,1.16,1.16,0,0,0,.31-.22,1.21,1.21,0,0,0,.22-.32,1,1,0,0,0,.07-.39,1,1,0,0,0-.07-.38,1.16,1.16,0,0,0-.22-.31.93.93,0,0,0-.69-.28,1,1,0,0,0-.7.28,1,1,0,0,0-.21.31,1,1,0,0,0-.07.38.88.88,0,0,0,.08.39,1,1,0,0,0,.21.32,1.06,1.06,0,0,0,.31.21A.85.85,0,0,0,143.42,86.93Z"/><path class="cls-8" d="M150.4,86.79v.91h-3.05v-.91h1.07V84.52a.85.85,0,0,1-.22.18l-.32.18a2.09,2.09,0,0,1-.35.13,1.05,1.05,0,0,1-.33.06v-.94a.82.82,0,0,0,.33-.09,2.75,2.75,0,0,0,.38-.2,2.36,2.36,0,0,0,.33-.24,1.46,1.46,0,0,0,.18-.18h1v3.37Z"/><path class="cls-8" d="M153.16,84.57a1.3,1.3,0,0,1-.49-.09,1.15,1.15,0,0,1-.65-.6,1,1,0,0,1-.1-.45A1,1,0,0,1,152,83a1,1,0,0,1,.26-.36,1.28,1.28,0,0,1,.39-.24,1.3,1.3,0,0,1,.49-.09,1.3,1.3,0,0,1,.87.33,1.22,1.22,0,0,1,.27.36,1.12,1.12,0,0,1,.09.44,1.13,1.13,0,0,1-.09.45,1.54,1.54,0,0,1-.27.36,1.3,1.3,0,0,1-.87.33Zm-.82,2.78,2.11-2.47,2-2.57.46.41-2.05,2.42-2,2.61Zm.82-3.28a.46.46,0,0,0,.2,0,.79.79,0,0,0,.17-.14.72.72,0,0,0,.12-.21.61.61,0,0,0,0-.24.67.67,0,0,0-.16-.45.47.47,0,0,0-.37-.18.46.46,0,0,0-.21,0,.75.75,0,0,0-.17.14.56.56,0,0,0-.11.2.67.67,0,0,0,.11.69A.47.47,0,0,0,153.16,84.07Zm2.89,3.7a1.33,1.33,0,0,1-.49-.09,1.18,1.18,0,0,1-.65-.59,1.06,1.06,0,0,1,0-.9,1.5,1.5,0,0,1,.26-.36,1.28,1.28,0,0,1,.39-.24,1.33,1.33,0,0,1,.49-.09,1.3,1.3,0,0,1,.49.09,1.28,1.28,0,0,1,.39.24,1.54,1.54,0,0,1,.27.36,1.17,1.17,0,0,1,0,.9,1.31,1.31,0,0,1-.27.35,1.28,1.28,0,0,1-.39.24A1.3,1.3,0,0,1,156.05,87.77Zm0-.5a.46.46,0,0,0,.21,0,.75.75,0,0,0,.17-.14.49.49,0,0,0,.11-.2.61.61,0,0,0,0-.24.69.69,0,0,0,0-.25.56.56,0,0,0-.12-.2.39.39,0,0,0-.17-.14.46.46,0,0,0-.2,0,.36.36,0,0,0-.2.06.55.55,0,0,0-.17.13.72.72,0,0,0-.12.21.64.64,0,0,0,0,.24.65.65,0,0,0,.16.45A.47.47,0,0,0,156.05,87.27Z"/><rect class="cls-1" x="134.46" y="70.62" width="29.75" height="24.75"/><path class="cls-8" d="M203.08,124.1a1.82,1.82,0,0,1,.7.13,1.48,1.48,0,0,1,.56.35,1.7,1.7,0,0,1,.36.54,1.73,1.73,0,0,1,.13.69,1.78,1.78,0,0,1-.15.74,1.51,1.51,0,0,1-.4.56,2,2,0,0,1-.63.37,2.39,2.39,0,0,1-1.82-.11,1.7,1.7,0,0,1-.7-.68l.57-.6a1.46,1.46,0,0,0,.53.46,1.3,1.3,0,0,0,.65.18.89.89,0,0,0,.66-.25.81.81,0,0,0,.26-.65.84.84,0,0,0-.24-.62.81.81,0,0,0-.62-.25.93.93,0,0,0-.46.12.83.83,0,0,0-.34.3h-.88a1.54,1.54,0,0,1,0-.16l.08-.38c0-.15.06-.32.09-.51l.12-.57.3-1.55h2.62v.92h-1.9l-.22,1.19a.65.65,0,0,1,.27-.16A1.35,1.35,0,0,1,203.08,124.1Z"/><path class="cls-8" d="M210.49,124.3a2.94,2.94,0,0,1-.14.91,2.3,2.3,0,0,1-.41.72,1.79,1.79,0,0,1-1.38.64,1.77,1.77,0,0,1-.77-.17,1.89,1.89,0,0,1-.62-.47,2.28,2.28,0,0,1-.4-.72,2.67,2.67,0,0,1-.15-.91,2.63,2.63,0,0,1,.15-.91,2.28,2.28,0,0,1,.4-.72,1.92,1.92,0,0,1,.62-.48,1.77,1.77,0,0,1,.77-.17,1.84,1.84,0,0,1,.77.17,1.88,1.88,0,0,1,.61.48,2.3,2.3,0,0,1,.41.72A2.9,2.9,0,0,1,210.49,124.3Zm-1,0a1.88,1.88,0,0,0-.07-.55,1.3,1.3,0,0,0-.19-.43.86.86,0,0,0-.29-.28.69.69,0,0,0-.37-.1.7.7,0,0,0-.38.1.86.86,0,0,0-.29.28,1.13,1.13,0,0,0-.19.43,1.88,1.88,0,0,0-.07.55,1.81,1.81,0,0,0,.07.54,1.13,1.13,0,0,0,.19.43.86.86,0,0,0,.29.28.7.7,0,0,0,.38.1.69.69,0,0,0,.37-.1.86.86,0,0,0,.29-.28,1.3,1.3,0,0,0,.19-.43A1.81,1.81,0,0,0,209.48,124.3Z"/><path class="cls-8" d="M213.35,123.37a1.3,1.3,0,0,1-.49-.09,1.14,1.14,0,0,1-.39-.25,1.19,1.19,0,0,1-.26-.36,1,1,0,0,1,0-.88,1.37,1.37,0,0,1,.26-.37,1.49,1.49,0,0,1,.39-.23,1.13,1.13,0,0,1,.49-.1,1.12,1.12,0,0,1,.48.1,1.4,1.4,0,0,1,.4.23,1.18,1.18,0,0,1,.26.37,1,1,0,0,1,0,.88,1,1,0,0,1-.26.36,1.09,1.09,0,0,1-.4.25A1.28,1.28,0,0,1,213.35,123.37Zm-.82,2.77,2.12-2.47,1.95-2.56.45.4-2,2.43-2,2.61Zm.82-3.27a.39.39,0,0,0,.21-.06.43.43,0,0,0,.16-.14.45.45,0,0,0,.12-.2.67.67,0,0,0,0-.24.64.64,0,0,0-.16-.45.46.46,0,0,0-.37-.18.54.54,0,0,0-.21.05,1,1,0,0,0-.17.14,1,1,0,0,0-.11.2.61.61,0,0,0,0,.24.72.72,0,0,0,.15.45A.52.52,0,0,0,213.35,122.87Zm2.9,3.7a1.3,1.3,0,0,1-.49-.09,1.28,1.28,0,0,1-.39-.24,1,1,0,0,1-.26-.36.92.92,0,0,1-.1-.44,1,1,0,0,1,.1-.45,1,1,0,0,1,.26-.36,1.28,1.28,0,0,1,.39-.24,1.3,1.3,0,0,1,.49-.09,1.28,1.28,0,0,1,.48.09,1.47,1.47,0,0,1,.4.24,1,1,0,0,1,.26.36,1.13,1.13,0,0,1,.09.45,1.06,1.06,0,0,1-.35.8,1.47,1.47,0,0,1-.4.24A1.28,1.28,0,0,1,216.25,126.57Zm0-.5a.36.36,0,0,0,.2-.06.7.7,0,0,0,.17-.13.82.82,0,0,0,.12-.2,1,1,0,0,0,0-.24.66.66,0,0,0-.05-.25,1,1,0,0,0-.11-.21.7.7,0,0,0-.17-.13.53.53,0,0,0-.2,0,.46.46,0,0,0-.21,0,.75.75,0,0,0-.17.14.82.82,0,0,0-.12.2,1,1,0,0,0,0,.25.68.68,0,0,0,.16.44A.46.46,0,0,0,216.25,126.07Z"/><rect class="cls-1" x="194.46" y="109.42" width="29.75" height="24.75"/><rect class="cls-3" x="254.46" y="45.29" width="29.75" height="24.75"/><path class="cls-8" d="M259.42,58.9H257V58h4l-2.64,5.32h-1.14Z"/><path class="cls-8" d="M265,58.9h-2.42V58h4L264,63.31h-1.14Z"/><path class="cls-8" d="M267.77,62.36V61.28h.83v1.08Z"/><path class="cls-8" d="M274.52,60.79a1.47,1.47,0,0,1-.15.67A1.61,1.61,0,0,1,274,62a2.16,2.16,0,0,1-.62.33,2.36,2.36,0,0,1-.75.12,2,2,0,0,1-.75-.13,1.86,1.86,0,0,1-.62-.34,1.68,1.68,0,0,1-.41-.54,1.5,1.5,0,0,1-.15-.67,1.16,1.16,0,0,1,.08-.42,1.48,1.48,0,0,1,.19-.35,1.72,1.72,0,0,1,.27-.27,1.26,1.26,0,0,1,.29-.2,1.28,1.28,0,0,1-.47-.4,1,1,0,0,1-.19-.6,1.18,1.18,0,0,1,.16-.63,1.54,1.54,0,0,1,.42-.46,1.92,1.92,0,0,1,.57-.29,2.21,2.21,0,0,1,.62-.09,2.32,2.32,0,0,1,.62.09,1.89,1.89,0,0,1,.57.28,1.67,1.67,0,0,1,.42.46,1.21,1.21,0,0,1,.16.63.89.89,0,0,1-.05.32,1,1,0,0,1-.14.28,1.31,1.31,0,0,1-.23.24,1,1,0,0,1-.27.17,1.6,1.6,0,0,1,.32.21,1.44,1.44,0,0,1,.27.28,1.55,1.55,0,0,1,.19.36A1.18,1.18,0,0,1,274.52,60.79Zm-1-.06a.63.63,0,0,0-.08-.34.64.64,0,0,0-.21-.25.9.9,0,0,0-.29-.16,1.33,1.33,0,0,0-.34,0,1,1,0,0,0-.35.06.71.71,0,0,0-.28.16.69.69,0,0,0-.2.25.73.73,0,0,0-.08.33.69.69,0,0,0,.08.32.72.72,0,0,0,.21.25.75.75,0,0,0,.29.16,1,1,0,0,0,.68,0,.77.77,0,0,0,.29-.17.68.68,0,0,0,.28-.56Zm-1.66-2.19a.61.61,0,0,0,.06.28.81.81,0,0,0,.18.19.9.9,0,0,0,.24.12.84.84,0,0,0,.27,0,.82.82,0,0,0,.26,0,.9.9,0,0,0,.24-.12.68.68,0,0,0,.18-.2.6.6,0,0,0,.07-.27.55.55,0,0,0-.22-.45.89.89,0,0,0-.54-.16.8.8,0,0,0-.53.17A.54.54,0,0,0,271.84,58.54Z"/><path class="cls-8" d="M277.48,59.23a1.3,1.3,0,0,1-.49-.09,1.28,1.28,0,0,1-.39-.24,1,1,0,0,1-.26-.36,1,1,0,0,1-.1-.45,1,1,0,0,1,.1-.44,1,1,0,0,1,.26-.36,1.28,1.28,0,0,1,.39-.24,1.3,1.3,0,0,1,.49-.09,1.3,1.3,0,0,1,.87.33,1.22,1.22,0,0,1,.27.36,1.12,1.12,0,0,1,.09.44,1.13,1.13,0,0,1-.09.45,1.22,1.22,0,0,1-.27.36,1.3,1.3,0,0,1-.87.33ZM276.66,62l2.11-2.47,2-2.56.46.4-2.05,2.42-2,2.61Zm.82-3.28a.46.46,0,0,0,.2,0,.58.58,0,0,0,.17-.14.82.82,0,0,0,.12-.2.69.69,0,0,0,0-.25.63.63,0,0,0-.16-.44.46.46,0,0,0-.37-.19.37.37,0,0,0-.21.06.7.7,0,0,0-.17.13.56.56,0,0,0-.11.2.67.67,0,0,0,.11.69A.47.47,0,0,0,277.48,58.73Zm2.89,3.71a1.37,1.37,0,0,1-.49-.09,1.28,1.28,0,0,1-.39-.24,1.19,1.19,0,0,1-.26-.36,1.14,1.14,0,0,1-.1-.45,1.05,1.05,0,0,1,.1-.44,1.19,1.19,0,0,1,.26-.36,1.14,1.14,0,0,1,.39-.25,1.37,1.37,0,0,1,.49-.09,1.3,1.3,0,0,1,.49.09,1.14,1.14,0,0,1,.39.25,1.07,1.07,0,0,1,.27.36,1,1,0,0,1,.09.44,1.13,1.13,0,0,1-.09.45,1.07,1.07,0,0,1-.27.36,1.28,1.28,0,0,1-.39.24A1.3,1.3,0,0,1,280.37,62.44Zm0-.51a.36.36,0,0,0,.21,0,.55.55,0,0,0,.17-.14.49.49,0,0,0,.11-.2.61.61,0,0,0,0-.24.69.69,0,0,0,0-.25.67.67,0,0,0-.12-.2.47.47,0,0,0-.17-.14.45.45,0,0,0-.2,0,.35.35,0,0,0-.2,0,.46.46,0,0,0-.17.14.56.56,0,0,0-.12.2.67.67,0,0,0,0,.24.64.64,0,0,0,.16.45A.47.47,0,0,0,280.37,61.93Z"/><rect class="cls-1" x="254.46" y="45.29" width="29.75" height="24.75"/><rect class="cls-3" x="314.46" y="45.29" width="29.75" height="24.75"/><path class="cls-8" d="M319.42,58.9H317V58h4l-2.64,5.32h-1.14Z"/><path class="cls-8" d="M325,58.9h-2.42V58h4L324,63.31h-1.14Z"/><path class="cls-8" d="M327.77,62.36V61.28h.83v1.08Z"/><path class="cls-8" d="M334.52,60.79a1.47,1.47,0,0,1-.15.67A1.61,1.61,0,0,1,334,62a2.16,2.16,0,0,1-.62.33,2.36,2.36,0,0,1-.75.12,2,2,0,0,1-.75-.13,1.86,1.86,0,0,1-.62-.34,1.68,1.68,0,0,1-.41-.54,1.5,1.5,0,0,1-.15-.67,1.16,1.16,0,0,1,.08-.42,1.48,1.48,0,0,1,.19-.35,1.72,1.72,0,0,1,.27-.27,1.26,1.26,0,0,1,.29-.2,1.28,1.28,0,0,1-.47-.4,1,1,0,0,1-.19-.6,1.18,1.18,0,0,1,.16-.63,1.54,1.54,0,0,1,.42-.46,1.92,1.92,0,0,1,.57-.29,2.21,2.21,0,0,1,.62-.09,2.32,2.32,0,0,1,.62.09,1.89,1.89,0,0,1,.57.28,1.67,1.67,0,0,1,.42.46,1.21,1.21,0,0,1,.16.63.89.89,0,0,1-.05.32,1,1,0,0,1-.14.28,1.31,1.31,0,0,1-.23.24,1,1,0,0,1-.27.17,1.6,1.6,0,0,1,.32.21,1.44,1.44,0,0,1,.27.28,1.55,1.55,0,0,1,.19.36A1.18,1.18,0,0,1,334.52,60.79Zm-1-.06a.63.63,0,0,0-.08-.34.64.64,0,0,0-.21-.25.9.9,0,0,0-.29-.16,1.33,1.33,0,0,0-.34,0,1,1,0,0,0-.35.06.71.71,0,0,0-.28.16.69.69,0,0,0-.2.25.73.73,0,0,0-.08.33.69.69,0,0,0,.08.32.72.72,0,0,0,.21.25.75.75,0,0,0,.29.16,1,1,0,0,0,.68,0,.77.77,0,0,0,.29-.17.68.68,0,0,0,.28-.56Zm-1.66-2.19a.61.61,0,0,0,.06.28.81.81,0,0,0,.18.19.9.9,0,0,0,.24.12.84.84,0,0,0,.27,0,.82.82,0,0,0,.26,0,.9.9,0,0,0,.24-.12.68.68,0,0,0,.18-.2.6.6,0,0,0,.07-.27.55.55,0,0,0-.22-.45.89.89,0,0,0-.54-.16.8.8,0,0,0-.53.17A.54.54,0,0,0,331.84,58.54Z"/><path class="cls-8" d="M337.48,59.23a1.3,1.3,0,0,1-.49-.09,1.28,1.28,0,0,1-.39-.24,1,1,0,0,1-.26-.36,1,1,0,0,1-.1-.45,1,1,0,0,1,.1-.44,1,1,0,0,1,.26-.36,1.28,1.28,0,0,1,.39-.24,1.3,1.3,0,0,1,.49-.09,1.3,1.3,0,0,1,.87.33,1.22,1.22,0,0,1,.27.36,1.12,1.12,0,0,1,.09.44,1.13,1.13,0,0,1-.09.45,1.22,1.22,0,0,1-.27.36,1.3,1.3,0,0,1-.87.33ZM336.66,62l2.11-2.47,2-2.56.46.4-2.05,2.42-2,2.61Zm.82-3.28a.46.46,0,0,0,.2,0,.58.58,0,0,0,.17-.14.82.82,0,0,0,.12-.2.69.69,0,0,0,0-.25.63.63,0,0,0-.16-.44.46.46,0,0,0-.37-.19.37.37,0,0,0-.21.06.7.7,0,0,0-.17.13.56.56,0,0,0-.11.2.67.67,0,0,0,.11.69A.47.47,0,0,0,337.48,58.73Zm2.89,3.71a1.37,1.37,0,0,1-.49-.09,1.28,1.28,0,0,1-.39-.24,1.19,1.19,0,0,1-.26-.36,1.14,1.14,0,0,1-.1-.45,1.05,1.05,0,0,1,.1-.44,1.19,1.19,0,0,1,.26-.36,1.14,1.14,0,0,1,.39-.25,1.37,1.37,0,0,1,.49-.09,1.3,1.3,0,0,1,.49.09,1.14,1.14,0,0,1,.39.25,1.07,1.07,0,0,1,.27.36,1,1,0,0,1,.09.44,1.13,1.13,0,0,1-.09.45,1.07,1.07,0,0,1-.27.36,1.28,1.28,0,0,1-.39.24A1.3,1.3,0,0,1,340.37,62.44Zm0-.51a.36.36,0,0,0,.21,0,.55.55,0,0,0,.17-.14.49.49,0,0,0,.11-.2.61.61,0,0,0,0-.24.69.69,0,0,0,0-.25.67.67,0,0,0-.12-.2.47.47,0,0,0-.17-.14.45.45,0,0,0-.2,0,.35.35,0,0,0-.2,0,.46.46,0,0,0-.17.14.56.56,0,0,0-.12.2.67.67,0,0,0,0,.24.64.64,0,0,0,.16.45A.47.47,0,0,0,340.37,61.93Z"/><rect class="cls-1" x="314.46" y="45.29" width="29.75" height="24.75"/><path class="cls-8" d="M379.46,77.4H377v-.91h4l-2.64,5.32h-1.14Z"/><path class="cls-8" d="M385.73,80v.91h-3.05V80h1.07V77.68a.85.85,0,0,1-.22.18,1.4,1.4,0,0,1-.32.18,2.13,2.13,0,0,1-.35.14,1.47,1.47,0,0,1-.33,0v-.94a.82.82,0,0,0,.33-.09,2,2,0,0,0,.38-.2,2.36,2.36,0,0,0,.33-.24,1.46,1.46,0,0,0,.18-.18h1V80Z"/><path class="cls-8" d="M387.84,80.86V79.78h.83v1.08Z"/><path class="cls-8" d="M393,81.81V80.7h-2.19v-.9l2.51-3.22H394v3.21h.66v.91H394v1.11Zm-1.19-2h1.3V78.1Z"/><path class="cls-8" d="M397.43,77.73a1.3,1.3,0,0,1-.49-.09,1.28,1.28,0,0,1-.39-.24,1,1,0,0,1-.26-.36,1,1,0,0,1-.1-.45,1,1,0,0,1,.1-.44,1,1,0,0,1,.26-.36,1.28,1.28,0,0,1,.39-.24,1.3,1.3,0,0,1,.49-.09,1.3,1.3,0,0,1,.87.33,1.22,1.22,0,0,1,.27.36,1.12,1.12,0,0,1,.09.44,1.13,1.13,0,0,1-.09.45,1.22,1.22,0,0,1-.27.36,1.3,1.3,0,0,1-.87.33Zm-.82,2.78L398.72,78l1.95-2.56.46.4-2.05,2.42-2,2.61Zm.82-3.28a.46.46,0,0,0,.2,0,.75.75,0,0,0,.17-.14.82.82,0,0,0,.12-.2,1,1,0,0,0,0-.25.63.63,0,0,0-.16-.44.46.46,0,0,0-.37-.19.37.37,0,0,0-.21.06.7.7,0,0,0-.17.13.82.82,0,0,0-.12.2,1,1,0,0,0,0,.24.69.69,0,0,0,.16.45A.47.47,0,0,0,397.43,77.23Zm2.89,3.71a1.33,1.33,0,0,1-.49-.09,1.28,1.28,0,0,1-.39-.24,1.19,1.19,0,0,1-.26-.36,1.14,1.14,0,0,1-.1-.45,1.05,1.05,0,0,1,.1-.44,1.19,1.19,0,0,1,.26-.36,1.14,1.14,0,0,1,.39-.25,1.33,1.33,0,0,1,.49-.09,1.3,1.3,0,0,1,.49.09,1.14,1.14,0,0,1,.39.25,1,1,0,0,1,.26.36.92.92,0,0,1,.1.44,1,1,0,0,1-.1.45,1,1,0,0,1-.26.36,1.28,1.28,0,0,1-.39.24A1.3,1.3,0,0,1,400.32,80.94Zm0-.51a.38.38,0,0,0,.21-.05.55.55,0,0,0,.17-.14.49.49,0,0,0,.11-.2.61.61,0,0,0,0-.24.69.69,0,0,0,0-.25.67.67,0,0,0-.12-.2.58.58,0,0,0-.17-.14.45.45,0,0,0-.2,0,.35.35,0,0,0-.2,0,.46.46,0,0,0-.17.14.56.56,0,0,0-.12.2.67.67,0,0,0,0,.24.64.64,0,0,0,.16.45A.47.47,0,0,0,400.32,80.43Z"/><rect class="cls-1" x="374.46" y="63.79" width="29.75" height="24.75"/></g></g></svg>