<svg xmlns="http://www.w3.org/2000/svg" viewBox="0 0 585.64 207.99"><defs><style>.cls-1{fill:#ff2031;}.cls-2{fill:#ff4344;opacity:0.4;}.cls-3{fill:#ff3756;}</style></defs><title>Asset 193</title><g id="Layer_2" data-name="Layer 2"><g id="Layer_1-2" data-name="Layer 1"><path class="cls-1" d="M22,69.57C6.43,92.86-3.34,121.29,1.06,149s25.35,53.57,53,58.22c21,3.53,42.32-5.13,59.94-17.1,25.2-17.12,45.81-42.07,54-71.42s2.73-63-17.33-86C135.11,14.92,102.23-1,78.72,9.66,57.12,19.46,34.73,50.6,22,69.57Z"/><path class="cls-2" d="M291.25,13.83C282.85,7,273.44-.25,262.6,0c-14.07.32-24.49,12.93-31.65,25C214,53.69,203.62,87.12,207.12,120.19s22.45,65.38,52.35,80c36.07,17.59,84,4.51,106.72-28.58,18.24-26.59,20.46-69.49,1.14-96.43-6.54-9.12-16.58-14.31-25.53-20.7C324.26,41.9,308,27.45,291.25,13.83Z"/><path class="cls-3" d="M428.54,70.91c-13.38,29.15-15.82,64.34-1.49,93s47.15,48.61,78.76,43.14a81.28,81.28,0,0,0,26.79-10.17c36.85-21.41,58.39-66.48,51.89-108.6C578.83,51.64,549.32,13,512.42,2.94,475.24-7.18,441.66,42.31,428.54,70.91Z"/></g></g></svg>