<svg xmlns="http://www.w3.org/2000/svg" viewBox="0 0 278.04 211.56"><defs><style>.cls-1{fill:#ff2031;}.cls-2{fill:#fff;opacity:0.7;}.cls-3{fill:#ff4344;opacity:0.4;}</style></defs><title>Asset 198</title><g id="Layer_2" data-name="Layer 2"><g id="Layer_1-2" data-name="Layer 1"><path class="cls-1" d="M113.77,57.07c-27.65-4.53-57.58-1.62-80.93,13.86s-38.24,45.29-31,72.37c5.5,20.57,22.23,36.37,40.42,47.44,26,15.83,57.29,24.23,87.39,19.5s58.51-23.66,71-51.43c9.72-21.51,10.57-58-8.89-75C173.94,68.22,136.31,60.76,113.77,57.07Z"/><path class="cls-2" d="M143.92,183.05c-10.47,2.81-22,5.55-31.8.88-12.7-6.06-17.05-21.82-18.62-35.81-3.73-33.05.46-67.81,17.19-96.56S157.94,1.1,191.18,0c40.11-1.29,78.5,30.27,85.67,69.76,5.77,31.72-9.77,71.77-38.42,88.45-9.7,5.64-21,6.26-31.77,8.44C185.53,170.94,164.74,177.46,143.92,183.05Z"/><path class="cls-3" d="M143.92,183.05c-10.47,2.81-22,5.55-31.8.88-12.7-6.06-17.05-21.82-18.62-35.81-3.73-33.05.46-67.81,17.19-96.56S157.94,1.1,191.18,0c40.11-1.29,78.5,30.27,85.67,69.76,5.77,31.72-9.77,71.77-38.42,88.45-9.7,5.64-21,6.26-31.77,8.44C185.53,170.94,164.74,177.46,143.92,183.05Z"/></g></g></svg>