<svg xmlns="http://www.w3.org/2000/svg" viewBox="0 0 792.26 44.87"><defs><style>.cls-1,.cls-3{fill:#fff;}.cls-1,.cls-3,.cls-4{stroke:#231f20;stroke-miterlimit:10;}.cls-1,.cls-4{stroke-width:0.75px;}.cls-2{fill:#231f20;}.cls-4{fill:none;}</style></defs><title>flow chart1</title><g id="Layer_2" data-name="Layer 2"><g id="Layer_1-2" data-name="Layer 1"><ellipse class="cls-1" cx="50.85" cy="22.55" rx="50.48" ry="21.95"/><ellipse class="cls-1" cx="741.41" cy="22.32" rx="50.48" ry="21.95"/><path class="cls-2" d="M732.07,23.5a1.12,1.12,0,0,0,1.23,1.2,1.2,1.2,0,0,0,1.33-1.17c0-.61-.31-.89-1.4-1.25a3.44,3.44,0,0,1-1.41-.7,1.73,1.73,0,0,1-.54-1.31,2.07,2.07,0,0,1,4.13,0h-.87a1.3,1.3,0,0,0-.17-.72,1.21,1.21,0,0,0-1-.49,1.11,1.11,0,0,0-1.17,1.14,1,1,0,0,0,.39.8,4,4,0,0,0,1.11.49,3.17,3.17,0,0,1,1.38.75,1.79,1.79,0,0,1,.47,1.23,2,2,0,0,1-2.19,2,2,2,0,0,1-1.85-.93,1.68,1.68,0,0,1-.24-.91V23.5Z"/><path class="cls-2" d="M740.41,20.56h.79v4.8h-.79v-.93a2,2,0,0,1-1.75,1A2.29,2.29,0,0,1,736.4,23a2.33,2.33,0,0,1,2.28-2.53,2,2,0,0,1,1.73.9Zm-2.78,1.17a2.18,2.18,0,0,0-.4,1.27,1.65,1.65,0,0,0,1.54,1.79,1.78,1.78,0,0,0,1.65-1.88,1.61,1.61,0,0,0-1.62-1.75A1.29,1.29,0,0,0,737.63,21.73Z"/><path class="cls-2" d="M746.43,20.56l-1.81,4.8h-.83L742,20.56h.83l1.36,3.66,1.39-3.66Z"/><path class="cls-2" d="M747.62,23.22a1.47,1.47,0,0,0,.31.87,1.54,1.54,0,0,0,1.29.65,1.65,1.65,0,0,0,1.44-.82l.7.26a2.43,2.43,0,0,1-4.58-1.2,2.43,2.43,0,1,1,4.85-.08c0,.07,0,.2,0,.32Zm3.16-.59a1.46,1.46,0,0,0-.27-.82,1.65,1.65,0,0,0-1.32-.65,1.55,1.55,0,0,0-1.29.66,2,2,0,0,0-.27.81Z"/><rect class="cls-3" x="275.09" y="9.25" width="100.65" height="26.6"/><path class="cls-2" d="M289.69,23.72a1.13,1.13,0,0,0,1.23,1.21,1.21,1.21,0,0,0,1.33-1.18c0-.6-.31-.88-1.41-1.24a3.46,3.46,0,0,1-1.4-.7,1.7,1.7,0,0,1-.54-1.31,2.07,2.07,0,0,1,4.13,0h-.87a1.46,1.46,0,0,0-.17-.72,1.21,1.21,0,0,0-1-.49,1.11,1.11,0,0,0-1.18,1.14,1,1,0,0,0,.4.8,4.22,4.22,0,0,0,1.11.49,3.13,3.13,0,0,1,1.38.75,1.78,1.78,0,0,1,.46,1.22,2,2,0,0,1-2.18,2,2,2,0,0,1-1.85-.93,1.72,1.72,0,0,1-.24-.91v-.15Z"/><path class="cls-2" d="M294.84,23.44a1.54,1.54,0,0,0,.31.88,1.57,1.57,0,0,0,1.29.65,1.65,1.65,0,0,0,1.44-.82l.7.26A2.43,2.43,0,0,1,294,23.2a2.43,2.43,0,1,1,4.85-.07c0,.06,0,.2,0,.31Zm3.16-.58a1.46,1.46,0,0,0-.27-.82,1.63,1.63,0,0,0-1.32-.66,1.53,1.53,0,0,0-1.29.67,2,2,0,0,0-.27.81Z"/><path class="cls-2" d="M299.93,25.59V18.65h.79v6.94Z"/><path class="cls-2" d="M302.77,23.44a1.48,1.48,0,0,0,.31.88,1.57,1.57,0,0,0,1.29.65,1.65,1.65,0,0,0,1.44-.82l.7.26a2.43,2.43,0,0,1-4.58-1.21,2.43,2.43,0,1,1,4.85-.07c0,.06,0,.2,0,.31Zm3.16-.58a1.46,1.46,0,0,0-.27-.82,1.63,1.63,0,0,0-1.32-.66,1.53,1.53,0,0,0-1.29.67,2,2,0,0,0-.27.81Z"/><path class="cls-2" d="M311.66,25a2.45,2.45,0,0,1-1.77.71,2.33,2.33,0,0,1-2.35-2.5,2.42,2.42,0,0,1,4.14-1.81l-.51.51a1.79,1.79,0,0,0-1.22-.5,1.61,1.61,0,0,0-1.6,1.77,1.63,1.63,0,0,0,1.59,1.8,1.67,1.67,0,0,0,1.23-.52Z"/><path class="cls-2" d="M313.7,24.61c0,.24.07.29.36.29h.37v.69h-.74c-.57,0-.78-.22-.78-.75V21.49h-.67v-.7h.67V19.28h.79v1.51h.73v.7h-.73Z"/><path class="cls-2" d="M320.63,25.59h-.88V19.4H318v-.75h4.4v.75h-1.76Z"/><path class="cls-2" d="M323.24,23.44a1.48,1.48,0,0,0,.31.88,1.57,1.57,0,0,0,1.29.65,1.65,1.65,0,0,0,1.44-.82l.7.26a2.43,2.43,0,0,1-4.58-1.21,2.43,2.43,0,1,1,4.85-.07c0,.06,0,.2,0,.31Zm3.16-.58a1.46,1.46,0,0,0-.27-.82,1.63,1.63,0,0,0-1.32-.66,1.53,1.53,0,0,0-1.29.67,2,2,0,0,0-.27.81Z"/><path class="cls-2" d="M329.18,20.79v.66a1.51,1.51,0,0,1,1.37-.78,1.25,1.25,0,0,1,1.29.88,1.58,1.58,0,0,1,1.52-.88,1.44,1.44,0,0,1,1.21.51,1.93,1.93,0,0,1,.29,1.34v3.07h-.79V22.7c0-.58,0-.71-.13-.91a.94.94,0,0,0-.83-.41c-.7,0-1.09.47-1.09,1.32v2.89h-.79V22.71a1.86,1.86,0,0,0-.15-.91.84.84,0,0,0-.78-.42c-.7,0-1.12.5-1.12,1.33v2.88h-.79v-4.8Z"/><path class="cls-2" d="M337.13,20.79v.87a1.88,1.88,0,0,1,1.75-1,2.28,2.28,0,0,1,2.26,2.48,2.31,2.31,0,0,1-2.26,2.55,2.26,2.26,0,0,1-1.05-.25,1.7,1.7,0,0,1-.7-.61v3h-.79v-7Zm0,2.48A1.57,1.57,0,0,0,338.71,25a1.63,1.63,0,0,0,1.59-1.83,1.86,1.86,0,0,0-.42-1.3,1.56,1.56,0,0,0-1.13-.5A1.68,1.68,0,0,0,337.13,23.27Z"/><path class="cls-2" d="M342.34,25.59V18.65h.79v6.94Z"/><path class="cls-2" d="M348.34,20.79h.79v4.8h-.79v-.93a2,2,0,0,1-1.75,1,2.3,2.3,0,0,1-2.26-2.5,2.34,2.34,0,0,1,2.28-2.53,2,2,0,0,1,1.73.91ZM345.56,22a2.22,2.22,0,0,0-.39,1.27A1.64,1.64,0,0,0,346.71,25a1.77,1.77,0,0,0,1.64-1.87,1.62,1.62,0,0,0-1.62-1.76A1.32,1.32,0,0,0,345.56,22Z"/><path class="cls-2" d="M351.54,24.61c0,.24.07.29.36.29h.36v.69h-.73c-.57,0-.78-.22-.78-.75V21.49h-.67v-.7h.67V19.28h.79v1.51h.72v.7h-.72Z"/><path class="cls-2" d="M353.75,23.44a1.48,1.48,0,0,0,.32.88,1.57,1.57,0,0,0,1.29.65,1.65,1.65,0,0,0,1.43-.82l.7.26a2.36,2.36,0,0,1-2.13,1.29,2.38,2.38,0,0,1-2.45-2.5,2.43,2.43,0,1,1,4.85-.07c0,.06,0,.2,0,.31Zm3.17-.58a1.54,1.54,0,0,0-.27-.82,1.65,1.65,0,0,0-1.32-.66,1.55,1.55,0,0,0-1.3.67,2.13,2.13,0,0,0-.27.81Z"/><path class="cls-2" d="M361.1,22.1v-.05c0-.45-.36-.73-.92-.73s-.86.27-.86.69.21.57,1.07.81a2.48,2.48,0,0,1,1.17.55,1.33,1.33,0,0,1,.38.94c0,.83-.68,1.39-1.7,1.39s-1.71-.51-1.79-1.48h.78a.89.89,0,0,0,1,.84c.54,0,.89-.28.89-.71s-.27-.63-1.09-.83c-1-.28-1.51-.72-1.51-1.45s.68-1.4,1.69-1.4a1.47,1.47,0,0,1,1.67,1.43Z"/><rect class="cls-3" x="413.48" y="2.2" width="98.26" height="40.69"/><path class="cls-2" d="M432,17.49a3.31,3.31,0,0,1-4.92.16,3.91,3.91,0,0,1-.93-2.57,3.36,3.36,0,0,1,3.32-3.6,3.43,3.43,0,0,1,1.74.46,3.8,3.8,0,0,1,.81.72l-.6.56a2.48,2.48,0,0,0-1.93-.94,2.55,2.55,0,0,0-2.45,2.8,2.58,2.58,0,0,0,2.49,2.79,2.34,2.34,0,0,0,1.89-1Z"/><path class="cls-2" d="M433.86,14.41a1.76,1.76,0,0,1,1.45-.78,1.61,1.61,0,0,1,1.11.44,1.64,1.64,0,0,1,.38,1.25v3.22H436V15.36c0-.66-.32-1-.89-1a1.23,1.23,0,0,0-.94.42,1.27,1.27,0,0,0-.31,1v2.81h-.79V11.6h.79Z"/><path class="cls-2" d="M442.85,16.16a2.45,2.45,0,0,1-2.45,2.5A2.37,2.37,0,0,1,438,16.14a2.44,2.44,0,1,1,4.88,0Zm-4.07,0a1.63,1.63,0,0,0,1.64,1.78A1.64,1.64,0,0,0,442,16.15a1.64,1.64,0,1,0-3.26,0Z"/><path class="cls-2" d="M448.55,16.16a2.45,2.45,0,0,1-2.45,2.5,2.37,2.37,0,0,1-2.43-2.52,2.44,2.44,0,1,1,4.88,0Zm-4.06,0a1.62,1.62,0,0,0,1.63,1.78,1.64,1.64,0,0,0,1.62-1.78,1.63,1.63,0,1,0-3.25,0Z"/><path class="cls-2" d="M452,15.06V15c0-.44-.37-.72-.92-.72s-.86.27-.86.68.21.57,1.07.81a2.48,2.48,0,0,1,1.17.56,1.31,1.31,0,0,1,.38.93c0,.83-.69,1.4-1.71,1.4a1.56,1.56,0,0,1-1.79-1.48h.79a.88.88,0,0,0,1,.83c.55,0,.9-.28.9-.71s-.27-.62-1.09-.83c-1-.28-1.51-.72-1.51-1.45s.67-1.39,1.68-1.39a1.47,1.47,0,0,1,1.68,1.43Z"/><path class="cls-2" d="M454.5,16.4a1.47,1.47,0,0,0,.31.87,1.55,1.55,0,0,0,1.29.66,1.67,1.67,0,0,0,1.44-.82l.69.26a2.34,2.34,0,0,1-2.13,1.29,2.38,2.38,0,0,1-2.45-2.5,2.43,2.43,0,1,1,4.85-.07c0,.06,0,.19,0,.31Zm3.16-.58a1.46,1.46,0,0,0-.27-.83,1.65,1.65,0,0,0-1.32-.65,1.55,1.55,0,0,0-1.29.66,1.84,1.84,0,0,0-.27.82Z"/><path class="cls-2" d="M463.65,18.54h-.8v-4.1h-.65v-.7h.65V13.1c0-.95.49-1.51,1.33-1.51h.21v.71c-.57.06-.72.23-.74.79v.64h.74v.7h-.74Z"/><path class="cls-2" d="M466.26,13.74v.82a1.37,1.37,0,0,1,.43-.64,1.51,1.51,0,0,1,.92-.29h.19v.8h-.22a1.23,1.23,0,0,0-1,.55,1.77,1.77,0,0,0-.28,1.14v2.43h-.79v-4.8Z"/><path class="cls-2" d="M473.09,16.16a2.45,2.45,0,0,1-2.45,2.5,2.37,2.37,0,0,1-2.43-2.52,2.44,2.44,0,1,1,4.88,0Zm-4.07,0a1.64,1.64,0,1,0,3.26,0,1.61,1.61,0,0,0-1.61-1.79A1.63,1.63,0,0,0,469,16.15Z"/><path class="cls-2" d="M475.09,13.74v.67a1.51,1.51,0,0,1,1.37-.78,1.24,1.24,0,0,1,1.29.87,1.57,1.57,0,0,1,1.52-.87,1.44,1.44,0,0,1,1.21.51c.23.3.29.57.29,1.33v3.07H480V15.66c0-.58,0-.72-.13-.92a.94.94,0,0,0-.83-.4c-.7,0-1.09.47-1.09,1.32v2.88h-.79V15.67a1.88,1.88,0,0,0-.15-.92.83.83,0,0,0-.78-.41c-.7,0-1.12.5-1.12,1.33v2.87h-.79v-4.8Z"/><path class="cls-2" d="M427.36,30.05c0,.24.07.29.36.29h.36V31h-.73c-.57,0-.79-.22-.79-.75V26.93h-.66v-.7h.66V24.72h.8v1.51h.72v.7h-.72Z"/><path class="cls-2" d="M429.57,28.89a1.54,1.54,0,0,0,.31.87,1.57,1.57,0,0,0,1.3.66,1.66,1.66,0,0,0,1.43-.83l.7.26a2.34,2.34,0,0,1-2.13,1.29,2.51,2.51,0,1,1,2.4-2.57c0,.07,0,.2,0,.32Zm3.17-.59a1.63,1.63,0,0,0-.27-.82,1.69,1.69,0,0,0-1.33-.65,1.55,1.55,0,0,0-1.29.66,2.13,2.13,0,0,0-.27.81Z"/><path class="cls-2" d="M435.52,26.23v.67a1.48,1.48,0,0,1,1.36-.78,1.24,1.24,0,0,1,1.29.87,1.57,1.57,0,0,1,1.52-.87,1.46,1.46,0,0,1,1.22.51A1.94,1.94,0,0,1,441.2,28V31h-.79V28.15c0-.59,0-.72-.14-.92a.94.94,0,0,0-.83-.4c-.7,0-1.08.46-1.08,1.32V31h-.8V28.16a1.88,1.88,0,0,0-.15-.92.83.83,0,0,0-.78-.41c-.7,0-1.11.5-1.11,1.33V31h-.8v-4.8Z"/><path class="cls-2" d="M443.47,26.23v.88a1.84,1.84,0,0,1,1.74-1,2.27,2.27,0,0,1,2.26,2.47,2.29,2.29,0,0,1-3.31,2.3,1.68,1.68,0,0,1-.69-.61v3h-.79v-7Zm0,2.48a1.58,1.58,0,0,0,1.58,1.75,1.63,1.63,0,0,0,1.58-1.83,1.85,1.85,0,0,0-.42-1.3,1.51,1.51,0,0,0-1.13-.5A1.67,1.67,0,0,0,443.47,28.71Z"/><path class="cls-2" d="M448.67,31V24.09h.79V31Z"/><path class="cls-2" d="M454.67,26.23h.79V31h-.79V30.1a2,2,0,0,1-1.74,1,2.29,2.29,0,0,1-2.26-2.49A2.33,2.33,0,0,1,453,26.12a2,2,0,0,1,1.72.9ZM451.9,27.4a2.18,2.18,0,0,0-.4,1.27A1.65,1.65,0,0,0,453,30.46a1.77,1.77,0,0,0,1.64-1.87,1.61,1.61,0,0,0-1.62-1.76A1.28,1.28,0,0,0,451.9,27.4Z"/><path class="cls-2" d="M457.87,30.05c0,.24.07.29.36.29h.37V31h-.74c-.56,0-.78-.22-.78-.75V26.93h-.67v-.7h.67V24.72h.79v1.51h.73v.7h-.73Z"/><path class="cls-2" d="M460.09,28.89a1.47,1.47,0,0,0,.31.87,1.55,1.55,0,0,0,1.29.66,1.66,1.66,0,0,0,1.43-.83l.7.26a2.33,2.33,0,0,1-2.13,1.29,2.51,2.51,0,1,1,2.4-2.57c0,.07,0,.2,0,.32Zm3.16-.59a1.46,1.46,0,0,0-.27-.82,1.65,1.65,0,0,0-1.32-.65,1.55,1.55,0,0,0-1.29.66,1.84,1.84,0,0,0-.27.81Z"/><path class="cls-2" d="M472.85,28.65a2.44,2.44,0,0,1-2.45,2.49A2.37,2.37,0,0,1,468,28.63a2.44,2.44,0,1,1,4.88,0Zm-4.06,0a1.62,1.62,0,0,0,1.63,1.78A1.64,1.64,0,0,0,472,28.64a1.63,1.63,0,1,0-3.25,0Z"/><path class="cls-2" d="M474.85,26.23v.88a1.86,1.86,0,0,1,1.75-1,2.27,2.27,0,0,1,2.26,2.47,2.31,2.31,0,0,1-2.26,2.55,2.26,2.26,0,0,1-1.05-.25,1.7,1.7,0,0,1-.7-.61v3h-.79v-7Zm0,2.48a1.58,1.58,0,0,0,1.59,1.75A1.63,1.63,0,0,0,478,28.63a1.85,1.85,0,0,0-.42-1.3,1.52,1.52,0,0,0-1.13-.5A1.68,1.68,0,0,0,474.85,28.71Z"/><path class="cls-2" d="M480.86,30.05c0,.24.07.29.36.29h.37V31h-.74c-.56,0-.78-.22-.78-.75V26.93h-.67v-.7h.67V24.72h.79v1.51h.73v.7h-.73Z"/><path class="cls-2" d="M483.54,24.89a.5.5,0,0,1-.51.5.51.51,0,0,1,0-1A.51.51,0,0,1,483.54,24.89ZM483.43,31h-.79v-4.8h.79Z"/><path class="cls-2" d="M489.52,28.65a2.45,2.45,0,0,1-2.46,2.49,2.37,2.37,0,0,1-2.42-2.51,2.44,2.44,0,1,1,4.88,0Zm-4.07,0a1.62,1.62,0,0,0,1.63,1.78,1.64,1.64,0,0,0,1.62-1.78,1.63,1.63,0,1,0-3.25,0Z"/><path class="cls-2" d="M491.51,26.23v.68a1.72,1.72,0,0,1,2.54-.4,1.58,1.58,0,0,1,.41,1.28V31h-.79V28a1.27,1.27,0,0,0-.18-.82.91.91,0,0,0-.75-.32,1.18,1.18,0,0,0-.91.4,1.14,1.14,0,0,0-.32.88V31h-.79v-4.8Z"/><path class="cls-2" d="M498.24,27.54v-.05c0-.44-.37-.73-.92-.73s-.86.27-.86.69.21.57,1.07.81a2.64,2.64,0,0,1,1.17.55,1.35,1.35,0,0,1,.38.94c0,.83-.69,1.39-1.71,1.39a1.55,1.55,0,0,1-1.79-1.47h.78a.89.89,0,0,0,1,.83c.54,0,.9-.28.9-.71s-.27-.62-1.09-.83c-1-.28-1.51-.72-1.51-1.45s.67-1.39,1.68-1.39,1.64.52,1.68,1.42Z"/><line class="cls-4" x1="100.72" y1="22.55" x2="130.91" y2="22.55"/><polygon class="cls-2" points="129.82 26.29 136.29 22.55 129.82 18.81 129.82 26.29"/><line class="cls-4" x1="376.75" y1="22.55" x2="406.94" y2="22.55"/><polygon class="cls-2" points="405.85 26.29 412.32 22.55 405.85 18.81 405.85 26.29"/><rect class="cls-3" x="138.24" y="9.25" width="100.65" height="26.6"/><path class="cls-2" d="M157.3,21.83c0,.15,0,.33,0,.4A3.35,3.35,0,0,1,154,25.71a3.39,3.39,0,0,1-3.42-3.58A3.39,3.39,0,0,1,154,18.52a3.24,3.24,0,0,1,2.61,1.26l-.65.53a3,3,0,0,0-.58-.55,2.39,2.39,0,0,0-1.38-.44,2.63,2.63,0,0,0-2.53,2.8A2.63,2.63,0,0,0,154,24.91a2.54,2.54,0,0,0,2-1,2.51,2.51,0,0,0,.45-1.31H154v-.75Z"/><path class="cls-2" d="M163.05,23.2a2.45,2.45,0,0,1-2.46,2.5,2.37,2.37,0,0,1-2.42-2.52,2.44,2.44,0,1,1,4.88,0Zm-4.07,0A1.62,1.62,0,0,0,160.61,25a1.64,1.64,0,0,0,1.62-1.78,1.63,1.63,0,1,0-3.25,0Z"/><path class="cls-2" d="M168.22,24.61c0,.24.07.29.36.29H169v.69h-.74c-.56,0-.78-.22-.78-.75V21.49h-.67v-.7h.67V19.28h.79v1.51H169v.7h-.73Z"/><path class="cls-2" d="M174.47,23.2A2.45,2.45,0,0,1,172,25.7a2.37,2.37,0,0,1-2.43-2.52,2.44,2.44,0,1,1,4.88,0Zm-4.07,0a1.64,1.64,0,1,0,3.26,0,1.61,1.61,0,0,0-1.61-1.79A1.63,1.63,0,0,0,170.4,23.19Z"/><path class="cls-2" d="M179.75,21.72h2.71v.74h-2.71v3.13h-.87V18.65h3.58v.75h-2.71Z"/><path class="cls-2" d="M184.39,19.45a.5.5,0,0,1-.51.5.51.51,0,0,1,0-1A.51.51,0,0,1,184.39,19.45Zm-.11,6.14h-.79v-4.8h.79Z"/><path class="cls-2" d="M185.87,25.59V18.65h.79v6.94Z"/><path class="cls-2" d="M188.71,23.44a1.48,1.48,0,0,0,.31.88,1.57,1.57,0,0,0,1.29.65,1.65,1.65,0,0,0,1.44-.82l.7.26a2.43,2.43,0,0,1-4.58-1.21,2.43,2.43,0,1,1,4.85-.07c0,.06,0,.2,0,.31Zm3.16-.58a1.46,1.46,0,0,0-.27-.82,1.63,1.63,0,0,0-1.32-.66,1.53,1.53,0,0,0-1.29.67,1.84,1.84,0,0,0-.27.81Z"/><path class="cls-2" d="M199.2,22.1v-.05c0-.45-.36-.73-.92-.73s-.86.27-.86.69.21.57,1.07.81a2.48,2.48,0,0,1,1.17.55,1.33,1.33,0,0,1,.38.94c0,.83-.68,1.39-1.7,1.39s-1.71-.51-1.79-1.48h.78a.89.89,0,0,0,1,.84c.54,0,.89-.28.89-.71s-.27-.63-1.09-.83c-1-.28-1.51-.72-1.51-1.45s.68-1.4,1.69-1.4A1.47,1.47,0,0,1,200,22.1Z"/><path class="cls-2" d="M201.72,23.44a1.48,1.48,0,0,0,.31.88,1.57,1.57,0,0,0,1.29.65,1.67,1.67,0,0,0,1.44-.82l.69.26a2.34,2.34,0,0,1-2.13,1.29,2.38,2.38,0,0,1-2.44-2.5,2.42,2.42,0,1,1,4.84-.07c0,.06,0,.2,0,.31Zm3.16-.58a1.46,1.46,0,0,0-.27-.82,1.63,1.63,0,0,0-1.32-.66,1.53,1.53,0,0,0-1.29.67,1.84,1.84,0,0,0-.27.81Z"/><path class="cls-2" d="M210.61,25a2.49,2.49,0,0,1-1.77.71,2.33,2.33,0,0,1-2.35-2.5,2.42,2.42,0,0,1,4.14-1.81l-.51.51a1.79,1.79,0,0,0-1.22-.5,1.61,1.61,0,0,0-1.6,1.77,1.63,1.63,0,0,0,1.59,1.8,1.67,1.67,0,0,0,1.23-.52Z"/><path class="cls-2" d="M212.65,24.61c0,.24.07.29.36.29h.36v.69h-.74c-.56,0-.78-.22-.78-.75V21.49h-.66v-.7h.66V19.28h.8v1.51h.72v.7h-.72Z"/><path class="cls-2" d="M215.33,19.45a.5.5,0,0,1-.51.5.51.51,0,0,1,0-1A.51.51,0,0,1,215.33,19.45Zm-.11,6.14h-.8v-4.8h.8Z"/><path class="cls-2" d="M221.3,23.2a2.45,2.45,0,0,1-2.45,2.5,2.37,2.37,0,0,1-2.43-2.52,2.44,2.44,0,1,1,4.88,0Zm-4.06,0A1.62,1.62,0,0,0,218.87,25a1.64,1.64,0,0,0,1.62-1.78,1.63,1.63,0,1,0-3.25,0Z"/><path class="cls-2" d="M223.3,20.79v.68a1.63,1.63,0,0,1,1.43-.8,1.67,1.67,0,0,1,1.11.4,1.57,1.57,0,0,1,.41,1.28v3.24h-.79V22.53a1.37,1.37,0,0,0-.18-.83,1,1,0,0,0-.75-.32,1.22,1.22,0,0,0-.92.41,1.13,1.13,0,0,0-.31.87v2.93h-.79v-4.8Z"/><line class="cls-4" x1="239.14" y1="22.55" x2="269.33" y2="22.55"/><polygon class="cls-2" points="268.24 26.29 274.71 22.55 268.24 18.81 268.24 26.29"/><line class="cls-4" x1="511.17" y1="22.55" x2="541.36" y2="22.55"/><polygon class="cls-2" points="540.27 26.29 546.75 22.55 540.27 18.81 540.27 26.29"/><line class="cls-4" x1="655.14" y1="22.55" x2="685.33" y2="22.55"/><polygon class="cls-2" points="684.24 26.29 690.71 22.55 684.24 18.81 684.24 26.29"/><rect class="cls-3" x="547.65" y="9.25" width="107.79" height="26.6"/><path class="cls-2" d="M571.85,25.59H571V18.65h.8l3.7,5.22V18.65h.88v6.94h-.77l-3.74-5.31Z"/><path class="cls-2" d="M581.64,20.79h.79v4.8h-.79v-.93a2,2,0,0,1-1.74,1,2.29,2.29,0,0,1-2.26-2.5,2.33,2.33,0,0,1,2.28-2.53,2,2,0,0,1,1.72.91ZM578.86,22a2.22,2.22,0,0,0-.39,1.27A1.65,1.65,0,0,0,580,25a1.77,1.77,0,0,0,1.64-1.87A1.62,1.62,0,0,0,580,21.38,1.34,1.34,0,0,0,578.86,22Z"/><path class="cls-2" d="M584.82,20.79v.66a1.49,1.49,0,0,1,1.36-.78,1.24,1.24,0,0,1,1.29.88,1.58,1.58,0,0,1,1.52-.88,1.46,1.46,0,0,1,1.22.51,1.93,1.93,0,0,1,.29,1.34v3.07h-.79V22.7c0-.58,0-.71-.14-.91a.92.92,0,0,0-.83-.41c-.7,0-1.08.47-1.08,1.32v2.89h-.79V22.71a1.74,1.74,0,0,0-.16-.91.83.83,0,0,0-.78-.42c-.7,0-1.11.5-1.11,1.33v2.88H584v-4.8Z"/><path class="cls-2" d="M592.52,23.44a1.48,1.48,0,0,0,.31.88,1.57,1.57,0,0,0,1.29.65,1.67,1.67,0,0,0,1.44-.82l.69.26a2.34,2.34,0,0,1-2.13,1.29,2.38,2.38,0,0,1-2.44-2.5,2.42,2.42,0,1,1,4.84-.07v.31Zm3.16-.58a1.46,1.46,0,0,0-.27-.82,1.63,1.63,0,0,0-1.32-.66,1.53,1.53,0,0,0-1.29.67,1.84,1.84,0,0,0-.27.81Z"/><path class="cls-2" d="M601.67,25.59h-.79v-4.1h-.66v-.7h.66v-.65c0-.94.48-1.5,1.32-1.5h.22v.7c-.58.07-.73.23-.75.79v.65h.75v.7h-.75Z"/><path class="cls-2" d="M607.86,23.2a2.45,2.45,0,0,1-2.46,2.5A2.37,2.37,0,0,1,603,23.18a2.44,2.44,0,1,1,4.88,0Zm-4.07,0A1.62,1.62,0,0,0,605.42,25a1.65,1.65,0,0,0,1.63-1.78,1.64,1.64,0,1,0-3.26,0Z"/><path class="cls-2" d="M609.07,25.59V18.65h.79v6.94Z"/><path class="cls-2" d="M615,18.65h.79v6.94H615v-.83a2,2,0,0,1-1.72.94,2.29,2.29,0,0,1-2.26-2.49,2.35,2.35,0,0,1,2.26-2.54,2.08,2.08,0,0,1,1.72.85Zm-3.14,4.57A1.6,1.6,0,0,0,613.44,25,1.67,1.67,0,0,0,615,23.2a1.62,1.62,0,0,0-1.55-1.82A1.64,1.64,0,0,0,611.9,23.22Z"/><path class="cls-2" d="M617.88,23.44a1.48,1.48,0,0,0,.31.88,1.57,1.57,0,0,0,1.29.65,1.65,1.65,0,0,0,1.44-.82l.7.26A2.43,2.43,0,0,1,617,23.2a2.43,2.43,0,1,1,4.85-.07c0,.06,0,.2,0,.31Zm3.16-.58a1.46,1.46,0,0,0-.27-.82,1.63,1.63,0,0,0-1.32-.66,1.53,1.53,0,0,0-1.29.67,2,2,0,0,0-.27.81Z"/><path class="cls-2" d="M623.82,20.79v.81a1.34,1.34,0,0,1,.44-.63,1.49,1.49,0,0,1,.92-.3h.18v.81h-.22a1.22,1.22,0,0,0-1,.55,1.8,1.8,0,0,0-.28,1.13v2.44H623v-4.8Z"/><path class="cls-2" d="M628.58,22.1v-.05c0-.45-.37-.73-.92-.73s-.86.27-.86.69.21.57,1.07.81a2.54,2.54,0,0,1,1.17.55,1.33,1.33,0,0,1,.38.94c0,.83-.69,1.39-1.71,1.39a1.56,1.56,0,0,1-1.79-1.48h.79a.88.88,0,0,0,1,.84c.55,0,.9-.28.9-.71s-.27-.63-1.09-.83c-1-.28-1.51-.72-1.51-1.45s.67-1.4,1.68-1.4a1.47,1.47,0,0,1,1.68,1.43Z"/><path class="cls-2" d="M24.49,18.65h1.84A3.1,3.1,0,0,1,29.69,22a3.63,3.63,0,0,1-1.1,2.78,3.46,3.46,0,0,1-2.41.8H24.49Zm.88,6.19h.31a3.1,3.1,0,0,0,2.17-.52,2.76,2.76,0,0,0,.94-2.3,2.33,2.33,0,0,0-2.49-2.64h-.93Z"/><path class="cls-2" d="M34.6,20.79h.79v4.8H34.6v-.93a2,2,0,0,1-1.75,1,2.3,2.3,0,0,1-2.26-2.5,2.33,2.33,0,0,1,2.28-2.52,2,2,0,0,1,1.73.9ZM31.82,22a2.23,2.23,0,0,0-.4,1.27A1.65,1.65,0,0,0,33,25a1.77,1.77,0,0,0,1.65-1.87A1.62,1.62,0,0,0,33,21.38,1.31,1.31,0,0,0,31.82,22Z"/><path class="cls-2" d="M39.19,22.1v-.05c0-.45-.37-.73-.92-.73s-.86.27-.86.69.21.57,1.07.81a2.54,2.54,0,0,1,1.17.55,1.38,1.38,0,0,1,.38.94c0,.83-.69,1.39-1.71,1.39a1.56,1.56,0,0,1-1.79-1.48h.78a.9.9,0,0,0,1,.84c.54,0,.9-.28.9-.71s-.27-.63-1.09-.83c-1.05-.29-1.51-.72-1.51-1.45s.67-1.39,1.68-1.39,1.64.52,1.68,1.42Z"/><path class="cls-2" d="M42,21.46a1.73,1.73,0,0,1,1.44-.78,1.61,1.61,0,0,1,1.12.43A1.66,1.66,0,0,1,45,22.36v3.23h-.79V22.4c0-.65-.32-1-.89-1a1.23,1.23,0,0,0-.94.43,1.25,1.25,0,0,0-.31,1v2.81h-.79V18.65H42Z"/><path class="cls-2" d="M50.45,25.59h-.79V18.65h.79v3a2,2,0,0,1,1.68-.93,2.3,2.3,0,0,1,2.28,2.52,2.28,2.28,0,0,1-2.24,2.5,2,2,0,0,1-1.72-.94Zm0-2.4a1.59,1.59,0,1,0,3.14,0,1.59,1.59,0,1,0-3.14,0Z"/><path class="cls-2" d="M60.12,23.2a2.45,2.45,0,0,1-2.46,2.5,2.37,2.37,0,0,1-2.43-2.52,2.36,2.36,0,0,1,2.46-2.5A2.38,2.38,0,0,1,60.12,23.2Zm-4.07,0A1.62,1.62,0,0,0,57.68,25a1.64,1.64,0,0,0,1.62-1.78,1.63,1.63,0,1,0-3.25,0Z"/><path class="cls-2" d="M64.94,20.79h.79v4.8h-.79v-.93a2,2,0,0,1-1.74,1,2.29,2.29,0,0,1-2.26-2.5,2.33,2.33,0,0,1,2.28-2.52,2,2,0,0,1,1.72.9ZM62.17,22a2.23,2.23,0,0,0-.4,1.27A1.65,1.65,0,0,0,63.31,25,1.77,1.77,0,0,0,65,23.14a1.62,1.62,0,0,0-1.62-1.76A1.31,1.31,0,0,0,62.17,22Z"/><path class="cls-2" d="M68.12,20.79v.81a1.27,1.27,0,0,1,.44-.63,1.46,1.46,0,0,1,.91-.29h.19v.8h-.22a1.21,1.21,0,0,0-1,.55,1.74,1.74,0,0,0-.28,1.13v2.44h-.79v-4.8Z"/><path class="cls-2" d="M74.06,18.65h.79v6.94h-.79v-.83a2,2,0,0,1-1.72.94,2.28,2.28,0,0,1-2.25-2.49,2.33,2.33,0,0,1,2.25-2.53,2,2,0,0,1,1.72.84Zm-3.14,4.57A1.6,1.6,0,0,0,72.46,25a1.67,1.67,0,0,0,1.6-1.81,1.62,1.62,0,0,0-1.55-1.82A1.64,1.64,0,0,0,70.92,23.22Z"/></g></g></svg>