<svg xmlns="http://www.w3.org/2000/svg" viewBox="0 0 926.76 169.92"><defs><style>.cls-1,.cls-3{fill:#fff;}.cls-1,.cls-4{stroke:#231f20;stroke-miterlimit:10;stroke-width:0.75px;}.cls-2{fill:#231f20;}.cls-4{fill:none;}</style></defs><title>flow chart2</title><g id="Layer_2" data-name="Layer 2"><g id="Layer_1-2" data-name="Layer 1"><ellipse class="cls-1" cx="39.73" cy="31.75" rx="39.33" ry="21.95"/><ellipse class="cls-1" cx="39.7" cy="85.16" rx="39.33" ry="21.95"/><ellipse class="cls-1" cx="39.73" cy="139.06" rx="39.33" ry="21.95"/><ellipse class="cls-1" cx="875.91" cy="84.15" rx="50.48" ry="21.95"/><polygon class="cls-2" points="96.82 139 79.03 139 79.03 138.23 96.07 138.23 96.07 32.1 79.03 32.1 79.03 31.33 96.82 31.33 96.82 139"/><rect class="cls-2" x="79.03" y="84.79" width="34.7" height="0.75"/><polygon class="cls-2" points="112.64 88.9 119.12 85.16 112.64 81.42 112.64 88.9"/><path class="cls-2" d="M841.18,85.7a1.12,1.12,0,0,0,1.23,1.2,1.2,1.2,0,0,0,1.33-1.17c0-.61-.31-.89-1.4-1.25a3.44,3.44,0,0,1-1.41-.7,1.73,1.73,0,0,1-.54-1.31,2.07,2.07,0,0,1,4.13,0h-.87a1.39,1.39,0,0,0-.17-.72,1.21,1.21,0,0,0-1-.49,1.11,1.11,0,0,0-1.18,1.14,1,1,0,0,0,.4.8,4.4,4.4,0,0,0,1.11.49,3.07,3.07,0,0,1,1.38.75,1.79,1.79,0,0,1,.47,1.22,2,2,0,0,1-2.19,2,2,2,0,0,1-1.85-.93,1.7,1.7,0,0,1-.24-.91V85.7Z"/><path class="cls-2" d="M850.39,85.18a2.45,2.45,0,0,1-2.46,2.49,2.51,2.51,0,1,1,2.46-2.49Zm-4.07,0A1.62,1.62,0,0,0,848,86.94a1.64,1.64,0,0,0,1.62-1.78,1.64,1.64,0,1,0-3.26,0Z"/><path class="cls-2" d="M851.6,87.56V80.62h.79v6.94Z"/><path class="cls-2" d="M857.62,82.76l-1.81,4.8H855l-1.76-4.8h.83l1.36,3.66,1.39-3.66Z"/><path class="cls-2" d="M858.81,85.41a1.48,1.48,0,0,0,.31.88,1.54,1.54,0,0,0,1.29.65,1.65,1.65,0,0,0,1.44-.82l.7.26a2.58,2.58,0,1,1,.27-1.28c0,.06,0,.2,0,.31Zm3.16-.58a1.46,1.46,0,0,0-.27-.82,1.63,1.63,0,0,0-1.32-.66,1.53,1.53,0,0,0-1.29.67,2,2,0,0,0-.27.81Z"/><path class="cls-2" d="M870.7,82.76h.8v4.8h-.8v-.93a2,2,0,0,1-1.74,1,2.29,2.29,0,0,1-2.26-2.49A2.33,2.33,0,0,1,869,82.65a2,2,0,0,1,1.72.9Zm-2.77,1.17a2.18,2.18,0,0,0-.4,1.27A1.65,1.65,0,0,0,869.07,87a1.78,1.78,0,0,0,1.65-1.88,1.62,1.62,0,0,0-1.63-1.76A1.29,1.29,0,0,0,867.93,83.93Z"/><path class="cls-2" d="M877,82.76v.88a1.86,1.86,0,0,1,1.75-1A2.27,2.27,0,0,1,881,85.12a2.31,2.31,0,0,1-2.26,2.55,2.23,2.23,0,0,1-1-.25,1.7,1.7,0,0,1-.7-.61v3h-.79v-7Zm0,2.48A1.58,1.58,0,0,0,878.58,87a1.63,1.63,0,0,0,1.58-1.84,1.88,1.88,0,0,0-.41-1.3,1.57,1.57,0,0,0-1.14-.5A1.68,1.68,0,0,0,877,85.24Z"/><path class="cls-2" d="M883,82.76v.81a1.33,1.33,0,0,1,.43-.63,1.51,1.51,0,0,1,.92-.29h.19v.8h-.22a1.23,1.23,0,0,0-1,.55,1.74,1.74,0,0,0-.28,1.13v2.44h-.8v-4.8Z"/><path class="cls-2" d="M889.83,85.18a2.44,2.44,0,0,1-2.45,2.49,2.51,2.51,0,1,1,2.45-2.49Zm-4.07,0a1.62,1.62,0,0,0,1.64,1.78A1.64,1.64,0,0,0,889,85.16a1.61,1.61,0,0,0-1.61-1.79A1.63,1.63,0,0,0,885.76,85.16Z"/><path class="cls-2" d="M891.83,87.56H891V80.62h.79v3a2,2,0,0,1,1.69-.93,2.31,2.31,0,0,1,2.28,2.53,2.28,2.28,0,0,1-2.24,2.49,2,2,0,0,1-1.73-.93Zm0-2.4c0,1.1.62,1.83,1.56,1.83A1.6,1.6,0,0,0,895,85.2a1.59,1.59,0,1,0-3.14,0Z"/><path class="cls-2" d="M897,87.56V80.62h.79v6.94Z"/><path class="cls-2" d="M899.84,85.41a1.62,1.62,0,0,0,1.61,1.53,1.65,1.65,0,0,0,1.43-.82l.7.26a2.43,2.43,0,0,1-4.58-1.2,2.43,2.43,0,1,1,4.85-.08c0,.06,0,.2,0,.31Zm3.17-.58a1.54,1.54,0,0,0-.27-.82,1.63,1.63,0,0,0-1.32-.66,1.52,1.52,0,0,0-1.29.67,2,2,0,0,0-.28.81Z"/><path class="cls-2" d="M905.79,82.76v.67a1.49,1.49,0,0,1,1.36-.78,1.24,1.24,0,0,1,1.29.87,1.57,1.57,0,0,1,1.52-.87,1.43,1.43,0,0,1,1.22.51c.23.3.29.57.29,1.33v3.07h-.79V84.68c0-.59,0-.72-.14-.92a.93.93,0,0,0-.83-.41c-.7,0-1.08.47-1.08,1.33v2.88h-.79V84.69a1.75,1.75,0,0,0-.16-.92.83.83,0,0,0-.78-.42c-.7,0-1.11.5-1.11,1.34v2.87H905v-4.8Z"/><rect class="cls-3" x="426.36" y="71.63" width="85.73" height="25.39"/><path class="cls-2" d="M512.46,97.39H426V71.26h86.48Zm-85.73-.75h85V72h-85Z"/><path class="cls-2" d="M432.81,85.5A1.12,1.12,0,0,0,434,86.7a1.2,1.2,0,0,0,1.33-1.17c0-.61-.31-.89-1.41-1.25a3.46,3.46,0,0,1-1.4-.7,1.73,1.73,0,0,1-.54-1.31,2.07,2.07,0,0,1,4.13,0h-.87a1.49,1.49,0,0,0-.17-.72,1.21,1.21,0,0,0-1-.49,1.11,1.11,0,0,0-1.18,1.14,1,1,0,0,0,.4.8,3.89,3.89,0,0,0,1.11.49,3.23,3.23,0,0,1,1.38.75,1.79,1.79,0,0,1,.46,1.23,2,2,0,0,1-2.18,2,2,2,0,0,1-1.85-.93,1.68,1.68,0,0,1-.24-.91V85.5Z"/><path class="cls-2" d="M438,85.22a1.54,1.54,0,0,0,.31.87,1.57,1.57,0,0,0,1.29.66,1.66,1.66,0,0,0,1.44-.83l.7.26A2.58,2.58,0,1,1,442,84.9c0,.07,0,.2,0,.32Zm3.16-.59a1.46,1.46,0,0,0-.27-.82,1.65,1.65,0,0,0-1.32-.65,1.55,1.55,0,0,0-1.29.66,2,2,0,0,0-.27.81Z"/><path class="cls-2" d="M443.05,87.36V80.42h.79v6.94Z"/><path class="cls-2" d="M445.89,85.22a1.47,1.47,0,0,0,.31.87,1.55,1.55,0,0,0,1.29.66,1.66,1.66,0,0,0,1.44-.83l.7.26a2.58,2.58,0,1,1,.27-1.28c0,.07,0,.2,0,.32Zm3.16-.59a1.46,1.46,0,0,0-.27-.82,1.65,1.65,0,0,0-1.32-.65,1.55,1.55,0,0,0-1.29.66,2,2,0,0,0-.27.81Z"/><path class="cls-2" d="M454.78,86.77a2.44,2.44,0,0,1-1.77.7A2.33,2.33,0,0,1,450.66,85a2.42,2.42,0,0,1,4.14-1.81l-.51.51a1.74,1.74,0,0,0-1.22-.5,1.61,1.61,0,0,0-1.6,1.77,1.63,1.63,0,0,0,1.59,1.8,1.7,1.7,0,0,0,1.23-.52Z"/><path class="cls-2" d="M456.82,86.38c0,.24.07.29.36.29h.37v.69h-.74c-.56,0-.78-.22-.78-.75V83.26h-.67v-.7H456V81.05h.79v1.51h.73v.7h-.73Z"/><path class="cls-2" d="M462.58,82.56v.88a1.86,1.86,0,0,1,1.75-1,2.27,2.27,0,0,1,2.26,2.47,2.31,2.31,0,0,1-2.26,2.55,2.26,2.26,0,0,1-1.05-.25,1.7,1.7,0,0,1-.7-.61v3h-.79v-7Zm0,2.48a1.58,1.58,0,0,0,1.59,1.75A1.63,1.63,0,0,0,465.75,85a1.89,1.89,0,0,0-.42-1.31,1.55,1.55,0,0,0-1.13-.49A1.68,1.68,0,0,0,462.58,85Z"/><path class="cls-2" d="M468.58,82.56v.81a1.39,1.39,0,0,1,.43-.63,1.51,1.51,0,0,1,.92-.29h.19v.8h-.22a1.23,1.23,0,0,0-1,.55,1.74,1.74,0,0,0-.28,1.13v2.44h-.79v-4.8Z"/><path class="cls-2" d="M475.41,85A2.44,2.44,0,0,1,473,87.47,2.51,2.51,0,1,1,475.41,85Zm-4.06,0A1.62,1.62,0,0,0,473,86.75,1.64,1.64,0,0,0,474.6,85a1.63,1.63,0,1,0-3.25,0Z"/><path class="cls-2" d="M477.41,82.56v.88a1.86,1.86,0,0,1,1.75-1,2.27,2.27,0,0,1,2.26,2.47,2.31,2.31,0,0,1-2.26,2.55,2.26,2.26,0,0,1-1.05-.25,1.7,1.7,0,0,1-.7-.61v3h-.79v-7Zm0,2.48A1.58,1.58,0,0,0,479,86.79,1.63,1.63,0,0,0,480.58,85a1.89,1.89,0,0,0-.42-1.31,1.56,1.56,0,0,0-1.14-.49A1.68,1.68,0,0,0,477.41,85Z"/><path class="cls-2" d="M483.07,85.22a1.64,1.64,0,0,0,1.61,1.53,1.66,1.66,0,0,0,1.43-.83l.7.26a2.43,2.43,0,0,1-4.58-1.2,2.43,2.43,0,1,1,4.85-.08c0,.07,0,.2,0,.32Zm3.17-.59a1.54,1.54,0,0,0-.27-.82,1.65,1.65,0,0,0-1.32-.65,1.57,1.57,0,0,0-1.3.66,2.13,2.13,0,0,0-.27.81Z"/><path class="cls-2" d="M489,82.56v.81a1.31,1.31,0,0,1,.43-.63,1.49,1.49,0,0,1,.92-.29h.19v.8h-.22a1.23,1.23,0,0,0-1,.55,1.74,1.74,0,0,0-.28,1.13v2.44h-.8v-4.8Z"/><path class="cls-2" d="M495.53,87.36h-.79v-4.1h-.66v-.7h.66v-.64c0-1,.49-1.51,1.32-1.51h.22v.71c-.57.06-.73.22-.75.79v.64h.75v.7h-.75Z"/><path class="cls-2" d="M498.18,81.22a.51.51,0,1,1-.5-.52A.5.5,0,0,1,498.18,81.22Zm-.11,6.14h-.79v-4.8h.79Z"/><path class="cls-2" d="M499.66,87.36V80.42h.79v6.94Z"/><path class="cls-2" d="M502.5,85.22a1.54,1.54,0,0,0,.31.87,1.58,1.58,0,0,0,1.3.66,1.66,1.66,0,0,0,1.43-.83l.7.26a2.43,2.43,0,0,1-4.58-1.2,2.43,2.43,0,1,1,4.85-.08c0,.07,0,.2,0,.32Zm3.17-.59a1.63,1.63,0,0,0-.27-.82,1.69,1.69,0,0,0-1.33-.65,1.55,1.55,0,0,0-1.29.66,2.13,2.13,0,0,0-.27.81Z"/><polygon class="cls-3" points="755.39 27.1 684.77 27.1 694.77 0.5 765.39 0.5 755.39 27.1"/><path class="cls-2" d="M755.74,27.6H684.05L694.42,0h71.7Zm-70.25-1h69.56L764.67,1H695.12Z"/><path class="cls-2" d="M717.71,16.84h-.87V10.65h-1.77V9.9h4.4v.75h-1.76Z"/><path class="cls-2" d="M722.67,12h.86l-2.86,7.11h-.86l1-2.46L719.1,12h.84l1.29,3.56Z"/><path class="cls-2" d="M725.18,12v.87a1.85,1.85,0,0,1,1.74-1,2.27,2.27,0,0,1,2.26,2.47,2.29,2.29,0,0,1-3.31,2.3,1.68,1.68,0,0,1-.69-.61v3h-.8V12Zm0,2.48a1.58,1.58,0,0,0,1.58,1.75,1.64,1.64,0,0,0,1.58-1.84,1.86,1.86,0,0,0-.42-1.3,1.56,1.56,0,0,0-1.13-.5A1.67,1.67,0,0,0,725.18,14.52Z"/><path class="cls-2" d="M730.84,14.69a1.48,1.48,0,0,0,.31.88,1.57,1.57,0,0,0,1.29.65,1.67,1.67,0,0,0,1.44-.82l.69.26A2.34,2.34,0,0,1,732.44,17a2.38,2.38,0,0,1-2.45-2.5,2.43,2.43,0,1,1,4.85-.07c0,.06,0,.2,0,.31Zm3.16-.58a1.46,1.46,0,0,0-.27-.82,1.63,1.63,0,0,0-1.32-.66,1.53,1.53,0,0,0-1.29.67,1.84,1.84,0,0,0-.27.81Z"/><polygon class="cls-3" points="755.39 63.3 684.77 63.3 694.77 36.7 765.39 36.7 755.39 63.3"/><path class="cls-2" d="M755.74,63.8H684.05l10.37-27.6h71.7Zm-70.25-1h69.56l9.62-25.6H695.12Z"/><path class="cls-2" d="M714.53,46.09h1.84a3.09,3.09,0,0,1,3.35,3.36,3.6,3.6,0,0,1-1.09,2.78,3.47,3.47,0,0,1-2.41.8h-1.69Zm.87,6.2h.32a3,3,0,0,0,2.17-.53,2.75,2.75,0,0,0,.94-2.3,2.33,2.33,0,0,0-2.49-2.63h-.94Z"/><path class="cls-2" d="M721.76,48.24v.81a1.43,1.43,0,0,1,.44-.64,1.54,1.54,0,0,1,.91-.29h.19v.8h-.22a1.25,1.25,0,0,0-1,.55,1.78,1.78,0,0,0-.28,1.14V53H721V48.24Z"/><path class="cls-2" d="M727.74,48.24h.79V53h-.79v-.92a2,2,0,0,1-1.75,1,2.3,2.3,0,0,1-2.26-2.5A2.33,2.33,0,0,1,726,48.12a2,2,0,0,1,1.73.91ZM725,49.4a2.2,2.2,0,0,0-.4,1.27,1.65,1.65,0,0,0,1.54,1.79,1.77,1.77,0,0,0,1.65-1.87,1.62,1.62,0,0,0-1.63-1.76A1.31,1.31,0,0,0,725,49.4Z"/><path class="cls-2" d="M736.44,48.24,734.73,53H734l-1.1-3.64L731.75,53H731l-1.64-4.79h.81l1.23,3.52,1.1-3.52h.78l1.08,3.52,1.26-3.52Z"/><polygon class="cls-3" points="755.39 97.44 684.77 97.44 694.77 70.84 765.39 70.84 755.39 97.44"/><path class="cls-2" d="M755.74,97.94H684.05l10.37-27.6h71.7Zm-70.25-1h69.56l9.62-25.6H695.12Z"/><path class="cls-2" d="M720.26,87.17h-.87V80.23h1.85c1.65,0,2.55.75,2.55,2.13a2.14,2.14,0,0,1-.74,1.68,2.57,2.57,0,0,1-1.71.48h-1.08Zm.91-3.4a2.34,2.34,0,0,0,.86-.12,1.32,1.32,0,0,0,.88-1.27,1.29,1.29,0,0,0-.89-1.26,2.65,2.65,0,0,0-1-.14h-.79v2.79Z"/><path class="cls-2" d="M725.65,81a.5.5,0,1,1-.5-.53A.5.5,0,0,1,725.65,81Zm-.11,6.13h-.79V82.38h.79Z"/><path class="cls-2" d="M727.92,82.38v.67a1.71,1.71,0,0,1,2.54-.39,1.56,1.56,0,0,1,.41,1.28v3.23h-.79v-3a1.3,1.3,0,0,0-.18-.83,1,1,0,0,0-.75-.32,1.19,1.19,0,0,0-.91.41,1.13,1.13,0,0,0-.32.87v2.92h-.79V82.38Z"/><polygon class="cls-3" points="755.39 134.25 684.77 134.25 694.77 107.65 765.39 107.65 755.39 134.25"/><path class="cls-2" d="M755.74,134.75H684.05l10.37-27.6h71.7Zm-70.25-1h69.56l9.62-25.6H695.12Z"/><path class="cls-2" d="M709.45,124h-.87v-6.94h1.89c1.48,0,2.37.76,2.37,2a1.86,1.86,0,0,1-1,1.74,2.77,2.77,0,0,1-1.28.29l2.7,2.89h-1.11l-2.7-2.92Zm.88-3.51c1,0,1.62-.48,1.62-1.35s-.52-1.33-1.48-1.33h-1v2.68Z"/><path class="cls-2" d="M714.55,121.84a1.54,1.54,0,0,0,.31.88,1.57,1.57,0,0,0,1.29.65,1.65,1.65,0,0,0,1.44-.82l.7.26a2.58,2.58,0,1,1,.27-1.28c0,.06,0,.2,0,.31Zm3.16-.58a1.46,1.46,0,0,0-.27-.82,1.63,1.63,0,0,0-1.32-.66,1.53,1.53,0,0,0-1.29.67,2,2,0,0,0-.27.81Z"/><path class="cls-2" d="M724.08,119.19v7h-.79v-3a2,2,0,0,1-1.74.91,2.23,2.23,0,0,1-1.73-.81,2.75,2.75,0,0,1-.5-1.72,2.26,2.26,0,0,1,2.31-2.49,1.82,1.82,0,0,1,1.66.93v-.82Zm-3.93,2.41a1.58,1.58,0,1,0,3.12,0,1.86,1.86,0,0,0-.45-1.36,1.59,1.59,0,0,0-1.1-.48A1.64,1.64,0,0,0,720.15,121.6Z"/><path class="cls-2" d="M729.22,119.19v3.07a1.59,1.59,0,0,1-.47,1.34,2.08,2.08,0,0,1-1.39.5,2,2,0,0,1-1.38-.51,1.72,1.72,0,0,1-.48-1.33v-3.07h.79v3a1.06,1.06,0,0,0,1.07,1.15,1.12,1.12,0,0,0,.85-.36,1.06,1.06,0,0,0,.21-.77v-3.07Z"/><path class="cls-2" d="M731.14,121.84a1.48,1.48,0,0,0,.31.88,1.57,1.57,0,0,0,1.29.65,1.67,1.67,0,0,0,1.44-.82l.69.26a2.34,2.34,0,0,1-2.13,1.29,2.51,2.51,0,1,1,2.4-2.57c0,.06,0,.2,0,.31Zm3.16-.58a1.46,1.46,0,0,0-.27-.82,1.63,1.63,0,0,0-1.32-.66,1.53,1.53,0,0,0-1.29.67,1.84,1.84,0,0,0-.27.81Z"/><path class="cls-2" d="M738.49,120.5v0c0-.45-.37-.73-.92-.73s-.86.27-.86.69.21.57,1.07.81a2.49,2.49,0,0,1,1.16.55,1.34,1.34,0,0,1,.39.94c0,.83-.69,1.39-1.71,1.39a1.56,1.56,0,0,1-1.79-1.48h.78a.89.89,0,0,0,1,.84c.54,0,.9-.28.9-.71s-.27-.63-1.1-.83c-1-.28-1.5-.72-1.5-1.45s.67-1.39,1.68-1.39,1.64.52,1.68,1.42Z"/><path class="cls-2" d="M741.39,123c0,.24.07.29.36.29h.37V124h-.74c-.56,0-.78-.22-.78-.75v-3.35h-.67v-.7h.67v-1.51h.79v1.51h.73v.7h-.73Z"/><polygon class="cls-3" points="755.39 169.42 684.77 169.42 694.77 142.82 765.39 142.82 755.39 169.42"/><path class="cls-2" d="M755.74,169.92H684.05l10.37-27.6h71.7Zm-70.25-1h69.56l9.62-25.6H695.12Z"/><path class="cls-2" d="M710.43,158.1a3,3,0,0,1-2.53,1.18,3.1,3.1,0,0,1-2.39-1,3.94,3.94,0,0,1-.92-2.57,3.36,3.36,0,0,1,3.32-3.6,3.4,3.4,0,0,1,1.73.47,3.52,3.52,0,0,1,.82.72l-.61.56a2.44,2.44,0,0,0-1.92-1,2.82,2.82,0,0,0,0,5.59,2.29,2.29,0,0,0,1.88-1Z"/><path class="cls-2" d="M716,156.77a2.45,2.45,0,0,1-2.46,2.5,2.52,2.52,0,1,1,2.46-2.5Zm-4.07,0a1.62,1.62,0,0,0,1.63,1.78,1.65,1.65,0,0,0,1.63-1.78,1.64,1.64,0,1,0-3.26,0Z"/><path class="cls-2" d="M718,154.36V155a1.49,1.49,0,0,1,1.36-.78,1.23,1.23,0,0,1,1.29.88,1.57,1.57,0,0,1,1.52-.88,1.46,1.46,0,0,1,1.22.51,1.9,1.9,0,0,1,.29,1.33v3.08h-.79v-2.89c0-.58,0-.72-.14-.91a.92.92,0,0,0-.83-.41c-.7,0-1.08.47-1.08,1.32v2.89H720v-2.88a1.71,1.71,0,0,0-.16-.91.82.82,0,0,0-.78-.42c-.7,0-1.11.5-1.11,1.33v2.88h-.79v-4.8Z"/><path class="cls-2" d="M726,154.36V155a1.51,1.51,0,0,1,1.37-.78,1.24,1.24,0,0,1,1.29.88,1.56,1.56,0,0,1,1.52-.88,1.44,1.44,0,0,1,1.21.51,1.9,1.9,0,0,1,.29,1.33v3.08h-.79v-2.89c0-.58,0-.72-.13-.91a.94.94,0,0,0-.83-.41c-.7,0-1.09.47-1.09,1.32v2.89H728v-2.88a1.84,1.84,0,0,0-.15-.91.84.84,0,0,0-.78-.42c-.7,0-1.12.5-1.12,1.33v2.88h-.79v-4.8Z"/><path class="cls-2" d="M733.68,157a1.48,1.48,0,0,0,.32.88,1.57,1.57,0,0,0,1.29.65,1.65,1.65,0,0,0,1.43-.82l.7.26a2.36,2.36,0,0,1-2.13,1.29,2.52,2.52,0,1,1,2.4-2.57c0,.06,0,.2,0,.31Zm3.17-.58a1.51,1.51,0,0,0-.27-.82,1.65,1.65,0,0,0-1.32-.66,1.55,1.55,0,0,0-1.3.67,2.07,2.07,0,0,0-.27.81Z"/><path class="cls-2" d="M739.63,154.36V155a1.63,1.63,0,0,1,1.42-.79,1.7,1.7,0,0,1,1.12.4,1.56,1.56,0,0,1,.4,1.28v3.24h-.79V156.1a1.3,1.3,0,0,0-.18-.83.93.93,0,0,0-.75-.32,1.19,1.19,0,0,0-.91.41,1.13,1.13,0,0,0-.31.87v2.93h-.79v-4.8Z"/><path class="cls-2" d="M745,158.18c0,.24.08.29.37.29h.36v.69H745c-.56,0-.78-.22-.78-.75v-3.36h-.66v-.69h.66v-1.51H745v1.51h.73v.69H745Z"/><polygon class="cls-2" points="683.27 121.33 640.39 121.33 640.39 13.43 683.27 13.43 683.27 14.18 641.14 14.18 641.14 120.58 683.27 120.58 683.27 121.33"/><polygon class="cls-2" points="682.18 10.06 688.66 13.8 682.18 17.54 682.18 10.06"/><polygon class="cls-2" points="682.18 124.69 688.66 120.95 682.18 117.21 682.18 124.69"/><polygon class="cls-2" points="683.27 156.5 640.39 156.5 640.39 48.6 683.27 48.6 683.27 49.35 641.14 49.35 641.14 155.75 683.27 155.75 683.27 156.5"/><polygon class="cls-2" points="682.18 45.23 688.66 48.97 682.18 52.71 682.18 45.23"/><polygon class="cls-2" points="682.18 159.86 688.66 156.12 682.18 152.38 682.18 159.86"/><polygon class="cls-2" points="641.14 156.12 640.39 156.12 640.39 83.76 683.27 83.76 683.27 84.51 641.14 84.51 641.14 156.12"/><polygon class="cls-2" points="682.18 80.4 688.66 84.14 682.18 87.88 682.18 80.4"/><polygon class="cls-2" points="789.6 156.12 788.85 156.12 788.85 84.51 761.34 84.51 761.34 83.76 789.6 83.76 789.6 156.12"/><polygon class="cls-2" points="789.6 156.5 761.34 156.5 761.34 155.75 788.85 155.75 788.85 49.35 761.34 49.35 761.34 48.6 789.6 48.6 789.6 156.5"/><polygon class="cls-2" points="789.6 121.33 761.34 121.33 761.34 120.58 788.85 120.58 788.85 14.18 761.34 14.18 761.34 13.43 789.6 13.43 789.6 121.33"/><rect class="cls-2" x="387.34" y="83.95" width="30.19" height="0.75"/><polygon class="cls-2" points="416.44 88.06 422.92 84.32 416.44 80.58 416.44 88.06"/><rect class="cls-2" x="511.35" y="83.95" width="30.19" height="0.75"/><polygon class="cls-2" points="540.45 88.06 546.92 84.32 540.45 80.58 540.45 88.06"/><rect class="cls-2" x="604.64" y="83.95" width="30.19" height="0.75"/><polygon class="cls-2" points="633.74 88.06 640.21 84.32 633.74 80.58 633.74 88.06"/><rect class="cls-2" x="788.57" y="83.76" width="30.19" height="0.75"/><polygon class="cls-2" points="817.67 87.88 824.15 84.14 817.67 80.4 817.67 87.88"/><rect class="cls-3" x="118.96" y="70.8" width="113.6" height="26.6"/><path class="cls-2" d="M232.93,97.78H118.58V70.42H232.93ZM119.33,97H232.18V71.17H119.33Z"/><path class="cls-2" d="M138,83.38c0,.15,0,.33,0,.4a3.33,3.33,0,0,1-3.33,3.48,3.6,3.6,0,0,1,0-7.19,3.27,3.27,0,0,1,2.62,1.26l-.66.53a3,3,0,0,0-.58-.55,2.39,2.39,0,0,0-1.38-.44,2.81,2.81,0,0,0,0,5.59,2.43,2.43,0,0,0,2.45-2.33h-2.42v-.75Z"/><path class="cls-2" d="M143.77,84.75a2.45,2.45,0,0,1-2.46,2.5,2.51,2.51,0,1,1,2.46-2.5Zm-4.07,0a1.61,1.61,0,0,0,1.63,1.78A1.65,1.65,0,0,0,143,84.74a1.64,1.64,0,1,0-3.26,0Z"/><path class="cls-2" d="M148.94,86.16c0,.24.07.29.36.29h.37v.69h-.74c-.56,0-.78-.22-.78-.75V83h-.67v-.7h.67V80.83h.79v1.51h.73V83h-.73Z"/><path class="cls-2" d="M155.19,84.75a2.45,2.45,0,0,1-2.45,2.5,2.51,2.51,0,1,1,2.45-2.5Zm-4.06,0a1.61,1.61,0,0,0,1.63,1.78,1.64,1.64,0,0,0,1.62-1.78,1.63,1.63,0,1,0-3.25,0Z"/><path class="cls-2" d="M165,86.09a3.32,3.32,0,0,1-4.92.15,3.87,3.87,0,0,1-.93-2.57,3.36,3.36,0,0,1,3.32-3.6,3.43,3.43,0,0,1,1.74.47,3.54,3.54,0,0,1,.81.72l-.6.56a2.46,2.46,0,0,0-1.93-.95,2.82,2.82,0,0,0,0,5.59,2.3,2.3,0,0,0,1.89-1Z"/><path class="cls-2" d="M170.55,84.75a2.45,2.45,0,0,1-2.45,2.5,2.51,2.51,0,1,1,2.45-2.5Zm-4.06,0a1.61,1.61,0,0,0,1.63,1.78,1.64,1.64,0,0,0,1.62-1.78,1.63,1.63,0,1,0-3.25,0Z"/><path class="cls-2" d="M174.88,87.14V80.2h.79v6.94Z"/><path class="cls-2" d="M180.89,82.34h.79v4.8h-.79v-.93a2,2,0,0,1-1.75,1,2.3,2.3,0,0,1-2.26-2.5,2.33,2.33,0,0,1,2.28-2.52,2,2,0,0,1,1.73.9Zm-2.78,1.17a2.17,2.17,0,0,0-.4,1.26,1.65,1.65,0,0,0,1.54,1.79,1.77,1.77,0,0,0,1.65-1.87,1.62,1.62,0,0,0-1.62-1.76A1.3,1.3,0,0,0,178.11,83.51Z"/><path class="cls-2" d="M184.06,87.14h-.79V80.2h.79v3a2,2,0,0,1,1.69-.93A2.31,2.31,0,0,1,188,84.75a2.28,2.28,0,0,1-2.24,2.5,2,2,0,0,1-1.73-.94Zm0-2.4a1.59,1.59,0,1,0,3.14,0,1.59,1.59,0,1,0-3.14,0Z"/><path class="cls-2" d="M194.57,83.65V83.6c0-.45-.36-.73-.91-.73s-.87.27-.87.69.21.57,1.08.81a2.49,2.49,0,0,1,1.16.55,1.34,1.34,0,0,1,.39.94c0,.83-.69,1.39-1.71,1.39s-1.71-.51-1.79-1.48h.78a.89.89,0,0,0,1,.84c.54,0,.89-.28.89-.71s-.27-.63-1.09-.83c-1-.28-1.51-.72-1.51-1.45s.68-1.39,1.69-1.39a1.46,1.46,0,0,1,1.67,1.42Z"/><path class="cls-2" d="M197.09,85a1.54,1.54,0,0,0,.31.88,1.58,1.58,0,0,0,1.29.65,1.65,1.65,0,0,0,1.44-.82l.7.26a2.58,2.58,0,1,1,.27-1.28c0,.06,0,.2,0,.31Zm3.16-.58a1.46,1.46,0,0,0-.27-.82,1.63,1.63,0,0,0-1.32-.66,1.53,1.53,0,0,0-1.29.67,2,2,0,0,0-.27.81Z"/><path class="cls-2" d="M206,86.54a2.45,2.45,0,0,1-1.77.71A2.51,2.51,0,1,1,206,82.94l-.51.51a1.77,1.77,0,0,0-1.22-.5,1.8,1.8,0,0,0,0,3.57,1.67,1.67,0,0,0,1.23-.52Z"/><path class="cls-2" d="M208,86.16c0,.24.07.29.36.29h.37v.69H208c-.56,0-.78-.22-.78-.75V83h-.67v-.7h.67V80.83H208v1.51h.73V83H208Z"/><path class="cls-2" d="M210.7,81a.51.51,0,1,1-.5-.52A.5.5,0,0,1,210.7,81Zm-.11,6.14h-.79v-4.8h.79Z"/><path class="cls-2" d="M216.68,84.75a2.45,2.45,0,0,1-2.46,2.5,2.51,2.51,0,1,1,2.46-2.5Zm-4.07,0a1.61,1.61,0,0,0,1.63,1.78,1.65,1.65,0,0,0,1.63-1.78,1.64,1.64,0,1,0-3.26,0Z"/><path class="cls-2" d="M218.68,82.34V83a1.61,1.61,0,0,1,1.42-.79,1.65,1.65,0,0,1,1.11.39,1.54,1.54,0,0,1,.41,1.28v3.24h-.79V84.08a1.25,1.25,0,0,0-.18-.82.91.91,0,0,0-.75-.33,1.19,1.19,0,0,0-.91.41,1.13,1.13,0,0,0-.31.87v2.93h-.8v-4.8Z"/><rect class="cls-2" x="232.39" y="83.73" width="30.19" height="0.75"/><polygon class="cls-2" points="261.49 87.84 267.97 84.1 261.49 80.36 261.49 87.84"/><rect class="cls-3" x="269.91" y="71.02" width="117.44" height="26.6"/><polygon class="cls-2" points="387.84 98.13 381.34 98.13 381.34 97.13 386.84 97.13 386.84 91.63 387.84 91.63 387.84 98.13"/><path class="cls-2" d="M369.63,98.12H357.91v-1h11.72Zm-23.43,0H334.48v-1H346.2Zm-23.43,0H311.05v-1h11.72Zm-23.43,0H287.62v-1h11.72Z"/><polygon class="cls-2" points="275.91 98.13 269.41 98.13 269.41 91.63 270.41 91.63 270.41 97.13 275.91 97.13 275.91 98.13"/><polygon class="cls-2" points="270.41 77.02 269.41 77.02 269.41 70.52 275.91 70.52 275.91 71.52 270.41 71.52 270.41 77.02"/><path class="cls-2" d="M369.63,71.52H357.91v-1h11.72Zm-23.43,0H334.48v-1H346.2Zm-23.43,0H311.05v-1h11.72Zm-23.43,0H287.62v-1h11.72Z"/><polygon class="cls-2" points="387.84 77.02 386.84 77.02 386.84 71.52 381.34 71.52 381.34 70.52 387.84 70.52 387.84 77.02"/><path class="cls-2" d="M283,85.5a1.12,1.12,0,0,0,1.23,1.2,1.2,1.2,0,0,0,1.33-1.17c0-.61-.31-.89-1.4-1.25a3.44,3.44,0,0,1-1.41-.7,1.73,1.73,0,0,1-.54-1.31,2.07,2.07,0,0,1,4.13,0h-.87a1.3,1.3,0,0,0-.17-.72,1.21,1.21,0,0,0-1-.49,1.11,1.11,0,0,0-1.18,1.14,1,1,0,0,0,.4.8,4,4,0,0,0,1.11.49,3.17,3.17,0,0,1,1.38.75,1.79,1.79,0,0,1,.47,1.23,2,2,0,0,1-2.19,2,2,2,0,0,1-1.85-.93,1.68,1.68,0,0,1-.24-.91V85.5Z"/><path class="cls-2" d="M288.51,86.38c0,.24.07.29.36.29h.36v.69h-.73c-.57,0-.78-.22-.78-.75V83.26h-.67v-.7h.67V81.05h.79v1.51h.72v.7h-.72Z"/><path class="cls-2" d="M293.89,82.56h.79v4.8h-.79v-.93a2,2,0,0,1-1.75,1A2.29,2.29,0,0,1,289.88,85a2.33,2.33,0,0,1,2.28-2.53,2,2,0,0,1,1.73.9Zm-2.78,1.17a2.18,2.18,0,0,0-.4,1.27,1.65,1.65,0,0,0,1.54,1.79,1.78,1.78,0,0,0,1.65-1.88,1.61,1.61,0,0,0-1.63-1.75A1.28,1.28,0,0,0,291.11,83.73Z"/><path class="cls-2" d="M297.06,82.56v.81a1.34,1.34,0,0,1,.44-.63,1.48,1.48,0,0,1,.91-.29h.19v.8h-.22a1.25,1.25,0,0,0-1,.55,1.74,1.74,0,0,0-.28,1.13v2.44h-.79v-4.8Z"/><path class="cls-2" d="M300.64,86.38c0,.24.07.29.36.29h.37v.69h-.74c-.56,0-.78-.22-.78-.75V83.26h-.67v-.7h.67V81.05h.79v1.51h.73v.7h-.73Z"/><path class="cls-2" d="M306.41,82.56v.81a1.33,1.33,0,0,1,.43-.63,1.49,1.49,0,0,1,.92-.29H308v.8h-.22a1.23,1.23,0,0,0-1,.55,1.74,1.74,0,0,0-.28,1.13v2.44h-.8v-4.8Z"/><path class="cls-2" d="M309.21,85.22a1.47,1.47,0,0,0,.31.87,1.55,1.55,0,0,0,1.29.66,1.66,1.66,0,0,0,1.43-.83l.7.26a2.35,2.35,0,0,1-2.13,1.29,2.51,2.51,0,1,1,2.4-2.57c0,.07,0,.2,0,.32Zm3.16-.59a1.46,1.46,0,0,0-.27-.82,1.65,1.65,0,0,0-1.32-.65,1.55,1.55,0,0,0-1.29.66,1.84,1.84,0,0,0-.27.81Z"/><path class="cls-2" d="M318.09,86.77a2.48,2.48,0,0,1-1.77.7A2.33,2.33,0,0,1,314,85a2.42,2.42,0,0,1,4.14-1.81l-.51.51a1.72,1.72,0,0,0-1.21-.5A1.62,1.62,0,0,0,314.78,85a1.64,1.64,0,0,0,1.6,1.8,1.66,1.66,0,0,0,1.22-.53Z"/><path class="cls-2" d="M323.43,85A2.44,2.44,0,0,1,321,87.47,2.51,2.51,0,1,1,323.43,85Zm-4.07,0A1.63,1.63,0,0,0,321,86.75,1.64,1.64,0,0,0,322.62,85a1.64,1.64,0,1,0-3.26,0Z"/><path class="cls-2" d="M325.43,82.56v.81a1.27,1.27,0,0,1,.44-.63,1.48,1.48,0,0,1,.91-.29H327v.8h-.22a1.23,1.23,0,0,0-1,.55,1.74,1.74,0,0,0-.28,1.13v2.44h-.79v-4.8Z"/><path class="cls-2" d="M331.37,80.42h.79v6.94h-.79v-.82a2,2,0,0,1-1.72.93A2.28,2.28,0,0,1,327.4,85a2.34,2.34,0,0,1,2.25-2.54,2.07,2.07,0,0,1,1.72.84ZM328.23,85a1.61,1.61,0,0,0,1.54,1.79,1.66,1.66,0,0,0,1.6-1.81,1.61,1.61,0,0,0-1.55-1.82A1.64,1.64,0,0,0,328.23,85Z"/><path class="cls-2" d="M334.66,81.22a.5.5,0,0,1-.51.5.51.51,0,0,1,0-1A.51.51,0,0,1,334.66,81.22Zm-.11,6.14h-.79v-4.8h.79Z"/><path class="cls-2" d="M336.93,82.56v.68a1.65,1.65,0,0,1,1.43-.79,1.67,1.67,0,0,1,1.11.39,1.57,1.57,0,0,1,.4,1.28v3.24h-.79V84.3a1.33,1.33,0,0,0-.17-.82.93.93,0,0,0-.75-.32,1.19,1.19,0,0,0-.92.4,1.14,1.14,0,0,0-.31.88v2.92h-.79v-4.8Z"/><path class="cls-2" d="M345,82.56h.79v4.83a2.24,2.24,0,0,1-.63,1.76,2.46,2.46,0,0,1-1.77.63,2.69,2.69,0,0,1-2.12-.87l.54-.54a3,3,0,0,0,.46.42,2.37,2.37,0,0,0,1.12.28,1.75,1.75,0,0,0,1.25-.47,1.65,1.65,0,0,0,.36-1.15v-1a2,2,0,0,1-1.77,1A2.3,2.3,0,0,1,341,85a2.76,2.76,0,0,1,.76-2,2.07,2.07,0,0,1,1.52-.56,1.94,1.94,0,0,1,1.7.93ZM341.81,85a1.65,1.65,0,0,0,1.57,1.8,1.61,1.61,0,0,0,1.22-.59,1.9,1.9,0,0,0,.34-1.18,1.67,1.67,0,0,0-.37-1.27A1.59,1.59,0,0,0,341.81,85Z"/><path class="cls-2" d="M352.69,83.87v-.05c0-.45-.37-.73-.92-.73s-.87.27-.87.69.21.57,1.08.81a2.49,2.49,0,0,1,1.16.55,1.36,1.36,0,0,1,.39.94c0,.83-.69,1.39-1.71,1.39S350.11,87,350,86h.78a.89.89,0,0,0,1,.83c.54,0,.9-.28.9-.71s-.27-.62-1.1-.83c-1-.28-1.51-.72-1.51-1.45s.68-1.39,1.69-1.39a1.47,1.47,0,0,1,1.68,1.42Z"/><path class="cls-2" d="M355.2,85.22a1.48,1.48,0,0,0,.32.87,1.55,1.55,0,0,0,1.29.66,1.66,1.66,0,0,0,1.43-.83l.7.26a2.43,2.43,0,0,1-4.58-1.2,2.43,2.43,0,1,1,4.85-.08c0,.07,0,.2,0,.32Zm3.17-.59a1.54,1.54,0,0,0-.27-.82,1.67,1.67,0,0,0-1.33-.65,1.56,1.56,0,0,0-1.29.66,2.13,2.13,0,0,0-.27.81Z"/><path class="cls-2" d="M362.55,83.87v-.05c0-.45-.36-.73-.91-.73s-.87.27-.87.69.21.57,1.07.81a2.48,2.48,0,0,1,1.17.55,1.35,1.35,0,0,1,.38.94c0,.83-.68,1.39-1.7,1.39S360,87,359.9,86h.78a.88.88,0,0,0,1,.83c.54,0,.89-.28.89-.71s-.27-.62-1.09-.83c-1-.28-1.51-.72-1.51-1.45s.68-1.39,1.69-1.39a1.46,1.46,0,0,1,1.67,1.42Z"/><path class="cls-2" d="M366.83,83.87v-.05c0-.45-.37-.73-.92-.73s-.86.27-.86.69.21.57,1.07.81a2.54,2.54,0,0,1,1.17.55,1.39,1.39,0,0,1,.38.94c0,.83-.69,1.39-1.71,1.39A1.55,1.55,0,0,1,364.17,86H365a.89.89,0,0,0,1,.83c.54,0,.9-.28.9-.71s-.27-.62-1.09-.83c-1-.28-1.51-.72-1.51-1.45s.67-1.39,1.68-1.39,1.64.52,1.68,1.42Z"/><path class="cls-2" d="M369.79,81.22a.51.51,0,1,1-.5-.52A.51.51,0,0,1,369.79,81.22Zm-.11,6.14h-.79v-4.8h.79Z"/><path class="cls-2" d="M375.77,85a2.45,2.45,0,0,1-2.46,2.49A2.51,2.51,0,1,1,375.77,85Zm-4.07,0a1.62,1.62,0,0,0,1.63,1.78A1.65,1.65,0,0,0,375,85a1.64,1.64,0,1,0-3.26,0Z"/><path class="cls-2" d="M377.77,82.56v.68a1.63,1.63,0,0,1,1.42-.79,1.65,1.65,0,0,1,1.11.39,1.54,1.54,0,0,1,.41,1.28v3.24h-.79V84.3a1.25,1.25,0,0,0-.18-.82.9.9,0,0,0-.75-.32,1.18,1.18,0,0,0-.91.4,1.14,1.14,0,0,0-.31.88v2.92H377v-4.8Z"/><rect class="cls-3" x="269.91" y="105.97" width="117.44" height="26.6"/><polygon class="cls-2" points="387.84 133.07 381.34 133.07 381.34 132.07 386.84 132.07 386.84 126.57 387.84 126.57 387.84 133.07"/><path class="cls-2" d="M369.63,133.07H357.91v-1h11.72Zm-23.43,0H334.48v-1H346.2Zm-23.43,0H311.05v-1h11.72Zm-23.43,0H287.62v-1h11.72Z"/><polygon class="cls-2" points="275.91 133.07 269.41 133.07 269.41 126.57 270.41 126.57 270.41 132.07 275.91 132.07 275.91 133.07"/><polygon class="cls-2" points="270.41 111.97 269.41 111.97 269.41 105.47 275.91 105.47 275.91 106.47 270.41 106.47 270.41 111.97"/><path class="cls-2" d="M369.63,106.47H357.91v-1h11.72Zm-23.43,0H334.48v-1H346.2Zm-23.43,0H311.05v-1h11.72Zm-23.43,0H287.62v-1h11.72Z"/><polygon class="cls-2" points="387.84 111.97 386.84 111.97 386.84 106.47 381.34 106.47 381.34 105.47 387.84 105.47 387.84 111.97"/><path class="cls-2" d="M283.43,118.43h2.73v.75h-2.73v2.38h2.73v.75h-3.61v-7h3.61v.75h-2.73Z"/><path class="cls-2" d="M288.28,117.51v.67a1.63,1.63,0,0,1,1.42-.79,1.68,1.68,0,0,1,1.12.4,1.56,1.56,0,0,1,.4,1.28v3.24h-.79v-3.06a1.3,1.3,0,0,0-.18-.83.92.92,0,0,0-.74-.32,1.2,1.2,0,0,0-.92.41,1.13,1.13,0,0,0-.31.87v2.93h-.79v-4.8Z"/><path class="cls-2" d="M296.4,117.51h.8v4.8h-.8v-.93a2,2,0,0,1-1.74,1,2.3,2.3,0,0,1-2.26-2.5,2.34,2.34,0,0,1,2.28-2.53,2,2,0,0,1,1.72.91Zm-2.77,1.16a2.23,2.23,0,0,0-.4,1.27,1.65,1.65,0,0,0,1.54,1.79,1.77,1.77,0,0,0,1.65-1.87,1.62,1.62,0,0,0-1.63-1.76A1.31,1.31,0,0,0,293.63,118.67Z"/><path class="cls-2" d="M299.58,122.31h-.79v-7h.79v3a2,2,0,0,1,1.69-.94,2.3,2.3,0,0,1,2.27,2.53,2.28,2.28,0,0,1-2.23,2.5,2,2,0,0,1-1.73-.94Zm0-2.4a1.59,1.59,0,1,0,3.14,0,1.59,1.59,0,1,0-3.14,0Z"/><path class="cls-2" d="M304.75,122.31v-7h.79v7Z"/><path class="cls-2" d="M307.59,120.16a1.54,1.54,0,0,0,.31.88,1.58,1.58,0,0,0,1.29.65,1.65,1.65,0,0,0,1.44-.82l.7.26a2.43,2.43,0,0,1-4.58-1.21,2.43,2.43,0,1,1,4.85-.07c0,.06,0,.2,0,.31Zm3.17-.58a1.51,1.51,0,0,0-.28-.82,1.63,1.63,0,0,0-1.32-.66,1.53,1.53,0,0,0-1.29.67,1.92,1.92,0,0,0-.27.81Z"/><path class="cls-2" d="M319.49,117.51h.79v4.8h-.79v-.93a2,2,0,0,1-1.75,1,2.3,2.3,0,0,1-2.26-2.5,2.34,2.34,0,0,1,2.28-2.53,2,2,0,0,1,1.73.91Zm-2.78,1.16a2.23,2.23,0,0,0-.4,1.27,1.65,1.65,0,0,0,1.54,1.79,1.77,1.77,0,0,0,1.65-1.87,1.62,1.62,0,0,0-1.63-1.76A1.31,1.31,0,0,0,316.71,118.67Z"/><path class="cls-2" d="M325.46,117.51v3.07a1.57,1.57,0,0,1-.48,1.34,2,2,0,0,1-1.38.5,2.06,2.06,0,0,1-1.39-.51,1.76,1.76,0,0,1-.48-1.33v-3.07h.8v3a1.06,1.06,0,0,0,1.07,1.15,1.13,1.13,0,0,0,.85-.36,1.06,1.06,0,0,0,.21-.77v-3.07Z"/><path class="cls-2" d="M330.51,115.36h.79v7h-.79v-.83a2,2,0,0,1-1.72.94,2.29,2.29,0,0,1-2.26-2.49,2.35,2.35,0,0,1,2.26-2.54,2,2,0,0,1,1.72.85Zm-3.15,4.58a1.61,1.61,0,0,0,1.54,1.79,1.67,1.67,0,0,0,1.61-1.81A1.62,1.62,0,0,0,329,118.1,1.65,1.65,0,0,0,327.36,119.94Z"/><path class="cls-2" d="M333.8,116.17a.5.5,0,0,1-.51.5.51.51,0,1,1,.51-.5Zm-.12,6.14h-.79v-4.8h.79Z"/><path class="cls-2" d="M339.77,119.92a2.45,2.45,0,0,1-2.46,2.5,2.52,2.52,0,1,1,2.46-2.5Zm-4.07,0a1.63,1.63,0,0,0,1.64,1.78,1.64,1.64,0,0,0,1.62-1.78,1.64,1.64,0,1,0-3.26,0Z"/><rect class="cls-3" x="269.91" y="36.08" width="117.44" height="26.6"/><polygon class="cls-2" points="387.84 63.18 381.34 63.18 381.34 62.18 386.84 62.18 386.84 56.68 387.84 56.68 387.84 63.18"/><path class="cls-2" d="M369.63,63.18H357.91v-1h11.72Zm-23.43,0H334.48v-1H346.2Zm-23.43,0H311.05v-1h11.72Zm-23.43,0H287.62v-1h11.72Z"/><polygon class="cls-2" points="275.91 63.18 269.41 63.18 269.41 56.68 270.41 56.68 270.41 62.18 275.91 62.18 275.91 63.18"/><polygon class="cls-2" points="270.41 42.08 269.41 42.08 269.41 35.58 275.91 35.58 275.91 36.58 270.41 36.58 270.41 42.08"/><path class="cls-2" d="M369.63,36.58H357.91v-1h11.72Zm-23.43,0H334.48v-1H346.2Zm-23.43,0H311.05v-1h11.72Zm-23.43,0H287.62v-1h11.72Z"/><polygon class="cls-2" points="387.84 42.08 386.84 42.08 386.84 36.58 381.34 36.58 381.34 35.58 387.84 35.58 387.84 42.08"/><path class="cls-2" d="M283.51,52.41h-.87V45.47h.87Z"/><path class="cls-2" d="M286,47.62v.67a1.63,1.63,0,0,1,1.42-.79,1.7,1.7,0,0,1,1.12.4,1.56,1.56,0,0,1,.4,1.28v3.23h-.79V49.35a1.29,1.29,0,0,0-.18-.82.9.9,0,0,0-.75-.32,1.18,1.18,0,0,0-.91.4,1.14,1.14,0,0,0-.31.88v2.92h-.79V47.62Z"/><path class="cls-2" d="M294,47.62l-1.81,4.79h-.83l-1.76-4.79h.83l1.35,3.66,1.4-3.66Z"/><path class="cls-2" d="M295.74,46.27a.5.5,0,0,1-.51.5.51.51,0,0,1,0-1A.51.51,0,0,1,295.74,46.27Zm-.12,6.14h-.79V47.62h.79Z"/><path class="cls-2" d="M298.06,51.43c0,.24.07.3.36.3h.37v.68h-.74c-.56,0-.78-.22-.78-.75V48.31h-.67v-.69h.67V46.11h.79v1.51h.73v.69h-.73Z"/><path class="cls-2" d="M300.28,50.27a1.47,1.47,0,0,0,.31.87,1.55,1.55,0,0,0,1.29.66,1.68,1.68,0,0,0,1.44-.82l.69.26a2.34,2.34,0,0,1-2.13,1.29,2.52,2.52,0,1,1,2.4-2.57c0,.06,0,.2,0,.31Zm3.16-.58a1.46,1.46,0,0,0-.27-.83,1.65,1.65,0,0,0-1.32-.65,1.53,1.53,0,0,0-1.29.67,1.75,1.75,0,0,0-.27.81Z"/><path class="cls-2" d="M312.29,51.82a2.49,2.49,0,0,1-1.77.71,2.52,2.52,0,0,1,0-5,2.37,2.37,0,0,1,1.75.72l-.51.51a1.79,1.79,0,0,0-1.22-.5,1.8,1.8,0,0,0,0,3.57,1.7,1.7,0,0,0,1.23-.52Z"/><path class="cls-2" d="M317.62,50a2.45,2.45,0,0,1-2.45,2.5,2.52,2.52,0,1,1,2.45-2.5Zm-4.06,0a1.62,1.62,0,0,0,1.63,1.78A1.64,1.64,0,0,0,316.81,50a1.63,1.63,0,1,0-3.25,0Z"/><path class="cls-2" d="M318.83,52.41V45.47h.79v6.94Z"/><path class="cls-2" d="M321.22,52.41V45.47H322v6.94Z"/><path class="cls-2" d="M327.22,47.62H328v4.79h-.79v-.92a2,2,0,0,1-1.75,1,2.3,2.3,0,0,1-2.26-2.5,2.33,2.33,0,0,1,2.28-2.53,2,2,0,0,1,1.73.91Zm-2.78,1.16a2.17,2.17,0,0,0-.39,1.27,1.64,1.64,0,0,0,1.54,1.79A1.77,1.77,0,0,0,327.23,50a1.62,1.62,0,0,0-1.62-1.76A1.32,1.32,0,0,0,324.44,48.78Z"/><path class="cls-2" d="M330.39,52.41h-.79V45.47h.79v3a2,2,0,0,1,1.69-.94A2.31,2.31,0,0,1,334.36,50a2.28,2.28,0,0,1-2.24,2.5,2,2,0,0,1-1.73-.94Zm0-2.39a1.59,1.59,0,1,0,3.15,0,1.59,1.59,0,1,0-3.15,0Z"/><path class="cls-2" d="M340.06,50a2.45,2.45,0,0,1-2.45,2.5,2.52,2.52,0,1,1,2.45-2.5ZM336,50a1.63,1.63,0,0,0,1.64,1.78A1.64,1.64,0,0,0,339.25,50a1.61,1.61,0,0,0-1.61-1.79A1.63,1.63,0,0,0,336,50Z"/><path class="cls-2" d="M342.06,47.62v.81a1.38,1.38,0,0,1,.44-.64,1.54,1.54,0,0,1,.91-.29h.19v.8h-.22a1.23,1.23,0,0,0-1,.55,1.78,1.78,0,0,0-.28,1.14v2.43h-.79V47.62Z"/><path class="cls-2" d="M348,47.62h.79v4.79H348v-.92a2,2,0,0,1-1.75,1A2.29,2.29,0,0,1,344,50a2.33,2.33,0,0,1,2.28-2.53,2,2,0,0,1,1.72.91Zm-2.78,1.16a2.17,2.17,0,0,0-.39,1.27,1.64,1.64,0,0,0,1.54,1.79A1.77,1.77,0,0,0,348,50a1.62,1.62,0,0,0-1.62-1.76A1.34,1.34,0,0,0,345.25,48.78Z"/><path class="cls-2" d="M351.23,51.43c0,.24.07.3.36.3H352v.68h-.74c-.56,0-.78-.22-.78-.75V48.31h-.67v-.69h.67V46.11h.79v1.51H352v.69h-.73Z"/><path class="cls-2" d="M357.48,50a2.45,2.45,0,0,1-2.45,2.5,2.52,2.52,0,1,1,2.45-2.5Zm-4.07,0a1.64,1.64,0,1,0,1.65-1.79A1.63,1.63,0,0,0,353.41,50Z"/><path class="cls-2" d="M359.48,47.62v.81a1.38,1.38,0,0,1,.44-.64,1.54,1.54,0,0,1,.91-.29H361v.8h-.22a1.25,1.25,0,0,0-1,.55,1.78,1.78,0,0,0-.28,1.14v2.43h-.79V47.62Z"/><path class="cls-2" d="M364.24,48.93v0c0-.45-.37-.73-.92-.73s-.86.27-.86.68.21.58,1.07.81a2.43,2.43,0,0,1,1.16.56,1.33,1.33,0,0,1,.39.93c0,.84-.69,1.4-1.71,1.4a1.56,1.56,0,0,1-1.79-1.48h.78a.89.89,0,0,0,1,.83c.54,0,.9-.28.9-.71s-.27-.62-1.09-.83c-1.05-.28-1.51-.72-1.51-1.44s.67-1.4,1.68-1.4A1.47,1.47,0,0,1,365,48.93Z"/><path class="cls-2" d="M16.9,78.46c0,.14,0,.33,0,.39a3.35,3.35,0,0,1-3.33,3.49,3.6,3.6,0,0,1,0-7.19,3.25,3.25,0,0,1,2.61,1.26l-.66.53a2.75,2.75,0,0,0-.58-.55A2.33,2.33,0,0,0,13.58,76a2.81,2.81,0,0,0,0,5.59,2.54,2.54,0,0,0,2-1A2.46,2.46,0,0,0,16,79.21H13.59v-.75Z"/><path class="cls-2" d="M18.6,80.07a1.55,1.55,0,0,0,.32.88,1.57,1.57,0,0,0,1.29.65,1.65,1.65,0,0,0,1.43-.82l.7.26a2.35,2.35,0,0,1-2.13,1.29,2.52,2.52,0,1,1,2.4-2.57c0,.06,0,.2,0,.31Zm3.17-.58a1.51,1.51,0,0,0-.27-.82A1.63,1.63,0,0,0,20.18,78a1.53,1.53,0,0,0-1.29.67,1.79,1.79,0,0,0-.27.81Z"/><path class="cls-2" d="M24.52,81.24c0,.24.07.29.36.29h.36v.68h-.73c-.57,0-.79-.21-.79-.74V78.11h-.66v-.69h.66V75.91h.8v1.51h.72v.69h-.72Z"/><path class="cls-2" d="M30.4,76.07a.5.5,0,0,1-.51.5.49.49,0,0,1-.5-.51.49.49,0,0,1,.51-.51A.51.51,0,0,1,30.4,76.07Zm-.12,6.14h-.79V77.42h.79Z"/><path class="cls-2" d="M32.66,77.42v.67a1.71,1.71,0,0,1,2.54-.39A1.52,1.52,0,0,1,35.61,79v3.23h-.79v-3a1.3,1.3,0,0,0-.18-.83.94.94,0,0,0-.75-.32,1.19,1.19,0,0,0-.91.41,1.13,1.13,0,0,0-.32.87v2.92h-.79V77.42Z"/><path class="cls-2" d="M40.71,77.42,38.9,82.21h-.83l-1.76-4.79h.83l1.35,3.66,1.4-3.66Z"/><path class="cls-2" d="M42.45,76.07a.5.5,0,0,1-.51.5.49.49,0,0,1-.5-.51.5.5,0,0,1,.51-.51A.51.51,0,0,1,42.45,76.07Zm-.12,6.14h-.79V77.42h.79Z"/><path class="cls-2" d="M44.77,81.24c0,.24.07.29.36.29h.37v.68h-.74c-.57,0-.78-.21-.78-.74V78.11h-.67v-.69H44V75.91h.79v1.51h.73v.69h-.73Z"/><path class="cls-2" d="M50.15,77.42h.79v4.79h-.79v-.92a2,2,0,0,1-1.75,1,2.3,2.3,0,0,1-2.26-2.5,2.33,2.33,0,0,1,2.28-2.53,2,2,0,0,1,1.73.91Zm-2.78,1.16a2.2,2.2,0,0,0-.4,1.27,1.65,1.65,0,0,0,1.54,1.79,1.77,1.77,0,0,0,1.65-1.87A1.62,1.62,0,0,0,48.53,78,1.31,1.31,0,0,0,47.37,78.58Z"/><path class="cls-2" d="M53.34,81.24c0,.24.08.29.37.29h.36v.68h-.74c-.56,0-.78-.21-.78-.74V78.11h-.66v-.69h.66V75.91h.79v1.51h.73v.69h-.73Z"/><path class="cls-2" d="M56,76.07a.5.5,0,0,1-.51.5.49.49,0,0,1-.5-.51.5.5,0,0,1,.51-.51A.51.51,0,0,1,56,76.07Zm-.12,6.14h-.79V77.42h.79Z"/><path class="cls-2" d="M62,79.83a2.45,2.45,0,0,1-2.45,2.5A2.52,2.52,0,1,1,62,79.83Zm-4.07,0a1.63,1.63,0,0,0,1.64,1.78,1.64,1.64,0,0,0,1.62-1.78,1.64,1.64,0,1,0-3.26,0Z"/><path class="cls-2" d="M64,77.42v.67a1.64,1.64,0,0,1,1.42-.79,1.68,1.68,0,0,1,1.12.4,1.56,1.56,0,0,1,.4,1.28v3.23h-.79v-3a1.39,1.39,0,0,0-.17-.83,1,1,0,0,0-.75-.32,1.2,1.2,0,0,0-.92.41,1.13,1.13,0,0,0-.31.87v2.92h-.79V77.42Z"/><path class="cls-2" d="M11.33,93.73c0,.23.07.29.36.29h.37v.68h-.74c-.56,0-.78-.22-.78-.75V90.6H9.87v-.69h.67V88.4h.79v1.51h.73v.69h-.73Z"/><path class="cls-2" d="M17.58,92.32a2.45,2.45,0,0,1-2.45,2.5,2.52,2.52,0,1,1,2.45-2.5Zm-4.06,0a1.62,1.62,0,0,0,1.63,1.78,1.64,1.64,0,0,0,1.62-1.78,1.63,1.63,0,1,0-3.25,0Z"/><path class="cls-2" d="M25.65,94.11a2.45,2.45,0,0,1-1.77.71,2.52,2.52,0,0,1,0-5,2.37,2.37,0,0,1,1.75.72l-.51.51a1.77,1.77,0,0,0-1.22-.5,1.8,1.8,0,0,0,0,3.57,1.69,1.69,0,0,0,1.23-.52Z"/><path class="cls-2" d="M31,92.32a2.45,2.45,0,0,1-2.46,2.5A2.52,2.52,0,1,1,31,92.32Zm-4.07,0a1.62,1.62,0,0,0,1.63,1.78,1.65,1.65,0,0,0,1.63-1.78,1.64,1.64,0,1,0-3.26,0Z"/><path class="cls-2" d="M32.2,94.7V87.76H33V94.7Z"/><path class="cls-2" d="M34.58,94.7V87.76h.79V94.7Z"/><path class="cls-2" d="M40.58,89.91h.79V94.7h-.79v-.92a2,2,0,0,1-1.74,1,2.29,2.29,0,0,1-2.26-2.5,2.33,2.33,0,0,1,2.28-2.53,2,2,0,0,1,1.72.91ZM37.8,91.07a2.25,2.25,0,0,0-.39,1.27A1.65,1.65,0,0,0,39,94.13a1.77,1.77,0,0,0,1.64-1.87A1.62,1.62,0,0,0,39,90.5,1.34,1.34,0,0,0,37.8,91.07Z"/><path class="cls-2" d="M43.76,94.7H43V87.76h.79v3a1.94,1.94,0,0,1,1.68-.94,2.31,2.31,0,0,1,2.28,2.53,2.28,2.28,0,0,1-2.24,2.5,2,2,0,0,1-1.72-.94Zm0-2.39a1.59,1.59,0,1,0,3.14,0,1.59,1.59,0,1,0-3.14,0Z"/><path class="cls-2" d="M53.43,92.32A2.45,2.45,0,0,1,51,94.82a2.52,2.52,0,1,1,2.46-2.5Zm-4.07,0A1.62,1.62,0,0,0,51,94.09a1.64,1.64,0,0,0,1.62-1.78,1.63,1.63,0,1,0-3.25,0Z"/><path class="cls-2" d="M55.42,89.91v.81a1.38,1.38,0,0,1,.44-.64,1.55,1.55,0,0,1,.92-.29H57v.8h-.21a1.25,1.25,0,0,0-1,.55,1.85,1.85,0,0,0-.28,1.14V94.7h-.79V89.91Z"/><path class="cls-2" d="M61.4,89.91h.79V94.7H61.4v-.92a2,2,0,0,1-1.75,1,2.3,2.3,0,0,1-2.26-2.5,2.33,2.33,0,0,1,2.28-2.53,2,2,0,0,1,1.73.91Zm-2.78,1.16a2.18,2.18,0,0,0-.4,1.27,1.65,1.65,0,0,0,1.54,1.79,1.77,1.77,0,0,0,1.65-1.87,1.62,1.62,0,0,0-1.63-1.76A1.31,1.31,0,0,0,58.62,91.07Z"/><path class="cls-2" d="M64.59,93.73c0,.23.08.29.37.29h.36v.68h-.74c-.56,0-.78-.22-.78-.75V90.6h-.66v-.69h.66V88.4h.79v1.51h.73v.69h-.73Z"/><path class="cls-2" d="M66.81,92.56a1.45,1.45,0,0,0,.31.87,1.55,1.55,0,0,0,1.29.66,1.65,1.65,0,0,0,1.44-.82l.7.26a2.47,2.47,0,1,1-2.17-3.74,2.39,2.39,0,0,1,2.44,2.46c0,.06,0,.2,0,.31ZM70,92a1.46,1.46,0,0,0-.27-.83,1.65,1.65,0,0,0-1.32-.65,1.55,1.55,0,0,0-1.29.66,1.84,1.84,0,0,0-.27.82Z"/><path class="cls-2" d="M15.43,27.9h1.84a3.09,3.09,0,0,1,3.35,3.36A3.63,3.63,0,0,1,19.53,34a3.5,3.5,0,0,1-2.42.8H15.43Zm.87,6.19h.31a3.06,3.06,0,0,0,2.18-.52,2.78,2.78,0,0,0,.93-2.3,2.32,2.32,0,0,0-2.48-2.63H16.3Z"/><path class="cls-2" d="M25.53,30.05h.79v4.79h-.79v-.92a2,2,0,0,1-1.75,1,2.3,2.3,0,0,1-2.26-2.5,2.33,2.33,0,0,1,2.28-2.53,2,2,0,0,1,1.73.91Zm-2.78,1.16a2.17,2.17,0,0,0-.39,1.27,1.64,1.64,0,0,0,1.54,1.79,1.77,1.77,0,0,0,1.64-1.87,1.62,1.62,0,0,0-1.62-1.76A1.32,1.32,0,0,0,22.75,31.21Z"/><path class="cls-2" d="M30.12,31.36v-.05c0-.45-.36-.73-.92-.73s-.86.27-.86.68.21.58,1.07.82a2.39,2.39,0,0,1,1.17.55,1.32,1.32,0,0,1,.38.93c0,.84-.68,1.4-1.7,1.4s-1.71-.51-1.79-1.48h.78a.88.88,0,0,0,1,.83c.54,0,.89-.28.89-.7s-.27-.63-1.09-.84c-1-.28-1.51-.72-1.51-1.44s.68-1.4,1.69-1.4a1.46,1.46,0,0,1,1.67,1.43Z"/><path class="cls-2" d="M33,30.71a1.78,1.78,0,0,1,1.45-.78,1.61,1.61,0,0,1,1.11.44,1.64,1.64,0,0,1,.38,1.25v3.22h-.79V31.66c0-.66-.33-1-.9-1a1.21,1.21,0,0,0-.94.43A1.24,1.24,0,0,0,33,32v2.81h-.79V27.9H33Z"/><path class="cls-2" d="M41.38,34.84h-.79V27.9h.79v3a2,2,0,0,1,1.69-.94,2.31,2.31,0,0,1,2.28,2.53A2.28,2.28,0,0,1,43.11,35,2,2,0,0,1,41.38,34Zm0-2.39a1.59,1.59,0,1,0,3.14,0,1.59,1.59,0,1,0-3.14,0Z"/><path class="cls-2" d="M51.05,32.46A2.45,2.45,0,0,1,48.59,35a2.52,2.52,0,1,1,2.46-2.5Zm-4.07,0a1.62,1.62,0,0,0,1.63,1.78,1.65,1.65,0,0,0,1.63-1.78,1.64,1.64,0,1,0-3.26,0Z"/><path class="cls-2" d="M55.88,30.05h.79v4.79h-.79v-.92a2,2,0,0,1-1.75,1,2.3,2.3,0,0,1-2.26-2.5,2.33,2.33,0,0,1,2.28-2.53,2,2,0,0,1,1.73.91ZM53.1,31.21a2.18,2.18,0,0,0-.4,1.27,1.65,1.65,0,0,0,1.54,1.79,1.77,1.77,0,0,0,1.65-1.87,1.62,1.62,0,0,0-1.63-1.76A1.31,1.31,0,0,0,53.1,31.21Z"/><path class="cls-2" d="M59.05,30.05v.81a1.38,1.38,0,0,1,.44-.64,1.54,1.54,0,0,1,.91-.29h.19v.8h-.22a1.25,1.25,0,0,0-1,.55,1.78,1.78,0,0,0-.28,1.14v2.43h-.79V30.05Z"/><path class="cls-2" d="M65,27.9h.79v6.94H65V34a2,2,0,0,1-1.71.94A2.28,2.28,0,0,1,61,32.47a2.35,2.35,0,0,1,2.26-2.54,2,2,0,0,1,1.71.84Zm-3.14,4.58a1.61,1.61,0,0,0,1.54,1.79A1.66,1.66,0,0,0,65,32.46a1.62,1.62,0,0,0-1.55-1.82A1.65,1.65,0,0,0,61.85,32.48Z"/><path class="cls-2" d="M13.9,135.44H13V128.5h.88Z"/><path class="cls-2" d="M16.34,130.64v.68a1.65,1.65,0,0,1,1.43-.79,1.67,1.67,0,0,1,1.11.39,1.57,1.57,0,0,1,.41,1.28v3.24H18.5v-3.06a1.32,1.32,0,0,0-.18-.82.93.93,0,0,0-.75-.32,1.21,1.21,0,0,0-.92.4,1.17,1.17,0,0,0-.31.88v2.92h-.79v-4.8Z"/><path class="cls-2" d="M24.39,130.64l-1.81,4.8h-.84L20,130.64h.84l1.35,3.67,1.39-3.67Z"/><path class="cls-2" d="M26.13,129.3a.5.5,0,0,1-.51.5.51.51,0,0,1,0-1A.51.51,0,0,1,26.13,129.3ZM26,135.44h-.79v-4.8H26Z"/><path class="cls-2" d="M28.45,134.46c0,.24.07.29.36.29h.36v.69h-.73c-.57,0-.79-.22-.79-.75v-3.35H27v-.7h.66v-1.51h.8v1.51h.72v.7h-.72Z"/><path class="cls-2" d="M30.66,133.3a1.54,1.54,0,0,0,.31.87,1.57,1.57,0,0,0,1.3.66A1.66,1.66,0,0,0,33.7,134l.7.26a2.34,2.34,0,0,1-2.13,1.29,2.51,2.51,0,1,1,2.4-2.57c0,.07,0,.2,0,.32Zm3.17-.59a1.63,1.63,0,0,0-.27-.82,1.69,1.69,0,0,0-1.33-.65,1.55,1.55,0,0,0-1.29.66,2.13,2.13,0,0,0-.27.81Z"/><path class="cls-2" d="M39.73,130.64v.88a1.84,1.84,0,0,1,1.74-1A2.27,2.27,0,0,1,43.73,133a2.29,2.29,0,0,1-3.31,2.3,1.68,1.68,0,0,1-.69-.61v3h-.79v-7.05Zm0,2.48a1.58,1.58,0,0,0,1.58,1.75A1.63,1.63,0,0,0,42.89,133a1.85,1.85,0,0,0-.42-1.3,1.51,1.51,0,0,0-1.13-.5A1.67,1.67,0,0,0,39.73,133.12Z"/><path class="cls-2" d="M45.39,133.3a1.47,1.47,0,0,0,.31.87,1.55,1.55,0,0,0,1.29.66,1.68,1.68,0,0,0,1.44-.83l.69.26A2.32,2.32,0,0,1,47,135.55a2.51,2.51,0,1,1,2.4-2.57c0,.07,0,.2,0,.32Zm3.16-.59a1.46,1.46,0,0,0-.27-.82,1.65,1.65,0,0,0-1.32-.65,1.55,1.55,0,0,0-1.29.66,1.84,1.84,0,0,0-.27.81Z"/><path class="cls-2" d="M55,133.06a2.44,2.44,0,0,1-2.45,2.49A2.51,2.51,0,1,1,55,133.06Zm-4.06,0a1.62,1.62,0,0,0,1.63,1.78,1.64,1.64,0,0,0,1.62-1.78,1.63,1.63,0,1,0-3.25,0Z"/><path class="cls-2" d="M57,130.64v.88a1.86,1.86,0,0,1,1.75-1A2.27,2.27,0,0,1,61,133a2.31,2.31,0,0,1-2.26,2.55,2.26,2.26,0,0,1-1.05-.25,1.7,1.7,0,0,1-.7-.61v3h-.79v-7.05Zm0,2.48a1.58,1.58,0,0,0,1.58,1.75A1.63,1.63,0,0,0,60.2,133a1.85,1.85,0,0,0-.42-1.3,1.52,1.52,0,0,0-1.13-.5A1.68,1.68,0,0,0,57,133.12Z"/><path class="cls-2" d="M62.24,135.44V128.5H63v6.94Z"/><path class="cls-2" d="M65.08,133.3a1.47,1.47,0,0,0,.31.87,1.55,1.55,0,0,0,1.29.66,1.68,1.68,0,0,0,1.44-.83l.69.26a2.32,2.32,0,0,1-2.13,1.29,2.51,2.51,0,1,1,2.4-2.57c0,.07,0,.2,0,.32Zm3.16-.59a1.46,1.46,0,0,0-.27-.82,1.65,1.65,0,0,0-1.32-.65,1.55,1.55,0,0,0-1.29.66,1.84,1.84,0,0,0-.27.81Z"/><path class="cls-2" d="M13.79,147c0,.24.08.29.37.29h.36v.69h-.74c-.56,0-.78-.22-.78-.75v-3.35h-.66v-.7H13v-1.51h.79v1.51h.73v.7h-.73Z"/><path class="cls-2" d="M20.05,145.54a2.45,2.45,0,0,1-2.46,2.5,2.51,2.51,0,1,1,2.46-2.5Zm-4.07,0a1.61,1.61,0,0,0,1.63,1.77,1.63,1.63,0,0,0,1.62-1.77,1.63,1.63,0,1,0-3.25,0Z"/><path class="cls-2" d="M28.11,147.33a2.45,2.45,0,0,1-1.77.71,2.51,2.51,0,0,1,0-5,2.4,2.4,0,0,1,1.75.71l-.51.51a1.75,1.75,0,0,0-1.21-.49,1.61,1.61,0,0,0-1.61,1.76,1.63,1.63,0,0,0,2.82,1.28Z"/><path class="cls-2" d="M33.45,145.54A2.45,2.45,0,0,1,31,148a2.51,2.51,0,1,1,2.45-2.5Zm-4.07,0A1.62,1.62,0,0,0,31,147.31a1.64,1.64,0,0,0,1.62-1.77,1.64,1.64,0,1,0-3.26,0Z"/><path class="cls-2" d="M34.66,147.93V141h.79v6.94Z"/><path class="cls-2" d="M37,147.93V141h.79v6.94Z"/><path class="cls-2" d="M43.05,143.13h.79v4.8h-.79V147a2,2,0,0,1-1.75,1,2.3,2.3,0,0,1-2.26-2.5A2.33,2.33,0,0,1,41.32,143a2,2,0,0,1,1.73.9Zm-2.78,1.17a2.18,2.18,0,0,0-.4,1.27,1.65,1.65,0,0,0,1.54,1.79,1.78,1.78,0,0,0,1.65-1.88,1.62,1.62,0,0,0-1.63-1.76A1.29,1.29,0,0,0,40.27,144.3Z"/><path class="cls-2" d="M46.22,147.93h-.79V141h.79v3a2,2,0,0,1,1.69-.93,2.31,2.31,0,0,1,2.28,2.52A2.28,2.28,0,0,1,48,148a2,2,0,0,1-1.73-.93Zm0-2.39a1.59,1.59,0,1,0,3.14,0,1.59,1.59,0,1,0-3.14,0Z"/><path class="cls-2" d="M55.89,145.54a2.45,2.45,0,0,1-2.46,2.5,2.51,2.51,0,1,1,2.46-2.5Zm-4.07,0a1.61,1.61,0,0,0,1.63,1.77,1.64,1.64,0,0,0,1.63-1.77,1.64,1.64,0,1,0-3.26,0Z"/><path class="cls-2" d="M57.89,143.13v.81a1.33,1.33,0,0,1,.43-.63,1.51,1.51,0,0,1,.92-.29h.19v.8h-.22a1.21,1.21,0,0,0-1,.55,1.74,1.74,0,0,0-.28,1.13v2.44H57.1v-4.8Z"/><path class="cls-2" d="M63.86,143.13h.79v4.8h-.79V147a2,2,0,0,1-1.75,1,2.3,2.3,0,0,1-2.26-2.5A2.33,2.33,0,0,1,62.13,143a2,2,0,0,1,1.73.9Zm-2.78,1.17a2.17,2.17,0,0,0-.39,1.27,1.64,1.64,0,0,0,1.54,1.79,1.78,1.78,0,0,0,1.64-1.88,1.62,1.62,0,0,0-1.62-1.76A1.31,1.31,0,0,0,61.08,144.3Z"/><path class="cls-2" d="M67.05,147c0,.24.08.29.37.29h.36v.69H67c-.56,0-.78-.22-.78-.75v-3.35H65.6v-.7h.66v-1.51h.79v1.51h.73v.7h-.73Z"/><path class="cls-2" d="M69.27,145.79a1.54,1.54,0,0,0,.31.87,1.56,1.56,0,0,0,1.29.65,1.65,1.65,0,0,0,1.44-.82l.7.26a2.58,2.58,0,1,1,.27-1.28c0,.07,0,.2,0,.32Zm3.17-.59a1.54,1.54,0,0,0-.28-.82,1.63,1.63,0,0,0-1.32-.66,1.53,1.53,0,0,0-1.29.67,2,2,0,0,0-.27.81Z"/><path class="cls-2" d="M561.33,79.94a2.72,2.72,0,0,0,1.39.42c.77,0,1.13-.38,1.13-.86s-.3-.78-1.08-1.07c-1-.37-1.53-1-1.53-1.64a1.79,1.79,0,0,1,2-1.71,2.94,2.94,0,0,1,1.43.36l-.27.77a2.32,2.32,0,0,0-1.19-.33c-.62,0-1,.36-1,.79s.35.69,1.11,1c1,.38,1.52.89,1.52,1.75,0,1-.79,1.74-2.17,1.74a3.41,3.41,0,0,1-1.63-.39Z"/><path class="cls-2" d="M566.82,78.31a1.86,1.86,0,0,0,2,2,3.91,3.91,0,0,0,1.6-.3l.18.75a4.63,4.63,0,0,1-1.93.36,2.69,2.69,0,0,1-2.85-2.93c0-1.75,1-3.13,2.72-3.13a2.46,2.46,0,0,1,2.4,2.74,4.35,4.35,0,0,1,0,.49Zm3.09-.75a1.51,1.51,0,0,0-1.46-1.72,1.74,1.74,0,0,0-1.62,1.72Z"/><path class="cls-2" d="M572.24,72.51h1V81h-1Z"/><path class="cls-2" d="M575.66,78.31a1.86,1.86,0,0,0,2,2,4,4,0,0,0,1.61-.3l.18.75a4.67,4.67,0,0,1-1.93.36,2.7,2.7,0,0,1-2.86-2.93c0-1.75,1-3.13,2.72-3.13a2.46,2.46,0,0,1,2.4,2.74,4.88,4.88,0,0,1,0,.49Zm3.09-.75a1.49,1.49,0,0,0-1.46-1.72,1.74,1.74,0,0,0-1.62,1.72Z"/><path class="cls-2" d="M585.22,80.81a4,4,0,0,1-1.67.33,2.76,2.76,0,0,1-2.89-3,3,3,0,0,1,3.12-3.08,3.45,3.45,0,0,1,1.47.3l-.24.81a2.54,2.54,0,0,0-1.23-.27,2.19,2.19,0,0,0,0,4.36A2.86,2.86,0,0,0,585,80Z"/><path class="cls-2" d="M587.89,73.55v1.67h1.51V76h-1.51v3.13c0,.72.2,1.13.79,1.13a2.68,2.68,0,0,0,.61-.07l.05.79a2.73,2.73,0,0,1-.94.14,1.49,1.49,0,0,1-1.14-.44,2.15,2.15,0,0,1-.4-1.51V76H586v-.8h.9v-1.4Z"/><path class="cls-2" d="M568.62,88v1.67h1.51v.8h-1.51v3.13c0,.72.2,1.13.79,1.13a2.6,2.6,0,0,0,.61-.07l.05.79a2.67,2.67,0,0,1-.93.14A1.44,1.44,0,0,1,568,95.1a2.15,2.15,0,0,1-.41-1.51V90.42h-.9v-.8h.9V88.23Z"/><path class="cls-2" d="M576.5,92.47a2.83,2.83,0,0,1-2.89,3.08,2.76,2.76,0,0,1-2.78-3,2.84,2.84,0,0,1,2.88-3.09A2.75,2.75,0,0,1,576.5,92.47Zm-4.6.06c0,1.27.73,2.23,1.76,2.23s1.76-1,1.76-2.25c0-1-.49-2.23-1.74-2.23S571.9,91.43,571.9,92.53Z"/><path class="cls-2" d="M583.09,92.47a2.83,2.83,0,0,1-2.89,3.08,2.76,2.76,0,0,1-2.78-3,2.84,2.84,0,0,1,2.88-3.09A2.76,2.76,0,0,1,583.09,92.47Zm-4.61.06c0,1.27.74,2.23,1.77,2.23s1.76-1,1.76-2.25c0-1-.49-2.23-1.74-2.23S578.48,91.43,578.48,92.53Z"/><path class="cls-2" d="M584.42,86.91h1.06v8.51h-1.06Z"/><rect class="cls-4" x="556.25" y="64.15" width="40.35" height="40.35" transform="translate(109.21 432.29) rotate(-45)"/></g></g></svg>