<svg xmlns="http://www.w3.org/2000/svg" viewBox="0 0 25.91 113.25"><defs><style>.cls-1{fill:#010101;}.cls-2{fill:#c1c1c1;}.cls-3{fill:#737373;}</style></defs><title>fray tones</title><g id="Layer_2" data-name="Layer 2"><g id="Layer_1-2" data-name="Layer 1"><path class="cls-1" d="M1.65,10.23c-2,4.3-2.33,9.49-.22,13.72s7,7.17,11.62,6.37A11.92,11.92,0,0,0,17,28.82a16.16,16.16,0,0,0,7.66-16C23.83,7.38,19.47,1.68,14,.2S3.59,6,1.65,10.23Z"/><path class="cls-2" d="M2.73,93c-2,4.3-2.34,9.49-.22,13.73s7,7.17,11.62,6.36a12.09,12.09,0,0,0,3.95-1.5,16.17,16.17,0,0,0,7.66-16C24.9,90.18,20.55,84.48,15.1,83S4.66,88.8,2.73,93Z"/><path class="cls-3" d="M1.65,54.38c-2,4.3-2.33,9.5-.22,13.73s7,7.17,11.62,6.36A11.7,11.7,0,0,0,17,73a16.15,16.15,0,0,0,7.66-16c-.83-5.41-5.19-11.11-10.63-12.6S3.59,50.16,1.65,54.38Z"/></g></g></svg>