<svg xmlns="http://www.w3.org/2000/svg" viewBox="0 0 25.03 115.48"><defs><style>.cls-1{fill:#00aa64;}.cls-2{fill:#ff3756;}.cls-3{fill:#ffeb00;}</style></defs><title>info colors</title><g id="Layer_2" data-name="Layer 2"><g id="Layer_1-2" data-name="Layer 1"><path class="cls-1" d="M1.65,53.5c-2,4.3-2.33,9.49-.22,13.72s7,7.17,11.62,6.37A11.92,11.92,0,0,0,17,72.09a16.16,16.16,0,0,0,7.66-16C23.83,50.65,19.47,45,14,43.47S3.59,49.28,1.65,53.5Z"/><path class="cls-2" d="M1.85,95.26c-2,4.3-2.33,9.49-.22,13.73s7,7.17,11.62,6.36a12.05,12.05,0,0,0,4-1.5,16.16,16.16,0,0,0,7.65-16c-.83-5.41-5.19-11.12-10.63-12.6S3.79,91,1.85,95.26Z"/><path class="cls-3" d="M1.85,10.23c-2,4.3-2.33,9.49-.22,13.72s7,7.17,11.62,6.37a12.05,12.05,0,0,0,4-1.5,16.17,16.17,0,0,0,7.65-16C24,7.38,19.67,1.68,14.23.2S3.79,6,1.85,10.23Z"/></g></g></svg>