<svg xmlns="http://www.w3.org/2000/svg" viewBox="0 0 273.69 32.19"><defs><style>.cls-1,.cls-3{fill:#fff;}.cls-1,.cls-4,.cls-5,.cls-6{stroke:#231f20;stroke-miterlimit:10;stroke-width:0.5px;}.cls-2{fill:#231f20;}.cls-4,.cls-5,.cls-6{fill:none;}.cls-5{stroke-dasharray:4.31 4.31;}.cls-6{stroke-dasharray:2.95 2.95;}</style></defs><title>legend</title><g id="Layer_2" data-name="Layer 2"><g id="Layer_1-2" data-name="Layer 1"><ellipse class="cls-1" cx="23.51" cy="9.91" rx="23.26" ry="9.66"/><path class="cls-2" d="M7.83,30a1.66,1.66,0,0,0,.82.25c.46,0,.67-.23.67-.51s-.18-.46-.64-.63-.9-.56-.9-1a1.05,1.05,0,0,1,1.18-1,1.72,1.72,0,0,1,.84.21l-.15.46a1.3,1.3,0,0,0-.7-.2c-.37,0-.58.21-.58.47s.21.41.65.58c.6.22.9.52.9,1s-.46,1-1.28,1a1.94,1.94,0,0,1-1-.23Z"/><path class="cls-2" d="M11.48,26.2v1h.89v.47h-.89v1.85c0,.43.12.67.47.67a1.49,1.49,0,0,0,.36,0l0,.47a1.52,1.52,0,0,1-.55.08.87.87,0,0,1-.68-.26,1.25,1.25,0,0,1-.24-.89V27.66h-.53v-.47h.53v-.83Z"/><path class="cls-2" d="M15,30.62l-.05-.43h0a1.27,1.27,0,0,1-1.05.51,1,1,0,0,1-1-1c0-.83.74-1.28,2.06-1.27v-.07a.71.71,0,0,0-.78-.8,1.66,1.66,0,0,0-.89.26l-.14-.42a2.14,2.14,0,0,1,1.12-.3c1.05,0,1.31.72,1.31,1.4V29.8a4.09,4.09,0,0,0,.06.82Zm-.09-1.75c-.68,0-1.46.1-1.46.77a.55.55,0,0,0,.59.6.86.86,0,0,0,.83-.58.65.65,0,0,0,0-.2Z"/><path class="cls-2" d="M16.5,28.26c0-.41,0-.75,0-1.07H17l0,.67h0a1,1,0,0,1,.95-.75l.17,0v.59a.65.65,0,0,0-.21,0,.88.88,0,0,0-.84.8,2.33,2.33,0,0,0,0,.29v1.83H16.5Z"/><path class="cls-2" d="M19.74,26.2v1h.9v.47h-.9v1.85c0,.43.12.67.47.67a1.49,1.49,0,0,0,.36,0l0,.47a1.52,1.52,0,0,1-.55.08.88.88,0,0,1-.68-.26,1.3,1.3,0,0,1-.24-.89V27.66H18.6v-.47h.53v-.83Z"/><path class="cls-2" d="M25.86,30.62l-.45-.47A1.92,1.92,0,0,1,24,30.7a1.35,1.35,0,0,1-1.47-1.34,1.57,1.57,0,0,1,.93-1.4v0a1.62,1.62,0,0,1-.39-1,1.16,1.16,0,0,1,1.21-1.18,1,1,0,0,1,1.06,1c0,.5-.29.9-1.05,1.27v0c.4.47.85,1,1.16,1.34a3.54,3.54,0,0,0,.46-1.4h.57a3.64,3.64,0,0,1-.69,1.77l.79.84Zm-.75-.82c-.29-.31-.82-.9-1.35-1.51a1.18,1.18,0,0,0-.62,1,1,1,0,0,0,1,1A1.34,1.34,0,0,0,25.11,29.8Zm-1.46-2.92a1.32,1.32,0,0,0,.37.86c.48-.28.79-.53.79-.94a.55.55,0,0,0-.55-.61A.62.62,0,0,0,23.65,26.88Z"/><path class="cls-2" d="M29,29a1.11,1.11,0,0,0,1.18,1.19,2.21,2.21,0,0,0,.95-.18l.11.45a2.81,2.81,0,0,1-1.15.21A1.59,1.59,0,0,1,28.4,29,1.66,1.66,0,0,1,30,27.11a1.45,1.45,0,0,1,1.42,1.62,1.85,1.85,0,0,1,0,.29Zm1.83-.45a.88.88,0,0,0-.86-1,1,1,0,0,0-1,1Z"/><path class="cls-2" d="M32.2,28.12c0-.36,0-.65,0-.93h.56l0,.56h0a1.26,1.26,0,0,1,1.13-.64c.48,0,1.21.28,1.21,1.46v2.05H34.5v-2c0-.55-.21-1-.8-1a.87.87,0,0,0-.83.64.79.79,0,0,0,0,.29v2.06H32.2Z"/><path class="cls-2" d="M39.11,25.58v4.15c0,.31,0,.66,0,.89h-.56l0-.59h0a1.27,1.27,0,0,1-1.17.67A1.57,1.57,0,0,1,35.89,29a1.64,1.64,0,0,1,1.54-1.84,1.17,1.17,0,0,1,1,.52h0V25.58Zm-.63,3a1.22,1.22,0,0,0,0-.26.91.91,0,0,0-.9-.72c-.64,0-1,.57-1,1.33s.34,1.27,1,1.27a.93.93,0,0,0,.91-.75,1.12,1.12,0,0,0,0-.27Z"/><path class="cls-2" d="M75.8,28.31c0-.44,0-.8,0-1.12h.56l0,.59h0a1.35,1.35,0,0,1,1.22-.67A1.55,1.55,0,0,1,79,28.85a1.63,1.63,0,0,1-1.56,1.85,1.19,1.19,0,0,1-1-.54h0V32H75.8Zm.61.91a1.86,1.86,0,0,0,0,.26,1,1,0,0,0,.94.73c.66,0,1-.54,1-1.33s-.36-1.27-1-1.27a1,1,0,0,0-1,.77,1.09,1.09,0,0,0,0,.25Z"/><path class="cls-2" d="M79.83,28.26c0-.41,0-.75,0-1.07h.54l0,.67h0a1,1,0,0,1,.95-.75l.18,0v.59a.68.68,0,0,0-.21,0,.88.88,0,0,0-.84.8,2.16,2.16,0,0,0,0,.29v1.83h-.62Z"/><path class="cls-2" d="M85.19,28.88a1.68,1.68,0,0,1-1.71,1.82,1.63,1.63,0,0,1-1.64-1.77,1.67,1.67,0,0,1,1.7-1.82A1.62,1.62,0,0,1,85.19,28.88Zm-2.72,0c0,.75.43,1.32,1,1.32s1-.56,1-1.33c0-.58-.29-1.32-1-1.32S82.47,28.26,82.47,28.91Z"/><path class="cls-2" d="M88.43,30.49a2.24,2.24,0,0,1-1,.2,1.63,1.63,0,0,1-1.71-1.75,1.75,1.75,0,0,1,1.85-1.82,2.16,2.16,0,0,1,.86.17l-.14.49a1.38,1.38,0,0,0-.72-.17,1.3,1.3,0,0,0,0,2.59,1.86,1.86,0,0,0,.76-.17Z"/><path class="cls-2" d="M89.47,29a1.1,1.1,0,0,0,1.17,1.19,2.21,2.21,0,0,0,1-.18l.11.45a2.75,2.75,0,0,1-1.14.21A1.59,1.59,0,0,1,88.87,29a1.66,1.66,0,0,1,1.61-1.85,1.45,1.45,0,0,1,1.42,1.62,2.07,2.07,0,0,1,0,.29Zm1.83-.45a.89.89,0,0,0-.87-1,1,1,0,0,0-1,1Z"/><path class="cls-2" d="M92.59,30a1.62,1.62,0,0,0,.82.25c.46,0,.67-.23.67-.51s-.18-.46-.64-.63c-.62-.22-.91-.56-.91-1a1.06,1.06,0,0,1,1.19-1,1.72,1.72,0,0,1,.84.21l-.15.46a1.34,1.34,0,0,0-.71-.2c-.37,0-.57.21-.57.47s.2.41.65.58.9.52.9,1-.47,1-1.28,1a2,2,0,0,1-1-.23Z"/><path class="cls-2" d="M95.4,30a1.66,1.66,0,0,0,.82.25c.46,0,.67-.23.67-.51s-.18-.46-.64-.63c-.62-.22-.91-.56-.91-1a1.06,1.06,0,0,1,1.19-1,1.72,1.72,0,0,1,.84.21l-.15.46a1.34,1.34,0,0,0-.71-.2c-.36,0-.57.21-.57.47s.21.41.65.58c.6.22.9.52.9,1s-.46,1-1.28,1a2,2,0,0,1-1-.23Z"/><rect class="cls-1" x="65.15" y="3.48" width="42.75" height="12.86"/><path class="cls-2" d="M143.28,28.88a1.68,1.68,0,0,1-1.71,1.82,1.64,1.64,0,0,1-1.65-1.77,1.67,1.67,0,0,1,1.7-1.82A1.63,1.63,0,0,1,143.28,28.88Zm-2.73,0c0,.75.44,1.32,1,1.32s1-.56,1-1.33c0-.58-.29-1.32-1-1.32S140.55,28.26,140.55,28.91Z"/><path class="cls-2" d="M144.07,28.31c0-.44,0-.8,0-1.12h.56l0,.59h0a1.35,1.35,0,0,1,1.22-.67,1.56,1.56,0,0,1,1.46,1.74,1.63,1.63,0,0,1-1.56,1.85,1.2,1.2,0,0,1-1.06-.54h0V32h-.61Zm.61.91a1.86,1.86,0,0,0,0,.26,1,1,0,0,0,.94.73c.66,0,1-.54,1-1.33s-.36-1.27-1-1.27a1,1,0,0,0-.94.77,1.11,1.11,0,0,0,0,.25Z"/><path class="cls-2" d="M148.86,26.2v1h.89v.47h-.89v1.85c0,.43.12.67.47.67a1.49,1.49,0,0,0,.36,0l0,.47a1.58,1.58,0,0,1-.56.08.86.86,0,0,1-.67-.26,1.25,1.25,0,0,1-.24-.89V27.66h-.53v-.47h.53v-.83Z"/><path class="cls-2" d="M151.15,26.22a.39.39,0,1,1-.38-.39A.37.37,0,0,1,151.15,26.22Zm-.69,4.4V27.19h.62v3.43Z"/><path class="cls-2" d="M155.22,28.88a1.68,1.68,0,0,1-1.71,1.82,1.63,1.63,0,0,1-1.64-1.77,1.67,1.67,0,0,1,1.7-1.82A1.62,1.62,0,0,1,155.22,28.88Zm-2.72,0c0,.75.43,1.32,1,1.32s1.05-.56,1.05-1.33c0-.58-.3-1.32-1-1.32S152.5,28.26,152.5,28.91Z"/><path class="cls-2" d="M156,28.12a8.83,8.83,0,0,0,0-.93h.56l0,.56h0a1.27,1.27,0,0,1,1.13-.64c.48,0,1.22.28,1.22,1.46v2.05h-.63v-2c0-.55-.2-1-.79-1a.89.89,0,0,0-.84.64.81.81,0,0,0,0,.29v2.06H156Z"/><rect class="cls-3" x="128.17" y="3.48" width="42.75" height="12.86"/><polyline class="cls-4" points="170.92 14.33 170.92 16.33 168.92 16.33"/><line class="cls-5" x1="164.61" y1="16.33" x2="132.32" y2="16.33"/><polyline class="cls-4" points="130.17 16.33 128.17 16.33 128.17 14.33"/><line class="cls-6" x1="128.17" y1="11.38" x2="128.17" y2="6.95"/><polyline class="cls-4" points="128.17 5.48 128.17 3.48 130.17 3.48"/><line class="cls-5" x1="134.47" y1="3.48" x2="166.77" y2="3.48"/><polyline class="cls-4" points="168.92 3.48 170.92 3.48 170.92 5.48"/><line class="cls-6" x1="170.92" y1="8.43" x2="170.92" y2="12.86"/><rect class="cls-1" x="255.22" y="3.29" width="13.23" height="13.23" transform="translate(69.68 188.04) rotate(-45)"/><path class="cls-2" d="M253,25.58v4.15c0,.31,0,.66,0,.89h-.56l0-.59h0a1.27,1.27,0,0,1-1.17.67A1.57,1.57,0,0,1,249.75,29a1.64,1.64,0,0,1,1.54-1.84,1.15,1.15,0,0,1,1,.52h0V25.58Zm-.62,3a1.22,1.22,0,0,0,0-.26.91.91,0,0,0-.9-.72c-.65,0-1,.57-1,1.33s.34,1.27,1,1.27a.94.94,0,0,0,.92-.75,1.12,1.12,0,0,0,0-.27Z"/><path class="cls-2" d="M254.35,29a1.1,1.1,0,0,0,1.18,1.19,2.28,2.28,0,0,0,1-.18l.1.45a2.75,2.75,0,0,1-1.14.21A1.59,1.59,0,0,1,253.75,29a1.66,1.66,0,0,1,1.61-1.85,1.45,1.45,0,0,1,1.42,1.62,2.07,2.07,0,0,1,0,.29Zm1.83-.45a.89.89,0,0,0-.87-1,1,1,0,0,0-1,1Z"/><path class="cls-2" d="M260,30.49a2.18,2.18,0,0,1-1,.2,1.63,1.63,0,0,1-1.71-1.75,1.74,1.74,0,0,1,1.84-1.82,2.21,2.21,0,0,1,.87.17l-.14.49a1.42,1.42,0,0,0-.73-.17,1.3,1.3,0,0,0,0,2.59,1.91,1.91,0,0,0,.77-.17Z"/><path class="cls-2" d="M261.43,26.22a.39.39,0,1,1-.38-.39A.37.37,0,0,1,261.43,26.22Zm-.69,4.4V27.19h.62v3.43Z"/><path class="cls-2" d="M262.31,30a1.66,1.66,0,0,0,.82.25c.46,0,.67-.23.67-.51s-.18-.46-.64-.63c-.61-.22-.9-.56-.9-1a1.05,1.05,0,0,1,1.18-1,1.72,1.72,0,0,1,.84.21l-.15.46a1.3,1.3,0,0,0-.7-.2c-.37,0-.58.21-.58.47s.21.41.65.58c.6.22.9.52.9,1s-.46,1-1.28,1a1.94,1.94,0,0,1-1-.23Z"/><path class="cls-2" d="M265.9,26.22a.37.37,0,0,1-.39.39.39.39,0,0,1,0-.78A.37.37,0,0,1,265.9,26.22Zm-.69,4.4V27.19h.62v3.43Z"/><path class="cls-2" d="M270,28.88a1.68,1.68,0,0,1-1.71,1.82,1.64,1.64,0,0,1-1.65-1.77,1.67,1.67,0,0,1,1.7-1.82A1.63,1.63,0,0,1,270,28.88Zm-2.73,0c0,.75.43,1.32,1.05,1.32s1-.56,1-1.33c0-.58-.29-1.32-1-1.32S267.25,28.26,267.25,28.91Z"/><path class="cls-2" d="M270.77,28.12c0-.36,0-.65,0-.93h.55l0,.56h0a1.28,1.28,0,0,1,1.14-.64c.47,0,1.21.28,1.21,1.46v2.05h-.63v-2c0-.55-.2-1-.79-1a.89.89,0,0,0-.84.64.81.81,0,0,0,0,.29v2.06h-.62Z"/><path class="cls-2" d="M204.21,30.62l-.05-.43h0a1.27,1.27,0,0,1-1,.51,1,1,0,0,1-1.05-1c0-.83.74-1.28,2.06-1.27v-.07a.71.71,0,0,0-.78-.8,1.66,1.66,0,0,0-.89.26l-.14-.42a2.15,2.15,0,0,1,1.13-.3c1.05,0,1.3.72,1.3,1.4V29.8a4.09,4.09,0,0,0,.06.82Zm-.09-1.75c-.68,0-1.46.1-1.46.77a.55.55,0,0,0,.59.6.86.86,0,0,0,.83-.58.65.65,0,0,0,0-.2Z"/><path class="cls-2" d="M208.18,30.49a2.24,2.24,0,0,1-1,.2,1.63,1.63,0,0,1-1.71-1.75,1.75,1.75,0,0,1,1.85-1.82,2.16,2.16,0,0,1,.86.17l-.14.49a1.38,1.38,0,0,0-.72-.17,1.3,1.3,0,0,0,0,2.59,1.9,1.9,0,0,0,.76-.17Z"/><path class="cls-2" d="M209.75,26.2v1h.9v.47h-.9v1.85c0,.43.13.67.47.67a1.36,1.36,0,0,0,.36,0l0,.47a1.52,1.52,0,0,1-.55.08.84.84,0,0,1-.67-.26,1.25,1.25,0,0,1-.25-.89V27.66h-.53v-.47h.53v-.83Z"/><path class="cls-2" d="M212.05,26.22a.39.39,0,1,1-.39-.39A.37.37,0,0,1,212.05,26.22Zm-.7,4.4V27.19H212v3.43Z"/><path class="cls-2" d="M213.25,27.19l.68,1.93a8.72,8.72,0,0,1,.27.88h0a6.94,6.94,0,0,1,.29-.88l.66-1.93h.66l-1.35,3.43h-.6l-1.3-3.43Z"/><path class="cls-2" d="M217.12,26.22a.37.37,0,0,1-.39.39.39.39,0,0,1,0-.78A.37.37,0,0,1,217.12,26.22Zm-.69,4.4V27.19h.62v3.43Z"/><path class="cls-2" d="M218.84,26.2v1h.89v.47h-.89v1.85c0,.43.12.67.47.67a1.49,1.49,0,0,0,.36,0l0,.47a1.52,1.52,0,0,1-.55.08.87.87,0,0,1-.68-.26,1.25,1.25,0,0,1-.24-.89V27.66h-.53v-.47h.53v-.83Z"/><path class="cls-2" d="M220.73,27.19l.75,2c.08.22.16.49.22.7h0c.06-.21.13-.47.22-.72l.68-2h.66l-.94,2.44a5.26,5.26,0,0,1-1.18,2.16,1.79,1.79,0,0,1-.76.4l-.16-.53a1.78,1.78,0,0,0,.55-.3,1.93,1.93,0,0,0,.52-.7.37.37,0,0,0,.05-.15.5.5,0,0,0,0-.16l-1.27-3.16Z"/><polygon class="cls-1" points="228.94 16.33 186.18 16.33 196.18 3.48 238.94 3.48 228.94 16.33"/></g></g></svg>