<svg xmlns="http://www.w3.org/2000/svg" viewBox="0 0 53.01 223.82"><defs><style>.cls-1{fill:#00008c;}.cls-2{fill:#580000;}.cls-3{fill:#ff3351;}.cls-4{fill:#ff6262;}.cls-5{fill:#ff4344;opacity:0.5;}.cls-6{fill:#ffd1d1;}.cls-7{fill:#ff80c1;}</style></defs><title>primary colors</title><g id="Layer_2" data-name="Layer 2"><g id="Layer_1-2" data-name="Layer 1"><path class="cls-1" d="M2.05,53.5C.08,57.8-.28,63,1.83,67.22s7,7.17,11.62,6.37a12.05,12.05,0,0,0,4-1.5,16.15,16.15,0,0,0,7.65-16C24.23,50.65,19.87,45,14.43,43.47S4,49.28,2.05,53.5Z"/><path class="cls-2" d="M2.05,10.23c-2,4.3-2.33,9.49-.22,13.72s7,7.17,11.62,6.37a12.05,12.05,0,0,0,4-1.5,16.15,16.15,0,0,0,7.65-16C24.23,7.38,19.87,1.68,14.43.2S4,6,2.05,10.23Z"/><path class="cls-3" d="M2.05,138.53c-2,4.3-2.33,9.49-.22,13.73s7,7.17,11.62,6.36a12.05,12.05,0,0,0,4-1.5,16.15,16.15,0,0,0,7.65-16c-.83-5.41-5.19-11.12-10.63-12.6S4,134.31,2.05,138.53Z"/><path class="cls-4" d="M29.83,157.46c-2,4.3-2.34,9.49-.22,13.73s7,7.17,11.62,6.36a12,12,0,0,0,4-1.5,16.15,16.15,0,0,0,7.66-16c-.84-5.41-5.19-11.12-10.64-12.6S31.76,153.24,29.83,157.46Z"/><path class="cls-5" d="M2.05,180.29c-2,4.3-2.33,9.5-.22,13.73s7,7.17,11.62,6.36a12.05,12.05,0,0,0,4-1.5,16.14,16.14,0,0,0,7.65-16c-.83-5.41-5.19-11.11-10.63-12.6S4,176.07,2.05,180.29Z"/><path class="cls-6" d="M29.83,203.59c-2,4.3-2.34,9.49-.22,13.73s7,7.17,11.62,6.36a12,12,0,0,0,4-1.5,16.15,16.15,0,0,0,7.66-16C52,200.75,47.65,195,42.2,193.56S31.76,199.37,29.83,203.59Z"/><path class="cls-7" d="M1.65,96.77c-2,4.3-2.33,9.49-.22,13.72s7,7.17,11.62,6.37a11.92,11.92,0,0,0,3.95-1.5,16.16,16.16,0,0,0,7.66-16C23.83,93.92,19.47,88.22,14,86.74S3.59,92.55,1.65,96.77Z"/></g></g></svg>