<svg xmlns="http://www.w3.org/2000/svg" viewBox="0 0 742.12 41.69"><defs><style>.cls-1{fill:#fff;}.cls-2{fill:#272525;}</style></defs><title>TEMPLATE</title><g id="Layer_2" data-name="Layer 2"><g id="Layer_1-2" data-name="Layer 1"><rect class="cls-1" x="665.88" y="5.11" width="75.75" height="31.48" rx="15.74"/><path class="cls-2" d="M725.88,37.09H681.62a16.24,16.24,0,0,1,0-32.48h44.26a16.24,16.24,0,1,1,0,32.48ZM681.62,5.61a15.24,15.24,0,0,0,0,30.48h44.26a15.24,15.24,0,1,0,0-30.48Z"/><path class="cls-2" d="M691.13,21.56a1.12,1.12,0,0,0,1.22,1.21,1.21,1.21,0,0,0,1.34-1.17c0-.61-.32-.89-1.41-1.25a3.46,3.46,0,0,1-1.4-.7,1.7,1.7,0,0,1-.54-1.31,2.07,2.07,0,0,1,4.13,0h-.88a1.37,1.37,0,0,0-.16-.72,1.23,1.23,0,0,0-1-.49,1.11,1.11,0,0,0-1.18,1.14,1,1,0,0,0,.4.8,4,4,0,0,0,1.11.49,3,3,0,0,1,1.37.75,1.79,1.79,0,0,1,.47,1.22,2.24,2.24,0,0,1-4,1.08,1.82,1.82,0,0,1-.24-.91v-.15Z"/><path class="cls-2" d="M699.46,18.63h.79v4.8h-.79V22.5a2,2,0,0,1-1.75,1,2.29,2.29,0,0,1-2.25-2.5,2.32,2.32,0,0,1,2.27-2.52,2,2,0,0,1,1.73.9Zm-2.78,1.17a2.16,2.16,0,0,0-.39,1.26,1.64,1.64,0,0,0,1.54,1.79A1.77,1.77,0,0,0,699.47,21a1.62,1.62,0,0,0-1.62-1.76A1.31,1.31,0,0,0,696.68,19.8Z"/><path class="cls-2" d="M705.49,18.63l-1.81,4.8h-.84l-1.75-4.8h.83l1.35,3.66,1.4-3.66Z"/><path class="cls-2" d="M706.67,21.28a1.55,1.55,0,0,0,.32.88,1.57,1.57,0,0,0,1.29.65,1.65,1.65,0,0,0,1.43-.82l.7.26a2.36,2.36,0,0,1-2.13,1.29,2.38,2.38,0,0,1-2.45-2.5,2.43,2.43,0,1,1,4.85-.07c0,.06,0,.2,0,.31Zm3.17-.58a1.54,1.54,0,0,0-.27-.82,1.63,1.63,0,0,0-1.32-.66,1.52,1.52,0,0,0-1.29.67,2,2,0,0,0-.28.81Z"/><rect class="cls-1" x="249.63" y="7.54" width="100.65" height="26.6"/><path class="cls-2" d="M350.78,34.65H249.13V7H350.78Zm-100.65-1h99.65V8H250.13Z"/><path class="cls-2" d="M264.23,22a1.13,1.13,0,0,0,1.23,1.21,1.21,1.21,0,0,0,1.33-1.18c0-.6-.32-.88-1.41-1.25a3.33,3.33,0,0,1-1.4-.7,1.7,1.7,0,0,1-.54-1.31,2.07,2.07,0,0,1,4.13,0h-.88a1.33,1.33,0,0,0-.16-.71,1.2,1.2,0,0,0-1-.49,1.11,1.11,0,0,0-1.18,1.13,1,1,0,0,0,.4.8,3.75,3.75,0,0,0,1.11.49,3.12,3.12,0,0,1,1.37.75,1.79,1.79,0,0,1,.47,1.23,2.23,2.23,0,0,1-4,1.07,1.76,1.76,0,0,1-.24-.9V22Z"/><path class="cls-2" d="M269.38,21.74a1.47,1.47,0,0,0,.31.87,1.55,1.55,0,0,0,1.29.66,1.67,1.67,0,0,0,1.44-.82l.69.26A2.34,2.34,0,0,1,271,24a2.38,2.38,0,0,1-2.44-2.5,2.42,2.42,0,1,1,4.84-.07v.31Zm3.16-.58a1.46,1.46,0,0,0-.27-.83,1.65,1.65,0,0,0-1.32-.65,1.55,1.55,0,0,0-1.29.66,1.84,1.84,0,0,0-.27.82Z"/><path class="cls-2" d="M274.47,23.88V16.94h.79v6.94Z"/><path class="cls-2" d="M277.31,21.74a1.47,1.47,0,0,0,.31.87,1.55,1.55,0,0,0,1.29.66,1.67,1.67,0,0,0,1.44-.82l.69.26A2.34,2.34,0,0,1,278.91,24a2.38,2.38,0,0,1-2.44-2.5,2.42,2.42,0,1,1,4.84-.07c0,.06,0,.19,0,.31Zm3.16-.58a1.46,1.46,0,0,0-.27-.83,1.65,1.65,0,0,0-1.32-.65,1.55,1.55,0,0,0-1.29.66,1.84,1.84,0,0,0-.27.82Z"/><path class="cls-2" d="M286.2,23.29a2.49,2.49,0,0,1-1.77.71,2.33,2.33,0,0,1-2.35-2.5,2.42,2.42,0,0,1,4.14-1.81l-.51.51a1.79,1.79,0,0,0-1.22-.5,1.61,1.61,0,0,0-1.6,1.77,1.63,1.63,0,0,0,1.59,1.8,1.7,1.7,0,0,0,1.23-.52Z"/><path class="cls-2" d="M288.24,22.9c0,.24.07.3.36.3H289v.68h-.74c-.56,0-.78-.22-.78-.75V19.78h-.66v-.7h.66v-1.5h.8v1.5H289v.7h-.72Z"/><path class="cls-2" d="M295.17,23.88h-.88V17.69h-1.77v-.75h4.4v.75h-1.75Z"/><path class="cls-2" d="M297.78,21.74a1.47,1.47,0,0,0,.31.87,1.55,1.55,0,0,0,1.29.66,1.67,1.67,0,0,0,1.44-.82l.69.26A2.34,2.34,0,0,1,299.38,24a2.38,2.38,0,0,1-2.44-2.5,2.42,2.42,0,1,1,4.84-.07c0,.06,0,.19,0,.31Zm3.16-.58a1.46,1.46,0,0,0-.27-.83,1.65,1.65,0,0,0-1.32-.65,1.55,1.55,0,0,0-1.29.66,1.84,1.84,0,0,0-.27.82Z"/><path class="cls-2" d="M303.72,19.08v.67a1.49,1.49,0,0,1,1.36-.78,1.23,1.23,0,0,1,1.29.87,1.59,1.59,0,0,1,1.52-.87,1.44,1.44,0,0,1,1.22.51c.23.3.29.57.29,1.33v3.07h-.79V21c0-.58,0-.72-.13-.92a.94.94,0,0,0-.84-.4c-.69,0-1.08.47-1.08,1.32v2.88h-.79V21a1.75,1.75,0,0,0-.16-.92.81.81,0,0,0-.78-.41c-.69,0-1.11.5-1.11,1.33v2.87h-.79v-4.8Z"/><path class="cls-2" d="M311.67,19.08V20a1.86,1.86,0,0,1,1.75-1,2.27,2.27,0,0,1,2.26,2.48A2.31,2.31,0,0,1,313.42,24a2.35,2.35,0,0,1-1.05-.25,1.74,1.74,0,0,1-.7-.62v3h-.79v-7Zm0,2.48a1.58,1.58,0,0,0,1.58,1.75,1.63,1.63,0,0,0,1.58-1.83,1.86,1.86,0,0,0-.41-1.3,1.57,1.57,0,0,0-1.14-.5A1.68,1.68,0,0,0,311.67,21.56Z"/><path class="cls-2" d="M316.88,23.88V16.94h.79v6.94Z"/><path class="cls-2" d="M322.88,19.08h.79v4.8h-.79V23a2,2,0,0,1-1.75,1,2.3,2.3,0,0,1-2.26-2.5A2.33,2.33,0,0,1,321.15,19a2,2,0,0,1,1.73.91Zm-2.78,1.17a2.17,2.17,0,0,0-.39,1.27,1.64,1.64,0,0,0,1.54,1.79,1.77,1.77,0,0,0,1.64-1.87,1.62,1.62,0,0,0-1.62-1.76A1.3,1.3,0,0,0,320.1,20.25Z"/><path class="cls-2" d="M326.07,22.9c0,.24.08.3.37.3h.36v.68h-.74c-.56,0-.78-.22-.78-.75V19.78h-.66v-.7h.66v-1.5h.79v1.5h.73v.7h-.73Z"/><path class="cls-2" d="M328.29,21.74a1.54,1.54,0,0,0,.31.87,1.57,1.57,0,0,0,1.29.66,1.65,1.65,0,0,0,1.44-.82l.7.26a2.43,2.43,0,0,1-4.58-1.21,2.43,2.43,0,1,1,4.85-.07c0,.06,0,.19,0,.31Zm3.17-.58a1.55,1.55,0,0,0-.28-.83,1.65,1.65,0,0,0-1.32-.65,1.55,1.55,0,0,0-1.29.66,2,2,0,0,0-.27.82Z"/><path class="cls-2" d="M335.64,20.4v-.06c0-.44-.37-.72-.92-.72s-.86.27-.86.68.21.57,1.07.81a2.53,2.53,0,0,1,1.17.56,1.31,1.31,0,0,1,.38.93c0,.84-.69,1.4-1.71,1.4A1.56,1.56,0,0,1,333,22.52h.79a.88.88,0,0,0,1,.83c.55,0,.9-.28.9-.71s-.27-.62-1.09-.83c-1-.28-1.51-.72-1.51-1.45s.67-1.39,1.68-1.39a1.47,1.47,0,0,1,1.68,1.43Z"/><rect class="cls-1" x="388.02" y="0.5" width="98.26" height="40.69"/><path class="cls-2" d="M486.78,41.69H387.52V0h99.26Zm-98.26-1h97.26V1H388.52Z"/><path class="cls-2" d="M406.57,15.79A3.07,3.07,0,0,1,404,17a3.1,3.1,0,0,1-2.39-1,3.92,3.92,0,0,1-.92-2.57A3.36,3.36,0,0,1,404,9.77a3.43,3.43,0,0,1,1.74.47,3.76,3.76,0,0,1,.81.72l-.61.56a2.43,2.43,0,0,0-1.92-.95,2.56,2.56,0,0,0-2.45,2.8,2.57,2.57,0,0,0,2.49,2.79,2.29,2.29,0,0,0,1.88-1Z"/><path class="cls-2" d="M408.4,12.71a1.76,1.76,0,0,1,1.45-.78,1.6,1.6,0,0,1,1.11.43,1.66,1.66,0,0,1,.37,1.25v3.23h-.79V13.65c0-.65-.32-1-.89-1a1.23,1.23,0,0,0-.94.43,1.25,1.25,0,0,0-.31,1v2.81h-.79V9.9h.79Z"/><path class="cls-2" d="M417.39,14.46A2.45,2.45,0,0,1,414.93,17a2.37,2.37,0,0,1-2.42-2.52,2.36,2.36,0,0,1,2.45-2.5A2.39,2.39,0,0,1,417.39,14.46Zm-4.07,0A1.62,1.62,0,0,0,415,16.22a1.64,1.64,0,0,0,1.62-1.78,1.64,1.64,0,1,0-3.26,0Z"/><path class="cls-2" d="M423.09,14.46A2.44,2.44,0,0,1,420.64,17a2.37,2.37,0,0,1-2.43-2.52,2.44,2.44,0,1,1,4.88,0Zm-4.07,0a1.64,1.64,0,1,0,3.26,0,1.61,1.61,0,0,0-1.61-1.79A1.63,1.63,0,0,0,419,14.44Z"/><path class="cls-2" d="M426.52,13.35v0c0-.45-.37-.73-.92-.73s-.86.27-.86.69.21.57,1.07.81a2.54,2.54,0,0,1,1.17.55,1.38,1.38,0,0,1,.38.94c0,.83-.69,1.39-1.71,1.39a1.56,1.56,0,0,1-1.79-1.48h.78a.89.89,0,0,0,1,.84c.54,0,.9-.28.9-.71s-.27-.62-1.09-.83c-1-.28-1.51-.72-1.51-1.45s.67-1.39,1.68-1.39,1.64.52,1.68,1.42Z"/><path class="cls-2" d="M429,14.69a1.48,1.48,0,0,0,.31.88,1.54,1.54,0,0,0,1.29.65,1.65,1.65,0,0,0,1.43-.82l.7.26A2.35,2.35,0,0,1,430.64,17a2.38,2.38,0,0,1-2.45-2.49,2.43,2.43,0,1,1,4.85-.08c0,.06,0,.2,0,.31Zm3.16-.58a1.46,1.46,0,0,0-.27-.82,1.63,1.63,0,0,0-1.32-.66,1.53,1.53,0,0,0-1.29.67,1.84,1.84,0,0,0-.27.81Z"/><path class="cls-2" d="M438.18,16.84h-.79v-4.1h-.65V12h.65V11.4c0-1,.49-1.51,1.32-1.51h.22v.7c-.57.07-.73.23-.75.8V12h.75v.7h-.75Z"/><path class="cls-2" d="M440.8,12v.81a1.33,1.33,0,0,1,.43-.63,1.49,1.49,0,0,1,.92-.29h.19v.8h-.22a1.23,1.23,0,0,0-1,.55,1.74,1.74,0,0,0-.28,1.13v2.44H440V12Z"/><path class="cls-2" d="M447.63,14.46A2.44,2.44,0,0,1,445.18,17a2.37,2.37,0,0,1-2.43-2.52,2.44,2.44,0,1,1,4.88,0Zm-4.07,0a1.62,1.62,0,0,0,1.64,1.78,1.64,1.64,0,0,0,1.62-1.78,1.64,1.64,0,1,0-3.26,0Z"/><path class="cls-2" d="M449.63,12v.67a1.5,1.5,0,0,1,1.36-.78,1.23,1.23,0,0,1,1.29.87,1.59,1.59,0,0,1,1.52-.87,1.42,1.42,0,0,1,1.22.51c.23.3.29.57.29,1.33v3.07h-.79V14c0-.59,0-.72-.13-.92a1,1,0,0,0-.84-.41c-.69,0-1.08.47-1.08,1.33v2.88h-.79V14a1.75,1.75,0,0,0-.16-.92.82.82,0,0,0-.78-.42c-.69,0-1.11.5-1.11,1.34v2.87h-.79V12Z"/><path class="cls-2" d="M401.89,28.35c0,.24.08.29.37.29h.36v.69h-.74c-.56,0-.78-.22-.78-.75V25.23h-.66v-.7h.66V23h.79v1.51h.73v.7h-.73Z"/><path class="cls-2" d="M404.11,27.18a1.54,1.54,0,0,0,.31.88,1.58,1.58,0,0,0,1.29.65,1.65,1.65,0,0,0,1.44-.82l.7.26a2.43,2.43,0,0,1-4.58-1.21,2.43,2.43,0,1,1,4.85-.07c0,.06,0,.2,0,.31Zm3.16-.58a1.43,1.43,0,0,0-.27-.82,1.63,1.63,0,0,0-1.32-.66,1.53,1.53,0,0,0-1.29.67,1.92,1.92,0,0,0-.27.81Z"/><path class="cls-2" d="M410.05,24.53v.66a1.51,1.51,0,0,1,1.37-.78,1.25,1.25,0,0,1,1.29.88,1.56,1.56,0,0,1,1.52-.88,1.44,1.44,0,0,1,1.21.51,1.93,1.93,0,0,1,.3,1.34v3.07h-.8V26.44c0-.58,0-.71-.13-.91a.94.94,0,0,0-.83-.41c-.7,0-1.09.47-1.09,1.32v2.89h-.79V26.45a1.86,1.86,0,0,0-.15-.91.84.84,0,0,0-.78-.42c-.7,0-1.12.5-1.12,1.33v2.88h-.79v-4.8Z"/><path class="cls-2" d="M418,24.53v.87a1.88,1.88,0,0,1,1.75-1A2.27,2.27,0,0,1,422,26.89a2.29,2.29,0,0,1-3.31,2.3,1.78,1.78,0,0,1-.7-.61v3h-.79v-7ZM418,27a1.58,1.58,0,0,0,1.59,1.74,1.63,1.63,0,0,0,1.58-1.83,1.86,1.86,0,0,0-.42-1.3,1.56,1.56,0,0,0-1.13-.5A1.68,1.68,0,0,0,418,27Z"/><path class="cls-2" d="M423.21,29.33V22.38H424v7Z"/><path class="cls-2" d="M429.21,24.53H430v4.8h-.79V28.4a2,2,0,0,1-1.75,1,2.29,2.29,0,0,1-2.25-2.5,2.33,2.33,0,0,1,2.27-2.53,2,2,0,0,1,1.73.91Zm-2.78,1.16A2.22,2.22,0,0,0,426,27a1.64,1.64,0,0,0,1.54,1.79,1.77,1.77,0,0,0,1.64-1.87,1.62,1.62,0,0,0-1.62-1.76A1.32,1.32,0,0,0,426.43,25.69Z"/><path class="cls-2" d="M432.41,28.35c0,.24.07.29.36.29h.37v.69h-.74c-.57,0-.78-.22-.78-.75V25.23H431v-.7h.67V23h.79v1.51h.73v.7h-.73Z"/><path class="cls-2" d="M434.62,27.18a1.55,1.55,0,0,0,.32.88,1.57,1.57,0,0,0,1.29.65,1.65,1.65,0,0,0,1.43-.82l.7.26a2.36,2.36,0,0,1-2.13,1.29,2.52,2.52,0,1,1,2.4-2.57c0,.06,0,.2,0,.31Zm3.17-.58a1.51,1.51,0,0,0-.27-.82,1.63,1.63,0,0,0-1.32-.66,1.53,1.53,0,0,0-1.29.67,1.92,1.92,0,0,0-.28.81Z"/><path class="cls-2" d="M447.39,26.94a2.45,2.45,0,0,1-2.45,2.5,2.37,2.37,0,0,1-2.43-2.52A2.37,2.37,0,0,1,445,24.41,2.39,2.39,0,0,1,447.39,26.94Zm-4.07,0a1.64,1.64,0,1,0,3.26,0A1.61,1.61,0,0,0,445,25.14,1.63,1.63,0,0,0,443.32,26.93Z"/><path class="cls-2" d="M449.39,24.53v.87a1.88,1.88,0,0,1,1.75-1,2.27,2.27,0,0,1,2.26,2.48,2.31,2.31,0,0,1-2.26,2.55,2.23,2.23,0,0,1-1.05-.25,1.78,1.78,0,0,1-.7-.61v3h-.79v-7Zm0,2.48A1.57,1.57,0,0,0,451,28.75a1.63,1.63,0,0,0,1.58-1.83,1.86,1.86,0,0,0-.41-1.3,1.57,1.57,0,0,0-1.14-.5A1.68,1.68,0,0,0,449.39,27Z"/><path class="cls-2" d="M455.4,28.35c0,.24.07.29.36.29h.36v.69h-.73c-.57,0-.78-.22-.78-.75V25.23h-.67v-.7h.67V23h.79v1.51h.72v.7h-.72Z"/><path class="cls-2" d="M458.08,23.19a.5.5,0,0,1-.51.5.51.51,0,1,1,.51-.5ZM458,29.33h-.79v-4.8H458Z"/><path class="cls-2" d="M464.05,26.94a2.45,2.45,0,0,1-2.45,2.5,2.37,2.37,0,0,1-2.43-2.52,2.44,2.44,0,1,1,4.88,0Zm-4.06,0a1.62,1.62,0,0,0,1.63,1.78,1.64,1.64,0,0,0,1.62-1.78,1.63,1.63,0,1,0-3.25,0Z"/><path class="cls-2" d="M466.05,24.53v.68a1.63,1.63,0,0,1,1.43-.8,1.65,1.65,0,0,1,1.11.4,1.56,1.56,0,0,1,.41,1.28v3.24h-.79V26.27a1.37,1.37,0,0,0-.18-.83,1,1,0,0,0-.75-.32,1.22,1.22,0,0,0-.92.41,1.16,1.16,0,0,0-.31.87v2.93h-.79v-4.8Z"/><path class="cls-2" d="M472.78,25.84v-.05c0-.45-.37-.73-.92-.73s-.86.27-.86.69.21.57,1.07.81a2.39,2.39,0,0,1,1.16.55,1.34,1.34,0,0,1,.39.94c0,.83-.69,1.39-1.71,1.39A1.56,1.56,0,0,1,470.12,28h.78a.9.9,0,0,0,1,.84c.54,0,.9-.29.9-.71s-.27-.63-1.1-.84c-1-.28-1.5-.71-1.5-1.44s.67-1.4,1.68-1.4a1.47,1.47,0,0,1,1.68,1.43Z"/><rect class="cls-2" x="75.26" y="20.47" width="30.19" height="0.75"/><polygon class="cls-2" points="104.36 24.59 110.83 20.85 104.36 17.11 104.36 24.59"/><rect class="cls-2" x="351.29" y="20.47" width="30.19" height="0.75"/><polygon class="cls-2" points="380.38 24.59 386.86 20.85 380.38 17.11 380.38 24.59"/><rect class="cls-1" x="112.77" y="7.54" width="100.65" height="26.6"/><path class="cls-2" d="M213.92,34.65H112.27V7H213.92Zm-100.65-1h99.65V8H113.27Z"/><path class="cls-2" d="M131.84,20.13c0,.14,0,.33,0,.39a3.28,3.28,0,0,1-.72,2.22A3.23,3.23,0,0,1,128.52,24a3.39,3.39,0,0,1-3.42-3.58,3.39,3.39,0,0,1,3.42-3.61,3.21,3.21,0,0,1,2.61,1.26l-.65.53a2.85,2.85,0,0,0-.59-.56,2.32,2.32,0,0,0-1.37-.43,2.62,2.62,0,0,0-2.53,2.8,2.62,2.62,0,0,0,2.51,2.79A2.43,2.43,0,0,0,131,20.87h-2.42v-.74Z"/><path class="cls-2" d="M137.58,21.5a2.45,2.45,0,0,1-2.45,2.5,2.37,2.37,0,0,1-2.43-2.52,2.44,2.44,0,1,1,4.88,0Zm-4.06,0a1.62,1.62,0,0,0,1.63,1.78,1.64,1.64,0,0,0,1.62-1.78,1.63,1.63,0,1,0-3.25,0Z"/><path class="cls-2" d="M142.76,22.9c0,.24.07.3.36.3h.37v.68h-.74c-.57,0-.78-.22-.78-.75V19.78h-.67v-.7H142v-1.5h.79v1.5h.73v.7h-.73Z"/><path class="cls-2" d="M149,21.5a2.45,2.45,0,0,1-2.46,2.5,2.37,2.37,0,0,1-2.42-2.52,2.44,2.44,0,1,1,4.88,0Zm-4.07,0a1.63,1.63,0,0,0,1.64,1.78,1.64,1.64,0,0,0,1.62-1.78,1.64,1.64,0,1,0-3.26,0Z"/><path class="cls-2" d="M154.29,20H157v.75h-2.7v3.12h-.88V16.94H157v.75h-2.7Z"/><path class="cls-2" d="M158.93,17.74a.5.5,0,0,1-.51.5.51.51,0,0,1,0-1A.51.51,0,0,1,158.93,17.74Zm-.12,6.14H158v-4.8h.79Z"/><path class="cls-2" d="M160.41,23.88V16.94h.79v6.94Z"/><path class="cls-2" d="M163.25,21.74a1.47,1.47,0,0,0,.31.87,1.55,1.55,0,0,0,1.29.66,1.67,1.67,0,0,0,1.44-.82l.69.26A2.34,2.34,0,0,1,164.85,24a2.37,2.37,0,0,1-2.44-2.5,2.42,2.42,0,1,1,4.84-.07c0,.06,0,.19,0,.31Zm3.16-.58a1.46,1.46,0,0,0-.27-.83,1.65,1.65,0,0,0-1.32-.65,1.55,1.55,0,0,0-1.29.66,1.84,1.84,0,0,0-.27.82Z"/><path class="cls-2" d="M173.74,20.4v-.06c0-.44-.37-.72-.92-.72s-.86.27-.86.68.21.57,1.07.81a2.53,2.53,0,0,1,1.17.56,1.31,1.31,0,0,1,.38.93c0,.84-.69,1.4-1.71,1.4a1.56,1.56,0,0,1-1.79-1.48h.79a.88.88,0,0,0,1,.83c.55,0,.9-.28.9-.71s-.27-.62-1.09-.83c-1-.28-1.51-.72-1.51-1.45s.67-1.39,1.68-1.39a1.47,1.47,0,0,1,1.68,1.43Z"/><path class="cls-2" d="M176.26,21.74a1.47,1.47,0,0,0,.31.87,1.55,1.55,0,0,0,1.29.66,1.65,1.65,0,0,0,1.43-.82l.7.26A2.34,2.34,0,0,1,177.86,24a2.38,2.38,0,0,1-2.45-2.5,2.43,2.43,0,1,1,4.85-.07c0,.06,0,.19,0,.31Zm3.16-.58a1.46,1.46,0,0,0-.27-.83,1.65,1.65,0,0,0-1.32-.65,1.55,1.55,0,0,0-1.29.66,1.84,1.84,0,0,0-.27.82Z"/><path class="cls-2" d="M185.14,23.29a2.45,2.45,0,0,1-1.76.71A2.34,2.34,0,0,1,181,21.5a2.43,2.43,0,0,1,4.15-1.81l-.51.51a1.81,1.81,0,0,0-1.22-.5,1.62,1.62,0,0,0-1.61,1.77,1.64,1.64,0,0,0,1.6,1.8,1.7,1.7,0,0,0,1.23-.52Z"/><path class="cls-2" d="M187.18,22.9c0,.24.08.3.37.3h.36v.68h-.74c-.56,0-.78-.22-.78-.75V19.78h-.66v-.7h.66v-1.5h.79v1.5h.73v.7h-.73Z"/><path class="cls-2" d="M189.87,17.74a.5.5,0,0,1-.51.5.51.51,0,0,1,0-1A.51.51,0,0,1,189.87,17.74Zm-.12,6.14H189v-4.8h.79Z"/><path class="cls-2" d="M195.84,21.5a2.45,2.45,0,0,1-2.45,2.5A2.37,2.37,0,0,1,191,21.48a2.44,2.44,0,1,1,4.88,0Zm-4.07,0a1.63,1.63,0,0,0,1.64,1.78A1.64,1.64,0,0,0,195,21.49a1.64,1.64,0,1,0-3.26,0Z"/><path class="cls-2" d="M197.84,19.08v.68a1.65,1.65,0,0,1,1.43-.79,1.67,1.67,0,0,1,1.11.4,1.56,1.56,0,0,1,.4,1.28v3.23H200V20.82a1.37,1.37,0,0,0-.17-.82.93.93,0,0,0-.75-.32,1.19,1.19,0,0,0-.92.4,1.14,1.14,0,0,0-.31.88v2.92h-.79v-4.8Z"/><rect class="cls-2" x="213.68" y="20.47" width="30.19" height="0.75"/><polygon class="cls-2" points="242.78 24.59 249.25 20.85 242.78 17.11 242.78 24.59"/><rect class="cls-2" x="485.71" y="20.47" width="30.19" height="0.75"/><polygon class="cls-2" points="514.81 24.59 521.28 20.85 514.81 17.11 514.81 24.59"/><rect class="cls-2" x="629.68" y="20.47" width="30.19" height="0.75"/><polygon class="cls-2" points="658.77 24.59 665.25 20.85 658.77 17.11 658.77 24.59"/><rect class="cls-1" x="522.19" y="7.54" width="107.79" height="26.6"/><path class="cls-2" d="M630.47,34.65H521.69V7H630.47Zm-107.78-1H629.47V8H522.69Z"/><path class="cls-2" d="M546.39,23.88h-.88V16.94h.81l3.7,5.23V16.94h.88v6.94h-.78l-3.73-5.31Z"/><path class="cls-2" d="M556.18,19.08H557v4.8h-.79V23a2,2,0,0,1-1.75,1,2.29,2.29,0,0,1-2.25-2.5A2.33,2.33,0,0,1,554.45,19a2,2,0,0,1,1.73.91Zm-2.78,1.17a2.17,2.17,0,0,0-.39,1.27,1.64,1.64,0,0,0,1.54,1.79,1.77,1.77,0,0,0,1.64-1.87,1.62,1.62,0,0,0-1.62-1.76A1.3,1.3,0,0,0,553.4,20.25Z"/><path class="cls-2" d="M559.36,19.08v.67a1.49,1.49,0,0,1,1.36-.78,1.24,1.24,0,0,1,1.29.87,1.57,1.57,0,0,1,1.52-.87,1.46,1.46,0,0,1,1.22.51c.23.3.29.57.29,1.33v3.07h-.79V21c0-.58,0-.72-.14-.92a.93.93,0,0,0-.83-.4c-.7,0-1.08.47-1.08,1.32v2.88h-.79V21a1.86,1.86,0,0,0-.16-.92.83.83,0,0,0-.78-.41c-.7,0-1.11.5-1.11,1.33v2.87h-.8v-4.8Z"/><path class="cls-2" d="M567.06,21.74a1.47,1.47,0,0,0,.31.87,1.55,1.55,0,0,0,1.29.66,1.68,1.68,0,0,0,1.44-.82l.69.26A2.34,2.34,0,0,1,568.66,24a2.38,2.38,0,0,1-2.45-2.5,2.43,2.43,0,1,1,4.85-.07c0,.06,0,.19,0,.31Zm3.16-.58a1.46,1.46,0,0,0-.27-.83,1.65,1.65,0,0,0-1.32-.65,1.55,1.55,0,0,0-1.29.66,1.84,1.84,0,0,0-.27.82Z"/><path class="cls-2" d="M576.2,23.88h-.79v-4.1h-.65v-.7h.65v-.64c0-1,.49-1.51,1.32-1.51H577v.71c-.57.06-.72.23-.75.79v.64H577v.7h-.75Z"/><path class="cls-2" d="M582.4,21.5a2.46,2.46,0,0,1-2.46,2.5,2.37,2.37,0,0,1-2.42-2.52,2.44,2.44,0,1,1,4.88,0Zm-4.07,0A1.62,1.62,0,0,0,580,23.27a1.64,1.64,0,0,0,1.62-1.78,1.63,1.63,0,1,0-3.25,0Z"/><path class="cls-2" d="M583.6,23.88V16.94h.8v6.94Z"/><path class="cls-2" d="M589.58,16.94h.79v6.94h-.79v-.82a2,2,0,0,1-1.72.94,2.29,2.29,0,0,1-2.26-2.49A2.35,2.35,0,0,1,587.86,19a2.07,2.07,0,0,1,1.72.84Zm-3.15,4.58A1.61,1.61,0,0,0,588,23.31a1.67,1.67,0,0,0,1.61-1.81A1.62,1.62,0,0,0,588,19.68,1.65,1.65,0,0,0,586.43,21.52Z"/><path class="cls-2" d="M592.42,21.74a1.47,1.47,0,0,0,.31.87,1.55,1.55,0,0,0,1.29.66,1.67,1.67,0,0,0,1.44-.82l.69.26A2.34,2.34,0,0,1,594,24a2.38,2.38,0,0,1-2.44-2.5,2.42,2.42,0,1,1,4.84-.07c0,.06,0,.19,0,.31Zm3.16-.58a1.46,1.46,0,0,0-.27-.83,1.65,1.65,0,0,0-1.32-.65,1.55,1.55,0,0,0-1.29.66,1.84,1.84,0,0,0-.27.82Z"/><path class="cls-2" d="M598.36,19.08v.82a1.38,1.38,0,0,1,.44-.64,1.48,1.48,0,0,1,.91-.29h.19v.8h-.22a1.25,1.25,0,0,0-1,.55,1.77,1.77,0,0,0-.28,1.14v2.43h-.79v-4.8Z"/><path class="cls-2" d="M603.12,20.4v-.06c0-.44-.37-.72-.92-.72s-.86.27-.86.68.21.57,1.07.81a2.43,2.43,0,0,1,1.16.56,1.32,1.32,0,0,1,.39.93c0,.84-.69,1.4-1.71,1.4a1.56,1.56,0,0,1-1.79-1.48h.78a.89.89,0,0,0,1,.83c.54,0,.9-.28.9-.71s-.27-.62-1.09-.83c-1-.28-1.51-.72-1.51-1.45s.67-1.39,1.68-1.39a1.47,1.47,0,0,1,1.68,1.43Z"/><rect class="cls-1" x="0.5" y="5.11" width="75.75" height="31.48" rx="15.74"/><path class="cls-2" d="M60.51,37.09H16.24a16.24,16.24,0,0,1,0-32.48H60.51a16.24,16.24,0,0,1,0,32.48ZM16.24,5.61a15.24,15.24,0,0,0,0,30.48H60.51a15.24,15.24,0,0,0,0-30.48Z"/><path class="cls-2" d="M13.34,16.94h1.84a3.09,3.09,0,0,1,3.35,3.36,3.6,3.6,0,0,1-1.09,2.78,3.46,3.46,0,0,1-2.41.8H13.34Zm.87,6.19h.32a3,3,0,0,0,2.17-.52,2.76,2.76,0,0,0,.94-2.3,2.33,2.33,0,0,0-2.49-2.63h-.94Z"/><path class="cls-2" d="M23.44,19.08h.8v4.8h-.8V23a2,2,0,0,1-1.74,1,2.29,2.29,0,0,1-2.26-2.5A2.33,2.33,0,0,1,21.72,19a2,2,0,0,1,1.72.91Zm-2.77,1.17a2.18,2.18,0,0,0-.4,1.27,1.65,1.65,0,0,0,1.54,1.79,1.77,1.77,0,0,0,1.65-1.87,1.62,1.62,0,0,0-1.63-1.76A1.28,1.28,0,0,0,20.67,20.25Z"/><path class="cls-2" d="M28,20.4v-.06c0-.44-.36-.72-.91-.72s-.87.27-.87.68.21.58,1.08.81a2.48,2.48,0,0,1,1.16.56,1.33,1.33,0,0,1,.39.93c0,.84-.69,1.4-1.71,1.4s-1.71-.51-1.79-1.48h.78a.89.89,0,0,0,1,.83c.54,0,.9-.28.9-.71s-.28-.62-1.1-.83c-1-.28-1.51-.72-1.51-1.45S26.14,19,27.15,19a1.47,1.47,0,0,1,1.68,1.43Z"/><path class="cls-2" d="M30.89,19.75A1.75,1.75,0,0,1,32.33,19a1.61,1.61,0,0,1,1.12.44,1.64,1.64,0,0,1,.37,1.25v3.22H33V20.7c0-.66-.32-1-.9-1a1.21,1.21,0,0,0-.93.42,1.27,1.27,0,0,0-.31,1v2.81h-.8V16.94h.8Z"/><path class="cls-2" d="M39.29,23.88H38.5V16.94h.79v3A2,2,0,0,1,41,19a2.31,2.31,0,0,1,2.28,2.53A2.28,2.28,0,0,1,41,24a2,2,0,0,1-1.73-.94Zm0-2.39a1.59,1.59,0,1,0,3.15,0,1.59,1.59,0,1,0-3.15,0Z"/><path class="cls-2" d="M49,21.5A2.45,2.45,0,0,1,46.51,24a2.37,2.37,0,0,1-2.43-2.52,2.44,2.44,0,1,1,4.88,0Zm-4.07,0a1.63,1.63,0,0,0,1.64,1.78,1.64,1.64,0,0,0,1.62-1.78,1.61,1.61,0,0,0-1.61-1.79A1.63,1.63,0,0,0,44.89,21.49Z"/><path class="cls-2" d="M53.79,19.08h.79v4.8h-.79V23A2,2,0,0,1,52,24a2.3,2.3,0,0,1-2.26-2.5A2.33,2.33,0,0,1,52.06,19a2,2,0,0,1,1.73.91ZM51,20.25a2.17,2.17,0,0,0-.39,1.27,1.64,1.64,0,0,0,1.54,1.79,1.77,1.77,0,0,0,1.64-1.87,1.62,1.62,0,0,0-1.62-1.76A1.3,1.3,0,0,0,51,20.25Z"/><path class="cls-2" d="M57,19.08v.82a1.38,1.38,0,0,1,.44-.64,1.49,1.49,0,0,1,.92-.29h.19v.8h-.22a1.23,1.23,0,0,0-1,.55A1.77,1.77,0,0,0,57,21.45v2.43h-.79v-4.8Z"/><path class="cls-2" d="M62.91,16.94h.79v6.94h-.79v-.82a2,2,0,0,1-1.72.94,2.29,2.29,0,0,1-2.26-2.49A2.35,2.35,0,0,1,61.19,19a2.07,2.07,0,0,1,1.72.84Zm-3.15,4.58a1.61,1.61,0,0,0,1.54,1.79,1.67,1.67,0,0,0,1.61-1.81,1.62,1.62,0,0,0-1.55-1.82A1.65,1.65,0,0,0,59.76,21.52Z"/></g></g></svg>