<svg xmlns="http://www.w3.org/2000/svg" viewBox="0 0 591.02 509.49"><defs><style>.cls-1,.cls-2{fill:none;stroke-miterlimit:10;}.cls-1{stroke:#00008c;stroke-width:0.8px;}.cls-2{stroke:#ff2031;stroke-width:0.67px;}</style></defs><title>typography</title><g id="Layer_2" data-name="Layer 2"><g id="Layer_1-2" data-name="Layer 1"><path d="M268.74,453.78l.11.07a3,3,0,0,0,.25,1.17c.27.74,2.25,5.78,3.87,9.74.32.35.61.51,1.78.85l-.13.4-1.92,0-1.87,0,.09-.35.66-.5c-.14-.5-.65-1.75-1.42-3.62a38,38,0,0,1-4,.09c-.72,1.8-1,2.52-1.3,3.4l1.62.58-.09.4-2.18,0-1.82,0,.11-.4,1.26-.56c.54-1.11,2.52-5.67,4-9.43a.85.85,0,0,0,.08-.56l-.18-.43Zm-.58,2.41c-.79,2.13-1.29,3.41-1.71,4.58.49,0,2.68.07,3.48.07-.69-1.82-1.21-3.24-1.73-4.65Z"/><path d="M280.15,461.07c0-2-.83-2.39-1.86-2.39a2.34,2.34,0,0,0-1.15.38,16.08,16.08,0,0,1-.18,1.71l-.21.07a4.7,4.7,0,0,1-1-1.48,9,9,0,0,1,2-1.19,3.84,3.84,0,0,1,1.26-.28,2.48,2.48,0,0,1,2.36,2.75c0,1.21,0,2.77,0,4a2.6,2.6,0,0,0,1.44,1.08l-.15.28a1.36,1.36,0,0,1-.7.17c-1.21,0-1.58-.56-1.76-1.05h0a3.31,3.31,0,0,1-2.22,1.08,2.13,2.13,0,0,1-2.25-2.05,1.62,1.62,0,0,1,.72-1.48,17.18,17.18,0,0,1,3.75-1.28Zm-1.59,4.23a2.11,2.11,0,0,0,1.39-.64.81.81,0,0,0,.18-.44l0-2.25a13.49,13.49,0,0,0-2.49.89,1,1,0,0,0-.65,1A1.45,1.45,0,0,0,278.56,465.3Z"/><path d="M288.14,454.27c.86-.09,2.86-.26,4-.26,2.64,0,4.26.78,4.26,2.72,0,1.77-1.62,2.56-2.91,2.79v.13c2.57.27,3.72,1.33,3.72,2.9,0,3.11-3.52,3.49-5.94,3.49-1.15,0-2.21,0-3.29-.05l.12-.4,1.34-.5c0-.25.1-1.8.1-4.27V455l-1.54-.35Zm2.75,5.72v.58c0,1.42-.07,3.38.06,4.82,2.52,0,3.46-.39,4-1a2.62,2.62,0,0,0,.63-1.84C295.59,461.2,295,459.92,290.89,460Zm0-.59c2.16,0,4.06-.52,4.06-2.56a1.79,1.79,0,0,0-1-1.71,5,5,0,0,0-2.52-.45h-.58Z"/><path d="M299.32,459.13c0-1.66,0-3.19-.07-4.65l-1-.43.14-.34a11.66,11.66,0,0,1,2.27-.58c0,2.07-.05,3.85-.05,5.58a6.82,6.82,0,0,1,2.12-.82,3.78,3.78,0,0,1,3.82,3.92,4.33,4.33,0,0,1-4.39,4.41,5.45,5.45,0,0,1-1.75-.56,5.57,5.57,0,0,1-1.06.54Zm1.26,6a4.43,4.43,0,0,0,1.33.29,3.19,3.19,0,0,0,3.21-3.44,3,3,0,0,0-2.94-3.17,3.3,3.3,0,0,0-1.6.45Z"/><path d="M322,454.5a4,4,0,0,1,1.27-.54l.13.07a12.39,12.39,0,0,1-.72,2.79l-.27.18a10,10,0,0,1-.58-1.87,4.73,4.73,0,0,0-2.41-.61,5.21,5.21,0,0,0-5.53,5.54c0,3.17,2.22,5.48,5.77,5.48a3.42,3.42,0,0,0,1.29-.18c.69-.7,1.57-1.64,2-1.93h.45a8.86,8.86,0,0,1-1.17,2.31,9.23,9.23,0,0,1-3.13.59c-3.35,0-6.73-1.85-6.73-6.18s3.69-6.35,6.8-6.35A5.55,5.55,0,0,1,322,454.5Z"/><path d="M329.05,457.89a3.58,3.58,0,0,1,2.22.66,9.49,9.49,0,0,1-.61,1.82l-.27.13a11.24,11.24,0,0,1-.52-1.86,1.65,1.65,0,0,0-.76-.14,3.19,3.19,0,0,0-3.19,3.45,3.23,3.23,0,0,0,3.33,3.46,1.61,1.61,0,0,0,.51-.16,8.25,8.25,0,0,1,1.49-1l.11.21a3.75,3.75,0,0,1-1.14,1.51,6.24,6.24,0,0,1-1.69.29,3.92,3.92,0,0,1-4-4.09A4.27,4.27,0,0,1,329.05,457.89Z"/><path d="M336.94,454.25a36.32,36.32,0,0,1,4-.24c4.27,0,7.47,1.66,7.47,5.8a5.62,5.62,0,0,1-3.9,5.57,13.36,13.36,0,0,1-4.69.66c-1.42,0-2.37,0-3.15-.05l.13-.42,1.46-.43c.07-.2.11-2.3.11-5.33v-4.9l-1.62-.27Zm2.79,5.56c0,3,0,5.37.09,5.58,2.25,0,4.09-.34,5.29-1.4a5.1,5.1,0,0,0,1.73-4.14,4.67,4.67,0,0,0-1.67-3.87c-1.23-1-2.92-1.35-5.44-1.32Z"/><path d="M357.26,464.69a3.19,3.19,0,0,0,1.41,1.08l-.13.31a1.26,1.26,0,0,1-.72.14,1.88,1.88,0,0,1-1.71-1h0a4.63,4.63,0,0,1-2.18,1,3.85,3.85,0,0,1-3.8-4,4.35,4.35,0,0,1,4.32-4.34,3.39,3.39,0,0,1,1.55.55h0c0-1.37,0-2.42-.05-3.93l-1.12-.47.16-.32a10.73,10.73,0,0,1,2.33-.58c0,2-.06,3.73-.06,5.69Zm-1.26-5.6a2.86,2.86,0,0,0-1.48-.43,3.19,3.19,0,0,0-3,3.33,3.06,3.06,0,0,0,2.9,3.24,2.87,2.87,0,0,0,1.62-.61Z"/><path d="M364,454.1c.68,0,1.4,0,2.11,0h4.44a10,10,0,0,1,1.41-.2l0,.06c-.05.48-.34,2-.46,2.55l-.29.17c-.18-.43-.56-1.53-.67-1.93l-3.78.13v4.55c1.69,0,3.48-.09,4.57-.21l.06.14c-.07.14-.87,1-1.08,1s-3.1-.18-3.55-.18c0,1.2,0,3.46.07,5l4,.14c.31-.43,1.06-1.6,1.44-2.05l.36,0A21.5,21.5,0,0,1,372,466c-1.19-.05-2.25-.05-3.29-.05H366l-2.36,0,.13-.42,1.56-.48c.06-.22.11-2.27.11-5.32V455l-1.57-.45Z"/><path d="M375.29,461.74a2.44,2.44,0,0,0,0,.27,3,3,0,0,0,3,3.33,1.69,1.69,0,0,0,.65-.11c.59-.39,1.06-.72,1.44-.92l.09.29a4.16,4.16,0,0,1-.94,1.19,5.92,5.92,0,0,1-1.89.43,3.67,3.67,0,0,1-3.71-4,4.07,4.07,0,0,1,3.82-4.34,2.86,2.86,0,0,1,3,3c0,.21-.05.5-.18.57a5,5,0,0,1-1.64.24Zm3.89-.63a1.46,1.46,0,0,0,.09-.56,1.86,1.86,0,0,0-1.71-2.07c-1.63,0-2.23,1.91-2.25,2.63Z"/><path d="M386.38,454.12l1.91,0h4.52c.15,0,1.1-.22,1.35-.22l0,0c0,.32-.26,2.09-.39,2.61l-.33.18c-.28-.74-.46-1.3-.68-2l-3.73.16v4.83a39.84,39.84,0,0,0,4.68-.24l.06.18a5,5,0,0,1-1,1c-.47,0-3.3-.18-3.77-.18,0,3.14,0,4,.08,4.54l2,.54L391,466l-2.55,0-2.15,0,.11-.4,1.28-.56c0-.27.07-1.93.07-5.2V455l-1.51-.49Z"/><path d="M395,465.66l1.17-.54c0-.23,0-1.55,0-3.67V459l-1.24-.29.31-.54h.93a5.52,5.52,0,0,1,1.17-3.87,3.1,3.1,0,0,1,2.36-1.12,1.93,1.93,0,0,1,1.24.38,9.31,9.31,0,0,1-.57,1.55l-.26.14a9.14,9.14,0,0,1-.64-1.38.79.79,0,0,0-.2,0c-1,0-1.6,1-1.73,2.79,0,.56-.05,1.1-.07,1.55h2.36l-.33.58-2,.21c0,.36-.06,1.23-.06,2.4,0,2.75,0,3.53.06,3.78l1.73.52-.13.4-2.41,0-1.84,0Z"/><path d="M411.33,460.24c1-.07,4.18-.16,4.9-.14a53.14,53.14,0,0,1-1,6.14h-.13a.81.81,0,0,1-.72-.58,8.5,8.5,0,0,1-3,.67c-3.88,0-6.59-2.43-6.59-6.23,0-3.47,2.83-6.3,6.9-6.3a4.88,4.88,0,0,1,2.95.81,3.73,3.73,0,0,1,1.32-.74l.11.09a15.5,15.5,0,0,1-.74,3l-.33.15a12.27,12.27,0,0,1-.52-1.91,5.47,5.47,0,1,0-2.54,10.26,7.14,7.14,0,0,0,2.42-.39c.09-1.33.23-3,.34-4l-4-.09-.07-.21Z"/><path d="M423.73,458.93v0a2.49,2.49,0,0,1,.65,1.81,2.87,2.87,0,0,1-3.08,2.79,3,3,0,0,1-1.38-.3,1.77,1.77,0,0,0-.58.88,1,1,0,0,0,.87.81,19.12,19.12,0,0,1,3.58,0,2,2,0,0,1,1.1.43,1.88,1.88,0,0,1,.66,1.47,3.25,3.25,0,0,1-1.4,2.47,5.1,5.1,0,0,1-3.22,1.15c-1.72,0-3.06-.9-3.06-2.17a.74.74,0,0,1,.19-.47l1.55-1.73,0,0a3.32,3.32,0,0,1-.68-.48,2,2,0,0,1-.67-1.17c0-.2.63-.83,1.24-1.36a2.48,2.48,0,0,1-1.18-2.21,3,3,0,0,1,3.31-2.93,8.21,8.21,0,0,1,1.33.14c.58.11,1,.18,1.23.2l1.54-.63.08.16-.76,1.08Zm-3.58,7.33a3.56,3.56,0,0,0-1,1.6c0,1.24,1.32,1.67,2.36,1.67,1.53,0,2.94-.68,2.94-2.16a1.2,1.2,0,0,0-1-1.2,8.23,8.23,0,0,0-1.8-.13A4.24,4.24,0,0,0,420.15,466.26Zm-.54-5.55c0,1.1.58,2.27,1.78,2.27s1.73-1,1.73-2.3c0-1.07-.59-2.22-1.76-2.22S419.61,459.54,419.61,460.71Z"/><path d="M431.09,454.12l2,0,1.53,0-.11.4-.74.56v4.12h6.57v-4.11l-.9-.63.17-.34,1.4,0,2.29,0-.17.43-1.44.51v4.79c0,2,.06,4.95.13,5.17l1.67.55-.16.44L441,466l-1.48,0,.11-.44.68-.54c.06-1.8,0-3.36,0-5.09a19.07,19.07,0,0,1-2.35.11h-4.22c0,1.51-.05,3,0,4.89l.76.67-.15.4L433,466l-2.25,0,.16-.42,1.37-.5c0-.47.11-3.15.11-5.35V455l-1.46-.48Z"/><path d="M452,464.73c0,.3.09.38.34.48l1,.45-.13.38a18.35,18.35,0,0,1-2.62-.14c.07-.76.16-1.93.16-4.58,0-2.17-1.23-2.48-2.07-2.48a3,3,0,0,0-2,.72c0,1.75,0,5.2.06,5.56l1.31.51L448,466l-1.88,0-1.74,0,.12-.38,1-.51c0-.27,0-1.87,0-4.23s0-4.34-.07-6.39l-1-.45.11-.34c.47-.15,1.15-.33,2.29-.58,0,1.8-.06,3.84-.06,5.84h0a4,4,0,0,1,2.56-1.09,2.63,2.63,0,0,1,2.66,2.68Z"/><path d="M458.83,454.12l2,0,2.14,0-.12.42-1.34.48v4.79c0,3,.06,4.95.09,5.28l1.68.5-.13.42-2.29,0-2.37,0,.11-.42,1.45-.5c.08-.31.11-2.27.11-5.28V455l-1.46-.49Z"/><path d="M464.65,458.39a9.93,9.93,0,0,1,2.14-.5v3.6c0,2,0,3.06,0,3.6l1.29.52-.12.4-1.91,0-1.77,0,.13-.4,1-.52c0-.6.06-2.2.06-3.64v-2.29l-1-.45Zm1.58-4.18a2.07,2.07,0,0,1,.81.92l-.05.15a3.1,3.1,0,0,1-.87.93l-.12,0a3.08,3.08,0,0,1-.81-.94l0-.14a3.82,3.82,0,0,1,.9-1Z"/><path d="M473.43,454.12l2.14,0,2.07,0-.12.43-1.23.51c0,1.6,0,7.15,0,8.42a4.22,4.22,0,0,1-.27,1.73,8.05,8.05,0,0,1-2.46,3.73l-.47-.27v-.11c1.65-1.4,1.89-3.09,1.85-5.22V459.2c0-2.93-.05-3.8-.07-4.18l-1.62-.48Z"/><path d="M478.56,458.37a10.73,10.73,0,0,1,2.23-.48v6.64a6.77,6.77,0,0,1-.68,3,8.82,8.82,0,0,1-2.2,2.9l-.45-.21,0-.2c1.88-1.44,2.11-3.35,2.11-5.56,0-1.54,0-4.33-.05-5.37-.31-.13-.69-.27-1.05-.43Zm1.62-4.18a2.48,2.48,0,0,1,.81.94l-.05.13a2.74,2.74,0,0,1-.89.93l-.1.06a2.77,2.77,0,0,1-.83-1l.05-.12a3.8,3.8,0,0,1,.88-1Z"/><path d="M487.42,454.12l2,0,2.18,0-.11.42-1.35.48v4.79c0,3,0,4.95.09,5.28l1.67.5-.1.42-2.45,0-2.25,0,.1-.42,1.48-.5c.07-.33.11-2.27.11-5.28V455l-1.44-.5Zm10.62.47c-.54.13-1.32.31-1.85.45a1.33,1.33,0,0,0-.6.36c-.76.72-1.55,1.6-3.67,4v.05c1.44,1.67,2.77,3,4.08,4.43s2,1.94,2.26,2.29l-.24.07a4.48,4.48,0,0,1-3.19-1.55c-1-1-2.62-2.72-4.24-4.57V460c2.52-2.86,3.61-4.1,4.32-5.11a4.2,4.2,0,0,1-.08-.77,32.59,32.59,0,0,1,3.48.05Z"/><path d="M502.75,465.63l-.09.38-2,0-1.8,0,.13-.38,1-.52c0-.31.06-1.41.06-3.46,0-2.5,0-4.86-.07-7.13l-1-.49.16-.32a16.3,16.3,0,0,1,2.21-.58c0,2,0,4.29,0,6.52,0,1.19,0,5.17,0,5.46Zm4.32.66a3.61,3.61,0,0,1-2.23-.88,32.84,32.84,0,0,1-3.13-3.55l0-.1c.83-.92,1.82-2.06,2.54-3l.32-.88a15.67,15.67,0,0,1,2.33.21l-.24.38c-.25.14-1.42.5-1.8.68-.7.69-.92.92-1.92,2.06v0c1.09,1.41,3.34,3.91,4.26,4.92Z"/><path d="M512.36,454.12l2,0,2.13,0-.15.42-1.28.5v4.74c0,2.86,0,5.16.08,5.38l4,.23c.43-.64,1.19-1.82,1.58-2.28l.36,0a22.88,22.88,0,0,1-.59,3c-.63,0-2.25-.07-6.09-.07L512,466l.13-.4,1.51-.5c0-.26.07-2.49.07-5.32V455l-1.51-.52Z"/><path d="M525.7,465.59l-.18.42-1.78,0-1.91,0,.11-.38,1.15-.49c0-.79,0-1.91,0-6.3,0-1.62,0-3.51-.07-4.41l-1-.4.2-.36a18.33,18.33,0,0,1,2.21-.54c0,2,0,3.69,0,5.64,0,3.62,0,5,0,6.37Z"/><path d="M531.53,454.14l2.67,0a3.1,3.1,0,0,0,.23.87c.36.77,1.82,3.69,4.23,8.69h0c.47-.93,2.74-5.42,4.36-8.86a2.62,2.62,0,0,0,0-.7l3.1,0-.15.43-1.54.49c.07,2.07.38,9.52.43,10l1.64.52-.07.42-2.26,0-2,0,.12-.42,1.16-.5c-.08-2.07-.13-6.65-.18-9.29h0c-1,2.27-2.54,5.31-4.81,10.39h-.3c-.94-2-1.64-3.67-4.45-9.9h-.05c-.18,2.54-.47,6.77-.53,8.73l1.62.58-.12.4-2.13,0-1.8,0,.09-.4,1.28-.56c.27-1.8.7-5.81,1-9.58-.13-.47-.27-.54-1.79-.88Z"/><path d="M548.81,459.24l-1-.36.11-.36a8,8,0,0,1,2.12-.63l-.09,1.49h0a4.9,4.9,0,0,1,2.81-1.49A2.26,2.26,0,0,1,555,459.4c1.31-1.14,2.12-1.51,3-1.51a2.43,2.43,0,0,1,2.41,2.7v4.3c0,.16.13.25.32.34l1,.4-.08.38-1.87,0-1.6,0,.09-.4.81-.5c0-.69.09-1.91.07-3.91,0-.94-.11-2.34-1.76-2.34a3.47,3.47,0,0,0-2.24,1.11,13.31,13.31,0,0,1,.11,1.57l0,3.57,1.08.52-.1.38-1.59,0L553,466l.09-.42.85-.47c0-1.31,0-2.73,0-4.07,0-.84-.12-2.19-1.8-2.19a3.61,3.61,0,0,0-2.09,1.13c0,2.31,0,4.49,0,5.13l1.15.47-.12.42-1.75,0-1.69,0,.11-.42,1-.47c0-.39,0-2,0-3.56Z"/><path d="M266.85,487.61l-2.09,0-2,0,.09-.4,1.52-.61c.05-.83.23-3.8.32-9.13-.7-1.08-.79-1-2-1.33l.14-.42,2.24-.09a5.11,5.11,0,0,0,.66,1c2.41,3.06,5.17,6.25,7.62,9h.05c0-.83-.1-7.73-.12-8.92l-1.43-.59.18-.4,1.71,0,2.24,0-.13.45-1.56.54c0,.83-.17,6-.2,9.33,0,.58,0,1.42-.09,1.85l-.17.08c-1.58-1.12-4.75-5.08-8.49-9.73h0c0,3.14,0,7.53.13,8.34l1.56.63Z"/><path d="M277.75,480.89l-1-.41.11-.36a7.44,7.44,0,0,1,2.11-.63l-.08,1.44h0c1.48-1.23,2.16-1.44,2.86-1.44,1.86,0,2.4,1.53,2.4,2.86v4.09a.34.34,0,0,0,.21.34l1.12.43-.13.4-1.9,0-1.48,0,.13-.44.72-.5c0-.54.07-1.85.07-4.21,0-1.44-.85-2-1.78-2a3.39,3.39,0,0,0-2.18,1.12c0,1.35,0,4.8.05,5.18l1,.45-.12.42-1.64,0-1.75,0,.13-.4,1-.47c0-.3.05-1.92.05-4.25Z"/><path d="M303.37,481.57a6.23,6.23,0,1,1-12.46.22,6.23,6.23,0,0,1,6.18-6.39C300.51,475.45,303.37,477.72,303.37,481.57Zm-10.84-.07c0,3,1.87,5.8,4.83,5.8,3.18,0,4.41-2.84,4.41-5.67,0-3.19-2-5.58-4.7-5.58C294.21,476.05,292.53,478.37,292.53,481.5Z"/><path d="M313,483.57a4,4,0,0,1-4,4.25,3.93,3.93,0,0,1-4-4.05,4.17,4.17,0,0,1,4-4.28A3.93,3.93,0,0,1,313,483.57Zm-6.45.09c0,1.73.94,3.57,2.61,3.57s2.33-1.89,2.33-3.5c0-1.76-.85-3.67-2.47-3.67S306.55,481.79,306.55,483.66Z"/><path d="M318.88,475.9a32.26,32.26,0,0,1,3.57-.29,5.78,5.78,0,0,1,3.26.76,3.18,3.18,0,0,1,1.44,2.76,3.65,3.65,0,0,1-3.78,3.69,2.27,2.27,0,0,1-.71-.08l-.18-.43c2.16-.16,3.15-1.37,3.15-3.09,0-2.34-1.76-3.05-4.1-2.94v4.88c0,4.32.11,5.17.11,5.49l1.94.54-.16.42-2.63,0-2,0,.09-.4,1.27-.54a51,51,0,0,0,.08-5.42v-4.64l-1.46-.31Z"/><path d="M330.66,480.64l0,0a5.27,5.27,0,0,1,2.5-1.17,3.6,3.6,0,0,1,3.48,3.83,4.46,4.46,0,0,1-4.38,4.5,3.71,3.71,0,0,1-1.51-.56l0,0c0,1.41,0,2.61.07,3.55l1.69.5-.18.4-2.25,0-1.77,0,.17-.43.91-.42c0-.68.1-2.39.1-5v-5.08l-1-.52.18-.32a8.13,8.13,0,0,1,2.07-.51Zm.07,6a3.13,3.13,0,0,0,1.51.43,3.2,3.2,0,0,0,3-3.47c0-1.57-.91-3.12-2.62-3.12a3.44,3.44,0,0,0-1.91.77Z"/><path d="M354.89,481.48a6,6,0,0,1-4.6,6.27v0c2.26,1.29,4,2.19,5.37,2.88l-.18.27a8,8,0,0,1-3.85-1c-.81-.4-1.71-1-3.28-1.84a7.1,7.1,0,0,0-1-.33c-2.61-.79-4.88-2.53-4.88-6a6.19,6.19,0,0,1,6.17-6.37A6.05,6.05,0,0,1,354.89,481.48Zm-10.86.13c0,2.81,1.84,5.58,4.93,5.78,3.05-.22,4.32-3,4.32-5.8,0-3.09-2-5.54-4.7-5.54S344,478.51,344,481.61Z"/><path d="M363.76,485.19c0,2,0,4.63,0,5.64l1.56.49-.12.41-2.15,0-2.1,0,.11-.4,1.35-.48c0-1.44,0-2.88.07-3.82l0,0a4.46,4.46,0,0,1-2,.81,3.81,3.81,0,0,1-3.82-4,4.39,4.39,0,0,1,4.32-4.32,3.06,3.06,0,0,1,1.77.68,4.05,4.05,0,0,1,1.6-.7l.05.11a3.77,3.77,0,0,1-.57,1.33Zm-1.26-4.43a2.45,2.45,0,0,0-1.5-.48,3.16,3.16,0,0,0-3,3.31,3,3,0,0,0,2.88,3.3,2.91,2.91,0,0,0,1.62-.51Z"/><path d="M370.4,476a23.79,23.79,0,0,1,4-.37c2.83,0,4.32,1,4.32,3.05s-1.51,2.79-2.86,3.22v0c.4.63,1.77,2.54,2.86,3.92s1.28,1.6,1.52,1.91l-.11.13a3.78,3.78,0,0,1-2.69-1.43,40.43,40.43,0,0,1-3.29-4.41l.05-.1c1.72-.49,3.06-1.23,3.06-3.05,0-2.3-2-2.66-4.14-2.61v5.58c0,2.45,0,3.86,0,4.79l1.8.54-.14.42-2.47,0-2.2,0,.13-.42,1.37-.54c0-.7.12-2.41.12-4.77v-5.27l-1.55-.2Z"/><path d="M381.59,480.06a6.83,6.83,0,0,1,1.82-.57,8.57,8.57,0,0,1,.18,1.83h0a3.14,3.14,0,0,1,2.56-1.83,1.18,1.18,0,0,1,.84.27,7.92,7.92,0,0,1-.52,1.81l-.2.13a6.22,6.22,0,0,1-.61-1.15.49.49,0,0,0-.27-.06c-.58,0-1.4.74-1.78,1.73v4.5l1.83.51-.09.38-2.44,0-1.77,0,.09-.38,1-.52c.06-1.89.08-4.87.08-5.77l-.94-.54Z"/><path d="M398.19,476a5,5,0,0,1,1.15-.59l.13.09a20,20,0,0,1-.63,2.66l-.27.15a12.94,12.94,0,0,1-.56-1.71,2.91,2.91,0,0,0-1.65-.49,2.12,2.12,0,0,0-2.27,2.12,1.93,1.93,0,0,0,1,1.84c.79.49,1.75.94,2.72,1.46,1.75.92,2.09,1.93,2.09,2.86,0,2.85-2.67,3.53-4.09,3.53a5.61,5.61,0,0,1-3.44-1.19,14.89,14.89,0,0,1,.76-2.18l.29-.1c.07.23.14.55.48,2.43a4.11,4.11,0,0,0,1.82.34c1.68,0,2.77-.92,2.77-2.43a2.17,2.17,0,0,0-1.35-2c-.9-.5-1.85-.93-2.72-1.45a3.11,3.11,0,0,1-1.65-2.76,3.29,3.29,0,0,1,3.46-3.22A3.13,3.13,0,0,1,398.19,476Z"/><path d="M405.54,479.92a3.49,3.49,0,0,1,.88-.45l.14.14a10.43,10.43,0,0,1-.45,2.07l-.21.13c-.2-.36-.44-1-.63-1.39a1.55,1.55,0,0,0-1-.3,1.3,1.3,0,0,0-1.42,1.33,1,1,0,0,0,.63,1c.45.26,1.55.71,2.14,1a2.06,2.06,0,0,1,1.39,1.89c0,1.88-2,2.45-3,2.45a5.05,5.05,0,0,1-2.6-.77,14.59,14.59,0,0,1,.42-1.89L402,485c.23.43.61,1.55.77,2a3.08,3.08,0,0,0,1.12.2c1,0,1.76-.59,1.76-1.38a1.13,1.13,0,0,0-.73-1.14c-.49-.25-1.1-.54-1.81-.86a2.22,2.22,0,0,1-1.51-2.07,2.55,2.55,0,0,1,4-1.82Z"/><path d="M421.74,475.72c.34-.09,1-.19,1.4-.25l0,.06a24.49,24.49,0,0,1-.5,2.77l-.28.16c-.16-.45-.63-1.93-.68-2.11l-3.31.13V481c0,4.65.11,5.13.11,5.67l2.1.54-.14.42-2.74,0-2.77,0,.12-.42,1.93-.54c0-.63.06-.95.06-5.08v-5.09l-3.12-.13c-.2.44-.81,1.71-1,2l-.27.07c-.05-.68-.07-2.36-.05-2.92l.05-.07,1.28.25Z"/><path d="M427.51,479.72l-.34.61-2.46.2v5.13a1.2,1.2,0,0,0,.32.88,1.33,1.33,0,0,0,.9.27,2.51,2.51,0,0,0,1.46-.41l.09,0,0,.54a2.5,2.5,0,0,1-2,.86,2.23,2.23,0,0,1-1.62-.72c-.31-.41-.43-.79-.43-2v-4.61l-1.23-.2.33-.61h.91a18.25,18.25,0,0,1,.36-2,1.57,1.57,0,0,1,1-.58l-.07,2.61Z"/><path d="M432.61,475.72l2.05,0,1.8,0-.11.4-1,.54v7a3.31,3.31,0,0,0,.54,1.93,3.66,3.66,0,0,0,3,1.39,3.52,3.52,0,0,0,2.9-1.28,3.9,3.9,0,0,0,.66-2.27c.09-2.41,0-4.68,0-6.77l-1.33-.54.15-.4,1.73,0,2.05,0-.11.4-1.46.54c-.05.4-.07.88-.21,6.52a5.13,5.13,0,0,1-.74,2.79,5.12,5.12,0,0,1-8,0,5.07,5.07,0,0,1-.56-2.65c0-2.62,0-5.63,0-6.64l-1.51-.5Z"/><path d="M445.42,480.22l.16-.36a13.22,13.22,0,0,1,2.2-.27c-.07.76-.13,2.2-.13,5.37a1.9,1.9,0,0,0,.35,1.26,1.78,1.78,0,0,0,1.38.56,2.57,2.57,0,0,0,2.15-1.19v-4.7c-.17-.31-.45-.43-1.21-.7l.16-.34a10.79,10.79,0,0,1,2.36-.26c0,.85,0,2,0,6.65a2.07,2.07,0,0,0,1.45,1l-.12.31a1.84,1.84,0,0,1-.9.2,1.58,1.58,0,0,1-1.66-1.39h0a3.68,3.68,0,0,1-2.65,1.42,2.62,2.62,0,0,1-1.8-.68,3,3,0,0,1-.7-2.25c0-1.14.05-2.94.05-4.25Z"/><path d="M462.45,476.15l-.52.49c.3.87.86,2.31,3.56,9.06h0c1.06-2.87,2.41-6.34,3.31-9l-.68-.52.16-.42,1.22,0,1.81,0-.11.42a3.61,3.61,0,0,0-1.46.77c-.59,1.19-3.26,7.92-4.07,10a6.65,6.65,0,0,1-.63,1h-.22c-.37-1.06-2.82-7.36-4.28-10.91-.36-.45-.67-.59-1.66-.9l.2-.4,1.75,0,1.71,0Z"/><path d="M470.5,479.68c.43,0,.9,0,1.54,0s1,0,1.54,0l-.17.45-.57.4c.37,1.1,1.06,2.83,2.07,5.29h0c.36-.9.71-1.69,2-5.2l-.87-.52.15-.42c.28,0,.84,0,1.26,0s1.08,0,1.47,0l-.12.44a2,2,0,0,0-1.14.82c-.28.54-1.89,4.4-2.57,6.11a3.25,3.25,0,0,1-.54.86h-.15c-.16-.34-1.73-4.37-2.82-7a2,2,0,0,0-1.23-.85Z"/><path d="M483.4,475.72l1.79,0,1.52,0-.12.4-.54.41c.32,1,.94,2.4,3.76,9.38h0c.56-1.11,1.13-2.3,2.18-4.64-.67-1.64-1.44-3.4-2-4.48a2.48,2.48,0,0,0-1.38-.67l.16-.4,1.75,0,.81,0,0,.06.07.81c.17.5.33.92,1.34,3.18h0a31.43,31.43,0,0,0,1.37-3.18l0-.81,0-.06.83,0,1.69,0-.12.4A3.24,3.24,0,0,0,495,477c-.23.41-.7,1.18-1.87,3.61.14.36.85,2,2.25,5.23h0c.81-2.18,2.1-5.66,3.31-9.22l-.59-.47.14-.4,1.06,0,1.95,0-.09.4a3.31,3.31,0,0,0-1.55.72c-.49.88-2.43,6.05-4,10.14a4.87,4.87,0,0,1-.67.95h-.13c-.34-.7-1.38-3.31-2.44-5.78h0c-1.21,2.5-1.84,3.8-2.36,4.9a4.22,4.22,0,0,1-.68.88h-.11c-.51-1.17-3.64-9-4.61-11.11a2.65,2.65,0,0,0-1.41-.7Z"/><path d="M503.72,480.12l-.73.45c.27.88.79,2.45,1.71,5.2h.05c.65-1.67,1.23-3,1.77-4.45l-.15-1a4.69,4.69,0,0,1,1.17-.62l.13.09.07,1.3c.43,1.28,1.08,2.9,1.8,4.79h0c.64-2,1.08-3.35,1.63-5.29l-1-.45.16-.44c.47,0,.95,0,1.42,0s1,0,1.41,0l-.09.44a2.18,2.18,0,0,0-1.1.66c-.24.56-1.19,3.28-2.27,6.38a6.57,6.57,0,0,1-.6.75H509c-.63-1.6-1.33-3.49-2.14-5.51h0c-.74,1.77-1.1,2.6-2,4.74a5.34,5.34,0,0,1-.58.77h-.14c-.63-1.83-1.82-5.34-2.49-7.09-.23-.34-.46-.49-1.15-.7l.16-.44c.6,0,1.12,0,1.64,0s1,0,1.53,0Z"/><path d="M518.36,475.72l2.25,0,1.49,0-.1.43-.46.47c1,1.82,1.64,2.79,2.26,3.75h0c.76-1.19,1.28-2,2.22-3.71l-.53-.54.17-.4,1.17,0,2.07,0-.13.43a3.89,3.89,0,0,0-1.92.89c-.44.59-1.12,1.49-2.72,3.94,1,1.75,2.44,4.2,3.08,5.17.21.34.34.47.59.54l1.75.54-.18.38-2.47,0-1.71,0,.11-.4.61-.45c-.27-.5-1.12-2-2.59-4.47h0c-.86,1.41-1.8,2.76-2.59,4.29l.84.63-.12.4-1.59,0-2.07,0,.13-.4,1.17-.41a1.53,1.53,0,0,0,.79-.62c.38-.48,1.53-2.08,3.1-4.55-1.14-2-2-3.37-2.68-4.52a.91.91,0,0,0-.67-.56l-1.46-.43Z"/><path d="M534.27,482.51h0c.43-.76.77-1.24,1-1.85a2.23,2.23,0,0,0,.15-1l1,0,1.67,0-.12.42a5.75,5.75,0,0,0-1.84.77c-.45.59-.81,1.06-1.57,2.2.56,1,1.55,2.68,1.88,3.17a1.26,1.26,0,0,0,.61.5l1.37.41-.17.42c-.54,0-1.9.09-2.57.09-.45-.87-.76-1.48-1.87-3.39h0c-.83,1.39-1,1.75-1.38,2.42a2,2,0,0,0,.48.52l-.12.38-1.34,0-1.51,0,.09-.4,1-.43a1.51,1.51,0,0,0,.72-.58c.52-.72.87-1.15,1.77-2.54-1.08-1.91-1.48-2.59-1.75-3a5.15,5.15,0,0,0-1.57-.61l.17-.4,1.38,0,1.39,0-.11.7Z"/><path d="M543.07,475.72l2,0,1.39,0-.11.4-.41.4c.34.7,1.26,2.3,2.84,5.05h.06c.93-1.69,2-3.72,2.62-4.95l-.59-.47.16-.43,1.07,0,2,0-.16.43-.8.29a1.37,1.37,0,0,0-1,.65c-.76,1.14-2,3.17-2.85,4.85a1.35,1.35,0,0,0-.18.7c0,2.34,0,3.76.06,4l2.14.56-.14.4-2.76,0-2.68,0,.12-.38,1.81-.56c0-.36.12-1.55.12-3.84a1.11,1.11,0,0,0-.16-.64c-.54-1-1.86-3.28-3-5.26a2.92,2.92,0,0,0-1.68-.81Z"/><path d="M558.7,479.68c.34,0,.84,0,1.22,0s1.05,0,1.46,0l-.07.42a2.59,2.59,0,0,0-1.12.77c-.72,1.57-2,4.86-3.83,9.17-.13.54-.27,1.29-.44,1.94a.84.84,0,0,1-.43.07,1.86,1.86,0,0,1-1.19-.5c.18-.32.9-1.26,1.48-2,.25-.5.72-1.48,1-2.16-.16-.31-1.77-4.79-2.49-6.5-.27-.4-.5-.56-1.26-.79l.17-.42c.5,0,1,0,1.53,0s1.08,0,1.63,0l-.12.44-.61.43c.18.59.77,2.25,1.83,5.17h0c.79-2,1.58-4.11,1.92-5.17l-.86-.43Z"/><path d="M272.86,497.52c-.63.92-4.93,6.79-7.76,10.88v.05c1.69,0,5.56.07,6.27.07.41-.61,1.24-1.92,1.63-2.39l.24,0c-.05.58-.38,2.63-.52,3.17-.58,0-4.86-.07-9.65-.07L263,509c1.2-1.67,5.47-7.54,7.94-10.91l-.11,0c-1.89,0-4.21-.13-5.78-.13-.18.4-.65,1.59-.88,2l-.31.15c-.07-.6-.14-2.45-.16-3l.07-.07c.67.09,1,.16,1.23.2h7.88Z"/><path d="M280.6,501.48c-.92,1.55-3.49,5.33-4.61,7.08l0,0a31.07,31.07,0,0,0,3.44-.15c.57-.81.95-1.33,1.2-1.62l.26-.09a19.87,19.87,0,0,1-.4,2.56c-.88,0-2.07-.09-3.62-.09h-2.81V509c1.44-2,3.17-4.64,4.81-7.09l0,0c-.29,0-1,0-3.22.09-.2.35-.65,1.19-.85,1.44l-.25.06a17.64,17.64,0,0,1-.11-2.29l.06,0,1.22.16h4.77Z"/><path d="M294.05,503.32c0,4.66-2.15,6.1-3.91,6.1s-3.91-1.38-3.91-5.9c0-4.24,2.2-6.11,4-6.11C292.44,497.41,294.05,499.52,294.05,503.32Zm-6.38.11c0,2.48.78,5.38,2.52,5.38s2.43-2.27,2.43-5.38c0-2.13-.57-5.42-2.48-5.42S287.67,501,287.67,503.43Z"/><path d="M296.06,499l.2-.4c.21-.1,2-.64,3.26-1.17h.16c0,1.46.11,10.39.12,10.9l2.35.5-.15.4-2.95,0-3,0,.15-.4,2.12-.5c.06-1,.18-4.16.18-9.38Z"/><path d="M304.7,508.27A2.49,2.49,0,0,0,305,508a28,28,0,0,0,3.31-3.73,5.53,5.53,0,0,0,1.21-3.35,2.42,2.42,0,0,0-2.45-2.7,3,3,0,0,0-1.48.38,13.2,13.2,0,0,1-.56,2.19l-.23.17a10.9,10.9,0,0,1-.76-1.79,5.43,5.43,0,0,1,3.67-1.8,3.15,3.15,0,0,1,3.26,3.35c0,1.6-.84,2.85-2.12,4.25-1,1.06-2.07,2.14-3,3.08v0c1,0,3.54-.11,4.52-.15a15,15,0,0,1,1-1.17l.41-.05a17.79,17.79,0,0,1-.73,2.52c-.58,0-2.15-.09-3.8-.09H304V509Z"/><path d="M314,506.42a20.26,20.26,0,0,1,.51,2.1,3.11,3.11,0,0,0,1.24.22,2.8,2.8,0,0,0,3-2.79,2.43,2.43,0,0,0-2.43-2.56,14.5,14.5,0,0,1-1.8.34l-.07-.12a2.49,2.49,0,0,1,.74-1c.34,0,.84,0,1.13.07a2.41,2.41,0,0,0,1.93-2.39,2.06,2.06,0,0,0-2.22-2.16,2.8,2.8,0,0,0-1.46.4,11.38,11.38,0,0,1-.41,2l-.27.14a11.2,11.2,0,0,1-.77-1.73,5.36,5.36,0,0,1,3.4-1.53c2.43,0,3.13,1.59,3.13,2.67,0,1.6-1.24,2.34-2.5,2.84V503c2.16.23,3.13,1.38,3.13,2.9,0,2.3-2.27,3.54-4.28,3.54a5,5,0,0,1-3.12-1,8.36,8.36,0,0,1,.83-1.87Z"/><path d="M327.58,508.31l1.73.52-.15.38-2.3,0-2.58,0,.15-.38,1.74-.52c0-.71.08-1.39.08-2.56l-4.65.05-.34-.56a87.37,87.37,0,0,1,4.88-7.36,4.12,4.12,0,0,1,1.39-.47l.05,7.64h1.08a6.73,6.73,0,0,1,1-1.21l.18,0a26.77,26.77,0,0,1-.39,2.77l-.26.11a5.1,5.1,0,0,1-.54-1.08h-1.08Zm-1.19-9.73h-.05c-2,3.09-2.72,4.19-3.91,6.41.59,0,2,0,3.83.07Z"/><path d="M331.14,503.64c.4-2.41.78-5.24.9-6.05,1.37,0,3.73.06,4,.06a5.07,5.07,0,0,0,1.71-.42l.17.34a5.73,5.73,0,0,1-1.25,1,1.37,1.37,0,0,1-.68.16c-.63,0-2.41.06-3.28.06-.21,1.17-.45,2.54-.74,4.16h0a5.57,5.57,0,0,1,2.56-.72c2.73,0,3.44,1.88,3.44,3.16,0,2.79-2.51,4-4.4,4a5.07,5.07,0,0,1-2.79-.83,11.49,11.49,0,0,1,.78-2l.27-.12c.16.41.48,1.78.57,2.16a2.33,2.33,0,0,0,.88.12,3.05,3.05,0,0,0,3.19-3.11,2.4,2.4,0,0,0-2.61-2.59,5.18,5.18,0,0,0-2.45.75Z"/><path d="M346.57,497.77a6.16,6.16,0,0,0-5.58,5.64l0,0a5.15,5.15,0,0,1,3-1.35,3.24,3.24,0,0,1,3.14,3.49,3.71,3.71,0,0,1-3.77,3.85c-2.43,0-3.92-1.94-3.92-4.86a7,7,0,0,1,1.85-4.91,7.85,7.85,0,0,1,5-2.36ZM341.2,504c-.14.15-.25.36-.25.94,0,1.82.83,3.89,2.56,3.89,1.58,0,2.23-1.59,2.23-3,0-1.91-1.12-2.83-2.32-2.83A3.36,3.36,0,0,0,341.2,504Z"/><path d="M349.63,509.21a47,47,0,0,1,2.54-4.85,51.82,51.82,0,0,0,2.77-5.58c-.61,0-1.32,0-2.63,0s-2.27,0-2.86.06c-.06.14-.6,1.28-.7,1.44l-.31.14c-.07-.21-.11-2.5-.09-2.79l0,0c.35,0,.81.09,1,.11h3.38c1.23,0,2.29,0,3.1,0l-.05.43c-.25,1.64-4.31,8.81-4.56,10.05l-.12,1.06-1.39.23Z"/><path d="M364.23,500.22c0,1.39-1.15,2.14-2.11,2.83v0a10.26,10.26,0,0,1,1.41.9,2.79,2.79,0,0,1,1.09,2.24,3.38,3.38,0,0,1-3.72,3.2c-2.25,0-3.55-1.47-3.55-2.93,0-1.23.58-1.89,2.41-3.12l0,0a8.57,8.57,0,0,1-.95-.69,2.76,2.76,0,0,1-1-2.12,3.21,3.21,0,0,1,3.27-3.12A2.87,2.87,0,0,1,364.23,500.22Zm-.92,6.45a2,2,0,0,0-.69-1.6,8.34,8.34,0,0,0-2.3-1.43,3.08,3.08,0,0,0-1.64,2.61,2.42,2.42,0,0,0,2.41,2.58A2.1,2.1,0,0,0,363.31,506.67Zm-4.3-6.56a2.09,2.09,0,0,0,.82,1.68,9,9,0,0,0,1.73,1,3,3,0,0,0,1.46-2.53,2.11,2.11,0,0,0-2-2.27A2,2,0,0,0,359,500.11Z"/><path d="M366.62,509c.68-.16,4.74-1.1,5.42-5.28l0,0a4.4,4.4,0,0,1-2.59,1,3.31,3.31,0,0,1-3.31-3.44,3.78,3.78,0,0,1,3.74-3.84c2.9,0,3.75,2.81,3.75,4.76a7.24,7.24,0,0,1-6.74,7.32Zm.86-8.05a2.64,2.64,0,0,0,4.2,2.32.85.85,0,0,0,.38-.54,6.86,6.86,0,0,0,.05-.88c0-2.3-.9-3.87-2.36-3.87S367.47,499.52,367.48,501Z"/><path d="M265.57,385.13l-.72,2.07h-2.61l4.14-12h3.08l4.1,12h-2.7l-.68-2.07Zm2.3-7-1.67,5h3.33Z"/><path d="M281.07,378.86h2.28v8.34h-2.28v-1.15a3.43,3.43,0,0,1-2.9,1.44,4,4,0,0,1-4-4.36,4.26,4.26,0,0,1,4.2-4.56,3.28,3.28,0,0,1,2.72,1.35Zm-4.47,4.23a2.36,2.36,0,0,0,2.2,2.56,2.48,2.48,0,0,0,2.3-2.63,2.27,2.27,0,1,0-4.5.07Z"/><path d="M295,375.19a5.09,5.09,0,0,1,3.06.68,3.1,3.1,0,0,1,1.15,2.54,2.89,2.89,0,0,1-.75,2,2.67,2.67,0,0,1-1.26.72,2.77,2.77,0,0,1,1.42.65,2.8,2.8,0,0,1,.86,2.16,3.13,3.13,0,0,1-1.24,2.63,4.52,4.52,0,0,1-2.68.58h-4.43v-12Zm-1.41,5.09h1c1.46,0,2.15-.52,2.15-1.63a1.49,1.49,0,0,0-.72-1.36,3.85,3.85,0,0,0-1.55-.23h-.87Zm0,5.1h1.21a2.57,2.57,0,0,0,1.6-.32,1.69,1.69,0,0,0-.09-2.65,3,3,0,0,0-1.65-.29h-1.07Z"/><path d="M303.58,387.2H301.3v-12h2.28v4.68a3.26,3.26,0,0,1,2.7-1.3,4.2,4.2,0,0,1,4.2,4.5c0,2.62-1.66,4.42-4.09,4.42a3.17,3.17,0,0,1-2.81-1.37Zm0-4.11a2.27,2.27,0,1,0,4.5,0,2.38,2.38,0,0,0-2.22-2.59A2.44,2.44,0,0,0,303.55,383.09Z"/><path d="M327.53,385.61a6,6,0,0,1-4.47,1.82,5.52,5.52,0,0,1-4.3-1.8,6.61,6.61,0,0,1-1.62-4.41c0-3.65,2.48-6.27,6-6.27a5.87,5.87,0,0,1,4.53,1.91l-1.6,1.62a4,4,0,0,0-2.81-1.24,3.61,3.61,0,0,0-3.58,3.93,3.72,3.72,0,0,0,3.71,4,3.31,3.31,0,0,0,2.68-1.23Z"/><path d="M336.11,386.24a4.43,4.43,0,0,1-3.2,1.25,4.46,4.46,0,0,1,0-8.92,4.74,4.74,0,0,1,3.33,1.39l-1.53,1.39a2.26,2.26,0,0,0-1.71-.74,2.23,2.23,0,0,0-2.19,2.39,2.28,2.28,0,0,0,2.28,2.45,2.23,2.23,0,0,0,1.62-.7Z"/><path d="M343,375.19h3.41a6.05,6.05,0,0,1,4.32,1.33,5.87,5.87,0,0,1,1.89,4.54,6.33,6.33,0,0,1-1.91,4.75,6.07,6.07,0,0,1-4.16,1.39H343Zm2.47,10h.47a4,4,0,0,0,2.83-.83,4.1,4.1,0,0,0,1.35-3.2,3.6,3.6,0,0,0-3.75-3.94h-.9Z"/><path d="M360.79,375.19h2.28v12h-2.28v-1.1a3.06,3.06,0,0,1-2.79,1.39,4,4,0,0,1-4.13-4.38,4.48,4.48,0,0,1,1.34-3.38,4.16,4.16,0,0,1,2.82-1.16,3.49,3.49,0,0,1,2.76,1.21Zm-4.49,7.94a2.26,2.26,0,1,0,4.49,0,2.36,2.36,0,0,0-2.22-2.61A2.39,2.39,0,0,0,356.3,383.13Z"/><path d="M372.9,380.16h4.21v2H372.9v3h4.21v2h-6.68v-12h6.68v2H372.9Z"/><path d="M380.89,383.58a2.23,2.23,0,0,0,4.11.79l2.1.58a4.41,4.41,0,0,1-4.05,2.54,4.34,4.34,0,0,1-4.53-4.47,4.24,4.24,0,0,1,4.39-4.45,4.35,4.35,0,0,1,4.52,4.56l0,.45Zm4.18-1.32A2,2,0,0,0,383,380.5a2,2,0,0,0-2.06,1.76Z"/><path d="M397.06,380.16h4.21v2h-4.21v5h-2.47v-12h6.68v2h-4.21Z"/><path d="M405.32,387.2H403v-6.41h-.92v-1.93H403v-.47c0-2.23,1.1-3.27,3.39-3.2v2.1c-.8.1-1.1.4-1.1,1.1v.47h1.1v1.93h-1.1Z"/><path d="M425.3,380.46v.65a5.91,5.91,0,0,1-1.75,4.47,6.15,6.15,0,0,1-4.43,1.85A6.24,6.24,0,1,1,424,377.26l-1.86,1.46a3.59,3.59,0,0,0-2.95-1.5,3.79,3.79,0,0,0-3.71,4,3.84,3.84,0,0,0,3.76,4A3.54,3.54,0,0,0,421.9,384a3.39,3.39,0,0,0,.74-1.51h-3.35v-2Z"/><path d="M433,378.86h2.25v7.73c0,1.71-.32,2.7-1.12,3.47a4.8,4.8,0,0,1-3.45,1.26,5.54,5.54,0,0,1-4.09-1.66l1.42-1.44a3.27,3.27,0,0,0,2.58,1.16,2.22,2.22,0,0,0,2.41-2.47v-.85a3.56,3.56,0,0,1-2.94,1.43c-2.28,0-3.94-1.86-3.94-4.4,0-2.7,1.68-4.52,4.18-4.52a3.13,3.13,0,0,1,2.7,1.32ZM428.59,383a2.28,2.28,0,0,0,4,1.7,2.35,2.35,0,0,0,.43-1.48,2.66,2.66,0,0,0-.61-1.94,2.3,2.3,0,0,0-1.57-.65A2.21,2.21,0,0,0,428.59,383Z"/><path d="M445.55,387.2h-2.47v-12h2.47v5.08h4.55v-5.08h2.47v12H450.1v-4.92h-4.55Z"/><path d="M457.25,379.76a2.81,2.81,0,0,1,2.28-1.19,3,3,0,0,1,2,.78,2.88,2.88,0,0,1,.74,2.36v5.49H460V382c0-.94-.48-1.53-1.24-1.53a1.42,1.42,0,0,0-1,.41,1.56,1.56,0,0,0-.47,1.32v5H455v-12h2.29Z"/><path d="M472.48,387.2H470v-12h2.47Z"/><path d="M477.26,376.5a1.27,1.27,0,1,1-1.26-1.29A1.23,1.23,0,0,1,477.26,376.5Zm-.12,10.7h-2.29v-8.34h2.29Z"/><path d="M489.52,382.93c.06,3.24-1.49,4.54-5.29,4.45V385.2l.5,0a2.71,2.71,0,0,0,1.66-.45c.5-.42.66-1,.66-2.43V377.2h-2.82v-2h5.29Z"/><path d="M494,387.47a3.65,3.65,0,0,1-.79,2.66,3.21,3.21,0,0,1-2.45.9h-.61v-2.09h.34c.78,0,1.23-.54,1.23-1.46v-8.61H494Zm.13-11a1.27,1.27,0,1,1-1.26-1.29A1.23,1.23,0,0,1,494.13,376.5Z"/><path d="M504.26,387.2h-2.47v-12h2.47v5.22l3.41-5.22h2.86L506.64,381l3.89,6.23h-2.9l-3.37-5.35Z"/><path d="M514.09,387.2H511.8v-12h2.29v6.88l2.32-3.21h2.65l-2.83,4,2.83,4.34h-2.65l-2.32-3.46Z"/><path d="M532.32,385.16v2h-6.48v-12h2.47v10Z"/><path d="M533.83,387.2v-12h2.29v12Z"/><path d="M546.38,387.2h-2.47v-12h2.79l3.59,7.29,3.6-7.29h2.79v12h-2.47v-7.49l-3.92,7.85-3.91-7.85Z"/><path d="M561.34,378.86v1.05a2.39,2.39,0,0,1,2.28-1.34,2.29,2.29,0,0,1,2.27,1.39,3,3,0,0,1,4.54-.61,3.11,3.11,0,0,1,.67,2.39v5.46h-2.29v-5c0-1.13-.41-1.67-1.28-1.67s-1.33.61-1.33,1.67v5h-2.29v-4.95c0-1.16-.43-1.75-1.26-1.75s-1.31.59-1.31,1.75v4.95h-2.29v-8.34Z"/><path d="M265.93,408.8h-2.47v-12h2.43l5,7.49v-7.49h2.46v12H271l-5-7.6Z"/><path d="M278,400.46v1a2.39,2.39,0,0,1,2.27-1.32,3,3,0,0,1,2.05.78,3.23,3.23,0,0,1,.74,2.57v5.28h-2.29v-5.17a1.77,1.77,0,0,0-.19-1,1.32,1.32,0,0,0-1.1-.56,1.49,1.49,0,0,0-1.48,1.64v5.06h-2.28v-8.34Z"/><path d="M301.12,398.57a6.25,6.25,0,1,1-10.88,4.29,6.2,6.2,0,0,1,6.31-6.31A6.13,6.13,0,0,1,301.12,398.57Zm-8.35,4.25a3.7,3.7,0,1,0,3.7-4A3.76,3.76,0,0,0,292.77,402.82Z"/><path d="M313,404.71a4.43,4.43,0,0,1-4.56,4.38,4.46,4.46,0,1,1,0-8.92A4.38,4.38,0,0,1,313,404.71Zm-6.77-.07a2.24,2.24,0,1,0,4.47,0,2.17,2.17,0,0,0-2.22-2.44A2.2,2.2,0,0,0,306.23,404.64Z"/><path d="M322.68,408.8h-2.47v-12h3.84c2.84,0,4.45,1.38,4.45,3.83s-1.64,4.05-4.29,4.05h-1.53Zm1.06-6.16c1.43,0,2.25-.68,2.25-1.89a1.92,1.92,0,0,0-2.19-1.93h-1.12v3.82Z"/><path d="M332.29,400.46v1a3.09,3.09,0,0,1,2.74-1.32,4,4,0,0,1,2.32.69,4.3,4.3,0,0,1,1.89,3.8c0,2.66-1.65,4.43-4.16,4.43a3.44,3.44,0,0,1-2.79-1.19v4.63H330V400.46Zm0,4.27a2.25,2.25,0,0,0,2.22,2.52,2.6,2.6,0,0,0,.07-5.15A2.37,2.37,0,0,0,332.29,404.73Z"/><path d="M356.33,409.48l-1.08-1.29a6.21,6.21,0,0,1-9.33-5.33,6.18,6.18,0,0,1,6.26-6.31,6,6,0,0,1,6.14,6.14,6.4,6.4,0,0,1-1.38,4.09l1.13,1.23Zm-1-4.57a4.61,4.61,0,0,0,.52-2.18,3.71,3.71,0,1,0-3.78,4,2.47,2.47,0,0,0,1.48-.39l-.81-1,1.73-1.47Z"/><path d="M368.8,400.46v12.07h-2.29V407.9a3.46,3.46,0,0,1-2.82,1.19c-2.44,0-4.09-1.79-4.09-4.4a4.2,4.2,0,0,1,4.25-4.52,3,3,0,0,1,2.66,1.25v-1Zm-6.75,4.21a2.35,2.35,0,0,0,2.21,2.58,2.37,2.37,0,0,0,2.27-2.56,2.26,2.26,0,1,0-4.48,0Z"/><path d="M379.06,408.8h-2.47v-12h3.71c3,0,4.57,1.31,4.57,3.78a3.46,3.46,0,0,1-2.84,3.62l3.31,4.61h-3L379.06,404Zm1.11-6.21c1.41,0,2.2-.69,2.2-1.9a1.79,1.79,0,0,0-2-1.87h-1.33v3.77Z"/><path d="M389.26,400.46v1.23a2.1,2.1,0,0,1,.74-1.12,2.41,2.41,0,0,1,1.35-.4,1.53,1.53,0,0,1,.27,0v2.34l-.48,0a1.84,1.84,0,0,0-1.53.75,2.32,2.32,0,0,0-.35,1.53v4H387v-8.34Z"/><path d="M400.19,405.29v.16a1.49,1.49,0,0,0,1.64,1.4,1.43,1.43,0,0,0,1.58-1.28,1.2,1.2,0,0,0-.48-.95,5.31,5.31,0,0,0-1.46-.67c-2.63-.93-3.57-1.92-3.57-3.76,0-2.18,1.6-3.64,4-3.64a3.75,3.75,0,0,1,4.05,3.68h-2.48a1.42,1.42,0,0,0-1.57-1.5,1.3,1.3,0,0,0-1.47,1.26,1.26,1.26,0,0,0,.73,1.14,8.67,8.67,0,0,0,1.41.59,6.88,6.88,0,0,1,2.5,1.33,3.14,3.14,0,0,1,1,2.33c0,2.19-1.66,3.65-4.14,3.65s-4.07-1.44-4.06-3.74Z"/><path d="M411.31,402.87v-.14a.94.94,0,0,0-1.06-.86c-.56,0-.92.3-.92.75a.67.67,0,0,0,.24.54c.25.2.27.2,1.42.56,1.87.58,2.61,1.31,2.61,2.66,0,1.63-1.3,2.71-3.24,2.71s-3.19-1-3.28-2.74h2.2c.11.72.43,1,1.1,1a.81.81,0,0,0,.91-.79c0-.5-.32-.74-1.54-1.12-1.8-.54-2.61-1.35-2.61-2.66,0-1.59,1.27-2.65,3.22-2.65s3.06,1,3.11,2.7Z"/><path d="M424.94,408.8h-2.47v-10h-2.86v-2h8.17v2h-2.84Z"/><path d="M431.38,406.35c0,.39.15.5.65.54h.4v1.91h-1.82c-1.12,0-1.53-.49-1.51-1.59v-4.86h-1v-1.92h1v-2.24h2.28v2.24h1.05v1.92h-1.05Z"/><path d="M441.88,403.83a3.17,3.17,0,0,0,.54,2.2,2.27,2.27,0,0,0,3.42-.1,3.19,3.19,0,0,0,.47-2.12v-7h2.48v6.95a5.51,5.51,0,0,1-1.19,3.89,4.61,4.61,0,0,1-3.47,1.4,4.85,4.85,0,0,1-3.64-1.49,5.25,5.25,0,0,1-1.08-3.8v-6.95h2.47Z"/><path d="M458.13,400.46v5.28a2.84,2.84,0,0,1-.93,2.48,4.17,4.17,0,0,1-2.71.87,4.13,4.13,0,0,1-2.79-.92,3.12,3.12,0,0,1-.88-2.43v-5.28h2.29v5.13a1.41,1.41,0,0,0,1.38,1.57,1.28,1.28,0,0,0,1.35-1.42v-5.28Z"/><path d="M472,396.79h2.54l-3.78,12h-2.63l-3.63-12h2.54l2.43,8Z"/><path d="M483,400.46l-3,8.34h-2.36l-3-8.34H477l1.83,5,1.86-5Z"/><path d="M501.19,396.79h2.57l-3.35,12h-2.48L496,400.93l-1.89,7.87h-2.49l-3.27-12H491l1.92,7.58,1.95-7.58h2.45l1.87,7.7Z"/><path d="M516.9,400.46l-2.72,8.34h-2.37l-1.46-5.12-1.5,5.12h-2.43l-2.68-8.34h2.32l1.68,5.08,1.46-5.08h2.19l1.5,5.08,1.69-5.08Z"/><path d="M525.2,408.8h-2.85l3.78-6.34-3.36-5.67h2.84l1.93,3.44,2-3.44h2.81l-3.39,5.67,3.73,6.34h-2.81l-2.32-4.18Z"/><path d="M535.6,408.8h-2.7l2.9-4.14-3.08-4.2h2.88l1.53,2.22,1.48-2.22h2.79l-3,4.2,2.91,4.14h-2.77l-1.44-2.27Z"/><path d="M553.06,408.8h-2.47v-5.3l-4-6.71h2.93l2.33,4.16,2.28-4.16H557l-3.94,6.71Z"/><path d="M562.83,400.46h2.44l-4.7,12.14h-2.45l1.56-4-2.91-8.14h2.43l1.69,5Z"/><path d="M271.37,428.38v2h-8.93l5.61-10h-5v-2h8.84l-5.6,10Z"/><path d="M279.21,428.47v1.93h-6.82l3.49-6.41h-3.17v-1.93h6.75L276,428.47Z"/><path d="M293.34,426.76a3.67,3.67,0,0,1-1,2.92,3.81,3.81,0,0,1-2.73.95,4,4,0,0,1-2.88-1c-.67-.66-.91-1.53-.91-3.4v-3.83a4.3,4.3,0,0,1,.81-3.07,3.85,3.85,0,0,1,2.9-1.11,3.94,3.94,0,0,1,2.72.94,3.46,3.46,0,0,1,1.08,3Zm-5.18-.29c0,1,0,1.17.25,1.46a1.45,1.45,0,0,0,1.21.58,1.42,1.42,0,0,0,1.2-.61,2.72,2.72,0,0,0,.25-1.45v-4.17a2,2,0,0,0-.36-1.46,1.41,1.41,0,0,0-1.09-.45,1.36,1.36,0,0,0-1.21.59,2.68,2.68,0,0,0-.25,1.43Z"/><path d="M296.15,422.62v-2.14l4.5-2.34V430.4h-2.32v-8.95Z"/><path d="M310.89,428.36v2H303.6l4.2-6.41c.91-1.41,1.09-1.78,1.09-2.36a1.33,1.33,0,0,0-1.42-1.33,1.37,1.37,0,0,0-1.35.84,3.14,3.14,0,0,0-.18,1.16h-2.12c0-2.54,1.42-4.09,3.8-4.09,2.1,0,3.6,1.33,3.6,3.19a6.49,6.49,0,0,1-1.48,3.67l-2.25,3.29Z"/><path d="M313.14,420.44v-2h7.31l-3.33,4.48a3.41,3.41,0,0,1,3.21,3.62,3.92,3.92,0,0,1-4,4.07,3.71,3.71,0,0,1-3.17-1.58,3.78,3.78,0,0,1-.61-1.91l2.07-.07a1.61,1.61,0,0,0,1.65,1.49,1.81,1.81,0,0,0,1.84-1.83,1.78,1.78,0,0,0-1.85-1.84,2,2,0,0,0-1.1.3l-1.3-1.09,2.74-3.66Z"/><path d="M321.73,427.93V426l4.21-7.65h2.41V426h1.1v2h-1.1v2.47h-2.21v-2.47Zm4.41-6.45L323.62,426h2.52Z"/><path d="M333.46,423.12a3.51,3.51,0,0,1,5,3.44,3.86,3.86,0,0,1-3.94,4.07,3.91,3.91,0,0,1-2.77-1.08,4.19,4.19,0,0,1-1-1.65l2-.76a1.7,1.7,0,0,0,1.68,1.31,1.77,1.77,0,0,0,1.76-1.83,1.8,1.8,0,0,0-3.31-1.05h-1.51v-7.11h6.12v2.09h-4Z"/><path d="M343.54,423.2a1.89,1.89,0,0,1,.63-.11,3.43,3.43,0,0,1,3.34,3.55,4,4,0,0,1-4,4,3.76,3.76,0,0,1-3.82-3.85,6.47,6.47,0,0,1,1.32-3.6l3-4.72h2.63Zm-1.67,3.54a1.68,1.68,0,0,0,1.71,1.73,1.73,1.73,0,0,0,1.75-1.73,1.69,1.69,0,0,0-1.7-1.74A1.73,1.73,0,0,0,341.87,426.74Z"/><path d="M349.36,420.55v-2.09h7.09l-4.72,11.94h-2.39l3.89-9.85Z"/><path d="M365.49,426.92a3.66,3.66,0,0,1-3.93,3.71,3.55,3.55,0,0,1-3.85-3.58,2.89,2.89,0,0,1,1.78-2.94,2.59,2.59,0,0,1-1.42-2.48,3.37,3.37,0,0,1,3.6-3.42,3.32,3.32,0,0,1,3.53,3.35,3.08,3.08,0,0,1-.5,1.74,2.15,2.15,0,0,1-.94.81A2.8,2.8,0,0,1,365.49,426.92Zm-5.57,0a1.62,1.62,0,0,0,1.68,1.65,1.64,1.64,0,0,0,1.65-1.65,1.67,1.67,0,0,0-1.63-1.68A1.66,1.66,0,0,0,359.92,426.89Zm.24-5.26a1.48,1.48,0,0,0,1.47,1.51,1.54,1.54,0,0,0,1.53-1.47,1.52,1.52,0,0,0-1.51-1.48A1.42,1.42,0,0,0,360.16,421.63Z"/><path d="M370.71,425.68a2.64,2.64,0,0,1-.54.07,3.46,3.46,0,0,1-3.48-3.58,3.9,3.9,0,0,1,4-4,3.76,3.76,0,0,1,3.85,3.89,6.67,6.67,0,0,1-1.29,3.6l-3,4.7h-2.59Zm-1.8-3.62a1.71,1.71,0,1,0,3.42,0,1.71,1.71,0,1,0-3.42,0Z"/><path d="M2.73,386.86H.81v-9.34H2.7l3.91,5.83v-5.83H8.53v9.34H6.65L2.73,381Z"/><path d="M11.86,384.05a1.73,1.73,0,0,0,3.19.61l1.64.45a3.43,3.43,0,0,1-3.15,2A3.37,3.37,0,0,1,10,383.61a3.3,3.3,0,0,1,3.42-3.46,3.37,3.37,0,0,1,3.51,3.54v.36Zm3.25-1a1.58,1.58,0,0,0-1.65-1.37,1.53,1.53,0,0,0-1.6,1.37Z"/><path d="M23.78,380.38v4.1a2.22,2.22,0,0,1-.73,1.93,3.2,3.2,0,0,1-2.1.67,3.18,3.18,0,0,1-2.17-.71,2.38,2.38,0,0,1-.69-1.89v-4.1h1.78v4A1.09,1.09,0,0,0,21,385.59,1,1,0,0,0,22,384.48v-4.1Z"/><path d="M29.91,385.36v1.5H24.6l2.72-5H24.85v-1.49H30.1l-2.7,5Z"/><path d="M32.45,384.05a1.74,1.74,0,0,0,3.2.61l1.64.45a3.45,3.45,0,0,1-3.16,2,3.38,3.38,0,0,1-3.53-3.47A3.3,3.3,0,0,1,34,380.15a3.38,3.38,0,0,1,3.52,3.54l0,.36Zm3.25-1a1.58,1.58,0,0,0-1.65-1.37,1.54,1.54,0,0,0-1.6,1.37Z"/><path d="M40.69,378.54a1,1,0,0,1-2,0,1,1,0,1,1,2,0Zm-.1,8.32H38.81v-6.48h1.78Z"/><path d="M44.21,385c0,.3.12.39.51.42H45v1.48H43.61c-.87,0-1.19-.38-1.18-1.23v-3.78h-.74v-1.5h.74v-1.74h1.78v1.74H45v1.5h-.82Z"/><path d="M59.76,381.62v.51a4.59,4.59,0,0,1-1.36,3.47A4.79,4.79,0,0,1,55,387a4.85,4.85,0,1,1,3.77-7.91l-1.44,1.13A2.81,2.81,0,0,0,55,379.1a2.94,2.94,0,0,0-2.88,3.11,3,3,0,0,0,2.92,3.1,2.76,2.76,0,0,0,2.09-.94,2.61,2.61,0,0,0,.57-1.18h-2.6v-1.57Z"/><path d="M62.82,380.38v.95a1.65,1.65,0,0,1,.57-.87,1.83,1.83,0,0,1,1-.31.9.9,0,0,1,.21,0V382l-.37,0a1.42,1.42,0,0,0-1.19.59,1.79,1.79,0,0,0-.27,1.19v3.12H61v-6.48Z"/><path d="M72.34,383.68a3.43,3.43,0,0,1-3.54,3.4,3.47,3.47,0,1,1,0-6.93A3.4,3.4,0,0,1,72.34,383.68Zm-5.26-.05a1.71,1.71,0,0,0,1.73,1.87,1.73,1.73,0,0,0,1.74-1.85,1.69,1.69,0,0,0-1.72-1.9A1.71,1.71,0,0,0,67.08,383.63Z"/><path d="M75.5,385c0,.3.12.39.51.42h.31v1.48H74.9c-.87,0-1.19-.38-1.18-1.23v-3.78H73v-1.5h.74v-1.74H75.5v1.74h.82v1.5H75.5Z"/><path d="M79,384.05a1.74,1.74,0,0,0,3.2.61l1.64.45a3.44,3.44,0,0,1-3.15,2,3.37,3.37,0,0,1-3.53-3.47,3.29,3.29,0,0,1,3.41-3.46,3.38,3.38,0,0,1,3.52,3.54l0,.36Zm3.25-1a1.58,1.58,0,0,0-1.65-1.37A1.54,1.54,0,0,0,79,383Z"/><path d="M88.1,382.25v-.11a.73.73,0,0,0-.82-.67c-.44,0-.72.24-.72.59a.54.54,0,0,0,.19.42c.19.15.21.15,1.1.43,1.46.45,2,1,2,2.07,0,1.26-1,2.1-2.52,2.1s-2.48-.78-2.55-2.12h1.71c.09.56.34.81.86.81a.64.64,0,0,0,.71-.62c0-.39-.25-.57-1.21-.87-1.4-.42-2-1-2-2.07,0-1.23,1-2.06,2.51-2.06a2.14,2.14,0,0,1,2.43,2.1Z"/><path d="M93,386.86H91.21v-9.34H93v5.35l1.8-2.49h2.06l-2.19,3.1,2.19,3.38H94.79L93,384.17Z"/><path d="M3.82,394.32a4,4,0,0,1,2.39.53,2.41,2.41,0,0,1,.89,2,2.21,2.21,0,0,1-.59,1.6,2,2,0,0,1-1,.56,2.09,2.09,0,0,1,1.11.51,2.18,2.18,0,0,1,.67,1.68,2.41,2.41,0,0,1-1,2,3.58,3.58,0,0,1-2.09.45H.81v-9.34Zm-1.09,4H3.5c1.14,0,1.67-.4,1.67-1.27A1.13,1.13,0,0,0,4.61,396a2.87,2.87,0,0,0-1.21-.19H2.73Zm0,4h.94A2,2,0,0,0,4.92,402a1.11,1.11,0,0,0,.46-1,1.13,1.13,0,0,0-.53-1.06,2.35,2.35,0,0,0-1.29-.23H2.73Z"/><path d="M15.36,400.48a3.44,3.44,0,0,1-3.54,3.41,3.47,3.47,0,1,1,0-6.94A3.4,3.4,0,0,1,15.36,400.48Zm-5.26-.05a1.74,1.74,0,1,0,3.47,0,1.69,1.69,0,0,0-1.72-1.9A1.71,1.71,0,0,0,10.1,400.43Z"/><path d="M16.67,403.66v-9.34h1.78v9.34Z"/><path d="M25.19,394.32H27v9.34H25.19v-.85A2.39,2.39,0,0,1,23,403.89a3.14,3.14,0,0,1-3.21-3.41,3.47,3.47,0,0,1,1-2.63,3.21,3.21,0,0,1,2.2-.9,2.72,2.72,0,0,1,2.14.94Zm-3.49,6.17a1.82,1.82,0,0,0,1.75,2,2,2,0,1,0-1.75-2Z"/><path class="cls-1" d="M266.88,14.52l-1,2.88h-3.63L268,.73h4.27L278,17.4h-3.75l-1-2.88Zm3.19-9.7-2.32,6.9h4.62Z"/><path class="cls-1" d="M284.78,14.52l-1,2.88h-3.63L285.9.73h4.27l5.7,16.67h-3.75l-.95-2.88ZM288,4.82l-2.32,6.9h4.62Z"/><path class="cls-1" d="M313,.73c2.05,0,3.38.3,4.25,1a4.27,4.27,0,0,1,1.6,3.52,4,4,0,0,1-1.05,2.85,3.78,3.78,0,0,1-1.75,1,3.7,3.7,0,0,1,2,.9,3.9,3.9,0,0,1,1.2,3,4.34,4.34,0,0,1-1.73,3.65,6.36,6.36,0,0,1-3.72.8h-6.15V.73ZM311.07,7.8h1.38c2,0,3-.73,3-2.28a2,2,0,0,0-1-1.87,5.1,5.1,0,0,0-2.15-.33h-1.2Zm0,7.07h1.68a3.55,3.55,0,0,0,2.22-.45,2,2,0,0,0,.83-1.77,2,2,0,0,0-.95-1.9,4.23,4.23,0,0,0-2.3-.4h-1.48Z"/><path class="cls-1" d="M328.57.73c2.05,0,3.38.3,4.25,1a4.27,4.27,0,0,1,1.6,3.52,4,4,0,0,1-1.05,2.85,3.78,3.78,0,0,1-1.75,1,3.7,3.7,0,0,1,2,.9,3.9,3.9,0,0,1,1.2,3,4.34,4.34,0,0,1-1.73,3.65,6.36,6.36,0,0,1-3.72.8H323.2V.73ZM326.62,7.8H328c2,0,3-.73,3-2.28a2,2,0,0,0-1-1.87,5.1,5.1,0,0,0-2.15-.33h-1.2Zm0,7.07h1.68a3.55,3.55,0,0,0,2.22-.45,2,2,0,0,0,.83-1.77,2,2,0,0,0-1-1.9,4.23,4.23,0,0,0-2.3-.4h-1.48Z"/><path class="cls-1" d="M361.1,15.2a8.33,8.33,0,0,1-6.2,2.52,7.69,7.69,0,0,1-6-2.5,9.24,9.24,0,0,1-2.25-6.12C346.67,4,350.12.4,355,.4a8.13,8.13,0,0,1,6.3,2.65L359,5.3a5.48,5.48,0,0,0-3.9-1.73c-2.92,0-5,2.25-5,5.45s2.15,5.53,5.15,5.53a4.62,4.62,0,0,0,3.72-1.7Z"/><path class="cls-1" d="M377.79,15.2a8.29,8.29,0,0,1-6.19,2.52,7.69,7.69,0,0,1-6-2.5,9.24,9.24,0,0,1-2.25-6.12c0-5.08,3.45-8.7,8.28-8.7A8.13,8.13,0,0,1,378,3.05L375.72,5.3a5.48,5.48,0,0,0-3.9-1.73c-2.92,0-5,2.25-5,5.45S369,14.55,372,14.55a4.62,4.62,0,0,0,3.72-1.7Z"/><path class="cls-1" d="M390.07.73h4.73c2.7,0,4.52.55,6,1.84a8.12,8.12,0,0,1,2.62,6.3,8.75,8.75,0,0,1-2.65,6.6A8.4,8.4,0,0,1,395,17.4h-4.93Zm3.43,13.84h.65a5.51,5.51,0,0,0,3.92-1.15A5.7,5.7,0,0,0,400,9c0-3.32-2-5.47-5.2-5.47H393.5Z"/><path class="cls-1" d="M407.35.73h4.72c2.7,0,4.53.55,6,1.84a8.13,8.13,0,0,1,2.63,6.3,8.72,8.72,0,0,1-2.66,6.6,8.4,8.4,0,0,1-5.77,1.93h-4.92Zm3.42,13.84h.65a5.54,5.54,0,0,0,3.93-1.15A5.7,5.7,0,0,0,417.22,9c0-3.32-2-5.47-5.2-5.47h-1.25Z"/><path class="cls-1" d="M436.22,7.62h5.85v2.8h-5.85V14.6h5.85v2.8H432.8V.73h9.27V3.52h-5.85Z"/><path class="cls-1" d="M449.05,7.62h5.84v2.8h-5.84V14.6h5.84v2.8h-9.27V.73h9.27V3.52h-5.84Z"/><path class="cls-1" d="M471.2,7.62H477v2.8H471.2v7h-3.43V.73H477V3.52H471.2Z"/><path class="cls-1" d="M484.12,7.62H490v2.8h-5.85v7H480.7V.73H490V3.52h-5.85Z"/><path class="cls-1" d="M518.69,8.05V9a8.23,8.23,0,0,1-2.42,6.2,8.57,8.57,0,0,1-6.15,2.57,8.39,8.39,0,0,1-8.57-8.62,8.6,8.6,0,0,1,15.29-5.5l-2.57,2a5,5,0,0,0-4.1-2.07A5.26,5.26,0,0,0,505,9.1a5.32,5.32,0,0,0,5.22,5.52A4.93,4.93,0,0,0,514,13a4.69,4.69,0,0,0,1-2.1h-4.65V8.05Z"/><path class="cls-1" d="M538.74,8.05V9a8.23,8.23,0,0,1-2.42,6.2,8.57,8.57,0,0,1-6.15,2.57A8.39,8.39,0,0,1,521.6,9.1a8.6,8.6,0,0,1,15.29-5.5l-2.57,2a5,5,0,0,0-4.1-2.07,5.26,5.26,0,0,0-5.15,5.55,5.32,5.32,0,0,0,5.22,5.52A4.93,4.93,0,0,0,534,13a4.69,4.69,0,0,0,1-2.1h-4.65V8.05Z"/><path class="cls-1" d="M554.64,17.4h-3.42V.73h3.42v7H561v-7h3.42V17.4H561V10.57h-6.33Z"/><path class="cls-1" d="M572.57,17.4h-3.42V.73h3.42v7h6.32v-7h3.43V17.4h-3.43V10.57h-6.32Z"/><path class="cls-1" d="M267.38,47.4H264V30.73h3.43Z"/><path class="cls-1" d="M275.52,47.4H272.1V30.73h3.42Z"/><path class="cls-1" d="M295.37,41.47c.08,4.5-2.07,6.3-7.35,6.18v-3a6.58,6.58,0,0,0,.7,0A3.75,3.75,0,0,0,291,44c.7-.57.93-1.35.93-3.37V33.52H288V30.73h7.35Z"/><path class="cls-1" d="M306.22,41.47c.08,4.5-2.07,6.3-7.35,6.18v-3a6.58,6.58,0,0,0,.7,0,3.75,3.75,0,0,0,2.3-.63c.7-.57.93-1.35.93-3.37V33.52h-3.93V30.73h7.35Z"/><path class="cls-1" d="M322.87,47.4h-3.42V30.73h3.42V38l4.73-7.24h4l-5.4,8,5.4,8.65h-4L322.87,40Z"/><path class="cls-1" d="M338.2,47.4h-3.43V30.73h3.43V38l4.72-7.24h4l-5.39,8,5.39,8.65h-4L338.2,40Z"/><path class="cls-1" d="M367.84,44.57V47.4h-9V30.73h3.42V44.57Z"/><path class="cls-1" d="M380.37,44.57V47.4h-9V30.73h3.43V44.57Z"/><path class="cls-1" d="M396.07,47.4h-3.42V30.73h3.87l5,10.12,5-10.12h3.88V47.4h-3.43V37l-5.45,10.9L396.07,37Z"/><path class="cls-1" d="M418.52,47.4H415.1V30.73H419l5,10.12,5-10.12h3.88V47.4h-3.43V37l-5.45,10.9L418.52,37Z"/><path class="cls-1" d="M267.38,77.4H264V60.73h3.37l7,10.39V60.73h3.42V77.4h-3.35l-7-10.55Z"/><path class="cls-1" d="M285.88,77.4h-3.43V60.73h3.37l7,10.39V60.73h3.42V77.4h-3.35l-7-10.55Z"/><path class="cls-1" d="M324,63.2a8.68,8.68,0,1,1-15.09,6,8.7,8.7,0,0,1,15.09-6Zm-11.6,5.9a5.13,5.13,0,1,0,10.25.07c0-3.22-2.15-5.6-5.1-5.6A5.21,5.21,0,0,0,312.37,69.1Z"/><path class="cls-1" d="M344.32,63.2a8.68,8.68,0,1,1-15.1,6,8.7,8.7,0,0,1,15.1-6Zm-11.6,5.9a5.13,5.13,0,1,0,10.25.07c0-3.22-2.15-5.6-5.1-5.6A5.21,5.21,0,0,0,332.72,69.1Z"/><path class="cls-1" d="M362.57,77.4h-3.42V60.73h5.32c3.95,0,6.17,1.92,6.17,5.32s-2.27,5.62-5.94,5.62h-2.13Zm1.48-8.55c2,0,3.12-.95,3.12-2.63s-1.17-2.67-3.05-2.67h-1.55v5.3Z"/><path class="cls-1" d="M377.6,77.4h-3.43V60.73h5.33c3.95,0,6.17,1.92,6.17,5.32s-2.27,5.62-5.95,5.62H377.6Zm1.47-8.55c2,0,3.13-.95,3.13-2.63s-1.18-2.67-3.05-2.67H377.6v5.3Z"/><path class="cls-1" d="M411.59,78.35l-1.5-1.8a8.28,8.28,0,0,1-4.37,1.17,8.66,8.66,0,0,1,.13-17.32,8.35,8.35,0,0,1,8.52,8.52,8.9,8.9,0,0,1-1.93,5.68L414,76.3ZM410.17,72a6.36,6.36,0,0,0,.72-3,5.15,5.15,0,1,0-5.24,5.58A3.41,3.41,0,0,0,407.7,74l-1.13-1.33,2.4-2Z"/><path class="cls-1" d="M432,78.35l-1.5-1.8a8.33,8.33,0,0,1-4.37,1.17,8.66,8.66,0,0,1,.12-17.32,8.34,8.34,0,0,1,8.52,8.52,8.94,8.94,0,0,1-1.92,5.68l1.57,1.7ZM430.54,72a6.37,6.37,0,0,0,.73-3A5.15,5.15,0,1,0,426,74.55a3.41,3.41,0,0,0,2.05-.55L427,72.67l2.39-2Z"/><path class="cls-1" d="M450.87,77.4h-3.42V60.73h5.15c4.12,0,6.34,1.82,6.34,5.24A4.8,4.8,0,0,1,455,71l4.59,6.4h-4.14l-4.58-6.63Zm1.55-8.63c1.95,0,3.05-1,3.05-2.62a2.48,2.48,0,0,0-2.75-2.6h-1.85v5.22Z"/><path class="cls-1" d="M466.72,77.4H463.3V60.73h5.15c4.12,0,6.34,1.82,6.34,5.24a4.8,4.8,0,0,1-3.94,5l4.59,6.4h-4.15l-4.57-6.63Zm1.55-8.63c2,0,3.05-1,3.05-2.62a2.48,2.48,0,0,0-2.75-2.6h-1.85v5.22Z"/><path class="cls-1" d="M490.25,72.52v.23a2.07,2.07,0,0,0,2.27,2,2,2,0,0,0,2.2-1.78A1.64,1.64,0,0,0,494,71.6a6.56,6.56,0,0,0-2-.93c-3.65-1.3-4.95-2.67-4.95-5.22,0-3,2.23-5.05,5.5-5.05a5.21,5.21,0,0,1,5.62,5.1h-3.44a2,2,0,0,0-2.18-2.08,1.82,1.82,0,0,0-2.05,1.75,1.75,1.75,0,0,0,1,1.58,11.66,11.66,0,0,0,1.95.82A9.5,9.5,0,0,1,497,69.42a4.34,4.34,0,0,1,1.32,3.23c0,3-2.3,5.07-5.75,5.07s-5.64-2-5.62-5.2Z"/><path class="cls-1" d="M504.85,72.52v.23a2.07,2.07,0,0,0,2.27,2,2,2,0,0,0,2.2-1.78,1.64,1.64,0,0,0-.68-1.32,6.56,6.56,0,0,0-2-.93c-3.65-1.3-4.95-2.67-4.95-5.22,0-3,2.23-5.05,5.5-5.05a5.21,5.21,0,0,1,5.62,5.1h-3.45a2,2,0,0,0-2.17-2.08,1.82,1.82,0,0,0-2.05,1.75,1.75,1.75,0,0,0,1,1.58,11.82,11.82,0,0,0,1.94.82,9.48,9.48,0,0,1,3.48,1.85,4.34,4.34,0,0,1,1.32,3.23c0,3-2.3,5.07-5.75,5.07s-5.64-2-5.62-5.2Z"/><path class="cls-1" d="M531.25,77.4h-3.43V63.52h-4V60.73h11.34v2.79h-3.94Z"/><path class="cls-1" d="M544.84,77.4h-3.42V63.52h-4V60.73h11.34v2.79h-3.95Z"/><path class="cls-1" d="M563.79,70.5a4.4,4.4,0,0,0,.75,3,3.15,3.15,0,0,0,4.75-.13,4.47,4.47,0,0,0,.65-3V60.73h3.45v9.64c0,2.45-.52,4.15-1.65,5.4a6.4,6.4,0,0,1-4.82,2,6.7,6.7,0,0,1-5-2.07c-1.08-1.2-1.5-2.7-1.5-5.28V60.73h3.42Z"/><path class="cls-1" d="M581,70.5a4.4,4.4,0,0,0,.75,3,3.15,3.15,0,0,0,4.75-.13,4.47,4.47,0,0,0,.65-3V60.73h3.45v9.64c0,2.45-.53,4.15-1.65,5.4a6.43,6.43,0,0,1-4.83,2,6.73,6.73,0,0,1-5-2.07c-1.07-1.2-1.5-2.7-1.5-5.28V60.73H581Z"/><path class="cls-1" d="M272.67,90.73h3.53L271,107.4H267.3l-5.05-16.67h3.53l3.37,11.17Z"/><path class="cls-1" d="M288,90.73h3.53l-5.25,16.67H282.6l-5.05-16.67h3.53l3.37,11.17Z"/><path class="cls-1" d="M319.37,90.73H323L318.3,107.4h-3.45l-2.63-10.93L309.6,107.4h-3.45L301.6,90.73h3.62l2.68,10.52,2.7-10.52H314l2.6,10.69Z"/><path class="cls-1" d="M342.9,90.73h3.57l-4.65,16.67h-3.45l-2.62-10.93-2.63,10.93h-3.45l-4.55-16.67h3.63l2.67,10.52,2.7-10.52h3.4l2.6,10.69Z"/><path class="cls-1" d="M360.55,107.4H356.6l5.25-8.8-4.68-7.87h3.95l2.68,4.77,2.75-4.77h3.9l-4.7,7.87,5.17,8.8H367l-3.22-5.8Z"/><path class="cls-1" d="M376.32,107.4h-3.94l5.24-8.8L373,90.73h3.95l2.67,4.77,2.75-4.77h3.9l-4.7,7.87,5.18,8.8h-3.9l-3.23-5.8Z"/><path class="cls-1" d="M405.52,107.4H402.1v-7.35l-5.58-9.32h4.08l3.22,5.77L407,90.73h4l-5.48,9.32Z"/><path class="cls-1" d="M420.7,107.4h-3.43v-7.35l-5.57-9.32h4.07L419,96.5l3.17-5.77h4l-5.47,9.32Z"/><path class="cls-1" d="M274.92,134.6v2.8H262.53l7.79-13.88H263.4v-2.79h12.27L267.9,134.6Z"/><path class="cls-1" d="M290.17,134.6v2.8H277.78l7.79-13.88h-6.92v-2.79h12.27l-7.77,13.87Z"/><path class="cls-1" d="M312.67,132.35a5.11,5.11,0,0,1-1.37,4.05,5.35,5.35,0,0,1-3.8,1.32,5.58,5.58,0,0,1-4-1.4c-.93-.92-1.25-2.12-1.25-4.72v-5.33c0-2.15.32-3.37,1.13-4.24a5.29,5.29,0,0,1,4-1.55,5.53,5.53,0,0,1,3.77,1.3c1.08.94,1.5,2.09,1.5,4.09Zm-7.2-.4c0,1.32,0,1.62.35,2a2,2,0,0,0,1.68.8,1.93,1.93,0,0,0,1.67-.85,3.7,3.7,0,0,0,.35-2v-5.8c0-1.12-.12-1.6-.5-2a2,2,0,0,0-1.52-.63,1.85,1.85,0,0,0-1.68.83,3.64,3.64,0,0,0-.35,2Z"/><path class="cls-1" d="M317.82,126.6v-3l6.25-3.24v17h-3.22V125Z"/><path class="cls-1" d="M339.55,134.57v2.83H329.42l5.83-8.9c1.27-2,1.52-2.48,1.52-3.28a1.85,1.85,0,0,0-2-1.85,1.91,1.91,0,0,0-1.88,1.18,4.28,4.28,0,0,0-.25,1.6h-2.95c0-3.53,2-5.67,5.28-5.67,2.92,0,5,1.84,5,4.42,0,1.52-.58,2.92-2.05,5.1l-3.13,4.57Z"/><path class="cls-1" d="M343.92,123.57v-2.75h10.15l-4.62,6.23a4.71,4.71,0,0,1,4.45,5,5.44,5.44,0,0,1-5.55,5.65,5.16,5.16,0,0,1-4.4-2.2,5.35,5.35,0,0,1-.85-2.65l2.87-.1a2.25,2.25,0,0,0,2.3,2.08,2.51,2.51,0,0,0,2.55-2.55,2.47,2.47,0,0,0-2.57-2.55,2.72,2.72,0,0,0-1.53.42l-1.8-1.52,3.8-5.08Z"/><path class="cls-1" d="M357.1,134V131.3L363,120.68h3.35v10.54h1.52V134H366.3v3.43h-3.08V134Zm6.12-9-3.5,6.2h3.5Z"/><path class="cls-1" d="M374.65,127.3a4.73,4.73,0,0,1,2.05-.45,4.93,4.93,0,0,1,4.85,5.22,5.54,5.54,0,0,1-9.33,4.15,5.76,5.76,0,0,1-1.37-2.3l2.8-1A2.36,2.36,0,0,0,376,134.7a2.46,2.46,0,0,0,2.45-2.55,2.51,2.51,0,0,0-4.6-1.45h-2.1v-9.88h8.5v2.9h-5.57Z"/><path class="cls-1" d="M389.9,127.4a2.43,2.43,0,0,1,.87-.15,4.77,4.77,0,0,1,4.63,4.92,5.54,5.54,0,0,1-5.55,5.55,5.22,5.22,0,0,1-5.3-5.35c0-1.52.5-2.9,1.83-5l4.14-6.55h3.65Zm-2.33,4.92a2.33,2.33,0,0,0,2.38,2.4,2.4,2.4,0,0,0,2.42-2.4A2.34,2.34,0,0,0,390,129.9,2.42,2.42,0,0,0,387.57,132.32Z"/><path class="cls-1" d="M399.22,123.72v-2.9h9.85l-6.55,16.58H399.2l5.4-13.68Z"/><path class="cls-1" d="M422.87,132.57c0,3-2.25,5.15-5.45,5.15s-5.35-2-5.35-5a4,4,0,0,1,2.48-4.08,3.6,3.6,0,0,1-2-3.45,4.69,4.69,0,0,1,5-4.74,4.61,4.61,0,0,1,4.9,4.64,4.29,4.29,0,0,1-.7,2.43,2.83,2.83,0,0,1-1.3,1.12A3.88,3.88,0,0,1,422.87,132.57Zm-7.72,0a2.23,2.23,0,0,0,2.32,2.3,2.29,2.29,0,0,0,2.3-2.3,2.32,2.32,0,0,0-2.27-2.32A2.29,2.29,0,0,0,415.15,132.52Zm.32-7.3a2.05,2.05,0,0,0,2,2.1,2.05,2.05,0,1,0,0-4.1A2,2,0,0,0,415.47,125.22Z"/><path class="cls-1" d="M431.37,130.85a3.52,3.52,0,0,1-.75.1,4.8,4.8,0,0,1-4.82-5,5.41,5.41,0,0,1,5.52-5.49,5.22,5.22,0,0,1,5.35,5.39,9.12,9.12,0,0,1-1.8,5l-4.1,6.53h-3.6Zm-2.5-5a2.38,2.38,0,1,0,2.43-2.37A2.39,2.39,0,0,0,428.87,125.82Z"/><path class="cls-1" d="M5,21.56H1.58V4.89H5l7,10.39V4.89h3.42V21.56H12L5,11Z"/><path class="cls-1" d="M22.93,11.79h5.85v2.79H22.93v4.18h5.85v2.8H19.51V4.89h9.27v2.8H22.93Z"/><path class="cls-1" d="M36.06,14.66a4.4,4.4,0,0,0,.75,3.05,3,3,0,0,0,2.32,1,3,3,0,0,0,2.42-1.15,4.45,4.45,0,0,0,.66-2.94V4.89h3.44v9.64c0,2.45-.52,4.15-1.65,5.4a6.4,6.4,0,0,1-4.82,1.95,6.73,6.73,0,0,1-5-2.07c-1.07-1.2-1.5-2.7-1.5-5.28V4.89h3.43Z"/><path class="cls-1" d="M60.93,18.76v2.8H48.53l7.8-13.87H49.41V4.89H61.68L53.91,18.76Z"/><path class="cls-1" d="M68,11.79h5.84v2.79H68v4.18h5.84v2.8H64.58V4.89h9.27v2.8H68Z"/><path class="cls-1" d="M81.41,21.56H78V4.89h3.43Z"/><path class="cls-1" d="M91.86,21.56H88.43V7.69h-4V4.89H95.8v2.8H91.86Z"/><path class="cls-1" d="M124,12.21v.9a8.21,8.21,0,0,1-2.43,6.2,8.55,8.55,0,0,1-6.15,2.57,8.4,8.4,0,0,1-8.57-8.62,8.6,8.6,0,0,1,15.3-5.5l-2.58,2a5,5,0,0,0-4.09-2.08,5.26,5.26,0,0,0-5.15,5.55,5.32,5.32,0,0,0,5.22,5.52,4.91,4.91,0,0,0,3.72-1.67,4.8,4.8,0,0,0,1-2.1h-4.65v-2.8Z"/><path class="cls-1" d="M131.13,21.56h-3.42V4.89h5.15c4.12,0,6.34,1.82,6.34,5.25a4.8,4.8,0,0,1-3.95,5l4.6,6.4H135.7l-4.57-6.62Zm1.55-8.62c1.95,0,3-.95,3-2.63A2.48,2.48,0,0,0,133,7.71h-1.85v5.23Z"/><path class="cls-1" d="M157.53,7.36a8.54,8.54,0,0,1,2.12,6,8.61,8.61,0,0,1-17.22,0,8.7,8.7,0,0,1,15.1-5.95Zm-11.6,5.9a5.13,5.13,0,1,0,10.25.08c0-3.23-2.15-5.6-5.1-5.6A5.21,5.21,0,0,0,145.93,13.26Z"/><path class="cls-1" d="M168.9,21.56h-3.42V7.69h-4V4.89h11.34v2.8H168.9Z"/><path class="cls-1" d="M179.08,11.79h5.85v2.79h-5.85v4.18h5.85v2.8h-9.27V4.89h9.27v2.8h-5.85Z"/><path class="cls-1" d="M191.66,16.68v.23a2.07,2.07,0,0,0,2.27,1.95,2,2,0,0,0,2.2-1.78,1.64,1.64,0,0,0-.68-1.32,6.82,6.82,0,0,0-2-.93c-3.65-1.3-5-2.67-5-5.22,0-3,2.23-5,5.5-5a5.21,5.21,0,0,1,5.62,5.1h-3.45A2,2,0,0,0,194,7.59a1.81,1.81,0,0,0-2,1.75,1.74,1.74,0,0,0,1,1.57,11.13,11.13,0,0,0,1.94.83,9.33,9.33,0,0,1,3.48,1.85,4.3,4.3,0,0,1,1.32,3.22c0,3.05-2.3,5.07-5.74,5.07s-5.65-2-5.63-5.2Z"/><path class="cls-1" d="M207,21.56h-3.42V4.89H207v7.25l4.73-7.25h4l-5.4,8,5.4,8.65h-4L207,14.14Z"/><path class="cls-1" d="M7,34.89c2.05,0,3.37.3,4.25,1a4.31,4.31,0,0,1,1.59,3.52,4,4,0,0,1-1.05,2.85,3.66,3.66,0,0,1-1.74,1,3.77,3.77,0,0,1,2,.9,3.9,3.9,0,0,1,1.2,3,4.36,4.36,0,0,1-1.72,3.65,6.4,6.4,0,0,1-3.73.8H1.58V34.89ZM5,42H6.38c2,0,3-.72,3-2.27a2.06,2.06,0,0,0-1-1.88,5.36,5.36,0,0,0-2.15-.32H5ZM5,49H6.68a3.57,3.57,0,0,0,2.23-.45,2,2,0,0,0,.82-1.77,2,2,0,0,0-1-1.9,4.21,4.21,0,0,0-2.3-.4H5Z"/><path class="cls-1" d="M31.45,37.36a8.68,8.68,0,1,1-15.09,6,8.6,8.6,0,0,1,8.75-8.75A8.51,8.51,0,0,1,31.45,37.36Zm-11.59,5.9a5.13,5.13,0,1,0,10.24.08c0-3.23-2.14-5.6-5.09-5.6A5.21,5.21,0,0,0,19.86,43.26Z"/><path class="cls-1" d="M46.53,48.73v2.83h-9V34.89H41V48.73Z"/><path class="cls-1" d="M50.06,34.89h4.72c2.7,0,4.52.55,6,1.85A8.11,8.11,0,0,1,63.4,43a8.74,8.74,0,0,1-2.65,6.59A8.4,8.4,0,0,1,55,51.56H50.06Zm3.42,13.84h.65a5.49,5.49,0,0,0,3.92-1.15,5.7,5.7,0,0,0,1.88-4.44c0-3.33-2-5.48-5.2-5.48H53.48Z"/><path class="cls-2" d="M266.88,204.61l-1,2.87h-3.63L268,190.81h4.27l5.7,16.67h-3.75l-1-2.87Zm3.19-9.7-2.32,6.9h4.62Z"/><path class="cls-2" d="M284.78,204.61l-1,2.87h-3.63l5.75-16.67h4.27l5.7,16.67h-3.75l-.95-2.87Zm3.19-9.7-2.32,6.9h4.62Z"/><path class="cls-2" d="M313,190.81c2.05,0,3.38.3,4.25.95a4.28,4.28,0,0,1,1.6,3.52,4,4,0,0,1-1.05,2.85,3.69,3.69,0,0,1-1.75,1,3.85,3.85,0,0,1,2,.9,3.92,3.92,0,0,1,1.2,3,4.32,4.32,0,0,1-1.73,3.65,6.36,6.36,0,0,1-3.72.8h-6.15V190.81Zm-1.95,7.07h1.38c2,0,3-.72,3-2.27a2.06,2.06,0,0,0-1-1.88,5.3,5.3,0,0,0-2.15-.32h-1.2Zm0,7.08h1.68a3.48,3.48,0,0,0,2.22-.46,2,2,0,0,0,.83-1.77,2.05,2.05,0,0,0-.95-1.9,4.23,4.23,0,0,0-2.3-.4h-1.48Z"/><path class="cls-2" d="M328.57,190.81c2.05,0,3.38.3,4.25.95a4.28,4.28,0,0,1,1.6,3.52,4,4,0,0,1-1.05,2.85,3.69,3.69,0,0,1-1.75,1,3.85,3.85,0,0,1,2,.9,3.92,3.92,0,0,1,1.2,3,4.32,4.32,0,0,1-1.73,3.65,6.36,6.36,0,0,1-3.72.8H323.2V190.81Zm-1.95,7.07H328c2,0,3-.72,3-2.27a2.06,2.06,0,0,0-1-1.88,5.3,5.3,0,0,0-2.15-.32h-1.2Zm0,7.08h1.68a3.48,3.48,0,0,0,2.22-.46,2,2,0,0,0,.83-1.77,2.05,2.05,0,0,0-1-1.9,4.23,4.23,0,0,0-2.3-.4h-1.48Z"/><path class="cls-2" d="M361.1,205.28a8.33,8.33,0,0,1-6.2,2.52,7.66,7.66,0,0,1-6-2.5,9.24,9.24,0,0,1-2.25-6.12c0-5.07,3.45-8.7,8.28-8.7a8.16,8.16,0,0,1,6.3,2.65L359,195.38a5.51,5.51,0,0,0-3.9-1.72c-2.92,0-5,2.25-5,5.45s2.15,5.52,5.15,5.52a4.59,4.59,0,0,0,3.72-1.7Z"/><path class="cls-2" d="M377.79,205.28a8.29,8.29,0,0,1-6.19,2.52,7.66,7.66,0,0,1-6-2.5,9.24,9.24,0,0,1-2.25-6.12c0-5.07,3.45-8.7,8.28-8.7a8.16,8.16,0,0,1,6.3,2.65l-2.23,2.25a5.51,5.51,0,0,0-3.9-1.72c-2.92,0-5,2.25-5,5.45s2.15,5.52,5.15,5.52a4.59,4.59,0,0,0,3.72-1.7Z"/><path class="cls-2" d="M390.07,190.81h4.73c2.7,0,4.52.55,6,1.85a8.11,8.11,0,0,1,2.62,6.3,8.74,8.74,0,0,1-2.65,6.59,8.4,8.4,0,0,1-5.77,1.93h-4.93Zm3.43,13.85h.65a5.56,5.56,0,0,0,3.92-1.15,5.72,5.72,0,0,0,1.88-4.45c0-3.33-2-5.48-5.2-5.48H393.5Z"/><path class="cls-2" d="M407.35,190.81h4.72c2.7,0,4.53.55,6,1.85a8.11,8.11,0,0,1,2.63,6.3,8.71,8.71,0,0,1-2.66,6.59,8.4,8.4,0,0,1-5.77,1.93h-4.92Zm3.42,13.85h.65a5.58,5.58,0,0,0,3.93-1.15,5.71,5.71,0,0,0,1.87-4.45c0-3.33-2-5.48-5.2-5.48h-1.25Z"/><path class="cls-2" d="M436.22,197.71h5.85v2.8h-5.85v4.17h5.85v2.8H432.8V190.81h9.27v2.8h-5.85Z"/><path class="cls-2" d="M449.05,197.71h5.84v2.8h-5.84v4.17h5.84v2.8h-9.27V190.81h9.27v2.8h-5.84Z"/><path class="cls-2" d="M471.2,197.71H477v2.8H471.2v7h-3.43V190.81H477v2.8H471.2Z"/><path class="cls-2" d="M484.12,197.71H490v2.8h-5.85v7H480.7V190.81H490v2.8h-5.85Z"/><path class="cls-2" d="M518.69,198.13v.9a8.22,8.22,0,0,1-2.42,6.2,8.57,8.57,0,0,1-6.15,2.57,8.66,8.66,0,1,1,6.72-14.12l-2.57,2a5,5,0,0,0-4.1-2.08,5.26,5.26,0,0,0-5.15,5.55,5.33,5.33,0,0,0,5.22,5.53A4.94,4.94,0,0,0,514,203a4.64,4.64,0,0,0,1-2.1h-4.65v-2.8Z"/><path class="cls-2" d="M538.74,198.13v.9a8.22,8.22,0,0,1-2.42,6.2,8.57,8.57,0,0,1-6.15,2.57,8.66,8.66,0,1,1,6.72-14.12l-2.57,2a5,5,0,0,0-4.1-2.08,5.26,5.26,0,0,0-5.15,5.55,5.33,5.33,0,0,0,5.22,5.53A4.94,4.94,0,0,0,534,203a4.64,4.64,0,0,0,1-2.1h-4.65v-2.8Z"/><path class="cls-2" d="M554.64,207.48h-3.42V190.81h3.42v7.05H561v-7.05h3.42v16.67H561v-6.82h-6.33Z"/><path class="cls-2" d="M572.57,207.48h-3.42V190.81h3.42v7.05h6.32v-7.05h3.43v16.67h-3.43v-6.82h-6.32Z"/><path class="cls-2" d="M267.38,237.48H264V220.81h3.43Z"/><path class="cls-2" d="M275.52,237.48H272.1V220.81h3.42Z"/><path class="cls-2" d="M295.37,231.56c.08,4.49-2.07,6.29-7.35,6.17v-3l.7,0a3.82,3.82,0,0,0,2.3-.62c.7-.58.93-1.35.93-3.38v-7.12H288v-2.8h7.35Z"/><path class="cls-2" d="M306.22,231.56c.08,4.49-2.07,6.29-7.35,6.17v-3l.7,0a3.82,3.82,0,0,0,2.3-.62c.7-.58.93-1.35.93-3.38v-7.12h-3.93v-2.8h7.35Z"/><path class="cls-2" d="M322.87,237.48h-3.42V220.81h3.42v7.25l4.73-7.25h4l-5.4,8,5.4,8.65h-4l-4.68-7.42Z"/><path class="cls-2" d="M338.2,237.48h-3.43V220.81h3.43v7.25l4.72-7.25h4l-5.39,8,5.39,8.65h-4l-4.67-7.42Z"/><path class="cls-2" d="M367.84,234.66v2.82h-9V220.81h3.42v13.85Z"/><path class="cls-2" d="M380.37,234.66v2.82h-9V220.81h3.43v13.85Z"/><path class="cls-2" d="M396.07,237.48h-3.42V220.81h3.87l5,10.12,5-10.12h3.88v16.67h-3.43v-10.4L401.49,238l-5.42-10.9Z"/><path class="cls-2" d="M418.52,237.48H415.1V220.81H419l5,10.12,5-10.12h3.88v16.67h-3.43v-10.4L423.94,238l-5.42-10.9Z"/><path class="cls-2" d="M267.38,267.48H264V250.81h3.37l7,10.4v-10.4h3.42v16.67h-3.35l-7-10.55Z"/><path class="cls-2" d="M285.88,267.48h-3.43V250.81h3.37l7,10.4v-10.4h3.42v16.67h-3.35l-7-10.55Z"/><path class="cls-2" d="M324,253.28a8.68,8.68,0,1,1-15.09,6,8.7,8.7,0,0,1,15.09-6Zm-11.6,5.9a5.13,5.13,0,1,0,10.25.08c0-3.23-2.15-5.6-5.1-5.6A5.21,5.21,0,0,0,312.37,259.18Z"/><path class="cls-2" d="M344.32,253.28a8.68,8.68,0,1,1-15.1,6,8.7,8.7,0,0,1,15.1-6Zm-11.6,5.9a5.13,5.13,0,1,0,10.25.08c0-3.23-2.15-5.6-5.1-5.6A5.21,5.21,0,0,0,332.72,259.18Z"/><path class="cls-2" d="M362.57,267.48h-3.42V250.81h5.32c3.95,0,6.17,1.92,6.17,5.32s-2.27,5.63-5.94,5.63h-2.13Zm1.48-8.55c2,0,3.12-.95,3.12-2.62s-1.17-2.68-3.05-2.68h-1.55v5.3Z"/><path class="cls-2" d="M377.6,267.48h-3.43V250.81h5.33c3.95,0,6.17,1.92,6.17,5.32s-2.27,5.63-5.95,5.63H377.6Zm1.47-8.55c2,0,3.13-.95,3.13-2.62s-1.18-2.68-3.05-2.68H377.6v5.3Z"/><path class="cls-2" d="M411.59,268.43l-1.5-1.8a8.28,8.28,0,0,1-4.37,1.17,8.66,8.66,0,0,1,.13-17.32,8.36,8.36,0,0,1,8.52,8.53,8.87,8.87,0,0,1-1.93,5.67l1.58,1.7Zm-1.42-6.35a6.34,6.34,0,0,0,.72-3,5.15,5.15,0,1,0-5.24,5.57,3.41,3.41,0,0,0,2.05-.55l-1.13-1.32,2.4-2.05Z"/><path class="cls-2" d="M432,268.43l-1.5-1.8a8.33,8.33,0,0,1-4.37,1.17,8.66,8.66,0,0,1,.12-17.32,8.35,8.35,0,0,1,8.52,8.53,8.92,8.92,0,0,1-1.92,5.67l1.57,1.7Zm-1.43-6.35a6.35,6.35,0,0,0,.73-3,5.15,5.15,0,1,0-5.25,5.57,3.41,3.41,0,0,0,2.05-.55L427,262.76l2.39-2.05Z"/><path class="cls-2" d="M450.87,267.48h-3.42V250.81h5.15c4.12,0,6.34,1.82,6.34,5.25a4.8,4.8,0,0,1-3.94,5l4.59,6.4h-4.14l-4.58-6.62Zm1.55-8.62c1.95,0,3.05-.95,3.05-2.63a2.48,2.48,0,0,0-2.75-2.6h-1.85v5.23Z"/><path class="cls-2" d="M466.72,267.48H463.3V250.81h5.15c4.12,0,6.34,1.82,6.34,5.25a4.8,4.8,0,0,1-3.94,5l4.59,6.4h-4.15l-4.57-6.62Zm1.55-8.62c2,0,3.05-.95,3.05-2.63a2.48,2.48,0,0,0-2.75-2.6h-1.85v5.23Z"/><path class="cls-2" d="M490.25,262.61v.22a2.07,2.07,0,0,0,2.27,1.95,2,2,0,0,0,2.2-1.77,1.66,1.66,0,0,0-.68-1.33,6.63,6.63,0,0,0-2-.92c-3.65-1.3-4.95-2.68-4.95-5.23,0-3,2.23-5.05,5.5-5.05a5.21,5.21,0,0,1,5.62,5.1h-3.44a2,2,0,0,0-2.18-2.07,1.82,1.82,0,0,0-2.05,1.75,1.74,1.74,0,0,0,1,1.57,11.38,11.38,0,0,0,1.95.83,9.35,9.35,0,0,1,3.47,1.85,4.32,4.32,0,0,1,1.32,3.22c0,3-2.3,5.07-5.75,5.07s-5.64-2-5.62-5.19Z"/><path class="cls-2" d="M504.85,262.61v.22a2.07,2.07,0,0,0,2.27,1.95,2,2,0,0,0,2.2-1.77,1.66,1.66,0,0,0-.68-1.33,6.63,6.63,0,0,0-2-.92c-3.65-1.3-4.95-2.68-4.95-5.23,0-3,2.23-5.05,5.5-5.05a5.21,5.21,0,0,1,5.62,5.1h-3.45a2,2,0,0,0-2.17-2.07,1.82,1.82,0,0,0-2.05,1.75,1.74,1.74,0,0,0,1,1.57,11.52,11.52,0,0,0,1.94.83,9.33,9.33,0,0,1,3.48,1.85,4.32,4.32,0,0,1,1.32,3.22c0,3-2.3,5.07-5.75,5.07s-5.64-2-5.62-5.19Z"/><path class="cls-2" d="M531.25,267.48h-3.43V253.61h-4v-2.8h11.34v2.8h-3.94Z"/><path class="cls-2" d="M544.84,267.48h-3.42V253.61h-4v-2.8h11.34v2.8h-3.95Z"/><path class="cls-2" d="M563.79,260.58a4.4,4.4,0,0,0,.75,3.05,3.05,3.05,0,0,0,2.33,1,3,3,0,0,0,2.42-1.15,4.49,4.49,0,0,0,.65-2.95v-9.75h3.45v9.65c0,2.45-.52,4.15-1.65,5.39a6.4,6.4,0,0,1-4.82,1.95,6.7,6.7,0,0,1-5-2.07c-1.08-1.2-1.5-2.7-1.5-5.27v-9.65h3.42Z"/><path class="cls-2" d="M581,260.58a4.4,4.4,0,0,0,.75,3.05,3.14,3.14,0,0,0,4.75-.12,4.49,4.49,0,0,0,.65-2.95v-9.75h3.45v9.65c0,2.45-.53,4.15-1.65,5.39a6.43,6.43,0,0,1-4.83,1.95,6.73,6.73,0,0,1-5-2.07c-1.07-1.2-1.5-2.7-1.5-5.27v-9.65H581Z"/><path class="cls-2" d="M272.67,280.81h3.53L271,297.48H267.3l-5.05-16.67h3.53L269.15,292Z"/><path class="cls-2" d="M288,280.81h3.53l-5.25,16.67H282.6l-5.05-16.67h3.53L284.45,292Z"/><path class="cls-2" d="M319.37,280.81H323l-4.65,16.67h-3.45l-2.63-10.92-2.62,10.92h-3.45l-4.55-16.67h3.62l2.68,10.52,2.7-10.52H314l2.6,10.7Z"/><path class="cls-2" d="M342.9,280.81h3.57l-4.65,16.67h-3.45l-2.62-10.92-2.63,10.92h-3.45l-4.55-16.67h3.63l2.67,10.52,2.7-10.52h3.4l2.6,10.7Z"/><path class="cls-2" d="M360.55,297.48H356.6l5.25-8.8-4.68-7.87h3.95l2.68,4.77,2.75-4.77h3.9l-4.7,7.87,5.17,8.8H367l-3.22-5.8Z"/><path class="cls-2" d="M376.32,297.48h-3.94l5.24-8.8L373,280.81h3.95l2.67,4.77,2.75-4.77h3.9l-4.7,7.87,5.18,8.8h-3.9l-3.23-5.8Z"/><path class="cls-2" d="M405.52,297.48H402.1v-7.35l-5.58-9.32h4.08l3.22,5.77,3.18-5.77h4l-5.48,9.32Z"/><path class="cls-2" d="M420.7,297.48h-3.43v-7.35l-5.57-9.32h4.07l3.23,5.77,3.17-5.77h4l-5.47,9.32Z"/><path class="cls-2" d="M274.92,324.68v2.8H262.53l7.79-13.87H263.4v-2.8h12.27l-7.77,13.87Z"/><path class="cls-2" d="M290.17,324.68v2.8H277.78l7.79-13.87h-6.92v-2.8h12.27l-7.77,13.87Z"/><path class="cls-2" d="M312.67,322.43c0,1.93-.4,3.12-1.37,4.05a5.35,5.35,0,0,1-3.8,1.32,5.58,5.58,0,0,1-4-1.4c-.93-.92-1.25-2.12-1.25-4.72v-5.32c0-2.15.32-3.38,1.13-4.25a5.29,5.29,0,0,1,4-1.55,5.53,5.53,0,0,1,3.77,1.3c1.08.95,1.5,2.1,1.5,4.1Zm-7.2-.4c0,1.33,0,1.63.35,2a2,2,0,0,0,1.68.8,1.94,1.94,0,0,0,1.67-.86,3.68,3.68,0,0,0,.35-2v-5.8c0-1.13-.12-1.6-.5-2a2,2,0,0,0-1.52-.62,1.87,1.87,0,0,0-1.68.82,3.71,3.71,0,0,0-.35,2Z"/><path class="cls-2" d="M317.82,316.68v-3l6.25-3.25v17h-3.22V315.06Z"/><path class="cls-2" d="M339.55,324.66v2.82H329.42l5.83-8.9c1.27-1.95,1.52-2.47,1.52-3.27a1.84,1.84,0,0,0-2-1.85,1.91,1.91,0,0,0-1.88,1.17,4.28,4.28,0,0,0-.25,1.6h-2.95c0-3.52,2-5.67,5.28-5.67,2.92,0,5,1.85,5,4.42,0,1.53-.58,2.93-2.05,5.1l-3.13,4.58Z"/><path class="cls-2" d="M343.92,313.66v-2.75h10.15l-4.62,6.22a4.72,4.72,0,0,1,4.45,5,5.43,5.43,0,0,1-5.55,5.64,5.16,5.16,0,0,1-4.4-2.2,5.28,5.28,0,0,1-.85-2.64l2.87-.1a2.24,2.24,0,0,0,2.3,2.07,2.51,2.51,0,0,0,2.55-2.55,2.47,2.47,0,0,0-2.57-2.55,2.72,2.72,0,0,0-1.53.43l-1.8-1.53,3.8-5.07Z"/><path class="cls-2" d="M357.1,324.06v-2.68L363,310.76h3.35v10.55h1.52v2.75H366.3v3.42h-3.08v-3.42Zm6.12-8.95-3.5,6.2h3.5Z"/><path class="cls-2" d="M374.65,317.38a4.88,4.88,0,0,1,2.05-.45,4.94,4.94,0,0,1,4.85,5.23,5.54,5.54,0,0,1-9.33,4.14,5.76,5.76,0,0,1-1.37-2.3l2.8-1a2.35,2.35,0,0,0,2.32,1.82,2.56,2.56,0,1,0-2.15-4h-2.1v-9.87h8.5v2.9h-5.57Z"/><path class="cls-2" d="M389.9,317.48a2.68,2.68,0,0,1,.87-.15,4.77,4.77,0,0,1,4.63,4.93,5.54,5.54,0,0,1-5.55,5.54,5.22,5.22,0,0,1-5.3-5.34c0-1.53.5-2.9,1.83-5l4.14-6.55h3.65Zm-2.33,4.93A2.33,2.33,0,0,0,390,324.8a2.4,2.4,0,0,0,2.42-2.39A2.35,2.35,0,0,0,390,320,2.42,2.42,0,0,0,387.57,322.41Z"/><path class="cls-2" d="M399.22,313.81v-2.9h9.85l-6.55,16.57H399.2l5.4-13.67Z"/><path class="cls-2" d="M422.87,322.66c0,3-2.25,5.14-5.45,5.14s-5.35-2-5.35-5a4,4,0,0,1,2.48-4.07,3.61,3.61,0,0,1-2-3.45,4.69,4.69,0,0,1,5-4.75,4.61,4.61,0,0,1,4.9,4.65,4.23,4.23,0,0,1-.7,2.42,2.85,2.85,0,0,1-1.3,1.13A3.88,3.88,0,0,1,422.87,322.66Zm-7.72-.05a2.24,2.24,0,0,0,2.32,2.3,2.29,2.29,0,0,0,2.3-2.3,2.33,2.33,0,0,0-2.27-2.33A2.29,2.29,0,0,0,415.15,322.61Zm.32-7.3a2.06,2.06,0,0,0,2,2.1,2.05,2.05,0,1,0,0-4.1A2,2,0,0,0,415.47,315.31Z"/><path class="cls-2" d="M431.37,320.93a3,3,0,0,1-.75.1,4.8,4.8,0,0,1-4.82-5,5.41,5.41,0,0,1,5.52-5.5,5.23,5.23,0,0,1,5.35,5.4,9.17,9.17,0,0,1-1.8,5l-4.1,6.52h-3.6Zm-2.5-5a2.38,2.38,0,1,0,4.75,0,2.38,2.38,0,1,0-4.75,0Z"/><path class="cls-2" d="M5,211.64H1.58V195H5l7,10.4V195h3.42v16.67H12L5,201.09Z"/><path class="cls-2" d="M22.93,201.87h5.85v2.8H22.93v4.17h5.85v2.8H19.51V195h9.27v2.8H22.93Z"/><path class="cls-2" d="M36.06,204.74a4.4,4.4,0,0,0,.75,3,3.14,3.14,0,0,0,4.75-.12,4.49,4.49,0,0,0,.65-2.95V195h3.44v9.65c0,2.45-.52,4.15-1.65,5.4A6.4,6.4,0,0,1,39.18,212a6.7,6.7,0,0,1-5-2.08c-1.07-1.2-1.5-2.7-1.5-5.27V195h3.43Z"/><path class="cls-2" d="M60.93,208.84v2.8H48.53l7.8-13.87H49.41V195H61.68l-7.77,13.87Z"/><path class="cls-2" d="M68,201.87h5.85v2.8H68v4.17h5.85v2.8H64.58V195h9.28v2.8H68Z"/><path class="cls-2" d="M81.41,211.64H78V195h3.43Z"/><path class="cls-2" d="M91.86,211.64H88.43V197.77h-4V195H95.8v2.8H91.86Z"/><path class="cls-2" d="M124,202.29v.9a8.19,8.19,0,0,1-2.43,6.2A8.52,8.52,0,0,1,115.4,212a8.66,8.66,0,0,1,0-17.32,8.5,8.5,0,0,1,6.75,3.19l-2.58,2a5,5,0,0,0-4.09-2.07,5.25,5.25,0,0,0-5.15,5.54,5.33,5.33,0,0,0,5.22,5.53,4.9,4.9,0,0,0,3.72-1.68,4.75,4.75,0,0,0,1-2.1h-4.65v-2.8Z"/><path class="cls-2" d="M131.13,211.64h-3.42V195h5.15c4.12,0,6.34,1.83,6.34,5.25a4.8,4.8,0,0,1-3.95,5l4.6,6.4h-4.14L131.13,205Zm1.55-8.62c1.95,0,3-1,3-2.63A2.48,2.48,0,0,0,133,197.8h-1.85V203Z"/><path class="cls-2" d="M157.53,197.45a8.68,8.68,0,1,1-15.1,5.94,8.7,8.7,0,0,1,15.1-5.94Zm-11.6,5.89a5.13,5.13,0,1,0,10.25.08c0-3.23-2.15-5.6-5.1-5.6A5.21,5.21,0,0,0,145.93,203.34Z"/><path class="cls-2" d="M168.91,211.64h-3.43V197.77h-4V195h11.34v2.8h-3.94Z"/><path class="cls-2" d="M179.08,201.87h5.85v2.8h-5.85v4.17h5.85v2.8h-9.27V195h9.27v2.8h-5.85Z"/><path class="cls-2" d="M191.66,206.77V207a2.07,2.07,0,0,0,2.27,1.95,2,2,0,0,0,2.2-1.77,1.68,1.68,0,0,0-.67-1.33,6.88,6.88,0,0,0-2-.92c-3.65-1.3-5-2.68-5-5.23,0-3,2.23-5,5.5-5a5.21,5.21,0,0,1,5.62,5.09h-3.45a2,2,0,0,0-2.17-2.07,1.82,1.82,0,0,0-2,1.75,1.74,1.74,0,0,0,1,1.57,11.52,11.52,0,0,0,1.94.83,9.33,9.33,0,0,1,3.48,1.85,4.32,4.32,0,0,1,1.32,3.22c0,3.05-2.3,5.08-5.74,5.08s-5.65-2-5.63-5.2Z"/><path class="cls-2" d="M207,211.64h-3.43V195H207v7.25l4.72-7.25h4l-5.4,8,5.4,8.65h-4L207,204.22Z"/><path class="cls-2" d="M7,225c2.05,0,3.37.3,4.25.95a4.32,4.32,0,0,1,1.59,3.52,4,4,0,0,1-1,2.85,3.74,3.74,0,0,1-1.75,1,3.77,3.77,0,0,1,2,.9,3.88,3.88,0,0,1,1.2,3,4.34,4.34,0,0,1-1.72,3.65,6.32,6.32,0,0,1-3.73.8H1.58V225ZM5,232H6.38c2,0,3-.72,3-2.27a2.07,2.07,0,0,0-1-1.88,5.36,5.36,0,0,0-2.15-.32H5Zm0,7.08H6.68a3.57,3.57,0,0,0,2.23-.45A2.36,2.36,0,0,0,8.78,235a4.21,4.21,0,0,0-2.3-.4H5Z"/><path class="cls-2" d="M31.45,227.45a8.68,8.68,0,1,1-15.09,5.94,8.6,8.6,0,0,1,8.75-8.74A8.51,8.51,0,0,1,31.45,227.45Zm-11.59,5.89a5.13,5.13,0,1,0,10.24.08c0-3.23-2.14-5.6-5.09-5.6A5.21,5.21,0,0,0,19.86,233.34Z"/><path class="cls-2" d="M46.53,238.82v2.82h-9V225H41v13.85Z"/><path class="cls-2" d="M50.06,225h4.72c2.7,0,4.52.55,6,1.85a8.11,8.11,0,0,1,2.62,6.3,8.78,8.78,0,0,1-2.65,6.6A8.4,8.4,0,0,1,55,241.64H50.06Zm3.42,13.85h.65a5.54,5.54,0,0,0,3.92-1.15,5.72,5.72,0,0,0,1.88-4.45c0-3.33-2-5.47-5.2-5.47H53.48Z"/><path d="M.15,456.23l1.39,0,1.19,0-.1.31-.42.32c.26.75.73,1.87,2.93,7.3h0c.43-.87.88-1.79,1.69-3.61-.51-1.28-1.12-2.65-1.52-3.49a2,2,0,0,0-1.08-.52l.12-.31,1.36,0,.63,0,0,0,.06.63a24.53,24.53,0,0,0,1,2.48h0c.6-1.35.8-1.7,1.07-2.48l0-.63,0,0,.65,0,1.31,0-.09.31a2.58,2.58,0,0,0-1.31.66c-.18.32-.54.93-1.45,2.82.11.28.66,1.57,1.75,4.06h0c.63-1.7,1.63-4.4,2.57-7.17l-.46-.37.11-.31.83,0,1.51,0-.07.31a2.66,2.66,0,0,0-1.2.56c-.38.69-1.89,4.71-3.14,7.89a3.75,3.75,0,0,1-.52.74h-.1c-.26-.54-1.08-2.58-1.9-4.5h0l-1.84,3.82a2.9,2.9,0,0,1-.53.68H4.68c-.39-.91-2.83-7-3.59-8.64A2,2,0,0,0,0,456.54Z"/><path d="M17.1,461.64c0-1.55-.65-1.86-1.45-1.86a1.8,1.8,0,0,0-.89.29c0,.35-.07.93-.14,1.33l-.17.06a3.63,3.63,0,0,1-.8-1.15,7.06,7.06,0,0,1,1.6-.92,2.79,2.79,0,0,1,1-.23,1.94,1.94,0,0,1,1.83,2.15c0,.93,0,2.15,0,3.12a2,2,0,0,0,1.12.84l-.12.22a1.08,1.08,0,0,1-.54.13c-.94,0-1.24-.43-1.38-.81h0a2.59,2.59,0,0,1-1.72.84,1.65,1.65,0,0,1-1.75-1.6,1.25,1.25,0,0,1,.56-1.15,12.38,12.38,0,0,1,2.91-1Zm-1.24,3.29a1.63,1.63,0,0,0,1.08-.5.54.54,0,0,0,.14-.34l0-1.75a9.4,9.4,0,0,0-1.93.69.76.76,0,0,0-.51.77A1.13,1.13,0,0,0,15.86,464.93Z"/><path d="M20.11,459.61a5.44,5.44,0,0,1,1.41-.45,7.2,7.2,0,0,1,.14,1.43h0a2.45,2.45,0,0,1,2-1.43.93.93,0,0,1,.65.21,6.47,6.47,0,0,1-.4,1.42l-.15.1a4.58,4.58,0,0,1-.48-.9.41.41,0,0,0-.21,0c-.45,0-1.09.57-1.39,1.34v3.5l1.43.4-.07.29H19.78l.07-.29.82-.41c0-1.47,0-3.78,0-4.48l-.73-.42Z"/><path d="M26.08,460.25l-.75-.32.08-.28a6.53,6.53,0,0,1,1.64-.49L27,460.28h0c1.15-.95,1.68-1.12,2.23-1.12,1.44,0,1.86,1.19,1.86,2.23v3.18a.27.27,0,0,0,.17.27l.87.33-.1.31H29.42l.09-.34.57-.39c0-.42.05-1.44.05-3.28,0-1.12-.66-1.57-1.39-1.57a2.69,2.69,0,0,0-1.69.87c0,1.05,0,3.74,0,4l.81.35-.09.32H25.17l.1-.31.77-.36c0-.24,0-1.5,0-3.31Z"/><path d="M39.11,462.34a3.1,3.1,0,0,1-3.1,3.31,3.05,3.05,0,0,1-3.08-3.15,3.25,3.25,0,0,1,3.12-3.34A3.07,3.07,0,0,1,39.11,462.34Zm-5,.07c0,1.35.73,2.78,2,2.78s1.81-1.48,1.81-2.72-.66-2.86-1.92-2.86S34.09,461,34.09,462.41Z"/><path d="M43.89,459.16a2.86,2.86,0,0,1,1.73.52,7.93,7.93,0,0,1-.48,1.42l-.21.09a10,10,0,0,1-.41-1.44,1.18,1.18,0,0,0-.59-.11,2.48,2.48,0,0,0-2.47,2.69A2.51,2.51,0,0,0,44.05,465a1.28,1.28,0,0,0,.39-.13,6.6,6.6,0,0,1,1.16-.81l.09.17a3,3,0,0,1-.89,1.17,4.69,4.69,0,0,1-1.31.23,3.06,3.06,0,0,1-3.14-3.18A3.33,3.33,0,0,1,43.89,459.16Z"/><path d="M49.34,465.19l-.07.29h-3l.1-.29.81-.41c0-.24.05-1.09.05-2.69,0-1.95,0-3.78-.06-5.55l-.77-.38.12-.25a14,14,0,0,1,1.73-.45c0,1.56,0,3.34,0,5.07,0,.93,0,4,0,4.25Zm3.36.51A2.85,2.85,0,0,1,51,465a25.74,25.74,0,0,1-2.43-2.76l0-.09c.65-.71,1.42-1.59,2-2.32l.25-.69a12.13,12.13,0,0,1,1.81.17l-.19.29c-.19.12-1.1.4-1.4.54-.54.53-.71.71-1.5,1.59v0c.86,1.09,2.61,3,3.32,3.83Z"/><path d="M56.85,456.37a26.23,26.23,0,0,1,2.78-.22,4.4,4.4,0,0,1,2.53.59,2.46,2.46,0,0,1,1.12,2.14,2.84,2.84,0,0,1-2.94,2.87,2,2,0,0,1-.54-.05l-.14-.34A2.3,2.3,0,0,0,62.11,459c0-1.82-1.38-2.37-3.2-2.28v3.79c0,3.37.09,4,.09,4.28l1.51.42-.13.32H56.76l.07-.31,1-.42a41.12,41.12,0,0,0,.06-4.22v-3.61l-1.14-.24Z"/><path d="M64.6,459.61a5.57,5.57,0,0,1,1.41-.45,7.2,7.2,0,0,1,.14,1.43h0a2.45,2.45,0,0,1,2-1.43,1,1,0,0,1,.66.21,7.08,7.08,0,0,1-.41,1.42l-.15.1a4.58,4.58,0,0,1-.48-.9.41.41,0,0,0-.21,0c-.45,0-1.09.57-1.39,1.34v3.5l1.43.4-.07.29H64.27l.07-.29.82-.41c0-1.47,0-3.78,0-4.48l-.73-.42Z"/><path d="M75.69,462.34a3.1,3.1,0,0,1-3.1,3.31,3.05,3.05,0,0,1-3.08-3.15,3.25,3.25,0,0,1,3.12-3.34A3.07,3.07,0,0,1,75.69,462.34Zm-5,.07c0,1.35.73,2.78,2,2.78s1.81-1.48,1.81-2.72-.66-2.86-1.92-2.86S70.67,461,70.67,462.41Z"/><path d="M.52,473l1.57,0,1.65,0-.11.33-1,.39v3.68c0,2.23,0,4,.06,4.19l3.14.18c.33-.5.92-1.41,1.23-1.78l.28,0a19,19,0,0,1-.46,2.32c-.49,0-1.75-.05-4.74-.05H.25l.1-.31,1.18-.39c0-.2.05-1.93.05-4.13v-3.7l-1.17-.41Z"/><path d="M8.4,476.35a9.24,9.24,0,0,1,1.67-.39v2.8c0,1.57,0,2.38,0,2.81l1,.4-.09.31H8.15l.1-.31.81-.4c0-.47,0-1.71,0-2.84V477l-.76-.35Zm1.23-3.25a1.56,1.56,0,0,1,.63.72l0,.11a2.48,2.48,0,0,1-.67.73l-.1,0a2.48,2.48,0,0,1-.63-.73l0-.11a2.84,2.84,0,0,1,.7-.75Z"/><path d="M16.29,476.77v0a2,2,0,0,1,.5,1.42,2.24,2.24,0,0,1-2.4,2.17,2.35,2.35,0,0,1-1.07-.24,1.34,1.34,0,0,0-.45.69.8.8,0,0,0,.67.63,15,15,0,0,1,2.79,0,1.55,1.55,0,0,1,.85.34,1.45,1.45,0,0,1,.52,1.14,2.51,2.51,0,0,1-1.09,1.92,4,4,0,0,1-2.51.9c-1.33,0-2.38-.7-2.38-1.7a.58.58,0,0,1,.15-.36l1.21-1.34,0,0a3.19,3.19,0,0,1-.53-.38A1.48,1.48,0,0,1,12,481c0-.16.49-.65,1-1a2,2,0,0,1-.93-1.73A2.37,2.37,0,0,1,14.63,476a7,7,0,0,1,1,.11c.45.09.77.14,1,.16l1.21-.49.05.12-.59.84Zm-2.79,5.71a2.71,2.71,0,0,0-.77,1.24c0,1,1,1.31,1.83,1.31,1.19,0,2.29-.54,2.29-1.69a1,1,0,0,0-.75-.94,7.34,7.34,0,0,0-1.4-.09A3.06,3.06,0,0,0,13.5,482.48Zm-.42-4.32c0,.86.45,1.77,1.38,1.77s1.35-.75,1.35-1.8a1.55,1.55,0,0,0-1.37-1.72C13.54,476.41,13.08,477.25,13.08,478.16Z"/><path d="M24.28,481.28a.33.33,0,0,0,.26.38l.79.35-.1.3a14.36,14.36,0,0,1-2-.12c0-.58.12-1.49.12-3.55,0-1.7-.95-1.94-1.61-1.94a2.37,2.37,0,0,0-1.51.56c0,1.36,0,4.05,0,4.33l1,.39-.11.3H18.33l.09-.3.76-.39c0-.21,0-1.45,0-3.29s0-3.37,0-5l-.8-.35.08-.27c.37-.11.9-.25,1.78-.45,0,1.4,0,3,0,4.54l0,0a3,3,0,0,1,2-.86,2,2,0,0,1,2.07,2.09Z"/><path d="M29.79,476.14l-.26.48-1.92.15v4a.93.93,0,0,0,.25.68,1,1,0,0,0,.7.21,2,2,0,0,0,1.14-.32l.07,0,0,.42a2,2,0,0,1-1.53.67,1.76,1.76,0,0,1-1.26-.56c-.24-.32-.33-.62-.33-1.53v-3.59l-1-.15.25-.48h.72a14,14,0,0,1,.28-1.58,1.21,1.21,0,0,1,.76-.45l-.06,2Z"/></g></g></svg>