<svg xmlns="http://www.w3.org/2000/svg" viewBox="0 0 680.2 711.38"><title>Asset 3</title><g id="Layer_2" data-name="Layer 2"><g id="Layer_1-2" data-name="Layer 1"><path d="M639.49,595.11l0,0v0l.06,0h0v-.06h-.07Z"/><path d="M676.79,480.58c-1.84-1.93-1.65-3.95-.95-5.83,1-2.81.2-5.26-1-7.52-1-2-2.34-3.55-2.65-6s-1-4.65-1.13-7.08a32.51,32.51,0,0,0-1.74-9.08c-.25-.71-.32-1.48-.5-2.21a7,7,0,0,0-.66-2.41c-2.63-3.65-2.08-7.9-2.33-12-.07-1,.78-2.15.68-3.16-.42-4-1.22-7.86-4.82-10.44-1.49-1.07-2.86-2.3-4.35-3.51.18-.44.34-.81.49-1.2a45.44,45.44,0,0,0,2.16-5.64c1.18-4.78.55-9.51-.57-14.27s-1.65-9.49-2.73-14.17a23.52,23.52,0,0,0-2.78-7.28,68,68,0,0,1-3.93-6.08,30.66,30.66,0,0,1-2.12-6.36c-.39-1.49-.95-2.93-2.5-3.52-1.9-.73-1.92-.65-1.73-2.54a10.44,10.44,0,0,0-1.69-1.44l-.12-.07c1.45-3.74,1.1-7.59,1-11.54,0-2.63-.26-4.93.88-7.35s3.35-3.61,4.61-5.69c2.94-4.89-2.35-9.92-2.93-14.86-.43-3.66-1.39-8.69-1-12.33s1.38-6.65,1.26-10.29c-.27-8.59-6.58-14.69-8.53-22.73a44.69,44.69,0,0,1-.86-5.27c.51-.4,1-.8,1.53-1.22a4.51,4.51,0,0,0,1.39-2.06c.42-1.43,1-3,.72-4.38-.39-1.79,1.1-3,.79-4.59a4,4,0,0,1,1.14-4.14l-.91-2.23c1-.56,1.89-1.12,2.83-1.6,4-2,7-4.93,8.1-9.48,1.72-7.37.65-14.64-1.08-21.82a27.84,27.84,0,0,0-4-9.5c-2.09-3-4.08-6-7.11-8.11a6.14,6.14,0,0,1-2.48-3.89c-.62-2.35.24-5-1.41-7.09-.65-4.5-1.9-8.94-1.24-13.56a9.32,9.32,0,0,0,0-2.53c-.39-2.93-.84-5.85-1.27-8.77a25.88,25.88,0,0,0-4.94-11.5,14,14,0,0,0-7-5.13c-2.93-1-9.07,1.21-10.68,3.85a2.52,2.52,0,0,0-.33.68c-.61,2.41-1.61,4.82-1.32,7.31.27,2.3-1.73,3.2-2.38,4.89-.08.2-.59.25-.9.35-.53.19-1.07.36-1.66.55,0,.81.07,1.48.12,2.14.12,1.88.18,1.92,2.25,1.81l.73,3.08c-.54.6-1.23,1-1.45,1.66-.63,1.75-.55,1.84-2.51,1.7-3.77-.29-6.46,1.76-8.66,4.33-1.37,1.62-2.81,3.4-3.17,5.7a2,2,0,0,1-.8,1.25c-2.43,1.5-2.9,4.05-3.49,6.5a48.42,48.42,0,0,0-.91,13.1,8.1,8.1,0,0,1-.72,3.63,78.13,78.13,0,0,0-2.72,8.12,3.1,3.1,0,0,0,.11,1.5c.64,2.71,0,4.17-2.59,5.33-1,.47-1.46,1.09-1,2.18.2.44.38.88.61,1.43-2.65,1.44-3.45,3.66-3.24,6.44a10,10,0,0,1-.4,3.25,12.86,12.86,0,0,0,.65,8.19,13.08,13.08,0,0,1,.55,3.2c.19,1.66.14,3.37.49,5,.64,3,1.47,5.9,2.29,8.82a5.86,5.86,0,0,0,1,2c3.45,4.38,6.91,8.75,10.47,13a8.24,8.24,0,0,1,1.56,2.75,40.22,40.22,0,0,0,2.67,5.73,2.89,2.89,0,0,0,1.32,1.11c1.58.7,3.18,1.45,4.7,2.19a13.29,13.29,0,0,0,7.9,1.42c1-1.33,1.56-3.18,2.58-3.44,3.25-.85,4.49-3.58,5.33-6a5.25,5.25,0,0,1,1.18-2.08,7.17,7.17,0,0,1-.17.88c-.45,1.71-1.94,3.46-2.54,5.12-1.22,3.34-.15,6.32,1.26,9.44a17.13,17.13,0,0,0,5,6.86,4.69,4.69,0,0,1,2.83,3.4c.16,1.48-2,4.92-2.62,6.33-1.32,2.92-3,5.95-3.12,9.25-.18,7.06,3.8,13.45,3.48,20.66-.27,5.94-2.29,11.67-2.69,17.64a19.25,19.25,0,0,0-1.61,3.55c-.6,2.35-.49,2.38-2.7,2.51l-.78,2.8a6.09,6.09,0,0,1-1-.12c-.22-.08-.58-.24-.59-.39-.19-1.92-1.86-2.44-3-3.41-3,1-2.89,1-2.74,3.94a18.49,18.49,0,0,0,1.82,6.55c.92,2.1.45,3.4-1.78,4a10.4,10.4,0,0,1-4,0c-1.07-.16-2-.84-3.12-1.05a12.22,12.22,0,0,0-3.94-.28,20.71,20.71,0,0,0-4.07,1.36c-3.58,1.3-7,1.8-10.68-.14-2.08-1.1-4.69-1.24-7.08-1.67-1.07-.2-2.24.14-3.28-.08a20.84,20.84,0,0,0-8.58,0A35.14,35.14,0,0,0,554,370.2a6.82,6.82,0,0,1-5,.94c-3-.62-6-.85-8.79,1.09a2.29,2.29,0,0,1-1.68.3c-2.36-.62-4.87-1-7-2.12-3.94-2.06-8.09-2.2-12.29-2a37.94,37.94,0,0,0-11,1.86,1.33,1.33,0,0,1-.19.05c-1.63-1.65-2.15-3.13-3.49-5.25-2.17-3.43-5.9-5.63-6.66-9.91a11.52,11.52,0,0,1,1.62-9c2.44-3.47,6.38-4,9.13-7,.79-.86,1.12-2.27,2-3,2-1.7,6.16-1,8.58-1a124.21,124.21,0,0,1,16.11,1.09c2.22.28,5.31,1.05,7.4.09-2.73-5.84-6.06-10.13-12.42-12.42-8.78-3.17-19.14-3.42-27.21-8.52-4.69-3-7.28-6.75-11-10.57a10,10,0,0,0-4.74-2.84,39.43,39.43,0,0,1-9.23-3.89,54.44,54.44,0,0,0-6-9.23,37.24,37.24,0,0,1-3.36-3.78,64.91,64.91,0,0,0-7.08-8.59,28.28,28.28,0,0,0-12.41-8.43,33.31,33.31,0,0,1-3.83-1.33,16.34,16.34,0,0,0-10.61-1.29c-1.31.29-2.65.5-4,.78-1.86.41-2.46,0-2.67-1.88-.06-.58-.06-1.18-.16-1.76-.3-1.76-1.17-2.21-2.84-1.6a23.65,23.65,0,0,1-3.13,1,9.8,9.8,0,0,0-5.29,3.22,34.94,34.94,0,0,1-5.81,5.21c-2.94,2-6.17,3.49-9.27,5.22a5.1,5.1,0,0,0-1.45,1c-2,2.28-3.92,4.61-5.85,6.94a24.05,24.05,0,0,0-2.67,3.33,13.1,13.1,0,0,0-1.06,11,40.08,40.08,0,0,1,1.15,6.7c.18,1.32-.52,1.87-1.82,2.23-3.71,1-7.38,2.24-11,3.47-.76.26-1.76.8-2,1.44-1.08,3.11-3.92,5.3-4.23,8.84a2.76,2.76,0,0,1-.7,1.94c-4.61-.81-9.06-2.44-11.54-5.81-.9-1.21-1.29-2.77-2.23-4-1.34-1.78-2.76-2.94-3.77-5s-1.06-4.13-3.12-5.75c-2.24-1.76-5.33-2.25-7.65-3.92-5.14-3.73-5.55-11.52-10.93-15.25-4.91-3.42-11.07-4.57-17-4.78-1.77-.06-3.7,0-5.49.05-2.43.11-2.25.47-4,1.85-7.14,5.64-2.71,16.48-.06,23.55,1.35,3.58,3.16,6,5.33,9.08s2.6,4.83,2.75,8.74c.25,6.49,1.21,13.59,4.61,19.25a13.36,13.36,0,0,0-4,2.68c-1.89,2.08-3,6.2-4.2,8.71-2.39,5.17-5.23,9.53-9.87,13-2.89,2.16-5.86,2.61-9.07,3.92-.25.1-.49.21-.72.32-4.95-2.62-11.75-4-16.4-5.17-3.45-.88-6.28-1.45-9.61-2-4.4-.76-12.74-4.34-14.55,1.95-1.67,5.8,2.83,9.68,6.47,13.39,5,5.12,10.9,9.08,14.79,15.14.11.17.21.35.31.52a42.35,42.35,0,0,0-.31,5.73c-.14,5.18-1.2,13.12-3.48,17.79-2.37,4.86-6.54,8.52-7.28,14.14-.9,6.9.78,13.28-1.77,20.11-1.43,3.83-3.74,5.8-7.08,7.92-4.19,2.66-7.32,6-10.79,9.44-3.27,3.26-5.44,2.9-9.82,2.87a32,32,0,0,0-7.57.66c-2.48.55-5,.25-7.4.78-3.9.88-8.31,3.41-12.3,5.31a4.89,4.89,0,0,0-.7-.67c-2.93-2.26-6.06-4.29-8.79-6.76a11.88,11.88,0,0,0-6-3c-4.9-.77-9.44-3.28-14.54-2.9a1.75,1.75,0,0,1-.5-.06c-3.16-.56-6.31-1.17-9.47-1.68a11.26,11.26,0,0,0-6.94.84,7,7,0,0,1-3.65.68c-4.1-.46-8.17-1.22-12.27-1.75-5.6-.71-11.2-1.49-16.82-1.91-5.28-.4-10.63.11-15.8-1.44a1.09,1.09,0,0,0-.5-.06c-1.9.43-3.51-.43-5-1.32a12.43,12.43,0,0,0-6.52-1.73,7.53,7.53,0,0,1-4.31-1.19,21.7,21.7,0,0,0-4.61-2.06c-2.87-1-5.88-1.64-8.67-2.82-5-2.11-10.35-2.36-15.5-3.62-1.14-.28-2.3-.46-3.45-.7-2.72-.57-5.42-1.27-8.16-1.68-2.33-.35-4.71-.27-7.06-.53A20.79,20.79,0,0,0,33,445.06c-3.73,1.87-7.65,3.35-11.49,5a19.41,19.41,0,0,0-2.09.91A2.21,2.21,0,0,1,17,451c-3.91-2.17-7.17-.78-10.08,2a16.86,16.86,0,0,0-4.74,8.71c-1.22,5.11.43,9.43,2.91,13.45,1.78,2.89,4.4,5.27,6.76,7.78a12,12,0,0,0,2.73,1.79,14.58,14.58,0,0,0,1.81.91c3.16,1.36,6.22,3.07,9.51,4,5.28,1.49,10.65,2.65,15.78,4.7a52.94,52.94,0,0,0,13.22,3.24,26,26,0,0,1,6.35,1.67,62.14,62.14,0,0,0,30.35,3.85A11.26,11.26,0,0,1,99,504.56a12.48,12.48,0,0,0,2,1c3.07,1.17,6.15,2.34,9.24,3.46a32.73,32.73,0,0,0,4.09,1.26c2.47.53,5,.8,7.45,1.4,3,.74,6,1.78,9,2.56,4.15,1.08,8.29,2.25,12.5,3,5.89,1.07,11.85,2.07,17.86,1.09a42.17,42.17,0,0,0,7.8-2.09,57.89,57.89,0,0,0,6.59-3.19,17.36,17.36,0,0,0,3.75,2.82c1.56.67,5.43,1,7.1,1.26,5.89.92,12.23.3,18.19.3,13.94,0,27.43,1.24,41.36,1.36a55.74,55.74,0,0,0,6.82-.25l.36,1.59c.53,2.23,1.37,4.37,3.45,5.72a2.3,2.3,0,0,1,.89.86c.81,2,2.29,3.49,3.58,5.15a17.2,17.2,0,0,1,1.57,2.86c1.4,2.78,2.4,5.86,4.25,8.31a30.48,30.48,0,0,0,12,9c3.61,1.63,7.32,3,11,4.55a5.12,5.12,0,0,1,1.71,1.06c2.11,2.18,4.14,4.43,6.24,6.62a25.14,25.14,0,0,0,2.93,2.73c3.39,2.54,7.6,3.88,10.48,7.17a1.15,1.15,0,0,0,.65.36c1.64.28,2.34,1.49,3,2.81a33.56,33.56,0,0,0,6.16,8,8.23,8.23,0,0,0,5.25,2.8,4.45,4.45,0,0,1,2.27,1.33c1,.91,1.76,2.12,2.82,2.94s2.06,1.67,1.95,3.34a6,6,0,0,1,4.78.63c.39.24,1,.14,1.47.28,1.92.54,4.05.5,5.7,1.83s2.32,3.59,4.74,3.83a.51.51,0,0,1,.27.4c-.07,1,.43.75,1.08.72.48,0,1,.47,1.84.93-1,.84-1.74,1.44-2.43,2.12s-2.06,1.06-1.32,2.58a19.76,19.76,0,0,1,2.78-.42,5.52,5.52,0,0,0,4.14-1.53,9.82,9.82,0,0,1,2.46-1.3l1.12,2.32c-1.82,2.34-3.58,4.58-5.31,6.83-.62.8-.38,1.38.53,1.78a5.73,5.73,0,0,0,7-1.79c1.07-1.26,2.23-2.44,3.41-3.72l3.72,3c-1.11,1.81-2.18,3.58-3.54,5.81a10.31,10.31,0,0,0,2.76,0,9.06,9.06,0,0,0,2.38-1.38,3.25,3.25,0,0,1,4.19-.28c.76.47,1.47,1,2.24,1.59-.3,1.32-.29,2.61-1.69,3.28-.39.19-.58.76-.89,1.13a6.43,6.43,0,0,1-1.45,1.6c-2.92,1.59-5.26,3.59-5.75,7.21a24.39,24.39,0,0,1,1.79,2.34,2.88,2.88,0,0,0,2.77,1.39c4.2,0,9.37-3.86,10.44-7.91.66-2.51.66-2.51,3.15-2.19.39,0,.79,0,1.07.07,1.26,1.89-1.23,3.15-.53,4.9a11.52,11.52,0,0,0,1.25.25c.5,0,1,0,1.52,0,1.47.16,1.93.81,1.54,2.23a5.65,5.65,0,0,1-2.18,3.59c-2.62,1.65-4.28,4.25-6.46,6.32a11.34,11.34,0,0,0-1.16,1.62c.81.5,1.47,1,2.19,1.33.53.25,1.27.16,1.69.49,1.7,1.35,3.5.79,5.32.47,1.12-.2,2.25-.32,3.47-.48v2a9.36,9.36,0,0,0,6.51-1.75c.76-.5,1.22-1.47,2-1.93a7,7,0,0,0,3.33-4.26,5.76,5.76,0,0,1,3-3.4c1.21,1.07,2.29,2,3.28,2.93a2.43,2.43,0,0,1,.54,1.2c-1.34.86-1,2.48-1.65,3.54A81.61,81.61,0,0,1,405,653.6c-1.47,1.9-3.08,3.7-4.9,5.88a11.74,11.74,0,0,0,2.86.12,50.21,50.21,0,0,0,5.79-1.76c1.87-.71,2.55-3.15,4.77-3.44.12,0,.22-.24.32-.38,2-2.75,4.26-5,7.82-4.85.11-.93.19-1.67.28-2.42,1.19,1.2,1.66,2.4,1.13,3.31-2.54,1.58-5.06,2.22-6.89,4.17a20.31,20.31,0,0,1-2.19,1.7,3.89,3.89,0,0,0-1.2,1.19,3.17,3.17,0,0,1-2.56,1.8,16.61,16.61,0,0,0-6.88,3.56,3.27,3.27,0,0,0-1.28,2.07c-.07,3.28-.07,6.56,1.69,9.58,4.42,7.54,10.71,13.18,17.86,18,1.26.84,2.74,1.34,4,2.18,5.15,3.46,10.81,5.89,16.43,8.41,3.77,1.69,7.61,3.26,11.28,5.16a25.15,25.15,0,0,0,10.1,3c4.56.28,9.13.46,13.69.47,3.49,0,6.9-.51,9.71-3a2.57,2.57,0,0,1,1.77-.5c1.93.19,2.39-.11,2.4-2.07,0-1.37-.16-2.74-.21-4.11s1.16-2.88.41-4.49c-.09-.21.39-.67.6-1s.61-.82.51-1.05c-.6-1.36.59-1.75,1.2-2.46.08-.1,0-.31,0-.5l-.9.12c-.6-2.94,2.25-2.93,3.69-4.11-2.7-3.48-2.7-3.48-2.53-4.53l2.56,1.87c-.13-1.51.07-2.76-.4-3.63s-1.59-1.17-2.43-1.73a2.71,2.71,0,0,1,4.48.92c.83,1.69.36,3.38.72,5l-1.46.54c.55,1.67,1.25,3.11,3.12,3.86l-1.26-4.06.69-.29c.38,2.15,2.79,3.06,2.87,5.5a12.07,12.07,0,0,0,.64-4.45c-.14-1.39-1.72-2.36-1.69-4.22,1.85,1.08,1.42,3.11,2.35,4.2,1.3,1.55-.17,3.25.84,5,.28-1.31.51-2.34.73-3.38H506c.31,1,.63,2,.88,2.81-1.6,1.78-3,3.36-4.44,5-.73.84-.67,1.3.16,2.38.3-.62.47-1.65.95-1.83,2.54-1,3.25-4.56,6.49-4.44.18,0,.42-.29.54-.5a10.08,10.08,0,0,1,3.74-3.33,7.94,7.94,0,0,0,1.58-1.68c-4.56,2.07-4.56,2.07-5.92,0l1.42.38a7.6,7.6,0,0,1,5.32-4c.67-1.95,1.29-3.93,2.06-5.86.3-.73.77-1.51,1.92-1.22.37.1.86-.25,1.57-.48l-1.86-1.57h5c.12.34.37.87.52,1.42s-.21,1.44.83,1.56c2.12-3.13,2.12-3.14,6-2.52.56.09,1.12.22,1.63.31.47,2.32-1.24,4.56.36,6.56-.94,1-.92,1-1.21,2.65a1.89,1.89,0,0,1-.6,1c-1.52,1.36-2.16,2.92-1.36,4.91,0,.11-.1.31-.09.28l-4.66,3.2c1.55.8,2.87,1.47,4.09,2.08a3.35,3.35,0,0,0,.6-.44c1.45-1.91,2.16-2,3.65-.27a5.6,5.6,0,0,0,.48.59,31.5,31.5,0,0,0,2.93,2.36c1.38.88,4.74-.31,5.41-1.83a24.19,24.19,0,0,0,1.48-3.49A8.41,8.41,0,0,1,548,689a9.21,9.21,0,0,0,2.78-4.4,10.09,10.09,0,0,1,2.12-4.16c1.39-2,3.58-3.37,4.3-5.86.11-.41.67-.72,1.08-1a11.6,11.6,0,0,0,5.45-8.46,20.15,20.15,0,0,1,1-3.67,5.5,5.5,0,0,1,2.87-3.38c2-1,3.88-2.05,5.85-3,5.29-2.63,8.85-6.65,10.21-12.49a16.36,16.36,0,0,1,1-3.41c.93-2,1.88-4,4.14-4.87,3.23-1.27,4.5-4,3.52-7.75-1.27-.33-2.57-.72-3.89-1s-2.81-.36-3.73-1.75c1.71-.69,3.68.42,5-1l-1.52-3.3c1.66,1.57,3.36,1.62,4.59.92l2.78,2.36c-.26.33-.65.81-1,1.3,1.18,1.16,1.19,1,2.44,1,1.78,0,3-.9,4.21-2a34.7,34.7,0,0,1,3.23-2.21h0v0c1.72.76,2.26-.84,2.79-1.72,1.4-2.32,3.13-3.82,5.79-3.48.48-1.53.9-2.87,1.36-4.32l2,.73c1.21-2.64.43-6,3.18-8.16l-2.38.23a3.28,3.28,0,0,0-.42-.58c-.38-.34-.92-1-1.17-.91-1,.37-.42,1-.13,1.64a1.41,1.41,0,0,1,.07.42l-1.72,1c-1.22-1.9-.7-4-.47-6.17l2.17.3.57-.82,4,2.35a2.71,2.71,0,0,0-1.55-2.79,2.4,2.4,0,0,1-1.68-2.47c3.06,1.23,6,2.93,9.7.93l-2.38-1.63c-.38.64-.62,1-.83,1.41-2-.27-1.32-1.82-1.47-2.86l-2.45-1.56c2-.68,3.76-1.24,5.47-1.82.13,0,.33-.21.32-.3-.21-1.64,1.29-1.29,2.06-1.7,1.2-.65,2.5-1.1,3.91-1.7,1.63,2.45,4.7,2.13,7.08,3.29l-1.59,2.79,3-1c0,1.12-.09,2.08-.14,3,1.06,0,1.47.76,1.92,1.62.68,1.3.76,1.25,2.74.9a14.49,14.49,0,0,1-1.5-1.07,10.81,10.81,0,0,1-1-1.35l2.12-.84c-.66-.45-1.48-.34-1.85-.7s-.47-1.25-.63-1.77l-1.73-1c2.89-2.1,6.77-3,6.8-7.74l-1.48,1.31-2.32-6.5c2.73,0,2.62,2.81,4.58,3.39a2.75,2.75,0,0,0,1.2-3.18,2.29,2.29,0,0,1,0-.64c1.44-.18.83-1.19.78-1.94-.08-1.28.83-1.79,1.74-2.19a1.6,1.6,0,0,1,1.35.2,1.26,1.26,0,0,1,.12,1.14c-.52,1.15-1.23,2.22-1.72,3.38s-.86,2.46-1.28,3.7l.57.25c.46-.71,1.36-1.45,1.3-2.12-.17-1.9,1.08-3.09,1.64-4.49h2.25c-1-1.93.06-3.26.76-4.64a2.1,2.1,0,0,1,1.09-1c2.88-.85,3.29-1.55,2.14-3.85l1.38-2.34-.39-.22-6.16,8.3-2.11-1.54c1.76-2.81,3.38-5.57,5.17-8.22a63.56,63.56,0,0,1,4-5.11c1.06-1.26,1.58-1.2,2.47.14.36.54.7,1.1,1.33,2.08.75-1.63,2.58-1.93,3-3.86-1.36,0-2.5,1.89-3.68.18l1.31-2c-1.14-.77-2-1.37-2.9-1.94a3.61,3.61,0,0,0-1.31-.69A2.58,2.58,0,0,1,658.8,549a19.56,19.56,0,0,1-3.09-.81,21.38,21.38,0,0,1-2.65-1.69c-2.22,1.93-2.89,1.92-4.54,0,1.69-.21,1.61-1.44,1.66-2.66,0-.88.22-1.76.33-2.64l-2-1.59-1.88,3.54c-1.19.37-2.2,1.48-3.62.91-.17-1,1.83-.86,1-2.34-.92,1-1.94,1.62-3.29.89a3.82,3.82,0,0,0-2.07-.74c-.65.1-1.21.84-1.8,1.3l-.38-.19.67-2.13-2.71-2.08.09-.21-.15.16h0l.06.06c-.07.23-.27.51-.2.69a9.61,9.61,0,0,1,.42,6.85,22.32,22.32,0,0,0,2.69-.34,2.16,2.16,0,0,0,1.34-.85c.67-1.4,1.54-1,2.46-.44a10.32,10.32,0,0,1,1.41,1.05,20.39,20.39,0,0,0,4.58,2.87,6.53,6.53,0,0,0,1.47,0v2l2.46.27c.13-.76.24-1.4.38-2.2l2.28.21a11.55,11.55,0,0,0-1,2.26,10.78,10.78,0,0,0,0,2.27l-3,4.19c.51-.37,1-.72,1.51-1.13.7-.6,1.33-1.27,2-1.86,1-.84,1.8-.56,2.51.52-.72.63-1.7,1-1.34,2.23.22.74.69,1.63.46,2.2s-1.27.73-1.88,1.17-1.43,1.19-2.32,1.94l1.91.79c-3.44,1.21-3.44,1.21-4.83,3.33l-1-2.09c-1.21-.1-2.49-.76-3.56.39-.15.15-.13.45-.22.85l1.88.29,1.21,3-1.86,1.21L647.4,572c-.55.49-1,1.26-1.39,1.19-1-.19-2.37-.28-2.52-1.58a2.05,2.05,0,0,0-2.29-1.87c-2.2.38-2.43-1.26-2.85-2l-4.24-1.86,1.83,2.47c-2.75.37-4.45-1.42-6.3-2.34a31.28,31.28,0,0,1-3.44-2.23,34.13,34.13,0,0,0-5.46-3.48c-.14-.06-.25-.23-.36-.35-1.11-1.25-2.17-2.54-3.37-3.7-.28-.27-1-.11-1.51-.15,0,.53-.13,1.21.13,1.55s1.21.59,1.59,1.07a15.7,15.7,0,0,0,3.83,3.57c1,.61,1.2,2.27,2.13,3s2.71.59,3.62,1.4c1.57,1.4,4.12,1.07,5.22,3.16a.78.78,0,0,0,.7.13,2.84,2.84,0,0,1,2.39.25,22.18,22.18,0,0,0,3.28.83c.48.12,1.12.12,1.38.43a2.23,2.23,0,0,1,.36,1.13l4.61,1.36c-1,1.1-2.29,1.84-2.61,2.87-.48,1.6-1.4,1.92-2.78,1.95s-2.72.42-3.39-1a2.81,2.81,0,0,0-1.79-1.45c-2.7-1.21-5.3-2.68-8.4-1.38-2.52-1-4.19,1.06-6.24,1.72-1.72.56-3.37,2.32-5.22.17-.18-.22-.88.09-1.2-.09-1.22-.66-2.39-1.43-4-2.42l1.92-.83-4.4-3.54,1.67,2.62c-.77.68-1.41,1.29-2.25.29l1-.66c-1-.78-1.93-1.46-2.77-2.26-1.17-1.12-1.11-1.33.16-2.57.14-.13.16-.37.33-.78l-1.53.6L602,565.44c-1.54,1.38.58,2.17.12,3.63-.85-.5-2-.78-2.23-1.4-.32-.87.06-2,.16-3.17,1.63.27,2.08-.71,2-1.89.79-.13,1.66,0,1.85-.34a32.89,32.89,0,0,0,1.71-3.82h1.53l-2-1.37c0-.14.09-.27.14-.4l4.28.25c-1.12-1.42-2.93-.63-3.86-2.18l2.39-.51L607,552.88c2-.57,4.39,0,5.43,1.62a1.6,1.6,0,0,0,2.24.72c.26-1.17-.31-1.76-1-2.47-1.64-1.65-3.8-2.85-4.93-5.47a18,18,0,0,1,3-.15c2.29.26,4.57.67,6.85,1l.19-.46a4.48,4.48,0,0,0-1.33-.73c-1.59-.23-3.21-.28-4.79-.55-.47-.08-.85-.67-1.65-1.33,1.89-.17,1-2.21,2.46-2.47-1-1.25,1.38-2.34.13-3.68l-1.37.74v-2c1.82.75,2.15-.73,2.88-1.65l0,0v-.09h0c1.71-1.87,3.57-.33,5.34,0,.83-2.76,2.5-4.41,4.51-3.89s2.6-1,3.75-1.72c.37-.22.27-1.36.22-2.07,0-.4-.4-.78-.66-1.25,2.83-.19,3.47.52,4,4.68L635,528c.6.75,1.15,1.27.33,2.36a13.5,13.5,0,0,0-1.3,3.11,15.17,15.17,0,0,0,2.35-2.54c.68-.8,1.53-2.18,2.19-2.11,1.57.15,1.61-1.58,2.83-1.83-.11.75-.19,1.35-.3,2.06l2.56-1,.32.47-2.07,3.41.37.31,5.41-4.5c.88.45,1.49.74,2.08,1.07s1.13.69,1.73,1.05c.82-.07,1.37-1.4,2.57-.5a11,11,0,0,0-.11,1.11c0,1.1,1.28,2.11,2.12,1.58V530.5l3.27-.41c.35-2,.6-2.33,2.56-2.46,2.64-.18,5.3-.15,8-.21.52-1.63-1.86-1.47-1.89-3.27,2,.5,4,1.71,6,.38.26-1.25.29-2.31-1.13-3.17s-1.54-3.6-.38-4.48a6.45,6.45,0,0,0,2-3.08,8.61,8.61,0,0,1,1.32-1.79c.42-.51,1-.93,1.25-1.51.61-1.56,1.07-3.17,1.58-4.77,1.64-5.07,1.56-10.33,1.6-15.56A13.43,13.43,0,0,0,676.79,480.58ZM17.37,455.8a1.54,1.54,0,0,0,.28.4A1.54,1.54,0,0,1,17.37,455.8Zm441.06-79.86c1.55,4.17,2.14,7.28,5.21,10.48a36.73,36.73,0,0,0,11.18,7.82,17.55,17.55,0,0,0,0,3.16c-14.35-4.89-20.46-11.94-23.9-22.64,1.34-2.19,2.75-4.32,4.27-6.38C456.25,370.83,457.45,373.28,458.43,375.94ZM642.26,584.88l-.31.17h0ZM607,531.61c-.59,1.28-1.07,2.61-1.59,3.92.46-.13,1.1-.17,1.24-.45-.14.28-.78.32-1.24.45h0C605.92,534.22,606.4,532.89,607,531.61Zm-4.76,6.54h0a3.84,3.84,0,0,0,.08-.65A3.84,3.84,0,0,1,602.23,538.15Zm-4.45,6.63-2.78,3.4h0C595.87,547.12,596.74,546.06,597.78,544.78Zm2.64,29h0l2.28,1Zm0,0a2.09,2.09,0,0,0,.14.3,2.75,2.75,0,0,1-.14-.3Zm4.91-38.16h0c.29,1,1.27,1.73,1.18,2.86C606.59,537.33,605.61,536.58,605.32,535.6Zm-3,1.9a.46.46,0,0,0,0-.21A.46.46,0,0,1,602.31,537.5Zm2.2,38.58a3.26,3.26,0,0,0-.4-.24A3.26,3.26,0,0,1,604.51,576.08Zm2-35.24a2.42,2.42,0,0,0,.86-1l-.15-.12-.34-.25a4,4,0,0,1-.44-.35,4,4,0,0,0,.44.35l.34.25.15.12A2.42,2.42,0,0,1,606.54,540.84Zm52.05-31.54h0a2.09,2.09,0,0,1-.05.21A2.09,2.09,0,0,0,658.59,509.3Zm-3.47,9a5.27,5.27,0,0,0,1.5-1h0A5.27,5.27,0,0,1,655.12,518.31Z"/><path d="M650.52,541.15v0l.07.05Z"/><path d="M620.15,601.49l-.06,0v.1Z"/><path d="M76.5,93.49c2.26,1.62,4.65,3.05,6.9,4.67a32.15,32.15,0,0,0,9.58,5.1,10.56,10.56,0,0,1,2.27,1.1c2.81,1.66,5.47,3.66,8.43,5,6.14,2.74,11.85,6.5,18.53,8a4.07,4.07,0,0,1,1.26.82c4.85,3.52,9.7,7,15.33,9.29a5.79,5.79,0,0,1,1.66,1.14c2.71,2.42,5.43,4.82,8.06,7.33,1.58,1.51,3,3.17,4.48,4.8,2,2.18,3.84,4.46,5.88,6.56a23.35,23.35,0,0,0,3.61,2.77,3.34,3.34,0,0,0,1.83.75c2.57-.15,4.52,1.08,6.43,2.52a7.1,7.1,0,0,1,2.64,3.3,17.31,17.31,0,0,0,1.84,3.3c2.21,3.39,4.65,6.62,6.29,10.38a39.17,39.17,0,0,0,6.85,10.89,40.76,40.76,0,0,1,4.07,4.47,20.69,20.69,0,0,0,9.3,7.52,17.35,17.35,0,0,1,4.58,3.07c2.31,2.07,4.34,4.46,6.68,6.5a9.59,9.59,0,0,1,3.2,6.68,7.06,7.06,0,0,0,3,5.6,18.24,18.24,0,0,0,4.77,2.81,4.82,4.82,0,0,1,3.4,3.59,8.49,8.49,0,0,0,2.32,3.81,12.65,12.65,0,0,1,4,5.39c.81,2,1.58,4.11,2.26,6.19a3.47,3.47,0,0,0,1.9,2.24c.51.25,1,.56,1.57.89-.47,2.84,1.11,4.12,3.53,4.69,1.2.29,2.41.51,3.65.77a25.59,25.59,0,0,0-1.49,3.16c-1.12,3.57-.05,6.7,2.29,9.41,1.82,2.11,3.86,4,5.74,6.09a41.61,41.61,0,0,1,3,3.74c2.6,3.61,5.06,7.33,7.75,10.88,1.42,1.88,3.26,3.44,4.81,5.22a19.89,19.89,0,0,0,10.56,6.66c1-1.66,2.33-2.7,4.41-2.06.27.08.65-.12,1-.24,2.83-1.05,5.68-2,8.46-3.21,1.86-.78,2.23-2.14,1.53-4.12a5,5,0,0,0-2.07-3.05,2.42,2.42,0,0,1-1-1.41c-.31-1.42-.46-2.88-.71-4.54.72.2,1.53.26,1.58.48a17.15,17.15,0,0,1,.22,2.77c3.57.69,5.39-.44,5.12-3.34l-2.45,1.68-1.86-3.23c.68-1.27.73-1.74.77-4,0-.26.64-.51,1.08-.84.42,1.16.2,2.65,2.13,2.23.13-.83.28-1.7.42-2.55a15.51,15.51,0,0,1-2.47-.91,2.26,2.26,0,0,1-1.07-1.28,21.68,21.68,0,0,1,1.32-13.1,5.81,5.81,0,0,0,.49-3.87,74.8,74.8,0,0,0-4.06-9.27c-1.8-3.52-4.26-6.67-5.66-10.45a23.67,23.67,0,0,0-3.47-6.13c-1.22-1.61-1.78-3.73-2.65-5.62a16.34,16.34,0,0,0-1.52-3.08c-1-1.33-2.29-.28-3.6,0a5.44,5.44,0,0,0-2.18-3.59,4.8,4.8,0,0,1-1.89-4.44c.53-3.43-.64-5-4-5.91a23.77,23.77,0,0,1-2.77-1c-2.29-1-4.62-1.59-6.82-.95-.6.89-.89,1.79-1.51,2.17-2.27,1.41-4.64,2.66-6.86,3.9l-2-1.47c1-1.39,1.7-2.53,2.57-3.52a5.08,5.08,0,0,1,1.85-1.17c.68-.29,1.47-.32,2.15-.59,1.22-.48,1.84-1.49,1.34-2.62a8.88,8.88,0,0,0-2.29-3.25c-.63-.52-1.88-.27-2.85-.37l-.7-.07c-2.16-2.68-2.16-2.68-4.81-3.75a7.93,7.93,0,0,0-3-6.8c-.85-.68-2.07-1-2.65-1.88-1.67-2.41-4.33-4-5.33-7-.24-.72-1.09-1.24-1.69-1.83a23.3,23.3,0,0,0-2-1.86c-2.44-1.89-3.72-4.79-5.91-6.87-1.56-1.47-2.87-2.79-3.17-5.15-.26-2.12-1.46-4.11-2.12-6.19-2.17-6.83-5.52-12.86-11.29-17.37a6,6,0,0,1-1.67-2.71,14,14,0,0,0-3.3-5.89,6.84,6.84,0,0,1-1.42-2.63c-1.37-3.76-2.66-7.52-6.28-9.85a7.05,7.05,0,0,1-1.24-1.26c-3.63-3.91-7.22-7.84-10.89-11.7a14.07,14.07,0,0,0-7.22-4.46,5.8,5.8,0,0,1-2.4-1.32c-2.6-2.24-5.14-4.57-7.68-6.88-1.17-1.08-2.34-2.17-3.44-3.32-1.28-1.34-2.44-2.79-3.75-4.11-1.49-1.49-3-2.94-4.63-4.31-2.65-2.29-3.6-5.65-5.46-8.43s-3.68-5.48-7-6.78a27.39,27.39,0,0,1-7.26-4c-2-1.61-6.58-1.58-8.3.32s-4.27,2.66-6.35,4c-1,.66-2.55.5-3.85.72C114,55.52,112,56,110.34,55.63c-.56-.14-1.27-.11-1.68-.44-2-1.66-4.38-1.34-6.53-.68-3.13,1-6.14,2.35-9.19,3.59-1.64.67-3.22,1.49-4.87,2.11a34.67,34.67,0,0,0-12.2,7.57,17.11,17.11,0,0,0-5.32,16.09A14.32,14.32,0,0,0,76.5,93.49Z"/><path d="M8.82,224.19a57.17,57.17,0,0,1,8.23,8.23c3.5,4.13,6.76,8.45,11.25,11.61,1.24.87,2.43,1.83,3.66,2.72,4.74,3.4,9.45,6.83,14.24,10.15,3.18,2.22,6.58,4.15,9.71,6.43a94.24,94.24,0,0,0,13.19,8.52,26.65,26.65,0,0,1,5.14,3.24q8.27,6.92,16.34,14.06c1.76,1.56,3.23,3.44,4.92,5.1,2.64,2.6,5.38,5.11,8,7.7a34.34,34.34,0,0,0,12.34,7.82,11,11,0,0,0,8.65-.22c2.57-1.18,5-.72,5.83,1.18s2.41,2.64,4.14,3.38a6.08,6.08,0,0,1,2.43,1.65c1.52,1.91,2.81,4,4.25,6,2.72,3.72,5.88,7,10.08,9.06a12.67,12.67,0,0,1,6.37,5.83,8.54,8.54,0,0,0,1.84,2.07,36.63,36.63,0,0,0,9.72,6.3,31.1,31.1,0,0,1,9.83,7.79,10.34,10.34,0,0,0,6,3.48,9.89,9.89,0,0,1,2.46.54c1.26.62,2.77,1.21,3.53,2.27,2.8,3.9,6.82,5.63,11.17,6.9a57,57,0,0,1,6.58,1.84,30.65,30.65,0,0,0,9,2.36c6.8.72,13.33-.1,19.35-3.55,2.28-1.31,3.87-3,3.8-6.06-.05-2.14.72-4.29,1.11-6.44a21.81,21.81,0,0,0,.55-3.73,21.24,21.24,0,0,0-4.93-13.54,89.56,89.56,0,0,1-7.07-9.83c-3-4.91-7.17-8.5-11.78-11.7a14.08,14.08,0,0,0-2.95-1.42c-4.17-1.63-8.77-1.77-12.82-3.82-1.42-.72-2.91-1.32-4.4-1.91-2.11-.83-4.23-1.62-6.37-2.39a2.91,2.91,0,0,0-3.4,1.06c-1.62,1.93-3.15,3.93-4.72,5.9a5.54,5.54,0,0,1-.9,1.2c-.36.26-1,.49-1.32.31a1.81,1.81,0,0,1-.78-1.35,3,3,0,0,1,.84-1.75c1.48-1.44,1.51-3.32,1.74-5.14.15-1.26-.7-2.26-1.67-2.08-2.18.39-3.76-1.11-5.7-1.35a9,9,0,0,1-3.15-.8,14.17,14.17,0,0,0-6.19-2,3.43,3.43,0,0,1-1.55-.79c-3-2-6.31-3.58-8.89-6.2a7.3,7.3,0,0,0-1.28-.81,25.14,25.14,0,0,1-4-2.69c-1.56-1.52-3.14-1.31-4.89-.71-1.18.41-2.36.79-3.53,1.18,1.22-2,2.69-3.53,2.89-6.1l-2.56.58a26.84,26.84,0,0,1-1.47-4.26,3.49,3.49,0,0,0-2.74-2.91,4.9,4.9,0,0,1-2.48-1.61,4.88,4.88,0,0,0-4-2.56c1.44-2.25,1.63-2.65,1.2-3.79-1-2.54-2.13-5-4.41-6.68a24.89,24.89,0,0,1-3.31-2.71,5.4,5.4,0,0,0-4.4-2.11c-1.09,0-2-.53-1.83-1.62a6.65,6.65,0,0,0-3.06-6.7c-.06-.05-.07-.15-.13-.22-1.74-2.18-3.49-4.35-5.21-6.54-1.52-1.92-2.94-3.92-4.52-5.78q-3.19-3.77-6.56-7.39c-1.84-2-3.85-3.77-5.68-5.75-2.54-2.73-5.11-5.46-8.37-7.32a56.39,56.39,0,0,1-7-4.89A81.61,81.61,0,0,1,69,202.23c-3-3.3-6.34-6.1-10.91-7a11.86,11.86,0,0,1-1.89-.73c-3.64-1.35-7.33-2.59-10.45-5a7,7,0,0,0-1.15-.51c-3.37-1.75-6.92-3.23-10-5.33A15.63,15.63,0,0,0,22.79,181a48.88,48.88,0,0,0-14.92,5.21c-4.4,2.39-7,6.28-6.74,11.63A4,4,0,0,1,1,199.62c-1.52,3.37-1,6.8-.43,10.23A21.68,21.68,0,0,0,8.82,224.19Z"/><path d="M283.65,29.26a21.5,21.5,0,0,0,1.69,8.13c1.8,4.18,3.62,8.37,7.32,11.4a14.89,14.89,0,0,1,3.16,3.92c2,3.41,3.71,7,5.83,10.36a27.39,27.39,0,0,1,3.3,8.15c1.15,4.47,2.6,8.88,6.05,12.29,2,2,4,3.88,7.2,3.55.21,0,.45.17,1.08.42,1,2.4,2,5.07,3.06,7.7a11,11,0,0,0,1.35,2.42c2.34,3.08,5.24,5.76,6.78,9.42a1.43,1.43,0,0,0,.44.61c2,1.54,2.63,3.83,3.38,6.1,1,3.11,1.62,6.37,3.35,9.26,2.6,4.34,5.14,8.72,7.38,13.24,1.27,2.57,3.63,5.13,1.66,8.42,0,.06,0,.17,0,.25a22.91,22.91,0,0,0,.78,6.69c.83,2.9,3.11,4.1,6.08,3.31,1.18-.32,2.41-.45,3.88-.71-.1.75,0,1.35-.25,1.62-1.49,1.59-2.73,3.22-2,5.6,0,.14-.07.33-.12.48a2.13,2.13,0,0,0,.62,2.31,16.24,16.24,0,0,1,1.21,1.62c1.39,1.89,2.75,3.8,4.17,5.67.79,1,2.34,1.29,2.5.48.32-1.56,1.63-1.46,2.45-2.21.33.51.59.93.88,1.4a29,29,0,0,1,3-.26,7.82,7.82,0,0,1,3,.36c2.36,1.09,4.61,0,6.69-.51a19.06,19.06,0,0,0,6.58-3.48,32,32,0,0,0,5.77-6,6.94,6.94,0,0,0,.67-7.88c-.92-1.7-1.66-3.54-3.53-4.51-.28-.14-.66-.47-.66-.71,0-2.09-1.25-4-.64-6.21a11.69,11.69,0,0,0,.37-4.73,24.71,24.71,0,0,0-3.81-9.06,18.17,18.17,0,0,1-1.06-2c-1.95-4.2-3.77-8.45-5.85-12.59a60,60,0,0,1-3.61-7.75c-2-5.82-5.53-11-7.27-16.93-.8-2.71-2.33-5.2-3.59-7.76a2.29,2.29,0,0,0-1.11-1,14.27,14.27,0,0,0-3.55-1.28,4.72,4.72,0,0,1-3.78-3c-.89-1.88-.84-2.35.64-3.77.73-.7,1.52-1.35,2.18-2.1,1.12-1.28,1.82-2.64.75-4.36a6.1,6.1,0,0,1-.5-1.87L358.94,62c-1.18-2.46-1.15-2.46-1.13-5.56a8,8,0,0,0-.37-2c-.39-1.55-.82-3.1-1.24-4.65a37.35,37.35,0,0,0-1.6-5.59,71.44,71.44,0,0,1-3.68-8.87,12.43,12.43,0,0,0-1.5-2.64c-.73-1.23-1.59-2.4-2.2-3.69a31,31,0,0,0-7.59-10.65,27.29,27.29,0,0,1-4.27-4.65,15.17,15.17,0,0,0-5.24-4.65c-1.41-.76-2.75-1.67-4.17-2.42-3.88-2.08-7.91-3.46-12.4-2.44a7.12,7.12,0,0,1-2.45.49c-2.67-.41-5.31-1-7.94-1.56a4,4,0,0,1-1.78-.94C299-.09,296.06-.19,293.05.14a66,66,0,0,0-7.27,1.07c-2.59.57-4.71,1.92-5.34,4.78a31.51,31.51,0,0,0-.57,3.5c-.53,4.93.89,9.54,2.39,14.14A20.28,20.28,0,0,1,283.65,29.26Z"/><path d="M389,169.58a2.49,2.49,0,0,1-1.72,1.31c-3.12.31-5.55,3-8.89,2.51a1.24,1.24,0,0,0-.7.26c-2.1,1.26-4.2,2.51-6.27,3.81a1.62,1.62,0,0,0-.95,1.87,1.55,1.55,0,0,1-.66,1.33c-1.37.57-2.82,1-4.69,1.56,0,1-.86,2.13-.12,3.45,1.34,2.42,2.75,4.83,3.86,7.36,1.76,4,4.16,7.81,4.42,12.29a35.94,35.94,0,0,0,2.32,9.8,7.55,7.55,0,0,0,4.7,4.94,19.66,19.66,0,0,1,5.43,3.18c1.79,1.46,3.53,2.5,5.93,2.21a2.05,2.05,0,0,1,2.45,2c.21,1.5.4,3,.6,4.5a21.6,21.6,0,0,0,.45,3.24c.53,1.86,1.57,3.63,1.8,5.51.27,2.24,1.05,4.34,1.24,6.63.4,4.62,1.8,8.94,6.56,11.2a19.77,19.77,0,0,1,3.85,2.42c2.71,2.17,5.57,2.16,8.55.8,1.77-.8,3.5-1.67,5.23-2.55,1.13-.57,1.92-1.35,1.62-2.81a4.28,4.28,0,0,1,.17-1.49c.69-3.59,1-7.1-.62-10.61a36.82,36.82,0,0,0-2.9-4.7c-1-1.49-2.1-2.54-4.08-2.11a6.89,6.89,0,0,1,.1-.95,3.34,3.34,0,0,1,.33-.95c1.81-3.17,1.79-3.41-.59-6.08,1.68-4.7.05-9-1.59-13.34a.86.86,0,0,0-.28-.41C411.66,214,412,211,412,208.34a3.81,3.81,0,0,0-1.25-3.35,26.87,26.87,0,0,1-2.16-2.33c1.53-.28,1.49-1.12,1.18-2.28-.41-1.49-.86-2.74-2.83-2.37,1.22-2.83-.53-4.63-1.65-7l-1,1.89c-.7-1.2-1.29-2.19-1.89-3.23l1.17-1.57c-.78-1.79-1.5-3.47-2.24-5.16l-1.42.25c-.48-2.78-.88-5.44-1.4-8.08a32.62,32.62,0,0,0-1.24-4.63,4.11,4.11,0,0,0-4-2.64C391.66,167.77,389.88,167.42,389,169.58Z"/><path d="M670,540c-1.66.19-3.3.54-4.94.86-.1,0-.16.25-.26.44l1.35,1.2a1.66,1.66,0,0,1-1.45.17c-.78-.32-1.5-.79-2.29-1.08a1.29,1.29,0,0,0-1.12.16c-.23.22-.37,1-.23,1.09,1.28.95,0,2.17.25,3.28l2.36-.52c.74-.17,1.45-.82,2.42-.13l-2.29,2.09c2.28.59,3.48-.87,4.95-1.23.11-.72.2-1.29.29-1.85a3.59,3.59,0,0,0,2.63-2.13,2.32,2.32,0,0,0,0-1.81A2.08,2.08,0,0,0,670,540Z"/><path d="M636.34,595.83l2.48,2.08c-.65,1.44-.8,3,.57,3.68a6.86,6.86,0,0,0,5.86.34l2.33,2.39c.11-.9.34-1.45.18-1.64a12.26,12.26,0,0,0-2.71-2.54,41.84,41.84,0,0,0-5-2l-.58-3C638.28,594.59,637.14,594.27,636.34,595.83Z"/><path d="M529.24,697.8c-.9-1.1-1.54-2.68-3.68-2.44,1.81,4.31,3.37,6,5.85,6.42.34-1.35.68-2.71,1-4.11C531.11,697.2,531.11,697.2,529.24,697.8Z"/><path d="M663.18,531.75l1.2,1.09c2-.76,2.94-2.84,5.12-3,.44.71.85,1.36,1.23,2,.83-1.15,1.56-2.14,2.37-3.25l-3.25-1.1.09-.07h-.07l0,.05Z"/><path d="M632.51,561.53a20.83,20.83,0,0,0-3.4-3.5,4.65,4.65,0,0,0-1.62-.59l-.34.53,6.36,7.68C634.1,563.68,633.18,562.52,632.51,561.53Z"/><path d="M554.91,683.46a1.15,1.15,0,0,0-1.53.9,8.55,8.55,0,0,1-1.12,1.76c-.28.44-.52.89-.84,1.44l3.16.32a19.8,19.8,0,0,0,1.43-2.77A1.23,1.23,0,0,0,554.91,683.46Z"/><path d="M657.74,542.89a17.41,17.41,0,0,0-.85,2.32c-.11.44-.22,1.08,0,1.35s.87.27,1.33.33.9.05,1.55.08c-.32-1.61-.65-3.33-1.07-5.46A9.92,9.92,0,0,0,657.74,542.89Z"/><path d="M644.68,605.13c-1.09.25-1.73-.33-2.48-.84s-1.23-.79-2.31-1.46c1.13,3.19,2.69,4,6.06,3.71C646,605.67,645.6,604.92,644.68,605.13Z"/><path d="M649.39,557.93l.12-.11h0l.15-.21-.2.15Z"/><path d="M646.31,562.63l1.67.76c.64-.85,2.24-1,1.33-2.56l-1,.35c.37-1.09.73-2.17,1.09-3.25A8.65,8.65,0,0,0,646.31,562.63Z"/><path d="M608.51,560.05l-5.29,4.51.41.72a42.13,42.13,0,0,0,4.2-2.75A1.82,1.82,0,0,0,608.51,560.05Z"/><path d="M619.55,540.47a11.19,11.19,0,0,1-1.5,2.31,10.49,10.49,0,0,1-2.47,1.3l.13,1.14,2.3-.11c.72-1.49,1.39-2.87,2-4.26Z"/><path d="M642.82,536c.83-.33,2.11-.53,1.86-1.92l-3.62.57C641.11,535.79,641.71,536.41,642.82,536Z"/><path d="M641.63,547.79a3.46,3.46,0,0,0-2.25,3.49l1.5.34C641.13,550.33,641.36,549.19,641.63,547.79Z"/><path d="M616.75,539.4c.07-.89.15-1.75.23-2.71l-1.82-.67C614.88,538.45,615,538.8,616.75,539.4Z"/><path d="M633.39,555.28c-2.21-1.78-2.93-1.94-4.28-1Z"/><path d="M623.73,545.44c-2.35-.23-2.35-.23-2.91,2.55Z"/><path d="M603,624.15c.84-.91,2.48-1.46,1.45-3.22C603.66,621.86,602.81,622.76,603,624.15Z"/><path d="M634.49,538.53l3.22-3.42C635.49,535.56,635.05,537.11,634.49,538.53Z"/><path d="M624.4,550.57c-1.21.61-2.59,1-3.32,2.94C623.05,553.12,623.41,551.46,624.4,550.57Z"/><path d="M609.42,568.4l.07-.5c-.93-.27-1.58-1.55-2.82-.66-.18.13,0,.73,0,1.16Z"/><path d="M612.77,560.15c-1,.44-2.69-.29-2.58,1.68Z"/><path d="M614.54,549.56a2.52,2.52,0,0,0-3-.44C612.55,549.76,613.09,550.77,614.54,549.56Z"/><path d="M630.39,538.1l.39.64,2.09-1.25C631.23,536.4,630.94,537.53,630.39,538.1Z"/><path d="M621.58,574l-2.81-.5C619.44,575,619.88,575.06,621.58,574Z"/><path d="M636.07,547.27a2,2,0,0,0,2.09,1.41C637.57,547,637.57,547,636.07,547.27Z"/><path d="M644.41,555.83c1.74,0,1.7-1.26,1.92-2.3C645.61,554.15,644.36,554.32,644.41,555.83Z"/><path d="M665.08,551.63c1.72-.69,1.72-.69,1.58-2.37l-.55-.17Z"/><path d="M653.39,540.42a1.67,1.67,0,0,0-2.7.62C651.51,540.64,652.74,542,653.39,540.42Z"/><path d="M650.52,541.15l.06.07a1.08,1.08,0,0,1,.11-.18A.62.62,0,0,0,650.52,541.15Z"/><path d="M614.7,543.25c.24-.9.47-1.81.7-2.71C614.72,541.32,613.62,542,614.7,543.25Z"/><path d="M630.59,555.77l-2.32.18C630.47,557.17,630.47,557.17,630.59,555.77Z"/><path d="M627.43,547.48l-2.24,1.6.38.46C627,549.18,627,549.18,627.43,547.48Z"/><path d="M620.15,601.5l-.06.06.08.07S620.15,601.54,620.15,601.5Z"/><path d="M622.22,604.53c.16-1.91-1.29-2.16-2.05-2.9A4.62,4.62,0,0,0,622.22,604.53Z"/><path d="M628.54,542.57l1.49-.67-.11-.51-2-.35Z"/><path d="M622,536.24c-.31,1.5.8,1.22,1.8,1.76C623.54,536.53,622.9,536.33,622,536.24Z"/><path d="M624.58,555.31c-.11.07-.14.27-.29.6l2.15.66C625.9,555.22,625.47,554.73,624.58,555.31Z"/><path d="M521.91,678.47c.11-.06.13-.26.25-.55l-1.6-.64C520.59,678.72,521,679,521.91,678.47Z"/><path d="M643.88,558.23l.85.9.47-.75-1.06-.5Z"/><path d="M610.38,558.69l-1.69-.17C609.66,559.48,609.66,559.48,610.38,558.69Z"/><path d="M523,676.44a7.88,7.88,0,0,0,.92.54,4.25,4.25,0,0,0,.46-.65,3.22,3.22,0,0,0-.91-.38C523.34,676,523.18,676.27,523,676.44Z"/><path d="M630.18,528.94a2.6,2.6,0,0,0,.49.73c.17-.14.48-.29.48-.44a5,5,0,0,0-.5-1.29C630.36,528.52,630.14,528.76,630.18,528.94Z"/><path d="M661.52,529.27c0,.45-.08.91-.11,1.37l.61,0c0-.45-.07-.9-.1-1.35Z"/><path d="M621,543.22a2.18,2.18,0,0,0,.77.32,2.9,2.9,0,0,0,.86-.32l-.09-.3H621C621,543,621,543.12,621,543.22Z"/><path d="M652.36,531.32l-.38-.21-.64,1.12.43.25Z"/><path d="M647.37,557.15a5.3,5.3,0,0,0-.35-.52,11.12,11.12,0,0,0-1,.65l.34.54Z"/><path d="M650.91,535.85c-.24,0-.47.34-.63.58,0,.05.25.31.46.56l.74-.59C651.29,536.2,651.06,535.83,650.91,535.85Z"/><path d="M619,608.06l.06.52,1.42-.22-.06-.4Z"/><path d="M627.66,544l-1.31-.16-.07.41,1.28.26Z"/><path d="M631.26,544.29a3.59,3.59,0,0,0,.52.9c.25-.36.49-.58.45-.7a2.39,2.39,0,0,0-.5-.67C631.56,544,631.24,544.16,631.26,544.29Z"/><path d="M625,543.64l-.13-.6-1,.41c.08.14.17.39.24.39A7,7,0,0,0,625,543.64Z"/><path d="M638.37,539.35a3.49,3.49,0,0,0,.72.56c.09,0,.32-.23.6-.44-.31-.3-.5-.59-.76-.68C638.82,538.76,638.56,539.15,638.37,539.35Z"/><path d="M619.88,555.3c.16,0,.36-.2.64-.37-.28-.22-.47-.46-.65-.46s-.33.27-.5.42C619.54,555,619.7,555.28,619.88,555.3Z"/><path d="M629.76,537.28c-.26-.22-.43-.46-.62-.48s-.47.28-.45.4a.69.69,0,0,0,.42.5C629.28,537.72,629.48,537.47,629.76,537.28Z"/><path d="M639.51,556.39a2.15,2.15,0,0,0,.28.77c.07.09.41,0,.75-.11-.15-.31-.2-.6-.36-.69S639.74,556.37,639.51,556.39Z"/><path d="M591.36,622.51l1.6.08c0-.25,0-.49,0-.74l-1.62.1C591.35,622.14,591.35,622.33,591.36,622.51Z"/><path d="M646.92,534.09l1.22-.64-.28-.49-1.19.69Z"/><path d="M634.39,559.93c.09-.22.18-.43.26-.65l-.54-.2a5.2,5.2,0,0,0-.17.68A1.88,1.88,0,0,0,634.39,559.93Z"/><path d="M528.21,688.18c-.24-.11-.51-.31-.59-.25a.72.72,0,0,0-.27.56c0,.15.31.25.48.37Z"/></g></g></svg>