<svg xmlns="http://www.w3.org/2000/svg" viewBox="0 0 686.62 706.68"><title>Asset 1</title><g id="Layer_2" data-name="Layer 2"><g id="Layer_1-2" data-name="Layer 1"><path d="M410.6,215.24a41.58,41.58,0,0,1-2.69,3.67c-2.09,2.65-4.4,5.15-6.3,7.93-5.06,7.43-8.13,15.73-10.11,24.46a49.74,49.74,0,0,0-1.36,7.72,31.56,31.56,0,0,1-1.67,8.68,19.58,19.58,0,0,0-.33,11.71,5.6,5.6,0,0,0,.91,2.07,5.42,5.42,0,0,0,1.77,1.15,10.23,10.23,0,0,1,2.2,1,8.16,8.16,0,0,0,5.73,2.28c.7,0,1.38,0,1.55.87-6.33,5.59-5,5.63-4.12,11.69a12.29,12.29,0,0,0,1.93,1.22c1.61.63,3.09,1.92,5,1.44,1.38-.35,2.71-.91,4.06-1.4A2.36,2.36,0,0,0,409,297c-.14-1.34.63-2,1.86-2.29.74-.15,1.5-.25,2.23-.45a49.62,49.62,0,0,0,5.55-1.58,44.29,44.29,0,0,0,5.18-2.64,103,103,0,0,0,9.21-5.27c2.67-1.86,5.2-3.95,6.55-7.2a13.14,13.14,0,0,1,4.55-5.66c1.64-1.18,3.1-2.61,4.66-3.9a4.62,4.62,0,0,1,1.67-1.1c2-.42,3.14-1.8,4.27-3.32a9.92,9.92,0,0,1,3.19-2.74c2-1.12,4-2.56,4.23-5.33a3.66,3.66,0,0,1,.94-1.65c.4-.53,1-.91,1.34-1.48,1.4-2.59,2.63-5.28,4.1-7.82a6.83,6.83,0,0,0,.33-5.85,45.39,45.39,0,0,1-1-4.66c-.35-1.86-.84-3.54-2.62-4.69a10.51,10.51,0,0,1-3.67-5,7.94,7.94,0,0,1-.14-1.84,14.88,14.88,0,0,0,1.35,1.43,5.62,5.62,0,0,0,2,1.34,8.17,8.17,0,0,1,4.61,2.4,2.82,2.82,0,0,0,4.07.41,6.79,6.79,0,0,1,2.16-.57,3.09,3.09,0,0,0,2.1-3.88c-1.06-2.51-.83-3.5,1.15-5.25,2.35-2.06,4.78-4,5.75-7.23.16-.55,1.07-1.05,1.73-1.25,3.4-1.06,5.57-3.08,5.7-6.71,2.49-1.4,4.92-2.73,7.32-4.12a5.13,5.13,0,0,0,1.11-1,18.45,18.45,0,0,1,6.55-4.19c5.61-2.38,10.67-5.45,14.12-10.68a47.64,47.64,0,0,1,3.05-4.05,5,5,0,0,1,1.7-1.47,21.93,21.93,0,0,1,5.46-2,22.2,22.2,0,0,0,7.29-2.77,19,19,0,0,0,7.79-7c2-3.23,4-6.47,6.24-9.51,4-5.35,8.18-10.55,12.3-15.79a29.17,29.17,0,0,0,3-3.72,44.4,44.4,0,0,0,4.78-11.65c1-4.69,2.71-9.23,4-13.85a9.71,9.71,0,0,0,.43-3.5c-.45-4.77-3.15-8.41-6.37-11.68-.63-.64-1.83-.75-2.78-1-1.52-.49-3.06-.92-4.58-1.39-.88-.28-1.74-.65-2.63-.89a20.25,20.25,0,0,0-11.23.26,29.59,29.59,0,0,0-10.77,5.42c-1.11.91-2.11,2-3.28,2.79a6.3,6.3,0,0,1-2.91,1.35c-4.42.28-7.08,3.5-10.46,5.61.77,1,2.45.93,2.13,2.4-2.35,1.08-4.64,2.08-6.89,3.17a12.49,12.49,0,0,0-3.21,1.94c-1.64,1.56-3.06,3.36-4.6,5a10,10,0,0,1-2.37,2.27c-3.21,1.69-5.07,4.57-7.12,7.37a82.51,82.51,0,0,1-5.71,6.56c-.67.72-1.27,1.42-1,2.44a2.17,2.17,0,0,1-.92,2.64,2.14,2.14,0,0,0-.9,1.18c-.36,2.27-2.05,3.08-3.88,3.84-.93.39-1.81.91-2.71,1.37a10.9,10.9,0,0,0-4.91,4.23c-.79,1.38-2.07,2.47-2.92,3.82-2.32,3.72-4.52,7.51-6.79,11.26-1.33,2.2-2.17,4.76-4.53,6.48-1.86-2.58-3.15-2.83-5.63-1.28a3.83,3.83,0,0,0-.42.28,19.62,19.62,0,0,0-5.07,6.27c-.94,1.91-.48,3.26,1.52,4.08a16.74,16.74,0,0,0,3.43.75c1.29.23,1.95,1.37,1,2-1.2.87-1.32,2.33-2.27,3.16a3.89,3.89,0,0,0-1.29,3.36c-.49.07-.95.3-1.29.18a6.84,6.84,0,0,0-6.23.93,29.34,29.34,0,0,1-10.55,4.09,17.33,17.33,0,0,0-7.88,3.29,34.9,34.9,0,0,1-5.13,2.74c-2.23,1.19-4.47,2.35-6.65,3.61-1.39.8-2.67,1.79-4,2.64A14.65,14.65,0,0,0,410.6,215.24Z"/><path d="M525.21,359.64a3.6,3.6,0,0,0,1.86-1.26c1.49-1.92,2.74-4,4.75-5.53a1.65,1.65,0,0,0,.37-.65c.74-1.7,1.52-3.39,2.17-5.12a7,7,0,0,1,2.2-3c1.8-1.51,3.63-3,4.26-5.51.17-.68.87-1.21,1.31-1.82,1.31-1.86,3-3.7,2.92-6s.75-3.52,2.81-4.16a3,3,0,0,0,.88-.48,60.51,60.51,0,0,1,11.66-6.49A88.71,88.71,0,0,0,578.77,309c1.07-.83,2.16-1.62,3.25-2.42,4.37-3.21,8.83-6.4,12-10.81,2.27-3.12,4.69-4.65,8.66-4.29,3.24.29,5.81-1.33,7.28-4.49a5.94,5.94,0,0,1,2.23-2.25c4.12-2.64,8.33-5.14,12.46-7.77,1.12-.71,2-1.75,3.1-2.54s2.32-1.35,3.36-2.18c2.38-1.89,4.62-4,7-5.82a39,39,0,0,0,8.9-9.33c3.13-4.8,5.88-9.85,8.67-14.86A28.46,28.46,0,0,0,659,229.3c-.16-2.46-.22-5.17-.55-7.85a16,16,0,0,0-7-11.81,14.36,14.36,0,0,1-2.59-2.4c-2.64-3-6.24-3.75-9.89-3.61a33,33,0,0,0-8.93,1.69,45.25,45.25,0,0,0-19.14,12.42c-2.13,2.28-4.06,4.74-6.2,7s-4.28,4.3-6.49,6.38c-1.1,1-2.51,1.77-3.5,2.89-2.36,2.64-4.53,5.44-6.83,8.14A63.09,63.09,0,0,1,583,247.6c-2.47,2.3-5.12,4.41-7.73,6.56s-4.91,4.13-7.5,6c-3.82,2.76-6.91,6.11-8,10.73A16.47,16.47,0,0,1,552.26,281a18.79,18.79,0,0,0-6.26,6.87,10.16,10.16,0,0,1-2.19,3.06,76.82,76.82,0,0,0-6.74,5.64c-2.38,2.48-5.58,3.78-8.69,5.06-4.18,1.74-7.44,4.89-11.34,7-2.75,1.53-4.85,4-7.65,5.56a19.41,19.41,0,0,1-9.21,3.07c-1.37.05-2.84.24-3.56,1.54-1,1.77-2.67,2.5-4.25,3.46a20.2,20.2,0,0,0-7.22,7,40.61,40.61,0,0,1-6.49,8,28,28,0,0,0-6.27,8.42c-1.16,2.71-2.1,5.52-3.26,8.23-.91,2.12-1,4.07.54,5.93a3.21,3.21,0,0,1,.35,4c-.83,1.54-.47,2.55,1,3.66,1,.76,2.19,1.3,3.12,2.13,1.54,1.38,3.29,1.53,5.21,1.44a33.53,33.53,0,0,1,4,.23c.93.08,1.84.24,2.76.33,5.12.53,10.11-.54,15.11-1.33a40.44,40.44,0,0,0,6.18-1.32c3.92-1.27,7.89-2.45,11.09-5.33A15.69,15.69,0,0,1,525.21,359.64Z"/><path d="M683.82,441.38,681,439.94c-.49.32-1.23,1.06-1.46.92-1.38-.83-2.9-.65-4.37-.87-.6-.1-1.2-.8-1.62-1.36-.73-1-1.33-2.07-2-3.17.56-1.23,1.12-2.48,1.84-4.09a10.2,10.2,0,0,0-6.84-6.64,31.44,31.44,0,0,0-12.76-1.29,47.65,47.65,0,0,0-8.23,1.39c-6,1.61-11.3,4.88-16.65,8-2.83,1.63-6,2.78-8.94,4.13s-6.25,2.55-9.17,4.19a31.57,31.57,0,0,1-10.4,3.78,16.68,16.68,0,0,0-4.38,1.78c-1.21.6-2.24,1.61-3.49,2a5.08,5.08,0,0,0-3.16,2.33,2.7,2.7,0,0,1-2.27,1.4,19.9,19.9,0,0,1-2.78.21,22.09,22.09,0,0,0-9.14,1.79c-.93.4-2,.55-2.91.89a42.69,42.69,0,0,0-6.14,2.33,6.19,6.19,0,0,1-5.33.21,22.29,22.29,0,0,0-5.87-1.33,54.63,54.63,0,0,0-7.32.47,9.13,9.13,0,0,0-4.92,1.82,8,8,0,0,1-5.12,1.88,5,5,0,0,0-2.72,1.1,3.06,3.06,0,0,1-2.55.69c-2.66-.45-4.36.38-5.56,2.84a9.92,9.92,0,0,1-3.71,4c-2,1.31-3.94,2.61-5.8,4.07-.66.51-1.51,1.62-1.35,2.17.61,2,.1,3.79-.62,5.69a3.42,3.42,0,0,1,2.34,3.35,2.16,2.16,0,0,0,.47,1.41c1,.95.62,2.09.46,3.09a44.13,44.13,0,0,1-1.24,5.32,2.07,2.07,0,0,0,.8,2.47c1.84,1.16,3.78,2.17,5.69,3.22a19.94,19.94,0,0,0,1.83.81c1.7.71,3.4,1.41,5.09,2.13a5.66,5.66,0,0,1,1.72.86c3.37,3.25,7.16,5.6,12,6a6.81,6.81,0,0,1,1.23.28c5.23,1.51,10.58,1.29,15.83.53a99.39,99.39,0,0,0,17.14-4.48c4.24-1.42,8.59-2.55,12.75-4.2s8.28-3.78,12.37-5.79c3.26-1.59,6.39-3.43,9.69-4.94,2.82-1.28,5.79-2.25,8.7-3.35a3,3,0,0,1,1-.17,77.22,77.22,0,0,0,13.55-1.35c4.71-1,9.38-2,13.7-4.28,2.92-1.52,5.9-2.92,8.75-4.55a114.51,114.51,0,0,0,11.43-7,28.49,28.49,0,0,0,6.8-7.75c.61-1,.62-1.84-.92-2.55l3.41-1.51L678,456.14l1.38-3.62,1.55.18a2.31,2.31,0,0,1-.56,2.71,1.31,1.31,0,0,0,.09,2.2,7.16,7.16,0,0,0,1.27-1.63c.42-1.21,1.88-2.08,1.25-3.64,1.43-.6,1.55-2.19,2.43-3.21A5,5,0,0,0,683.82,441.38Z"/><path d="M676.52,436.71c.39,2.46.39,2.46,2.18,2-.28-2.36-1.85-3.72-4.56-3.92C674.57,436.29,674.57,436.29,676.52,436.71Z"/><path d="M502.94,484.38c-1.45-1.18-2.67-2.76-4-4.07-3.19-3.14-8.13-2.11-12.13-4.43-1.6-.92-2.82-2.89-4.33-3.49-2.39-.95-7,.08-9.44,0-1.8-.06-3.48-.61-5.13-.81-.61-.07-1.28-.51-1.94-.32-1.45.4-1.42,1.95-3.24,2.26-3.32.56-8.2-2.54-10.84-4.16-2.16-1.33-3-3.24-4.59-5.06-1.19-1.36-1.86-1.52-2.24-3.34a36.35,36.35,0,0,1-1.06-7.1c0-3.7,3.17-6.54,3.14-9.94,0-1.6-1.09-2.83-1.11-4.49,0-1.87.73-2.59,1.81-4s1.29-1.25,1-3.14a7.41,7.41,0,0,0-.19-1c10.4-9.54,20-20.68,26.57-26.78a25.86,25.86,0,0,0-4.46-6.75c.76-.91,1.94-2,1.87-3.2-.06-1-2-3-2.62-3.77-2.26-2.8-4.36-4.36-4-8.24.21-2.53,1.39-3.38.06-5.56-.61-1-1.31-2.24-2.54-2.29-1.48-.06-1.65,1.27-2.67,1.68-2.84,1.13-6.36-.74-9.3-.81a33,33,0,0,0-9.45.89c-2.19.58-2.93,2.16-5.14,1.92-3-.34-5.78-1.3-8.85-.58s-3.87,3-6.77,4.06a16.34,16.34,0,0,1-6.11.71c-3.55,0-7.11,0-10.66,0-2.53,0-4.45,1-6.89,1a5.76,5.76,0,0,1-.82-.06c-3.87-3.9-7.71-7.76-11.61-11.24a30.52,30.52,0,0,0-1.79-4.92,5.33,5.33,0,0,0-1.78-2.45c-1.27-1.09-3.1-2-3.95-3.42-1.42-2.42.11-5,1.74-6.91.8-.92,1.89-1.13,2.21-2.4.23-1-.39-2.06-.49-3-.2-2-.16-3.59,1-5.11,1.94-2.59,8.34-5.83,7.6-9.36a20.66,20.66,0,0,0-1.52-3.22,68.48,68.48,0,0,0,4.09-5.62,3.9,3.9,0,0,0,.46-.34,2,2,0,0,1-.1-.21c7-11.05,7.72-21.13-5.51-26.52-23.49-9.55-52,21.4-63.1,36.08-.54.71-1.13,1.5-1.74,2.33a10.18,10.18,0,0,0-2.11-6.28c-1.11-1.48-2.71-1.13-3.53.62a16.35,16.35,0,0,0-1,3.09c-.18.73-.32,1.43-1.18,1.79,0-1.28.31-2.52-.08-3.47-.46-1.12-1.76-1.87-2.28-3-.73-1.52-2.06-3.09-.93-4.94a5.65,5.65,0,0,0,0-6.21,17.87,17.87,0,0,1-2.31-7.2c-.36-3.7-.67-7.41-1-11.11-.68-6.91-4.27-12.19-9.57-16.34a61.21,61.21,0,0,0-7.57-4.55,6.83,6.83,0,0,1-3.5-4.73c-.42-2,.06-3.06,2-3.78,4.81-1.78,8.16-5.38,11.16-9.23a47.24,47.24,0,0,0,4.92-8.55c2.13-4.4,4-8.91,7.29-12.64a4,4,0,0,0,.66-1.36c.94-2.7,1.73-5.46,2.8-8.1s2.32-5.06,3.6-7.53c1.05-2,2.33-3.91,3.39-5.93,1.8-3.43,3.43-7,5.28-10.36a27.67,27.67,0,0,1,2.75-3.6c1.66-2.13,3.42-4.18,5-6.39,2.27-3.25,4.33-6.65,6.58-9.91,1.34-2,2.44-3.89,1.46-6.35a2.3,2.3,0,0,1,.93-2.91c2.19-1.31,3.38-3.52,5.17-5.15a9.65,9.65,0,0,0,2.78-4.45,17,17,0,0,1,1.42-3.78,104,104,0,0,0,6.22-12.17,67,67,0,0,0,5.16-16.38c.39-2.59.93-5.15,1.32-7.74.69-4.58,2.7-8.71,4.25-13a20.89,20.89,0,0,0,.81-12.9c-.75-2.83-2.21-4.86-5.23-5.56-1-.24-2.19-.38-2.69-1.72.31-.21.59-.56.84-.54a92.53,92.53,0,0,1,10,1.21c1.73.37,3.15.55,4.48-.61s2.59-2.39,3.85-3.62c1.08-1,2.16-2.11,3.15-3.24,1.15-1.33,2.23-2.72,3.31-4.11.62-.8,1.23-1.61,1.77-2.47q2.56-4.06,5.07-8.17c1.68-2.73,3.51-5.4,4.95-8.25,1.75-3.47,3.23-7.08,4.71-10.68a52.75,52.75,0,0,0,2.21-6.45c1.18-4.41,2.32-8.83,3.26-13.29.89-4.19,2-8.38,1.25-12.77a25,25,0,0,1,.06-4.23,4.47,4.47,0,0,0-.21-2c-1.79-3.31-3.93-6.44-7.42-8.08a28,28,0,0,0-11.25-2.77A14.54,14.54,0,0,1,385.76,2,8.89,8.89,0,0,0,377.86.3a21.22,21.22,0,0,0-14.49,12.07,30.42,30.42,0,0,1-2.21,4c-1.38,2.12-3,4.12-4.3,6.26-1.85,2.92-4,5.66-5.16,9a58.27,58.27,0,0,0-3.09,19.68,9.3,9.3,0,0,1-.45,3.25,45.32,45.32,0,0,0-2.72,16.17c0,6,.29,12,6,16,2.1,1.49,3.65,3.71,6.45,4.22a2.22,2.22,0,0,1,2.05,2.39c-4-1.92-8.08-1.87-12-2.78l-.19.51,4,2.4c-1.37,1-1.38,1-1.88.65s-1.07-.83-1.66-1.14c-2.25-1.17-2.84-1-4.31,1.2a8.17,8.17,0,0,0-2.67-.31,8.33,8.33,0,0,0-2.65,1.39c-.86.57-1.64,1.26-2.74,2.11-.57.88-1.11,2.64-2.25,3.21-1.61.8-.87,3-2.82,3.43.1-.91.3-2.07-1.42-1.37a2.07,2.07,0,0,1-.91,2.55c-1.42,1.14-2.81,2.41-2.85,4.54a2.87,2.87,0,0,1-.9,2c-1.58,1.14-1.76,3-2.72,4.47-.65,1-1.33,1.92-2,2.9a32.81,32.81,0,0,0-3.19,5,41.64,41.64,0,0,1-4.05,7.85,2.3,2.3,0,0,0-.48,1.4c.2,1.55-.67,2.5-1.55,3.57a28.76,28.76,0,0,0-2.09,3.47c-.38.64-.64,1.5-1.2,1.88a18.6,18.6,0,0,0-4.16,4.38,4.63,4.63,0,0,1-1.29,1.21c-2.32,1.27-2.93,3.17-2.05,5.57a2.18,2.18,0,0,1-.46,2.55,3.35,3.35,0,0,0-.76,4.16,2.51,2.51,0,0,1-.73,3.16,3.26,3.26,0,0,0-.91,2.46c.4,2-.4,3.37-1.73,4.71-.83.83-1.6,2-.94,3.2.92,1.69.06,2.61-1,3.72a10.72,10.72,0,0,0-3.18,6.21c-.43,3.57-.55,7.18-.87,10.76a4.44,4.44,0,0,1-.7,1.87c-1.3,2.06-2.94,3.95-3.94,6.14-1.36,2.95-3.16,5.74-3.53,9.13a15.12,15.12,0,0,1-1.53,4.77,32.41,32.41,0,0,0-2.87,8.08,9.92,9.92,0,0,1-2.27,4.72c-2.19,2.29-3.27,5.08-4.42,7.88-.51,1.25-.91,2.55-1.32,3.84a47.92,47.92,0,0,1-6.47,13.7A42.05,42.05,0,0,0,258.4,262c-2.3,5.12-5.46,9.28-11.22,10.79a5.16,5.16,0,0,0-2,1c-2.46,2.17-5.2,4.16-7.2,6.71-3.31,4.26-6.16,8.89-9.13,13.4a42.38,42.38,0,0,0-3.28,5.69c-2.82,6.27-3.9,12.93-4.42,19.68-2,1.7-4,3.43-6.52,4.27s-5.13.91-7.46,2.24c-3.33,1.91-6.57,5.5-7.58,9.16-1.57,5.7-1.35,11.39,4.79,13.49,1.85.63,4.11,1.74,5.78,2.18,2.81.72,5.67-.84,8.48-.95,2.47-.1,4.84-1,7.23-1.07,3.78-.11,5.65,2.52,8.62,4.11a18.93,18.93,0,0,0,4.49,1.65c3,4.18,5.87,8.4,8.78,12.62a3.3,3.3,0,0,1,.67,1.35c.55,4.67,2.84,8.32,6.06,11.66,2.27,2.35,4,5.22,6,7.84a13.41,13.41,0,0,0,1.86,2.05l.63.56c-15.2,1.62-30.17-.6-44.48,3.46a3.93,3.93,0,0,0-1.25-3.18,6.88,6.88,0,0,1-1.82-4.33A7.32,7.32,0,0,0,214,382.6a8,8,0,0,0-3.51-2.76,7,7,0,0,0-8.63,4.29,10.29,10.29,0,0,1-8.29,6.9,3.26,3.26,0,0,0-1.55.75c-2.58,2.51-5.93,2.79-9.18,3a25.88,25.88,0,0,0-13.72,4.67,7.83,7.83,0,0,1-2.43,1.26c-4.44,1.14-8.88,2.14-12.65-1.74-.28-.29-.75-.39-1.09-.64a13.45,13.45,0,0,1-2.54-2c-2.24-2.82-5-4.47-8.68-4.29a3.61,3.61,0,0,1-1.47-.32,4.74,4.74,0,0,0-3.93.22c-2.91,1.33-5.85,2.59-8.77,3.9-1.69.76-3.42,1.16-5.12.16-2.62-1.54-5.48-1.88-8.43-2.35a65,65,0,0,0-12.37-.76c-1.1,0-2.2.09-3.3,0-1.68-.1-3.15-.58-3.76-2.43a6.19,6.19,0,0,0-.85-1.55c-2.3-3.33-5.86-4.81-9.47-5.95a4.57,4.57,0,0,0-5.93,2.57,8.5,8.5,0,0,1-1.29,1.64c-1.6-.54-3-.95-4.3-1.48s-3.06-.94-4-1.94c-1.27-1.27-2.65-2.41-3.87-3.69-.23-.23-.44-.43-.65-.62.82-2.79.62-5.68,1.22-8.51.5-2.34,1.52-3.46,2.81-5.25a33.94,33.94,0,0,0,6.53-15.36,11.71,11.71,0,0,0-.38-6.16c-.66-1.82-1.34-2.76-1.43-4.64a23.76,23.76,0,0,1,.2-6c.6-2.64,2.44-4.8,3.11-7.43,1.56-6.1,1.77-10.63-.32-16.53-1.68-4.72-1.56-9.49-2.2-14.34s-.89-9.43-2.46-13.6c3.07-4.11,4.14-9.08,4.92-13.9a33.46,33.46,0,0,1,4.33-11.72c2.21-3.82,1.76-7.83,0-11.65-.66-1.42-1.4-2.75-1.2-4.3.36-2.78-.85-4.71-3-6.22a10.53,10.53,0,0,1-1.36-1.14c-1.73-1.74-3.18-3.57-1.9-6.24a2.21,2.21,0,0,0,.08-1c-.16-3.87-.78-7.57-3.68-10.49-1-1-1.72-2.11-2.7-3a9.58,9.58,0,0,1-2.45-4.36c-.62-2-1.21-4-2-6A26.59,26.59,0,0,0,58.1,194c-3-3.55-5.78-7.24-8.75-10.81-1.66-2-3.07-4.26-5.48-5.53a11.56,11.56,0,0,1-4.47-4.36,13.92,13.92,0,0,0-5.84-5.46c-1.6-.77-3.27-1.41-4.8-2.29-1.3-.73-2.9-1.47-3.56-2.65a5.35,5.35,0,0,0-6.09-3,22.07,22.07,0,0,0-4.3,1.34c-1.09.42-2.08,1.34-3.18,1.5-3.26.45-5.16,3.09-7.81,4.49a1.35,1.35,0,0,0-.56.81c-.58,2.72-1.18,5.43-1.64,8.17-.32,1.9-.47,3.84-.63,5.76a7.29,7.29,0,0,0,.2,2c.12.57.55,1.12.53,1.67-.15,3.45-.4,6.9-.59,10.35-.1,1.84-.65,3.85-.1,5.48a18.92,18.92,0,0,1,.34,9,54.4,54.4,0,0,0-.65,13.61,20,20,0,0,1-.35,6.31,13.88,13.88,0,0,0,.38,7.72A71.1,71.1,0,0,1,4.68,253a38.46,38.46,0,0,0,1.7,7.65c1.35,4.08,3,8.05,4.5,12.1a16.15,16.15,0,0,0,5,7.18,42.47,42.47,0,0,1,4.84,4.44c2.15,2.41,4.56,4.29,7.79,4.88a5.6,5.6,0,0,1,.73.21c.24,1.52.46,3,.67,4.56.94,7-.75,12.71-2.84,19.23-2.72,8.45.07,17.95,3.13,25.9,1.46,3.76-.69,7.22-1.16,11.17a33.18,33.18,0,0,0,.54,8.26c.38,2.83.28,5.65.66,8.45.58,4.33,3,7.65,6.35,10.38,1.46,1.18,3.27,2.22,4.74,3.53a17.54,17.54,0,0,0-3.36,7.47,3,3,0,0,1-.93,1.71c-1.74,1.46-2.68,3-1.53,4.9a42.53,42.53,0,0,0-2.82,5.37,39.67,39.67,0,0,0-1.5,6.42,17.53,17.53,0,0,0-.16,3.77c.19,4.51,2,8.49,4,12.42a3.57,3.57,0,0,0,1.12,1.34c1.92,1.25,3.9,2.41,5.87,3.62-.08,1.84.3,3.81-1.44,5.31-.39.33-.26,1.26-.38,1.91-.3,1.73-.58,3.47-.9,5.2-.25,1.4-.49,2.81-.83,4.19a19.23,19.23,0,0,1-1.31,4.29,7.21,7.21,0,0,0-1,4.61,2.73,2.73,0,0,1-1.11,2.89,3.76,3.76,0,0,0-1.38,3.1,21.38,21.38,0,0,1-.83,3.67c-.33,1.21-.69,2.43-1.14,3.61-1.06,2.83.24,5.76-.61,8.7-1.13,3.94-1.25,8.17-2.32,12.13a70.56,70.56,0,0,0-2.68,15.17c-.39,8.18-.8,16.36.27,24.54.7,5.37,1.16,10.76,1.83,16.13,1.1,8.78,2.84,17.34,8.27,24.69,2.36,3.19,4.47,6.57,6.75,9.82,1.6,2.27,3.29,4.49,5,6.7a22.24,22.24,0,0,0,3.21,3.85c4.82,4,9.76,7.8,14.68,11.65a3.67,3.67,0,0,0,1.6.71,21.81,21.81,0,0,0,5.5.72,6.1,6.1,0,0,1,6.06,2.73,7,7,0,0,0,4.92,2.8,19.92,19.92,0,0,1,10.28,5.09c2.64,2.49,5.69,3.19,8.84,3.94,1.7.4,3.55.17,5.3.4a53.2,53.2,0,0,1,7.22,1.27,10.07,10.07,0,0,0,5,.32c1.64-.38,3.25-.86,4.85-1.35a1.51,1.51,0,0,1,2,.62c.26.42.45.87.72,1.38a63.08,63.08,0,0,0,13.05-1.85,4.57,4.57,0,0,0,3.75-3.42,1.07,1.07,0,0,1,.4-.49c3,1.25,5.7,2.58,8.55,3.55a9,9,0,0,0,8.45-1.16,7.84,7.84,0,0,1,1.41-.61c.31.54.57,1,.8,1.4s.41.92.63,1.38A40.63,40.63,0,0,1,170,634.81c0,2-.16,4.05-.14,6.08,0,2.7,0,5.41.28,8.09s.77,5.51,1.16,8.26a5.63,5.63,0,0,0,.2,1.25c1.73,4.47,1.79,9.27,2.92,13.86a23.48,23.48,0,0,0,1.63,4.21c2.08,4.52,5.66,8,8.7,11.8a18.14,18.14,0,0,0,3.31,3.12,4.31,4.31,0,0,0,3.79,1,20.59,20.59,0,0,0,3.79-1.36,3.76,3.76,0,0,1,4.06.28,5.36,5.36,0,0,0,3.35.7,7.55,7.55,0,0,1,3.86.78c2.38,1.34,4.68,2.68,7.47,3a34.44,34.44,0,0,1,4.76,1.36c-.59-1.45-.08-1.9,1-2a1.85,1.85,0,0,0,1.18-.37c1-1.16,1.91-.69,2.94-.16,1.76.89,3.49,1.17,5.2-.23.32-.26,1,0,1.45,0,.16,2.58-1,4.73-.53,7a3.33,3.33,0,0,1-.19,1.23,3,3,0,0,0,2.09,3.71c1.58.52,2.44-.08,2.49-1.76,0-1.22,0-2.43,0-3.75-1.72-.94-1.72-2.56-1.57-4.43.19-2.45.08-4.88,2.67-6.3.38-.21.5-.84.81-1.23a6.73,6.73,0,0,1,1.49-1.68c1-.62,2.09-1,2.64-2.22a1.44,1.44,0,0,1,1.29-.52c1.47.41,2.9,1,4.55,1.56l1.34-1.73a7.43,7.43,0,0,1,4.38,1.94,4,4,0,0,1,1.52,3.81,1.64,1.64,0,0,0,.32.94,3,3,0,0,0,3.52,1.28c1.29-.42,1.3-1.32,1.07-2.44a13.37,13.37,0,0,1-.14-2.38c-1-.89-2-1.42-2.35-2.24-1.2-2.52-.73-5.26-.58-7.93,0-.51.52-1,.61-1.18l4.93-.56-.54-1.5c.43-.06.95,0,1-.16,1.18-2.06,2.87-1.13,4.43-.78,1.08.24,2.21.45,3.22.7,1.46.37,1.4-1.28,2.14-1.07,1.29.38,1.92-.46,2.63-1.27.85,1.95.85,1.95,1.95,2.58-.43-1.68,1.42-2.67.62-4.36l2.06-.45c.33-1.55,2.89-5.62,4-5.76,1.38-.17,2.89-1.12,4.12-.09.29.8.47,1.46.76,2.07.66,1.38,1.71,2.68,2,4.13a3,3,0,0,0,1.91,2.38c1.92,1,4,.69,6,.63,5.54-.19,9.71-2.56,12-7.82a7.27,7.27,0,0,1,4.44-4.25c1.12-.38,2.27-.68,3.38-1.09a11.48,11.48,0,0,0,3-1.33c2.48-1.89,4.88-3.9,7.26-5.93,2.19-1.85,4.33-3.76,6.44-5.7,1.42-1.31,2.68-2.8,4.13-4.08a19.15,19.15,0,0,1,4.59-3.47,36.22,36.22,0,0,0,11.76-8.21c4.29-4.42,8.35-9.12,14.07-11.84a2.87,2.87,0,0,0,.4-.31c2.4-1.86,4.69-3.9,7.24-5.53,6.17-4,10.77-9.4,14.85-15.36a11.41,11.41,0,0,1,1.27-1.58c4.79-4.89,9.59-9.76,13.52-15.43,2.64-3.82,6.51-6.27,10.6-8.35a28.79,28.79,0,0,0,4.46-2.38c3.08-2.36,5.93-5,9-7.37s5.5-5.73,8.93-7.85a12,12,0,0,0,3.56-3.21c1.66-2.37,3-5,4.46-7.48a27.43,27.43,0,0,1,1.58-2.81c.89-1.17,1.81-2.32,2.74-3.47,3.33-.86,6.5-1.82,9.36-2.76,2.6-.85,5.93-1.46,8-3.33,1.52-1.38,1.75-2.87,2.61-4.55,1.88-3.67,5.83-5.47,9.54-6.88,2.64-1,9.07-1,11.41-2.82,1.53-1.18,1.75-3.08,1.78-4.95,5.54-3.48,9.54-7.44,10.6-11.91a5.88,5.88,0,0,0,1.63-1.17c.93-1,.75-1.11.8-2.71.1-3.3-1.31-6.35-2-9.53C504.5,485.36,504.58,485.7,502.94,484.38ZM321.22,338.77c-.45.64-.91,1.29-1.37,2-.59-.67-1.19-1.34-1.78-2C319.38,337.07,320.22,338.33,321.22,338.77Zm-10.78-3c-.85-2.51-2-3.15-4.61-3.06h0C308.4,332.65,309.59,333.29,310.44,335.8Zm-4.61-3.06h0c.46-.44,1-.85.65-1.53C306.85,331.9,306.29,332.3,305.83,332.74ZM172.88,439c.92-1.51,2.18-2.89,2.73-4.51a4.7,4.7,0,0,1,1.63-2.36c-1.65,3-3.24,6.1-4.85,9.35A3.31,3.31,0,0,1,172.88,439Z"/></g></g></svg>