<svg xmlns="http://www.w3.org/2000/svg" viewBox="0 0 51.37 61.2"><defs><style>.cls-1{fill:#6ba342;}</style></defs><title>Asset 4</title><g id="Layer_2" data-name="Layer 2"><g id="Layer_1-2" data-name="Layer 1"><path class="cls-1" d="M50.75,7.21a2.5,2.5,0,0,1,0,2.54c-.83,1.14-3.92,1.71-3.18-2,.36-1.82,1-4.18-.22-5.83S43.56-.18,41.54.09s-4.46,1-5.74,2.79c0,0-2.41,3.1-3.12,4.16S31,9.32,27.74,17.09A114.14,114.14,0,0,1,6.62,52.44C-.09,59.86,0,60.13,0,60.13s-.11.92,1.24,1.07a4.26,4.26,0,0,1,1.45-.58c.56,0,5.39.28,7.84.19s5.67-1,10.1-4.71a51.84,51.84,0,0,0,7.07-7.44,56.51,56.51,0,0,0,7.88-12.85,38.3,38.3,0,0,0,3-15.27,74.33,74.33,0,0,0-1.4-15.33c-.06-.29-.12-.58-.19-.87a3.79,3.79,0,0,1-.14-.48,1.31,1.31,0,0,1,.55-1.07A8.16,8.16,0,0,1,44.63,1.5a3.74,3.74,0,0,1,1.94,1.17c1.2,1.51.59,3.9.27,5.6,0,0-.49,2.61,1.56,2.76a2.68,2.68,0,0,0,2.86-1.65S51.72,8.51,50.75,7.21Zm-40.94,53-2.23-.13S6,59.62,9.17,59.8a12.79,12.79,0,0,0,2.92-.18,31.61,31.61,0,0,0,4.14-1.13A12.28,12.28,0,0,1,9.81,60.18ZM22.63,50a1.59,1.59,0,0,1-2.2-.17,1.5,1.5,0,0,1,.2-2.14,1.59,1.59,0,0,1,2.2.17A1.5,1.5,0,0,1,22.63,50ZM30,40a2.06,2.06,0,0,1-2.84-.22A1.92,1.92,0,0,1,27.38,37a2.06,2.06,0,0,1,2.85.22A1.93,1.93,0,0,1,30,40Zm3.49-9.94a1.4,1.4,0,0,1-1.94-.15,1.32,1.32,0,0,1,.18-1.88,1.39,1.39,0,0,1,1.94.15A1.3,1.3,0,0,1,33.45,30.08Zm2.7-7.77a1,1,0,0,1-1.42-.11,1,1,0,0,1,.13-1.39,1,1,0,0,1,1.42.11A1,1,0,0,1,36.15,22.31Zm.37-5.87a1,1,0,0,1-1.42-.11,1,1,0,0,1,.13-1.39,1,1,0,0,1,1.42.11A1,1,0,0,1,36.52,16.44Zm.69-3.36L35.64,4.92s.17-.7.57-.07S37.21,13.08,37.21,13.08Z"/></g></g></svg>